<?xml version="1.0" encoding="utf-8"?>
<!-- Generator: Adobe Illustrator 23.0.1, SVG Export Plug-In . SVG Version: 6.00 Build 0)  -->
<svg version="1.1" id="图层_1" xmlns="http://www.w3.org/2000/svg" xmlns:xlink="http://www.w3.org/1999/xlink" x="0px" y="0px"
	 viewBox="0 0 2196.7 1625.4" style="enable-background:new 0 0 2196.7 1625.4;" xml:space="preserve">
<style type="text/css">
	.st0{clip-path:url(#SVGID_2_);}
	.st1{fill:#FFD25B;}
	.st2{opacity:0.69;fill:#F6AB40;enable-background:new    ;}
	.st3{opacity:0.69;fill-rule:evenodd;clip-rule:evenodd;fill:#F6AB40;enable-background:new    ;}
	.st4{fill:#FD4C8E;}
	.st5{fill:#0DB2F3;}
	.st6{fill-rule:evenodd;clip-rule:evenodd;fill:#09A6DF;}
	.st7{clip-path:url(#SVGID_4_);}
	.st8{fill:none;stroke:#FFFFFF;stroke-miterlimit:10;}
	.st9{fill:#FFFFFF;stroke:#FFFFFF;stroke-width:0.5;stroke-miterlimit:10;}
	.st10{fill:#FFFFFF;}
	.st11{fill:#41C2F0;}
	.st12{fill:none;stroke:#FFFFFF;stroke-width:4;stroke-miterlimit:10;}
</style>
<title>资源 72</title>
<g>
	<g id="图层_3">
		<g>
			<defs>
				<rect id="SVGID_1_" width="2196.7" height="1625.4"/>
			</defs>
			<clipPath id="SVGID_2_">
				<use xlink:href="#SVGID_1_"  style="overflow:visible;"/>
			</clipPath>
			<g class="st0">
				<rect class="st1" width="2196.7" height="1625.4"/>
				<path class="st2" d="M710.5,1624.2l414.5-460c19.6-21.8,19.6-57.1,0-78.9s-51.4-21.8-71,0l-124.1,137.7
					c-19.6,21.8-51.5,21.8-71,0c-19.5-21.8-19.6-57.1,0-78.8l5.4-6c19.6-21.8,19.6-57.1,0-78.9s-51.5-21.8-71,0l-52.1,57.7
					c-19.6,21.8-51.5,21.8-71,0s-19.6-57.1,0-78.9l-5.2,5.8c19.6-21.8,19.6-57.1,0-78.8c-19.6-21.7-51.5-21.8-71,0l-304.3,337.8
					l-24.1,26.8l-28.4,31.6l-237,263H710.5z"/>
				<polygon class="st3" points="1194.2,3.5 605.5,3.5 3.9,671.2 4.2,1324.2 				"/>
				<path class="st4" d="M320,1140.9c-143.3-111.2-60.1-253.9-9.8-408.3S207.1,464.8,61.6,556.1C38.9,570.3,18.4,577.3,0,579v1046.3
					h777.3c2.6-44.7,7.4-89.3,14.5-133.5C856.3,1081,463.4,1252.2,320,1140.9z"/>
				<path class="st5" d="M2226,0h-280.3c87.5,422-292.8,243.8-450.7,248.5c-132.7,4-249.3,146.4-184.7,320.5s210.6,128.5,85.1,481.3
					c-116.7,327.8,35.1,575,35.1,575H2226V0z"/>
				<polygon class="st6" points="1006.5,1625.2 1595.2,1625.2 2196.7,957.6 2196.4,304.5 				"/>
				<g>
					<defs>
						<rect id="SVGID_3_" width="2196.7" height="1625.4"/>
					</defs>
					<clipPath id="SVGID_4_">
						<use xlink:href="#SVGID_3_"  style="overflow:visible;"/>
					</clipPath>
					<g class="st7">
						<path class="st8" d="M1946.9,1625.4c0,136.2-99.4,246.5-222.1,246.5s-222.2-110.4-222.2-246.5s99.4-246.5,222.1-246.5
							S1946.9,1489.2,1946.9,1625.4z"/>
						<path class="st8" d="M1933.2,1625.4c0,127.8-93.3,231.3-208.4,231.3s-208.4-103.5-208.4-231.3s93.3-231.3,208.4-231.3
							S1933.2,1497.6,1933.2,1625.4z"/>
						<path class="st8" d="M1919.6,1625.4c0,119.4-87.2,216.2-194.8,216.2s-194.8-96.8-194.8-216.2s87.2-216.2,194.8-216.2
							S1919.6,1506,1919.6,1625.4z"/>
						<path class="st8" d="M1905.9,1625.4c0,111-81.1,200.9-181.1,200.9c-100,0-181.1-90-181.1-200.9s81.1-200.9,181.1-200.9
							C1824.8,1424.4,1905.9,1514.4,1905.9,1625.4z"/>
						<path class="st8" d="M1892.2,1625.4c0,102.6-75,185.8-167.4,185.8c-92.5,0-167.4-83.2-167.4-185.8s75-185.8,167.4-185.8
							C1817.3,1439.5,1892.2,1522.7,1892.2,1625.4z"/>
						<path class="st8" d="M1878.5,1625.4c0,94.2-68.8,170.6-153.7,170.6s-153.7-76.4-153.7-170.6s68.9-170.6,153.7-170.6
							C1809.7,1454.7,1878.5,1531.1,1878.5,1625.4z"/>
						<path class="st8" d="M1864.9,1625.4c0,85.9-62.7,155.5-140.1,155.5c-77.4,0-140.1-69.6-140.1-155.5s62.7-155.5,140.1-155.5
							C1802.1,1469.9,1864.9,1539.5,1864.9,1625.4z"/>
						<path class="st8" d="M1851.2,1625.4c0,77.5-56.6,140.3-126.4,140.3s-126.4-62.8-126.4-140.3s56.6-140.3,126.4-140.3
							S1851.2,1547.9,1851.2,1625.4z"/>
						<path class="st8" d="M1837.5,1625.4c0,69.1-50.5,125.1-112.7,125.1s-112.7-56-112.7-125.1s50.5-125.1,112.7-125.1
							S1837.5,1556.3,1837.5,1625.4z"/>
						<path class="st8" d="M1823.8,1625.4c0,60.7-44.3,109.9-99,109.9s-99-49.2-99-109.9s44.3-109.9,99-109.9
							S1823.8,1564.6,1823.8,1625.4z"/>
						<path class="st8" d="M1810.2,1625.4c0,52.3-38.2,94.8-85.4,94.8s-85.4-42.4-85.4-94.8s38.2-94.8,85.4-94.8
							S1810.2,1573,1810.2,1625.4z"/>
						<path class="st8" d="M1796.5,1625.4c0,44-32.1,79.6-71.7,79.6c-39.6,0-71.7-35.7-71.7-79.6s32-79.6,71.7-79.6
							C1764.5,1545.8,1796.5,1581.4,1796.5,1625.4z"/>
						<path class="st8" d="M222.1,233.1c0,136.2-99.4,246.5-222.1,246.5s-222.1-110.4-222.1-246.5S-122.7-13.4,0-13.4
							S222.1,97,222.1,233.1z"/>
						<path class="st8" d="M208.4,233.1c0,127.8-93.3,231.4-208.4,231.4s-208.4-103.6-208.4-231.4S-115.1,1.8,0,1.8
							S208.4,105.3,208.4,233.1z"/>
						<path class="st8" d="M194.8,233.1c0,119.4-87.2,216.2-194.8,216.2s-194.8-96.8-194.8-216.2S-107.6,16.9,0,16.9
							S194.8,113.7,194.8,233.1z"/>
						<path class="st8" d="M181.1,233.1c0,111-81.1,201-181.1,201s-181.1-90-181.1-200.9S-100,32.2,0,32.2S181.1,122.1,181.1,233.1z
							"/>
						<path class="st8" d="M167.5,233.1c0,102.6-75,185.8-167.4,185.8s-167.4-83.2-167.4-185.8S-92.5,47.3,0,47.3
							S167.5,130.5,167.5,233.1z"/>
						<path class="st8" d="M153.7,233.1c0,94.3-68.8,170.6-153.7,170.6s-153.7-76.4-153.7-170.6S-84.9,62.5,0,62.5
							S153.7,138.9,153.7,233.1z"/>
						<path class="st8" d="M140.1,233.1C140.1,319,77.4,388.6,0,388.6S-140.1,319-140.1,233.1S-77.4,77.7,0,77.7
							S140.1,147.2,140.1,233.1z"/>
						<path class="st8" d="M126.4,233.1c0,77.5-56.6,140.3-126.4,140.3s-126.4-62.8-126.4-140.3S-69.8,92.8,0,92.8
							S126.4,155.6,126.4,233.1z"/>
						<path class="st8" d="M112.7,233.1c0,69.1-50.5,125.1-112.7,125.1s-112.7-56-112.7-125.1S-62.3,108,0,108
							S112.7,164,112.7,233.1z"/>
						<path class="st8" d="M99,233.1C99,293.8,54.7,343,0,343s-99-49.2-99-109.9s44.3-109.9,99-109.9S99,172.4,99,233.1z"/>
						<path class="st8" d="M85.4,233.1c0,52.3-38.2,94.8-85.4,94.8s-85.4-42.4-85.4-94.8s38.2-94.7,85.4-94.7S85.4,180.8,85.4,233.1
							z"/>
						<path class="st8" d="M71.7,233.1c0,44-32.1,79.6-71.7,79.6s-71.7-35.6-71.7-79.6s32.1-79.6,71.7-79.6S71.7,189.2,71.7,233.1z"
							/>
					</g>
				</g>
				<polygon class="st4" points="1635.8,889.9 1690.1,906.1 1744.4,922.2 1704.7,966.3 1664.9,1010.4 1650.4,950.2 				"/>
				<path class="st9" d="M444,351.9c-115.2,232.8,242.9,393,292.8,116.4c49.9-276.6,136.8-276.5,290.4-247.4
					c138.7,26.3,386,21.1,314-220.1H366.7C366.7,0.8,559.2,119,444,351.9z"/>
				<path class="st5" d="M599,873.2c-0.1,2.5-2.2,4.4-4.6,4.2c-2.4-0.1-4.2-2.3-4.1-4.7c0.1-2.4,2-4.2,4.3-4.2
					C597.2,868.5,599.1,870.6,599,873.2z"/>
				<path class="st5" d="M635.2,873.2c-0.1,2.5-2.2,4.4-4.6,4.2s-4.2-2.3-4-4.7c0.1-2.4,2-4.2,4.3-4.2
					C633.4,868.5,635.3,870.6,635.2,873.2z"/>
				<path class="st5" d="M671.4,873.2c-0.1,2.5-2.2,4.4-4.6,4.2s-4.2-2.3-4.1-4.7c0.1-2.4,2-4.2,4.3-4.2
					C669.6,868.5,671.5,870.6,671.4,873.2z"/>
				<path class="st5" d="M707.6,873.2c-0.1,2.5-2.2,4.4-4.6,4.2c-2.4-0.1-4.2-2.3-4.1-4.7c0.1-2.4,2-4.2,4.3-4.2
					C705.7,868.5,707.7,870.6,707.6,873.2z"/>
				<path class="st5" d="M743.8,873.2c-0.1,2.5-2.2,4.4-4.6,4.2c-2.4-0.1-4.2-2.3-4.1-4.7c0.1-2.4,2-4.2,4.3-4.2
					C741.9,868.5,743.8,870.6,743.8,873.2z"/>
				<path class="st5" d="M599,909.3c-0.1,2.5-2.2,4.4-4.6,4.2c-2.4-0.1-4.2-2.3-4.1-4.7c0.1-2.4,2-4.2,4.3-4.2
					C597.2,904.6,599.1,906.7,599,909.3z"/>
				<path class="st5" d="M635.2,909.3c-0.1,2.5-2.2,4.4-4.6,4.2s-4.2-2.3-4-4.7c0.1-2.4,2-4.2,4.3-4.2
					C633.4,904.6,635.3,906.7,635.2,909.3z"/>
				<path class="st5" d="M671.4,909.3c-0.1,2.5-2.2,4.4-4.6,4.2s-4.2-2.3-4.1-4.7c0.1-2.4,2-4.2,4.3-4.2
					C669.6,904.6,671.5,906.7,671.4,909.3z"/>
				<path class="st5" d="M707.6,909.3c-0.1,2.5-2.2,4.4-4.6,4.2c-2.4-0.1-4.2-2.3-4.1-4.7c0.1-2.4,2-4.2,4.3-4.2
					C705.7,904.6,707.7,906.7,707.6,909.3z"/>
				<path class="st5" d="M743.8,909.3c-0.1,2.5-2.2,4.4-4.6,4.2c-2.4-0.1-4.2-2.3-4.1-4.7c0.1-2.4,2-4.2,4.3-4.2
					C741.9,904.6,743.8,906.7,743.8,909.3z"/>
				<path class="st5" d="M599,945.4c-0.1,2.5-2.2,4.4-4.6,4.2c-2.4-0.1-4.2-2.3-4.1-4.7c0.1-2.4,2-4.2,4.3-4.2
					C597.2,940.7,599.1,942.8,599,945.4z"/>
				<path class="st5" d="M635.2,945.4c-0.1,2.5-2.2,4.4-4.6,4.2s-4.2-2.3-4-4.7c0.1-2.4,2-4.2,4.3-4.2
					C633.4,940.7,635.3,942.8,635.2,945.4z"/>
				<path class="st5" d="M671.4,945.4c-0.1,2.5-2.2,4.4-4.6,4.2c-2.4-0.1-4.2-2.3-4.1-4.7c0.1-2.4,2-4.2,4.3-4.2
					C669.6,940.7,671.5,942.8,671.4,945.4z"/>
				<path class="st5" d="M707.6,945.4c-0.1,2.5-2.2,4.4-4.6,4.2c-2.4-0.1-4.2-2.3-4.1-4.7c0.1-2.4,2-4.2,4.3-4.2
					C705.7,940.7,707.7,942.8,707.6,945.4z"/>
				<path class="st5" d="M743.8,945.4c-0.1,2.5-2.2,4.4-4.6,4.2c-2.4-0.1-4.2-2.3-4.1-4.7c0.1-2.4,2-4.2,4.3-4.2
					C741.9,940.7,743.8,942.8,743.8,945.4z"/>
				<path class="st5" d="M599,981.5c-0.1,2.5-2.2,4.4-4.6,4.2c-2.4-0.1-4.2-2.3-4.1-4.7c0.1-2.4,2-4.2,4.3-4.2
					C597.2,976.8,599.1,978.9,599,981.5z"/>
				<path class="st5" d="M635.2,981.5c-0.1,2.5-2.2,4.4-4.6,4.2c-2.4-0.2-4.2-2.3-4-4.7c0.1-2.4,2-4.2,4.3-4.2
					C633.4,976.8,635.3,978.9,635.2,981.5z"/>
				<path class="st5" d="M671.4,981.5c-0.1,2.5-2.2,4.4-4.6,4.2c-2.4-0.1-4.2-2.3-4.1-4.7c0.1-2.4,2-4.2,4.3-4.2
					C669.6,976.8,671.5,978.9,671.4,981.5z"/>
				<path class="st5" d="M707.6,981.5c-0.1,2.5-2.2,4.4-4.6,4.2c-2.4-0.1-4.2-2.3-4.1-4.7c0.1-2.4,2-4.2,4.3-4.2
					C705.7,976.8,707.7,978.9,707.6,981.5z"/>
				<path class="st5" d="M743.8,981.5c-0.1,2.5-2.2,4.4-4.6,4.2c-2.4-0.1-4.2-2.3-4.1-4.7c0.1-2.4,2-4.2,4.3-4.2
					C741.9,976.8,743.8,978.9,743.8,981.5z"/>
				<path class="st5" d="M599,1017.6c-0.1,2.5-2.2,4.4-4.6,4.2c-2.4-0.1-4.2-2.3-4.1-4.7c0.1-2.4,2-4.2,4.3-4.2
					C597.2,1012.9,599.1,1015,599,1017.6z"/>
				<path class="st5" d="M635.2,1017.6c-0.1,2.5-2.2,4.4-4.6,4.2c-2.4-0.2-4.2-2.3-4-4.7c0.1-2.4,2-4.2,4.3-4.2
					C633.4,1012.9,635.3,1015,635.2,1017.6z"/>
				<path class="st5" d="M671.4,1017.6c-0.1,2.5-2.2,4.4-4.6,4.2c-2.4-0.1-4.2-2.3-4.1-4.7c0.1-2.4,2-4.2,4.3-4.2
					C669.6,1012.9,671.5,1015,671.4,1017.6z"/>
				<path class="st5" d="M707.6,1017.6c-0.1,2.5-2.2,4.4-4.6,4.2c-2.4-0.1-4.2-2.3-4.1-4.7c0.1-2.4,2-4.2,4.3-4.2
					C705.7,1012.9,707.7,1015,707.6,1017.6z"/>
				<path class="st5" d="M743.8,1017.6c-0.1,2.5-2.2,4.4-4.6,4.2c-2.4-0.1-4.2-2.3-4.1-4.7c0.1-2.4,2-4.2,4.3-4.2
					C741.9,1012.9,743.8,1015,743.8,1017.6z"/>
				<rect x="711.7" y="848.5" class="st4" width="50" height="55.5"/>
				<path class="st9" d="M1419.4,380.7c-0.1,2.5-2.2,4.4-4.6,4.2s-4.2-2.3-4.1-4.7c0.1-2.4,2-4.2,4.3-4.2
					C1417.5,376,1419.4,378.2,1419.4,380.7z"/>
				<path class="st9" d="M1455.5,380.7c-0.1,2.5-2.2,4.4-4.6,4.2c-2.4-0.1-4.2-2.3-4.1-4.7c0.1-2.4,2-4.2,4.3-4.2
					C1453.7,376,1455.6,378.2,1455.5,380.7z"/>
				<path class="st9" d="M1491.7,380.7c-0.1,2.5-2.2,4.4-4.6,4.2c-2.4-0.1-4.2-2.3-4.1-4.7c0.1-2.4,2-4.2,4.3-4.2
					C1489.9,376.1,1491.8,378.2,1491.7,380.7z"/>
				<path class="st9" d="M1527.9,380.7c-0.1,2.5-2.2,4.4-4.6,4.2s-4.2-2.3-4.1-4.7c0.1-2.4,2-4.2,4.3-4.2
					C1526.1,376.1,1528,378.2,1527.9,380.7z"/>
				<path class="st9" d="M1564.1,380.7c-0.1,2.5-2.2,4.4-4.6,4.2c-2.4-0.1-4.2-2.3-4.1-4.7c0.1-2.4,2-4.2,4.3-4.2
					C1562.2,376.1,1564.2,378.2,1564.1,380.7z"/>
				<path class="st9" d="M1419.4,416.8c-0.1,2.5-2.2,4.4-4.6,4.2c-2.4-0.1-4.2-2.3-4.1-4.7c0.1-2.4,2-4.2,4.3-4.2
					C1417.5,412.2,1419.4,414.3,1419.4,416.8z"/>
				<path class="st9" d="M1455.5,416.8c-0.1,2.5-2.2,4.4-4.6,4.2c-2.4-0.1-4.2-2.3-4.1-4.7c0.1-2.4,2-4.2,4.3-4.2
					C1453.7,412.2,1455.6,414.3,1455.5,416.8z"/>
				<path class="st9" d="M1491.7,416.8c-0.1,2.5-2.2,4.4-4.6,4.2c-2.4-0.1-4.2-2.3-4.1-4.7c0.1-2.4,2-4.2,4.3-4.2
					C1489.9,412.2,1491.8,414.3,1491.7,416.8z"/>
				<path class="st9" d="M1527.9,416.8c-0.1,2.5-2.2,4.4-4.6,4.2c-2.4-0.1-4.2-2.3-4.1-4.7c0.1-2.4,2-4.2,4.3-4.2
					C1526.1,412.2,1528,414.3,1527.9,416.8z"/>
				<path class="st9" d="M1564.1,416.8c-0.1,2.5-2.2,4.4-4.6,4.2c-2.4-0.1-4.2-2.3-4.1-4.7c0.1-2.4,2-4.2,4.3-4.2
					C1562.2,412.2,1564.2,414.3,1564.1,416.8z"/>
				<path class="st9" d="M1419.4,452.9c-0.1,2.5-2.2,4.4-4.6,4.2c-2.4-0.1-4.2-2.3-4.1-4.7c0.1-2.4,2-4.2,4.3-4.2
					C1417.5,448.3,1419.4,450.4,1419.4,452.9z"/>
				<path class="st9" d="M1455.5,452.9c-0.1,2.5-2.2,4.4-4.6,4.2c-2.4-0.1-4.2-2.3-4.1-4.7c0.1-2.4,2-4.2,4.3-4.2
					C1453.7,448.3,1455.6,450.4,1455.5,452.9z"/>
				<path class="st9" d="M1491.7,452.9c-0.1,2.5-2.2,4.4-4.6,4.2c-2.4-0.1-4.2-2.3-4.1-4.7c0.1-2.4,2-4.2,4.3-4.2
					C1489.9,448.3,1491.8,450.4,1491.7,452.9z"/>
				<path class="st9" d="M1527.9,452.9c-0.1,2.5-2.2,4.4-4.6,4.2c-2.4-0.1-4.2-2.3-4.1-4.7c0.1-2.4,2-4.2,4.3-4.2
					C1526.1,448.3,1528,450.4,1527.9,452.9z"/>
				<path class="st9" d="M1564.1,452.9c-0.1,2.5-2.2,4.4-4.6,4.2c-2.4-0.1-4.2-2.3-4.1-4.7c0.1-2.4,2-4.2,4.3-4.2
					C1562.2,448.3,1564.2,450.4,1564.1,452.9z"/>
				<path class="st9" d="M1419.4,489c-0.1,2.5-2.2,4.4-4.6,4.2c-2.4-0.1-4.2-2.3-4.1-4.7c0.1-2.4,2-4.2,4.3-4.2
					C1417.5,484.4,1419.4,486.5,1419.4,489z"/>
				<path class="st9" d="M1455.5,489c-0.1,2.5-2.2,4.4-4.6,4.2c-2.4-0.1-4.2-2.3-4.1-4.7c0.1-2.4,2-4.2,4.3-4.2
					C1453.7,484.4,1455.6,486.5,1455.5,489z"/>
				<path class="st9" d="M1491.7,489c-0.1,2.5-2.2,4.4-4.6,4.2c-2.4-0.1-4.2-2.3-4.1-4.7c0.1-2.4,2-4.2,4.3-4.2
					C1489.9,484.4,1491.8,486.5,1491.7,489z"/>
				<path class="st9" d="M1527.9,489c-0.1,2.5-2.2,4.4-4.6,4.2c-2.4-0.1-4.2-2.3-4.1-4.7c0.1-2.4,2-4.2,4.3-4.2
					C1526.1,484.4,1528,486.5,1527.9,489z"/>
				<path class="st9" d="M1564.1,489c-0.1,2.5-2.2,4.4-4.6,4.2c-2.4-0.1-4.2-2.3-4.1-4.7c0.1-2.4,2-4.2,4.3-4.2
					C1562.2,484.4,1564.2,486.5,1564.1,489z"/>
				<path class="st9" d="M1419.4,525.1c-0.1,2.5-2.2,4.4-4.6,4.2c-2.4-0.1-4.2-2.3-4.1-4.7c0.1-2.4,2-4.2,4.3-4.2
					C1417.5,520.5,1419.4,522.6,1419.4,525.1z"/>
				<path class="st9" d="M1455.5,525.1c-0.1,2.5-2.2,4.4-4.6,4.2c-2.4-0.1-4.2-2.3-4.1-4.7c0.1-2.4,2-4.2,4.3-4.2
					C1453.7,520.5,1455.6,522.6,1455.5,525.1z"/>
				<path class="st9" d="M1491.7,525.1c-0.1,2.5-2.2,4.4-4.6,4.2c-2.4-0.1-4.2-2.3-4.1-4.7c0.1-2.4,2-4.2,4.3-4.2
					C1489.9,520.5,1491.8,522.6,1491.7,525.1z"/>
				<path class="st9" d="M1527.9,525.1c-0.1,2.5-2.2,4.4-4.6,4.2c-2.4-0.1-4.2-2.3-4.1-4.7c0.1-2.4,2-4.2,4.3-4.2
					C1526.1,520.5,1528,522.6,1527.9,525.1z"/>
				<path class="st9" d="M1564.1,525.1c-0.1,2.5-2.2,4.4-4.6,4.2c-2.4-0.1-4.2-2.3-4.1-4.7c0.1-2.4,2-4.2,4.3-4.2
					C1562.2,520.5,1564.2,522.6,1564.1,525.1z"/>
				<path class="st10" d="M1567.1,687.5c-0.6,0-1.3-0.3-1.7-0.8l-18-20c-0.9-1.1-0.9-2.7,0-3.7c0.9-1,2.3-1,3.2-0.1
					c0,0,0.1,0.1,0.1,0.1l18,20c0.9,1.1,0.9,2.7,0,3.7C1568.4,687.2,1567.8,687.5,1567.1,687.5z"/>
				<path class="st10" d="M1549.1,687.5c-0.6,0-1.3-0.3-1.7-0.8c-0.9-1.1-0.9-2.7,0-3.7l18-20c0.8-1,2.3-1.1,3.2-0.2
					c0.1,0.1,0.1,0.1,0.2,0.2c0.9,1.1,0.9,2.7,0,3.7l-18,20C1550.4,687.2,1549.8,687.5,1549.1,687.5z"/>
				<path class="st10" d="M1616.9,687.5c-0.6,0-1.3-0.3-1.7-0.8l-18-20c-0.9-1.1-0.9-2.7,0-3.7c0.8-1,2.3-1.1,3.2-0.2
					c0.1,0.1,0.1,0.1,0.2,0.2l18,20c0.9,1.1,0.9,2.7,0,3.7C1618.2,687.2,1617.5,687.5,1616.9,687.5z"/>
				<path class="st10" d="M1598.9,687.5c-0.6,0-1.3-0.3-1.7-0.8c-0.9-1.1-0.9-2.7,0-3.7l18-20c0.8-1,2.3-1.1,3.2-0.2
					c0.1,0.1,0.1,0.1,0.2,0.2c0.9,1.1,0.9,2.7,0,3.7l-18,20C1600.2,687.2,1599.5,687.5,1598.9,687.5z"/>
				<path class="st10" d="M1666.6,687.5c-0.6,0-1.3-0.3-1.7-0.8l-18-20c-0.9-1.1-0.9-2.7,0-3.7c0.8-1,2.3-1.1,3.2-0.2
					c0.1,0.1,0.1,0.1,0.2,0.2l18,20c0.9,1.1,0.9,2.7,0,3.7C1667.9,687.2,1667.3,687.5,1666.6,687.5z"/>
				<path class="st10" d="M1648.6,687.5c-0.6,0-1.3-0.3-1.7-0.8c-0.9-1.1-0.9-2.7,0-3.7l18-20c0.8-1,2.3-1.1,3.2-0.2
					c0.1,0.1,0.1,0.1,0.2,0.2c0.9,1.1,0.9,2.7,0,3.7l-18,20C1649.9,687.2,1649.3,687.5,1648.6,687.5z"/>
				<path class="st10" d="M1716.4,687.5c-0.6,0-1.3-0.3-1.7-0.8l-18-20c-0.9-1.1-0.9-2.7,0-3.7c0.8-1,2.3-1.1,3.2-0.2
					c0.1,0.1,0.1,0.1,0.2,0.2l18,20c0.9,1.1,0.9,2.7,0,3.7C1717.6,687.2,1717,687.5,1716.4,687.5z"/>
				<path class="st10" d="M1698.4,687.5c-0.6,0-1.3-0.3-1.7-0.8c-0.9-1.1-0.9-2.7,0-3.7l18-20c0.8-1,2.3-1.1,3.2-0.2
					c0.1,0.1,0.1,0.1,0.2,0.2c0.9,1.1,0.9,2.7,0,3.7l-18,20C1699.7,687.2,1699,687.5,1698.4,687.5z"/>
				<path class="st10" d="M1567.1,736.6c-0.6,0-1.3-0.3-1.7-0.8l-18-20c-0.9-1.1-0.9-2.7,0-3.7c0.9-1,2.3-1,3.2-0.1
					c0,0,0.1,0.1,0.1,0.1l18,20c0.9,1.1,0.9,2.7,0,3.7C1568.4,736.3,1567.8,736.6,1567.1,736.6z"/>
				<path class="st10" d="M1549.1,736.6c-0.6,0-1.3-0.3-1.7-0.8c-0.9-1.1-0.9-2.7,0-3.7l18-20c0.8-1,2.3-1.1,3.2-0.2
					c0.1,0.1,0.1,0.1,0.2,0.2c0.9,1.1,0.9,2.7,0,3.7l-18,20C1550.4,736.3,1549.8,736.6,1549.1,736.6z"/>
				<path class="st10" d="M1616.9,736.6c-0.6,0-1.3-0.3-1.7-0.8l-18-20c-0.9-1.1-0.9-2.7,0-3.7c0.8-1,2.3-1.1,3.2-0.2
					c0.1,0.1,0.1,0.1,0.2,0.2l18,20c0.9,1.1,0.9,2.7,0,3.7C1618.2,736.3,1617.5,736.6,1616.9,736.6z"/>
				<path class="st10" d="M1598.9,736.6c-0.6,0-1.3-0.3-1.7-0.8c-0.9-1.1-0.9-2.7,0-3.7l18-20c0.8-1,2.3-1.1,3.2-0.2
					c0.1,0.1,0.1,0.1,0.2,0.2c0.9,1.1,0.9,2.7,0,3.7l-18,20C1600.2,736.3,1599.5,736.6,1598.9,736.6z"/>
				<path class="st10" d="M1666.6,736.6c-0.6,0-1.3-0.3-1.7-0.8l-18-20c-0.9-1.1-0.9-2.7,0-3.7c0.8-1,2.3-1.1,3.2-0.2
					c0.1,0.1,0.1,0.1,0.2,0.2l18,20c0.9,1.1,0.9,2.7,0,3.7C1667.9,736.3,1667.3,736.6,1666.6,736.6z"/>
				<path class="st10" d="M1648.6,736.6c-0.6,0-1.3-0.3-1.7-0.8c-0.9-1.1-0.9-2.7,0-3.7l18-20c0.8-1,2.3-1.1,3.2-0.2
					c0.1,0.1,0.1,0.1,0.2,0.2c0.9,1.1,0.9,2.7,0,3.7l-18,20C1649.9,736.3,1649.3,736.6,1648.6,736.6z"/>
				<path class="st10" d="M1716.4,736.6c-0.6,0-1.3-0.3-1.7-0.8l-18-20c-0.9-1.1-0.9-2.7,0-3.7c0.8-1,2.3-1.1,3.2-0.2
					c0.1,0.1,0.1,0.1,0.2,0.2l18,20c0.9,1.1,0.9,2.7,0,3.7C1717.6,736.3,1717,736.6,1716.4,736.6z"/>
				<path class="st10" d="M1698.4,736.6c-0.6,0-1.3-0.3-1.7-0.8c-0.9-1.1-0.9-2.7,0-3.7l18-20c0.8-1,2.3-1.1,3.2-0.2
					c0.1,0.1,0.1,0.1,0.2,0.2c0.9,1.1,0.9,2.7,0,3.7l-18,20C1699.7,736.3,1699,736.6,1698.4,736.6z"/>
				<path class="st10" d="M131.6,686.5c0-0.7,0.2-1.4,0.7-1.9l18-20c0.8-1,2.3-1.1,3.2-0.2c0.1,0.1,0.1,0.1,0.2,0.2
					c0.9,1.1,0.9,2.7,0,3.7l-18,20c-0.9,1-2.3,1-3.2,0.1c0,0-0.1-0.1-0.1-0.1C131.9,687.9,131.6,687.2,131.6,686.5z"/>
				<path class="st10" d="M131.6,666.5c0-0.7,0.2-1.4,0.7-1.9c0.9-1,2.3-1,3.2-0.1c0,0,0.1,0.1,0.1,0.1l18,20c0.9,1.1,0.9,2.7,0,3.7
					c-0.8,1-2.3,1.1-3.2,0.2c-0.1-0.1-0.1-0.1-0.2-0.2l-18-20C131.8,667.9,131.5,667.2,131.6,666.5z"/>
				<path class="st10" d="M131.6,741.7c0-0.7,0.2-1.4,0.7-1.9l18-19.9c0.8-1,2.3-1.1,3.2-0.2c0.1,0.1,0.1,0.1,0.2,0.2
					c0.9,1.1,0.9,2.7,0,3.7l-18,20c-0.9,1-2.3,1-3.2,0.1c0,0-0.1-0.1-0.1-0.1C131.8,743.1,131.6,742.4,131.6,741.7z"/>
				<path class="st10" d="M131.6,721.7c0-0.7,0.2-1.4,0.7-1.9c0.9-1,2.3-1,3.2-0.1c0,0,0.1,0.1,0.1,0.1l18,20c0.9,1.1,0.9,2.7,0,3.7
					c-0.8,1-2.3,1.1-3.2,0.2c-0.1-0.1-0.1-0.1-0.2-0.2l-18-20C131.8,723.1,131.5,722.4,131.6,721.7z"/>
				<path class="st10" d="M131.6,796.9c0-0.7,0.2-1.4,0.7-1.9l18-20c0.8-1,2.3-1.1,3.2-0.2c0.1,0.1,0.1,0.1,0.2,0.2
					c0.9,1.1,0.9,2.7,0,3.7l-18,20c-0.9,1-2.3,1-3.2,0.1c0,0-0.1-0.1-0.1-0.1C131.9,798.3,131.6,797.6,131.6,796.9z"/>
				<path class="st10" d="M131.6,777c0-0.7,0.2-1.4,0.7-1.9c0.9-1,2.3-1,3.2-0.1c0,0,0.1,0.1,0.1,0.1l18,20c0.9,1.1,0.9,2.7,0,3.7
					c-0.8,1-2.3,1.1-3.2,0.2c-0.1-0.1-0.1-0.1-0.2-0.2l-18-20C131.8,778.3,131.5,777.7,131.6,777z"/>
				<path class="st10" d="M131.6,852.1c0-0.7,0.2-1.4,0.7-1.9l18-20c0.8-1,2.3-1.1,3.2-0.2c0.1,0.1,0.1,0.1,0.2,0.2
					c0.9,1.1,0.9,2.7,0,3.7l-18,20c-0.9,1-2.3,1-3.2,0.1c0,0-0.1-0.1-0.1-0.1C131.9,853.5,131.6,852.9,131.6,852.1z"/>
				<path class="st10" d="M131.6,832.2c0-0.7,0.2-1.4,0.7-1.9c0.9-1,2.3-1,3.2-0.1c0,0,0.1,0.1,0.1,0.1l18,20c0.9,1.1,0.9,2.7,0,3.7
					c-0.8,1-2.3,1.1-3.2,0.2c-0.1-0.1-0.1-0.1-0.2-0.2l-17.9-20C131.8,833.5,131.5,832.9,131.6,832.2z"/>
				<path class="st10" d="M87.3,686.5c0-0.7,0.2-1.4,0.7-1.9l18-20c0.8-1,2.3-1.1,3.2-0.2c0.1,0.1,0.1,0.1,0.2,0.2
					c0.9,1.1,0.9,2.7,0,3.7l-18,20c-0.9,1-2.3,1-3.2,0.1c0,0-0.1-0.1-0.1-0.1C87.6,687.9,87.3,687.2,87.3,686.5z"/>
				<path class="st10" d="M87.3,666.5c0-0.7,0.2-1.4,0.7-1.9c0.8-1,2.3-1.1,3.2-0.2c0.1,0.1,0.1,0.1,0.2,0.2l18,20
					c0.9,1.1,0.9,2.7,0,3.7c-0.8,1-2.3,1.1-3.2,0.2c-0.1-0.1-0.1-0.1-0.2-0.2l-18-20C87.5,667.9,87.3,667.2,87.3,666.5z"/>
				<path class="st10" d="M87.3,741.7c0-0.7,0.2-1.4,0.7-1.9l18-19.9c0.8-1,2.3-1.1,3.2-0.2c0.1,0.1,0.1,0.1,0.2,0.2
					c0.9,1.1,0.9,2.7,0,3.7l-18,20c-0.9,1-2.3,1-3.2,0.1c0,0-0.1-0.1-0.1-0.1C87.6,743.1,87.3,742.4,87.3,741.7z"/>
				<path class="st10" d="M87.3,721.7c0-0.7,0.2-1.4,0.7-1.9c0.8-1,2.3-1.1,3.2-0.2c0.1,0.1,0.1,0.1,0.2,0.2l18,20
					c0.9,1.1,0.9,2.7,0,3.7c-0.8,1-2.3,1.1-3.2,0.2c-0.1-0.1-0.1-0.1-0.2-0.2l-18-20C87.5,723.1,87.3,722.4,87.3,721.7z"/>
				<path class="st10" d="M87.3,796.9c0-0.7,0.2-1.4,0.7-1.9l18-20c0.8-1,2.3-1.1,3.2-0.2c0.1,0.1,0.1,0.1,0.2,0.2
					c0.9,1.1,0.9,2.7,0,3.7l-18,20c-0.9,1-2.3,1-3.2,0.1c0,0-0.1-0.1-0.1-0.1C87.6,798.3,87.3,797.6,87.3,796.9z"/>
				<path class="st10" d="M87.3,777c0-0.7,0.2-1.4,0.7-1.9c0.8-1,2.3-1.1,3.2-0.2c0.1,0.1,0.1,0.1,0.2,0.2l18,20
					c0.9,1.1,0.9,2.7,0,3.7c-0.8,1-2.3,1.1-3.2,0.2c-0.1-0.1-0.1-0.1-0.2-0.2l-18-20C87.5,778.3,87.3,777.7,87.3,777z"/>
				<path class="st10" d="M87.3,852.1c0-0.7,0.2-1.4,0.7-1.9l18-20c0.8-1,2.3-1.1,3.2-0.2c0.1,0.1,0.1,0.1,0.2,0.2
					c0.9,1.1,0.9,2.7,0,3.7l-18,20c-0.9,1-2.3,1-3.2,0.1c0,0-0.1-0.1-0.1-0.1C87.6,853.5,87.3,852.8,87.3,852.1z"/>
				<path class="st10" d="M87.3,832.2c0-0.7,0.2-1.4,0.7-1.9c0.8-1,2.3-1.1,3.2-0.2c0.1,0.1,0.1,0.1,0.2,0.2l18,20
					c0.9,1.1,0.9,2.7,0,3.7c-0.8,1-2.3,1.1-3.2,0.2c-0.1-0.1-0.1-0.1-0.2-0.2l-18-20C87.5,833.5,87.3,832.9,87.3,832.2z"/>
				<path class="st10" d="M141.1,1416.8c-0.6,0-1.3-0.3-1.7-0.8l-18-20c-0.9-1.1-0.9-2.7,0-3.8c0.8-1,2.3-1.1,3.2-0.2
					c0.1,0.1,0.1,0.1,0.2,0.2l18,20c0.9,1.1,0.9,2.7,0,3.7C142.4,1416.6,141.8,1416.8,141.1,1416.8z"/>
				<path class="st10" d="M123.2,1416.8c-0.6,0-1.3-0.3-1.7-0.8c-0.9-1.1-0.9-2.7,0-3.7l18-20c0.9-1,2.3-1,3.2-0.1
					c0,0,0.1,0.1,0.1,0.1c0.9,1.1,0.9,2.7,0,3.8l-18,20C124.4,1416.5,123.8,1416.8,123.2,1416.8z"/>
				<path class="st10" d="M190.9,1416.8c-0.6,0-1.3-0.3-1.7-0.8l-18-20c-0.9-1.1-0.9-2.7,0-3.8c0.9-1,2.3-1,3.2-0.1
					c0,0,0.1,0.1,0.1,0.1l18,20c0.9,1.1,0.9,2.7,0,3.7C192.2,1416.5,191.6,1416.8,190.9,1416.8z"/>
				<path class="st10" d="M172.9,1416.8c-0.6,0-1.2-0.3-1.7-0.8c-0.9-1.1-0.9-2.7,0-3.7l17.9-20c0.8-1,2.3-1.1,3.2-0.2
					c0.1,0.1,0.1,0.1,0.2,0.2c0.9,1.1,0.9,2.7,0,3.8l-18,20C174.2,1416.5,173.6,1416.8,172.9,1416.8z"/>
				<path class="st10" d="M240.7,1416.8c-0.6,0-1.3-0.3-1.7-0.8l-18-20c-0.9-1.1-0.9-2.7,0-3.8c0.9-1,2.3-1,3.2-0.1
					c0,0,0.1,0.1,0.1,0.1l18,20c0.9,1.1,0.9,2.7,0,3.7C241.9,1416.5,241.3,1416.8,240.7,1416.8z"/>
				<path class="st10" d="M222.7,1416.8c-0.6,0-1.2-0.3-1.7-0.8c-0.9-1.1-0.9-2.7,0-3.7l18-20c0.8-1,2.3-1.1,3.2-0.2
					c0.1,0.1,0.1,0.1,0.2,0.2c0.9,1.1,0.9,2.7,0,3.8l-18,20C224,1416.6,223.3,1416.8,222.7,1416.8z"/>
				<path class="st10" d="M290.4,1416.8c-0.6,0-1.3-0.3-1.7-0.8l-18-20c-0.9-1.1-0.9-2.7,0-3.8c0.8-1,2.3-1.1,3.2-0.2
					c0.1,0.1,0.1,0.1,0.2,0.2l18,20c0.9,1.1,0.9,2.7,0,3.7C291.7,1416.6,291.1,1416.8,290.4,1416.8z"/>
				<path class="st10" d="M272.4,1416.8c-0.6,0-1.2-0.3-1.7-0.8c-0.9-1.1-0.9-2.7,0-3.7l18-20c0.9-1,2.3-1,3.2-0.1
					c0,0,0.1,0.1,0.1,0.1c0.9,1.1,0.9,2.7,0,3.8l-18,20C273.7,1416.5,273.1,1416.8,272.4,1416.8z"/>
				<path class="st10" d="M141.1,1465.9c-0.6,0-1.2-0.3-1.7-0.8l-18-20c-0.9-1.1-0.9-2.7,0-3.8c0.8-1,2.3-1.1,3.2-0.2
					c0.1,0.1,0.1,0.1,0.2,0.2l18,20c0.9,1.1,0.9,2.7,0,3.8C142.5,1465.7,141.8,1466,141.1,1465.9z"/>
				<path class="st10" d="M123.2,1465.9c-0.6,0-1.3-0.3-1.7-0.8c-0.9-1.1-0.9-2.7,0-3.7l18-20c0.9-1,2.3-1,3.2-0.1
					c0,0,0.1,0.1,0.1,0.1c0.9,1.1,0.9,2.7,0,3.8l-18,20C124.4,1465.7,123.8,1465.9,123.2,1465.9z"/>
				<path class="st10" d="M190.9,1465.9c-0.6,0-1.2-0.3-1.7-0.8l-18-20c-0.9-1.1-0.9-2.7,0-3.8c0.9-1,2.3-1,3.2-0.1
					c0,0,0.1,0.1,0.1,0.1l18,20c0.9,1.1,0.9,2.7,0,3.8C192.2,1465.7,191.6,1465.9,190.9,1465.9z"/>
				<path class="st10" d="M172.9,1465.9c-0.6,0-1.2-0.3-1.7-0.8c-0.9-1.1-0.9-2.7,0-3.7l17.9-20c0.8-1,2.3-1.1,3.2-0.2
					c0.1,0.1,0.1,0.1,0.2,0.2c0.9,1.1,0.9,2.7,0,3.8l-18,20C174.2,1465.7,173.6,1465.9,172.9,1465.9z"/>
				<path class="st10" d="M240.7,1465.9c-0.6,0-1.2-0.3-1.7-0.8l-18-20c-0.9-1.1-0.9-2.7,0-3.8c0.9-1,2.3-1,3.2-0.1
					c0,0,0.1,0.1,0.1,0.1l18,20c0.9,1.1,0.9,2.7,0,3.8C241.9,1465.7,241.3,1465.9,240.7,1465.9z"/>
				<path class="st10" d="M222.7,1465.9c-0.6,0-1.2-0.3-1.7-0.8c-0.9-1.1-0.9-2.7,0-3.7l18-20c0.8-1,2.3-1.1,3.2-0.2
					c0.1,0.1,0.1,0.1,0.2,0.2c0.9,1.1,0.9,2.7,0,3.8l-18,20C224,1465.7,223.3,1466,222.7,1465.9z"/>
				<path class="st10" d="M290.4,1465.9c-0.6,0-1.2-0.3-1.7-0.8l-18-20c-0.9-1.1-0.9-2.7,0-3.8c0.8-1,2.3-1.1,3.2-0.2
					c0.1,0.1,0.1,0.1,0.2,0.2l18,20c0.9,1.1,0.9,2.7,0,3.8C291.7,1465.7,291.1,1466,290.4,1465.9z"/>
				<path class="st10" d="M272.4,1465.9c-0.6,0-1.2-0.3-1.7-0.8c-0.9-1.1-0.9-2.7,0-3.7l18-20c0.9-1,2.3-1,3.2-0.1
					c0,0,0.1,0.1,0.1,0.1c0.9,1.1,0.9,2.7,0,3.8l-18,20C273.7,1465.7,273.1,1465.9,272.4,1465.9z"/>
				<path class="st11" d="M2237.7,1027.5l-314.2-348.8c-13.5-15.5-36.6-16.6-51.4-2.5c-0.9,0.8-1.7,1.6-2.4,2.5
					c-14.9,16.5-14.9,43.3,0,59.8l94.1,104.4c14.9,16.5,14.9,43.3,0,59.8c-13.5,15.5-36.5,16.6-51.4,2.5c-0.8-0.8-1.7-1.6-2.4-2.5
					l-4.1-4.6c-13.5-15.5-36.5-16.6-51.4-2.6c-0.9,0.8-1.7,1.7-2.5,2.6c-14.9,16.5-14.9,43.3,0,59.8l39.4,43.8
					c14.9,16.5,14.9,43.3,0,59.8c-13.5,15.5-36.6,16.6-51.4,2.5c-0.9-0.8-1.7-1.6-2.4-2.5l3.9,4.4c-13.5-15.5-36.5-16.6-51.4-2.5
					c-0.8,0.8-1.7,1.6-2.4,2.5c-14.9,16.5-14.9,43.3,0,59.8l230.7,256.1l18.3,20.2l21.6,23.9l179.6,199.4L2237.7,1027.5z"/>
				<polygon class="st4" points="1173,1243.2 1282.8,1275.8 1392.5,1308.4 1312.2,1397.6 1231.9,1486.7 1202.4,1365 				"/>
				<path class="st10" d="M1286.3,1483.5l-64.1-265.7l239.3,71.2L1286.3,1483.5z M1239,1236.5l53.5,221.5l146.1-162.2L1239,1236.5z"
					/>
				<polygon class="st5" points="471.2,646.5 551.9,614.6 632.5,582.7 617,676.1 601.6,769.6 536.4,708 				"/>
				<path class="st10" d="M620.3,828.8L478.2,694.6L654,625L620.3,828.8z M495.8,698.2l118.6,111.9l28.1-169.9L495.8,698.2z"/>
				<polygon class="st5" points="1513.1,92.9 1577.5,126.8 1642,160.8 1583.3,205.7 1524.6,250.7 1518.8,171.8 				"/>
				<path class="st10" d="M1504.2,297.8l-12.5-172.1l140.5,74L1504.2,297.8z M1500.1,139.4l10.4,143.5l106.7-81.8L1500.1,139.4z"/>
				<ellipse class="st5" cx="563.4" cy="1428.7" rx="92.9" ry="103.1"/>
				<ellipse class="st4" cx="1968.4" cy="407.2" rx="92.9" ry="103.1"/>
				<ellipse class="st4" cx="651.9" cy="169.9" rx="92.9" ry="103.1"/>
				<ellipse class="st12" cx="490.2" cy="1344.2" rx="51.2" ry="56.8"/>
				<ellipse class="st12" cx="2034.8" cy="464" rx="51.2" ry="56.8"/>
				<path class="st10" d="M319.7,994.7c-14.8,0-26.9-13.4-26.9-29.8s12.1-29.8,26.9-29.8c14.8,0,26.9,13.4,26.9,29.8
					S334.5,994.7,319.7,994.7z M319.7,948.3c-8.3,0-15,7.5-15,16.6s6.7,16.6,15,16.6c8.3,0,15-7.5,15-16.6S328,948.3,319.7,948.3z"
					/>
				<path class="st10" d="M1771.3,145.6c-14.9,0-26.9-13.4-26.9-29.8s12.1-29.8,26.9-29.8s26.9,13.4,26.9,29.8
					S1786.1,145.6,1771.3,145.6z M1771.3,99.2c-8.3,0-15,7.5-15,16.6s6.7,16.6,15,16.6s15-7.5,15-16.6S1779.5,99.2,1771.3,99.2
					L1771.3,99.2z"/>
				<path class="st10" d="M1505.5,1094.8c-14.9,0-26.9-13.4-26.9-29.8c0-16.4,12.1-29.8,26.9-29.8s26.9,13.4,26.9,29.8
					S1520.4,1094.8,1505.5,1094.8z M1505.5,1048.3c-8.3,0-15,7.5-15,16.6s6.7,16.6,15,16.6s15-7.5,15-16.6
					S1513.8,1048.3,1505.5,1048.3z"/>
				<path class="st10" d="M2086,1316.4c-14.8,0-26.9-13.4-26.9-29.8c0-16.4,12.1-29.8,26.9-29.8c14.8,0,26.9,13.4,26.9,29.8
					S2100.8,1316.4,2086,1316.4z M2086,1269.9c-8.3,0-15,7.5-15,16.6c0,9.2,6.7,16.6,15,16.6s15-7.5,15-16.6
					S2094.3,1269.9,2086,1269.9L2086,1269.9z"/>
				<path class="st10" d="M1120.9,444.9c-14.9,0-26.9-13.4-26.9-29.8c0-16.5,12.1-29.8,26.9-29.8s26.9,13.4,26.9,29.8
					C1147.8,431.6,1135.8,444.9,1120.9,444.9z M1120.9,398.5c-8.3,0-15,7.5-15,16.6c0,9.2,6.7,16.6,15,16.6s15-7.5,15-16.6
					C1135.9,405.9,1129.2,398.5,1120.9,398.5L1120.9,398.5z"/>
				<path class="st10" d="M245.8,1255.3c-3.2,0-6.3-1.4-8.4-3.9c-4.6-5.3-4.6-13.4,0-18.7l171-189.7c4.2-4.8,11.4-5.2,16-0.8
					c0.3,0.3,0.5,0.5,0.8,0.8c4.6,5.3,4.6,13.4,0,18.7l-171,189.7C252.1,1253.9,249,1255.3,245.8,1255.3z"/>
				<path class="st4" d="M942.7,503.7c2.3,0,4.6,1,6.1,2.8c3.4,3.9,3.4,9.8,0,13.6l-125,138.7c-3.1,3.5-8.3,3.8-11.7,0.6
					c-0.2-0.2-0.4-0.4-0.6-0.6c-3.4-3.9-3.4-9.8,0-13.6l125-138.7C938.1,504.7,940.3,503.7,942.7,503.7z"/>
				<path class="st9" d="M1650.2,1107.5c2.3,0,4.6,1,6.1,2.8c3.4,3.9,3.4,9.8,0,13.6l-125,138.7c-3.1,3.5-8.3,3.8-11.7,0.6
					c-0.2-0.2-0.4-0.4-0.6-0.6c-3.4-3.9-3.4-9.8,0-13.6l125-138.7C1645.7,1108.6,1647.9,1107.5,1650.2,1107.5z"/>
				<path class="st9" d="M2148.5-59.8c2.3,0,4.6,1,6.2,2.8c3.4,3.9,3.4,9.8,0,13.6l-125,138.7c-3.1,3.5-8.3,3.8-11.7,0.6
					c-0.2-0.2-0.4-0.4-0.6-0.6c-3.4-3.9-3.4-9.8,0-13.6l125-138.7C2143.9-58.7,2146.2-59.8,2148.5-59.8z"/>
				<path class="st9" d="M2259.2,1325.1c2.3,0,4.6,1,6.1,2.8c3.4,3.9,3.4,9.8,0,13.6l-125,138.7c-3.1,3.5-8.3,3.8-11.7,0.6
					c-0.2-0.2-0.4-0.4-0.6-0.6c-3.4-3.9-3.4-9.8,0-13.6l125-138.7C2254.6,1326.2,2256.9,1325.1,2259.2,1325.1z"/>
				<path class="st4" d="M1299.2,1076.7c-3.2,0-6.2-1.4-8.4-3.9c-4.6-5.3-4.6-13.4,0-18.7l180.8-200.7c4.2-4.8,11.4-5.2,16.1-0.8
					c0.3,0.2,0.5,0.5,0.8,0.8c4.6,5.3,4.6,13.4,0,18.7l-180.8,200.7C1305.4,1075.3,1302.4,1076.7,1299.2,1076.7z"/>
				<path class="st4" d="M2097.9,727.9c-3.2,0-6.2-1.4-8.4-3.9c-4.6-5.3-4.6-13.4,0-18.7l180.9-200.7c4.2-4.8,11.4-5.2,16-0.8
					c0.3,0.3,0.5,0.5,0.8,0.8c4.6,5.3,4.6,13.4,0,18.7l-180.8,200.7C2104.2,726.5,2101.1,727.9,2097.9,727.9z"/>
				<path class="st4" d="M1639.3,1738.9c-3.2,0-6.2-1.4-8.4-3.9c-4.6-5.3-4.6-13.4,0-18.7l180.8-200.7c4.2-4.8,11.4-5.2,16.1-0.8
					c0.3,0.2,0.5,0.5,0.8,0.8c4.6,5.3,4.6,13.4,0,18.7L1647.7,1735C1645.5,1737.5,1642.5,1738.9,1639.3,1738.9z"/>
				<path class="st5" d="M899.8,325.3c-3.2,0-6.3-1.4-8.4-3.9c-4.6-5.3-4.6-13.4,0-18.7l180.8-200.7c4.2-4.8,11.4-5.2,16.1-0.8
					c0.3,0.2,0.5,0.5,0.8,0.8c4.7,5.3,4.7,13.4,0,18.7L908.2,321.5C906,323.9,903,325.3,899.8,325.3z"/>
				<path class="st4" d="M63.9,180.4c-3.2,0-6.3-1.4-8.4-3.9c-4.6-5.3-4.6-13.4,0-18.7L236.3-42.8c4.2-4.8,11.4-5.2,16.1-0.8
					c0.3,0.2,0.5,0.5,0.8,0.8c4.6,5.3,4.6,13.4,0,18.7L72.3,176.5C70.2,179,67.1,180.4,63.9,180.4z"/>
				<path class="st5" d="M-60.5,1400.9c-3.2,0-6.2-1.4-8.4-3.9c-4.6-5.3-4.6-13.4,0-18.7l180.8-200.7c4.2-4.8,11.4-5.2,16.1-0.8
					c0.3,0.2,0.5,0.5,0.8,0.8c4.7,5.3,4.7,13.4,0,18.7L-52.1,1397C-54.3,1399.5-57.3,1400.9-60.5,1400.9z"/>
				<rect x="1501.2" y="496.3" class="st1" width="50" height="55.5"/>
			</g>
		</g>
	</g>
</g>
</svg>
