<svg xmlns="http://www.w3.org/2000/svg" viewBox="0 0 567.34 874.94"><defs><style>.cls-1{fill:#ffd25b;}.cls-2{fill:#fcfff5;}</style></defs><title>资源 53</title><g id="图层_2" data-name="图层 2"><g id="character"><path class="cls-1" d="M39.75,874.94s95.66-166,340.47-57.36c158.1,70.14,186.7-46,187.12-137.07.24-50.85-35.71-95-86.34-106.87C371.33,548,188.67,483.29,219.85,340.14,263.94,137.7,185.19,43.47,185.19,43.47S106.54-38.76,31.37,23,39.75,874.94,39.75,874.94Z"/><polygon class="cls-2" points="133.06 111.14 132.04 110.13 123.21 118.95 114.39 110.13 113.37 111.14 122.2 119.97 113.37 128.79 114.39 129.81 123.21 120.98 132.04 129.81 133.06 128.79 124.23 119.97 133.06 111.14"/><polygon class="cls-2" points="169.76 111.14 168.75 110.13 159.92 118.95 151.09 110.13 150.08 111.14 158.91 119.97 150.08 128.79 151.09 129.81 159.92 120.98 168.75 129.81 169.76 128.79 160.94 119.97 169.76 111.14"/><polygon class="cls-2" points="133.06 143.06 132.04 142.05 123.21 150.88 114.39 142.05 113.37 143.06 122.2 151.89 113.37 160.72 114.39 161.73 123.21 152.91 132.04 161.73 133.06 160.72 124.23 151.89 133.06 143.06"/><polygon class="cls-2" points="169.76 143.06 168.75 142.05 159.92 150.88 151.09 142.05 150.08 143.06 158.91 151.89 150.08 160.72 151.09 161.73 159.92 152.91 168.75 161.73 169.76 160.72 160.94 151.89 169.76 143.06"/><circle class="cls-2" cx="126.26" cy="580.69" r="3.5"/><circle class="cls-2" cx="160.26" cy="580.69" r="3.5"/><circle class="cls-2" cx="194.26" cy="580.69" r="3.5"/><circle class="cls-2" cx="228.26" cy="580.69" r="3.5"/><circle class="cls-2" cx="262.26" cy="580.69" r="3.5"/><circle class="cls-2" cx="126.26" cy="602.69" r="3.5"/><circle class="cls-2" cx="160.26" cy="602.69" r="3.5"/><circle class="cls-2" cx="194.26" cy="602.69" r="3.5"/><circle class="cls-2" cx="228.26" cy="602.69" r="3.5"/><circle class="cls-2" cx="262.26" cy="602.69" r="3.5"/><circle class="cls-2" cx="126.26" cy="624.69" r="3.5"/><circle class="cls-2" cx="160.26" cy="624.69" r="3.5"/><circle class="cls-2" cx="194.26" cy="624.69" r="3.5"/><circle class="cls-2" cx="228.26" cy="624.69" r="3.5"/><circle class="cls-2" cx="262.26" cy="624.69" r="3.5"/><circle class="cls-2" cx="126.26" cy="646.69" r="3.5"/><circle class="cls-2" cx="160.26" cy="646.69" r="3.5"/><circle class="cls-2" cx="194.26" cy="646.69" r="3.5"/><circle class="cls-2" cx="228.26" cy="646.69" r="3.5"/><circle class="cls-2" cx="262.26" cy="646.69" r="3.5"/><circle class="cls-2" cx="126.26" cy="668.69" r="3.5"/><circle class="cls-2" cx="160.26" cy="668.69" r="3.5"/><circle class="cls-2" cx="194.26" cy="668.69" r="3.5"/><circle class="cls-2" cx="228.26" cy="668.69" r="3.5"/><circle class="cls-2" cx="262.26" cy="668.69" r="3.5"/></g></g></svg>