<svg xmlns="http://www.w3.org/2000/svg" viewBox="0 0 145 112.17"><defs><style>.cls-1{fill:#f1f1f1;}.cls-2{fill:#f04336;}.cls-3{fill:#d22e2a;}</style></defs><title>资源 63</title><g id="图层_2" data-name="图层 2"><g id="图层_1-2" data-name="图层 1"><polygon class="cls-1" points="137.35 17.78 128.09 112.17 16.91 112.17 9.45 19.61 72.5 55.45 137.35 17.78"/><polygon class="cls-1" points="134.21 0 72.5 58.86 10.79 0 72.5 0 134.21 0"/><path class="cls-2" d="M16.91,27.18v85H6.84A6.89,6.89,0,0,1,0,105.23V14.66L11,15Z"/><path class="cls-3" d="M145,14.66v90.57a6.89,6.89,0,0,1-6.84,6.94H128.09v-85l5.58-13.38Z"/><path class="cls-2" d="M145,6.94v7.72L128.09,27.18,72.5,68.32,16.91,27.18,0,14.66V6.94A6.89,6.89,0,0,1,6.84,0h3.95L72.5,45.67,134.21,0h3.95A6.89,6.89,0,0,1,145,6.94Z"/><polygon class="cls-3" points="16.91 27.18 0 24.52 0 14.66 16.91 27.18"/></g></g></svg>