<svg xmlns="http://www.w3.org/2000/svg" xmlns:xlink="http://www.w3.org/1999/xlink" viewBox="0 0 2196.71 1625.36"><defs><style>.cls-1,.cls-13,.cls-9{fill:none;}.cls-2{clip-path:url(#clip-path);}.cls-3{fill:#ffd25b;}.cls-4,.cls-5{fill:#f6ab40;opacity:0.69;}.cls-5,.cls-8{fill-rule:evenodd;}.cls-6{fill:#fd4c8e;}.cls-7{fill:#0db2f3;}.cls-8{fill:#09a6df;}.cls-10,.cls-13,.cls-9{stroke:#fff;stroke-miterlimit:10;}.cls-10,.cls-11{fill:#fff;}.cls-10{stroke-width:0.5px;}.cls-12{fill:#41c2f0;}.cls-13{stroke-width:4px;}</style><clipPath id="clip-path"><rect id="SVGID" class="cls-1" x="194.64" y="50.52" width="1920" height="1367"/></clipPath></defs><title>资源 72</title><g id="图层_2" data-name="图层 2"><g id="图层_3" data-name="图层 3"><g class="cls-2"><rect class="cls-3" x="194.64" y="50.52" width="1920" height="1367"/><path class="cls-4" d="M815.62,1416.55l362.26-386.88c17.14-18.31,17.14-48,0-66.32s-44.94-18.31-62.1,0l-108.45,115.81c-17.15,18.3-45,18.3-62.08,0s-17.14-48,0-66.3l4.73-5.06c17.15-18.31,17.15-48,0-66.32s-45-18.31-62.08,0l-45.5,48.57c-17.14,18.32-45,18.32-62.09,0s-17.15-48,0-66.32l-4.55,4.84c17.13-18.31,17.12-48,0-66.29s-45-18.31-62.1,0l-266,284.07-21.06,22.5-24.84,26.54L194.64,1416.55Z"/><polygon class="cls-5" points="1238.38 53.49 723.85 53.49 198.06 615.01 198.3 1164.26 1238.38 53.49"/><path class="cls-6" d="M474.35,1010.1c-125.29-93.56-52.55-213.57-8.54-343.39s-90.12-225.3-217.37-148.52c-19.8,11.95-37.69,17.85-53.8,19.3v880H874a1091.19,1091.19,0,0,1,12.64-112.3C943.11,959.69,599.63,1103.67,474.35,1010.1Z"/><path class="cls-7" d="M2140.24,50.52H1895.29c76.52,354.94-255.9,205.05-393.92,209-116,3.33-217.94,123.13-161.47,269.59s184.1,108.08,74.35,404.78c-102,275.69,30.72,483.61,30.72,483.61h695.27Z"/><polygon class="cls-8" points="1074.33 1417.42 1588.86 1417.42 2114.64 855.9 2114.41 306.65 1074.33 1417.42"/><g class="cls-2"><path class="cls-9" d="M1896.31,1417.52c0,114.51-86.92,207.34-194.14,207.34S1508,1532,1508,1417.52s86.92-207.34,194.14-207.34S1896.31,1303,1896.31,1417.52Z"/><path class="cls-9" d="M1884.36,1417.52c0,107.46-81.57,194.57-182.19,194.57S1520,1525,1520,1417.52,1601.55,1223,1702.17,1223,1884.36,1310.06,1884.36,1417.52Z"/><path class="cls-9" d="M1872.41,1417.52c0,100.41-76.22,181.81-170.24,181.81s-170.23-81.4-170.23-181.81,76.21-181.81,170.23-181.81S1872.41,1317.11,1872.41,1417.52Z"/><path class="cls-9" d="M1860.46,1417.52c0,93.36-70.87,169-158.29,169s-158.28-75.68-158.28-169,70.86-169,158.28-169S1860.46,1324.16,1860.46,1417.52Z"/><path class="cls-9" d="M1848.51,1417.52c0,86.31-65.52,156.28-146.34,156.28s-146.33-70-146.33-156.28,65.51-156.28,146.33-156.28S1848.51,1331.21,1848.51,1417.52Z"/><path class="cls-9" d="M1836.55,1417.52c0,79.26-60.16,143.51-134.38,143.51s-134.38-64.25-134.38-143.51S1628,1274,1702.17,1274,1836.55,1338.26,1836.55,1417.52Z"/><path class="cls-9" d="M1824.6,1417.52c0,72.21-54.82,130.75-122.43,130.75s-122.43-58.54-122.43-130.75,54.82-130.75,122.43-130.75S1824.6,1345.31,1824.6,1417.52Z"/><path class="cls-9" d="M1812.64,1417.52c0,65.16-49.46,118-110.47,118s-110.47-52.82-110.47-118,49.46-118,110.47-118S1812.64,1352.36,1812.64,1417.52Z"/><path class="cls-9" d="M1800.69,1417.52c0,58.11-44.11,105.22-98.52,105.22s-98.52-47.11-98.52-105.22,44.11-105.22,98.52-105.22S1800.69,1359.41,1800.69,1417.52Z"/><path class="cls-9" d="M1788.74,1417.52c0,51.06-38.76,92.45-86.57,92.45s-86.57-41.39-86.57-92.45,38.76-92.45,86.57-92.45S1788.74,1366.46,1788.74,1417.52Z"/><path class="cls-9" d="M1776.79,1417.52c0,44-33.41,79.69-74.62,79.69s-74.61-35.68-74.61-79.69,33.4-79.69,74.61-79.69S1776.79,1373.51,1776.79,1417.52Z"/><path class="cls-9" d="M1764.84,1417.52c0,37-28.06,66.92-62.67,66.92s-62.66-30-62.66-66.92,28-66.92,62.66-66.92S1764.84,1380.56,1764.84,1417.52Z"/><path class="cls-9" d="M388.78,246.57c0,114.52-86.92,207.34-194.14,207.34S.5,361.09.5,246.57,87.42,39.24,194.64,39.24,388.78,132.06,388.78,246.57Z"/><path class="cls-9" d="M376.83,246.57c0,107.47-81.57,194.58-182.19,194.58S12.45,354,12.45,246.57,94,52,194.64,52,376.83,139.12,376.83,246.57Z"/><path class="cls-9" d="M364.88,246.57c0,100.42-76.22,181.81-170.24,181.81S24.41,347,24.41,246.57s76.21-181.8,170.23-181.8S364.88,146.16,364.88,246.57Z"/><path class="cls-9" d="M352.93,246.57c0,93.37-70.87,169.05-158.29,169.05s-158.28-75.68-158.28-169,70.86-169,158.28-169S352.93,153.22,352.93,246.57Z"/><path class="cls-9" d="M341,246.57c0,86.32-65.52,156.29-146.34,156.29s-146.33-70-146.33-156.29S113.82,90.3,194.64,90.3,341,160.26,341,246.57Z"/><path class="cls-9" d="M329,246.57c0,79.27-60.16,143.52-134.38,143.52S60.26,325.84,60.26,246.57s60.17-143.51,134.38-143.51S329,167.32,329,246.57Z"/><path class="cls-9" d="M317.07,246.57c0,72.22-54.82,130.75-122.43,130.75S72.22,318.79,72.22,246.57,127,115.83,194.64,115.83,317.07,174.36,317.07,246.57Z"/><path class="cls-9" d="M305.11,246.57c0,65.17-49.45,118-110.47,118s-110.47-52.82-110.47-118,49.46-118,110.47-118S305.11,181.42,305.11,246.57Z"/><path class="cls-9" d="M293.16,246.57c0,58.12-44.11,105.22-98.52,105.22s-98.52-47.1-98.52-105.22,44.11-105.21,98.52-105.21S293.16,188.46,293.16,246.57Z"/><path class="cls-9" d="M281.21,246.57c0,51.07-38.76,92.46-86.57,92.46s-86.57-41.39-86.57-92.46,38.76-92.45,86.57-92.45S281.21,195.52,281.21,246.57Z"/><path class="cls-9" d="M269.26,246.57c0,44-33.41,79.69-74.62,79.69S120,290.59,120,246.57s33.4-79.68,74.61-79.68S269.26,202.56,269.26,246.57Z"/><path class="cls-9" d="M257.31,246.57c0,37-28.06,66.93-62.67,66.93S132,283.54,132,246.57s28.05-66.92,62.66-66.92S257.31,209.62,257.31,246.57Z"/></g><polygon class="cls-6" points="1624.42 798.98 1671.87 812.56 1719.32 826.14 1684.58 863.23 1649.85 900.33 1637.13 849.66 1624.42 798.98"/><path class="cls-10" d="M582.69,346.48C482,542.31,795,677,838.59,444.4s119.59-232.56,253.78-208.08c121.25,22.11,337.4,17.73,274.48-185.13H515.14S683.37,150.64,582.69,346.48Z"/><path class="cls-7" d="M718.22,784.9a3.78,3.78,0,1,1-3.77-4A3.91,3.91,0,0,1,718.22,784.9Z"/><path class="cls-7" d="M749.84,784.9a3.77,3.77,0,1,1-3.77-4A3.9,3.9,0,0,1,749.84,784.9Z"/><path class="cls-7" d="M781.48,784.9a3.78,3.78,0,1,1-3.77-4A3.91,3.91,0,0,1,781.48,784.9Z"/><path class="cls-7" d="M813.11,784.9a3.78,3.78,0,1,1-3.78-4A3.91,3.91,0,0,1,813.11,784.9Z"/><path class="cls-7" d="M844.73,784.9a3.78,3.78,0,1,1-3.77-4A3.9,3.9,0,0,1,844.73,784.9Z"/><path class="cls-7" d="M718.22,815.27a3.78,3.78,0,1,1-3.77-4A3.9,3.9,0,0,1,718.22,815.27Z"/><path class="cls-7" d="M749.84,815.27a3.77,3.77,0,1,1-3.77-4A3.9,3.9,0,0,1,749.84,815.27Z"/><path class="cls-7" d="M781.48,815.27a3.78,3.78,0,1,1-3.77-4A3.9,3.9,0,0,1,781.48,815.27Z"/><path class="cls-7" d="M813.11,815.27a3.78,3.78,0,1,1-3.78-4A3.9,3.9,0,0,1,813.11,815.27Z"/><path class="cls-7" d="M844.73,815.27a3.78,3.78,0,1,1-3.77-4A3.9,3.9,0,0,1,844.73,815.27Z"/><path class="cls-7" d="M718.22,845.63a3.78,3.78,0,1,1-3.77-4A3.91,3.91,0,0,1,718.22,845.63Z"/><path class="cls-7" d="M749.84,845.63a3.77,3.77,0,1,1-3.77-4A3.9,3.9,0,0,1,749.84,845.63Z"/><path class="cls-7" d="M781.48,845.63a3.78,3.78,0,1,1-3.77-4A3.91,3.91,0,0,1,781.48,845.63Z"/><path class="cls-7" d="M813.11,845.63a3.78,3.78,0,1,1-3.78-4A3.91,3.91,0,0,1,813.11,845.63Z"/><path class="cls-7" d="M844.73,845.63a3.78,3.78,0,1,1-3.77-4A3.9,3.9,0,0,1,844.73,845.63Z"/><path class="cls-7" d="M718.22,876a3.78,3.78,0,1,1-3.77-4A3.91,3.91,0,0,1,718.22,876Z"/><path class="cls-7" d="M749.84,876a3.77,3.77,0,1,1-3.77-4A3.9,3.9,0,0,1,749.84,876Z"/><path class="cls-7" d="M781.48,876a3.78,3.78,0,1,1-3.77-4A3.91,3.91,0,0,1,781.48,876Z"/><path class="cls-7" d="M813.11,876a3.78,3.78,0,1,1-3.78-4A3.91,3.91,0,0,1,813.11,876Z"/><path class="cls-7" d="M844.73,876a3.78,3.78,0,1,1-3.77-4A3.9,3.9,0,0,1,844.73,876Z"/><path class="cls-7" d="M718.22,906.36a3.78,3.78,0,1,1-3.77-4A3.91,3.91,0,0,1,718.22,906.36Z"/><path class="cls-7" d="M749.84,906.36a3.77,3.77,0,1,1-3.77-4A3.9,3.9,0,0,1,749.84,906.36Z"/><path class="cls-7" d="M781.48,906.36a3.78,3.78,0,1,1-3.77-4A3.91,3.91,0,0,1,781.48,906.36Z"/><path class="cls-7" d="M813.11,906.36a3.78,3.78,0,1,1-3.78-4A3.91,3.91,0,0,1,813.11,906.36Z"/><path class="cls-7" d="M844.73,906.36a3.78,3.78,0,1,1-3.77-4A3.9,3.9,0,0,1,844.73,906.36Z"/><rect class="cls-6" x="816.68" y="764.13" width="43.72" height="46.69"/><path class="cls-10" d="M1435.21,370.72a3.78,3.78,0,1,1-3.78-4A3.91,3.91,0,0,1,1435.21,370.72Z"/><path class="cls-10" d="M1466.83,370.72a3.78,3.78,0,1,1-3.77-4A3.9,3.9,0,0,1,1466.83,370.72Z"/><path class="cls-10" d="M1498.47,370.72a3.78,3.78,0,1,1-3.78-4A3.92,3.92,0,0,1,1498.47,370.72Z"/><path class="cls-10" d="M1530.1,370.72a3.78,3.78,0,1,1-3.78-4A3.92,3.92,0,0,1,1530.1,370.72Z"/><path class="cls-10" d="M1561.72,370.72a3.78,3.78,0,1,1-3.77-4A3.91,3.91,0,0,1,1561.72,370.72Z"/><path class="cls-10" d="M1435.21,401.09a3.78,3.78,0,1,1-3.78-4A3.91,3.91,0,0,1,1435.21,401.09Z"/><path class="cls-10" d="M1466.83,401.09a3.78,3.78,0,1,1-3.77-4A3.9,3.9,0,0,1,1466.83,401.09Z"/><path class="cls-10" d="M1498.47,401.09a3.78,3.78,0,1,1-3.78-4A3.92,3.92,0,0,1,1498.47,401.09Z"/><path class="cls-10" d="M1530.1,401.09a3.78,3.78,0,1,1-3.78-4A3.92,3.92,0,0,1,1530.1,401.09Z"/><path class="cls-10" d="M1561.72,401.09a3.78,3.78,0,1,1-3.77-4A3.91,3.91,0,0,1,1561.72,401.09Z"/><path class="cls-10" d="M1435.21,431.45a3.78,3.78,0,1,1-3.78-4A3.91,3.91,0,0,1,1435.21,431.45Z"/><path class="cls-10" d="M1466.83,431.45a3.78,3.78,0,1,1-3.77-4A3.9,3.9,0,0,1,1466.83,431.45Z"/><path class="cls-10" d="M1498.47,431.45a3.78,3.78,0,1,1-3.78-4A3.91,3.91,0,0,1,1498.47,431.45Z"/><path class="cls-10" d="M1530.1,431.45a3.78,3.78,0,1,1-3.78-4A3.91,3.91,0,0,1,1530.1,431.45Z"/><path class="cls-10" d="M1561.72,431.45a3.78,3.78,0,1,1-3.77-4A3.91,3.91,0,0,1,1561.72,431.45Z"/><path class="cls-10" d="M1435.21,461.82a3.78,3.78,0,1,1-3.78-4A3.91,3.91,0,0,1,1435.21,461.82Z"/><path class="cls-10" d="M1466.83,461.82a3.78,3.78,0,1,1-3.77-4A3.9,3.9,0,0,1,1466.83,461.82Z"/><path class="cls-10" d="M1498.47,461.82a3.78,3.78,0,1,1-3.78-4A3.92,3.92,0,0,1,1498.47,461.82Z"/><path class="cls-10" d="M1530.1,461.82a3.78,3.78,0,1,1-3.78-4A3.92,3.92,0,0,1,1530.1,461.82Z"/><path class="cls-10" d="M1561.72,461.82a3.78,3.78,0,1,1-3.77-4A3.91,3.91,0,0,1,1561.72,461.82Z"/><path class="cls-10" d="M1435.21,492.18a3.78,3.78,0,1,1-3.78-4A3.91,3.91,0,0,1,1435.21,492.18Z"/><path class="cls-10" d="M1466.83,492.18a3.78,3.78,0,1,1-3.77-4A3.9,3.9,0,0,1,1466.83,492.18Z"/><path class="cls-10" d="M1498.47,492.18a3.78,3.78,0,1,1-3.78-4A3.91,3.91,0,0,1,1498.47,492.18Z"/><path class="cls-10" d="M1530.1,492.18a3.78,3.78,0,1,1-3.78-4A3.91,3.91,0,0,1,1530.1,492.18Z"/><path class="cls-10" d="M1561.72,492.18a3.78,3.78,0,1,1-3.77-4A3.91,3.91,0,0,1,1561.72,492.18Z"/><path class="cls-11" d="M1564.35,628.7a2,2,0,0,1-1.48-.65l-15.73-16.8a2.35,2.35,0,0,1,0-3.15,2,2,0,0,1,2.95,0l15.73,16.8a2.32,2.32,0,0,1,0,3.15A2,2,0,0,1,1564.35,628.7Z"/><path class="cls-11" d="M1548.62,628.71a2,2,0,0,1-1.48-.66,2.35,2.35,0,0,1,0-3.15l15.73-16.8a2,2,0,0,1,3,0,2.35,2.35,0,0,1,0,3.15l-15.73,16.8A2,2,0,0,1,1548.62,628.71Z"/><path class="cls-11" d="M1607.83,628.7a2,2,0,0,1-1.48-.65l-15.73-16.8a2.35,2.35,0,0,1,0-3.15,2,2,0,0,1,3,0l15.73,16.8a2.32,2.32,0,0,1,0,3.15A2,2,0,0,1,1607.83,628.7Z"/><path class="cls-11" d="M1592.1,628.71a2,2,0,0,1-1.48-.66,2.35,2.35,0,0,1,0-3.15l15.73-16.8a2,2,0,0,1,3,0,2.35,2.35,0,0,1,0,3.15l-15.73,16.8A2,2,0,0,1,1592.1,628.71Z"/><path class="cls-11" d="M1651.31,628.7a2,2,0,0,1-1.48-.65l-15.73-16.8a2.35,2.35,0,0,1,0-3.15,2,2,0,0,1,3,0l15.73,16.8a2.32,2.32,0,0,1,0,3.15A2,2,0,0,1,1651.31,628.7Z"/><path class="cls-11" d="M1635.58,628.71a2,2,0,0,1-1.48-.66,2.35,2.35,0,0,1,0-3.15l15.73-16.8a2,2,0,0,1,3,0,2.35,2.35,0,0,1,0,3.15l-15.73,16.8A2,2,0,0,1,1635.58,628.71Z"/><path class="cls-11" d="M1694.79,628.7a2,2,0,0,1-1.48-.65l-15.73-16.8a2.35,2.35,0,0,1,0-3.15,2,2,0,0,1,3,0l15.73,16.8a2.32,2.32,0,0,1,0,3.15A2,2,0,0,1,1694.79,628.7Z"/><path class="cls-11" d="M1679.06,628.71a2,2,0,0,1-1.48-.66,2.35,2.35,0,0,1,0-3.15l15.73-16.8a2,2,0,0,1,3,0,2.35,2.35,0,0,1,0,3.15l-15.73,16.8A2,2,0,0,1,1679.06,628.71Z"/><path class="cls-11" d="M1564.35,670a2,2,0,0,1-1.48-.65l-15.73-16.8a2.35,2.35,0,0,1,0-3.15,2,2,0,0,1,2.95,0l15.73,16.8a2.32,2.32,0,0,1,0,3.15A2,2,0,0,1,1564.35,670Z"/><path class="cls-11" d="M1548.62,670a2,2,0,0,1-1.48-.66,2.35,2.35,0,0,1,0-3.15l15.73-16.8a2,2,0,0,1,3,0,2.35,2.35,0,0,1,0,3.15l-15.73,16.8A2,2,0,0,1,1548.62,670Z"/><path class="cls-11" d="M1607.83,670a2,2,0,0,1-1.48-.65l-15.73-16.8a2.35,2.35,0,0,1,0-3.15,2,2,0,0,1,3,0l15.73,16.8a2.32,2.32,0,0,1,0,3.15A2,2,0,0,1,1607.83,670Z"/><path class="cls-11" d="M1592.1,670a2,2,0,0,1-1.48-.66,2.35,2.35,0,0,1,0-3.15l15.73-16.8a2,2,0,0,1,3,0,2.35,2.35,0,0,1,0,3.15l-15.73,16.8A2,2,0,0,1,1592.1,670Z"/><path class="cls-11" d="M1651.31,670a2,2,0,0,1-1.48-.65l-15.73-16.8a2.35,2.35,0,0,1,0-3.15,2,2,0,0,1,3,0l15.73,16.8a2.32,2.32,0,0,1,0,3.15A2,2,0,0,1,1651.31,670Z"/><path class="cls-11" d="M1635.58,670a2,2,0,0,1-1.48-.66,2.35,2.35,0,0,1,0-3.15l15.73-16.8a2,2,0,0,1,3,0,2.35,2.35,0,0,1,0,3.15l-15.73,16.8A2,2,0,0,1,1635.58,670Z"/><path class="cls-11" d="M1694.79,670a2,2,0,0,1-1.48-.65l-15.73-16.8a2.35,2.35,0,0,1,0-3.15,2,2,0,0,1,3,0l15.73,16.8a2.32,2.32,0,0,1,0,3.15A2,2,0,0,1,1694.79,670Z"/><path class="cls-11" d="M1679.06,670a2,2,0,0,1-1.48-.66,2.35,2.35,0,0,1,0-3.15l15.73-16.8a2,2,0,0,1,3,0,2.35,2.35,0,0,1,0,3.15l-15.73,16.8A2,2,0,0,1,1679.06,670Z"/><path class="cls-11" d="M309.62,627.9a2.27,2.27,0,0,1,.61-1.57L326,609.53a2,2,0,0,1,3,0,2.32,2.32,0,0,1,0,3.15l-15.73,16.8a2,2,0,0,1-2.95,0A2.31,2.31,0,0,1,309.62,627.9Z"/><path class="cls-11" d="M309.62,611.1a2.27,2.27,0,0,1,.61-1.57,2,2,0,0,1,2.95,0l15.73,16.79a2.32,2.32,0,0,1,0,3.15,2,2,0,0,1-3,0l-15.73-16.79A2.31,2.31,0,0,1,309.62,611.1Z"/><path class="cls-11" d="M309.62,674.34a2.31,2.31,0,0,1,.61-1.58L326,656a2,2,0,0,1,3,0,2.32,2.32,0,0,1,0,3.15l-15.73,16.8a2,2,0,0,1-2.95,0A2.27,2.27,0,0,1,309.62,674.34Z"/><path class="cls-11" d="M309.62,657.54a2.31,2.31,0,0,1,.61-1.58,2,2,0,0,1,2.95,0l15.73,16.8a2.32,2.32,0,0,1,0,3.15,2,2,0,0,1-3,0l-15.73-16.8A2.27,2.27,0,0,1,309.62,657.54Z"/><path class="cls-11" d="M309.62,720.77a2.27,2.27,0,0,1,.61-1.57L326,702.4a2,2,0,0,1,3,0,2.32,2.32,0,0,1,0,3.15l-15.73,16.8a2,2,0,0,1-2.95,0A2.31,2.31,0,0,1,309.62,720.77Z"/><path class="cls-11" d="M309.62,704a2.27,2.27,0,0,1,.61-1.57,2,2,0,0,1,2.95,0l15.73,16.79a2.32,2.32,0,0,1,0,3.15,2,2,0,0,1-3,0l-15.73-16.79A2.31,2.31,0,0,1,309.62,704Z"/><path class="cls-11" d="M309.62,767.21a2.31,2.31,0,0,1,.61-1.58L326,748.83a2,2,0,0,1,3,0,2.32,2.32,0,0,1,0,3.15l-15.73,16.8a2,2,0,0,1-2.95,0A2.27,2.27,0,0,1,309.62,767.21Z"/><path class="cls-11" d="M309.62,750.41a2.31,2.31,0,0,1,.61-1.58,2,2,0,0,1,2.95,0l15.73,16.8a2.32,2.32,0,0,1,0,3.15,2,2,0,0,1-3,0L310.23,752A2.27,2.27,0,0,1,309.62,750.41Z"/><path class="cls-11" d="M270.94,627.9a2.27,2.27,0,0,1,.61-1.57l15.73-16.8a2,2,0,0,1,3,0,2.35,2.35,0,0,1,0,3.15l-15.73,16.8a2,2,0,0,1-2.95,0A2.31,2.31,0,0,1,270.94,627.9Z"/><path class="cls-11" d="M270.93,611.1a2.31,2.31,0,0,1,.61-1.57,2,2,0,0,1,3,0l15.73,16.79a2.35,2.35,0,0,1,0,3.15,2,2,0,0,1-3,0l-15.74-16.79A2.36,2.36,0,0,1,270.93,611.1Z"/><path class="cls-11" d="M270.94,674.34a2.31,2.31,0,0,1,.61-1.58L287.28,656a2,2,0,0,1,3,0,2.35,2.35,0,0,1,0,3.15l-15.73,16.8a2,2,0,0,1-2.95,0A2.27,2.27,0,0,1,270.94,674.34Z"/><path class="cls-11" d="M270.93,657.54a2.36,2.36,0,0,1,.61-1.58,2,2,0,0,1,3,0l15.73,16.8a2.35,2.35,0,0,1,0,3.15,2,2,0,0,1-3,0l-15.74-16.8A2.31,2.31,0,0,1,270.93,657.54Z"/><path class="cls-11" d="M270.94,720.77a2.27,2.27,0,0,1,.61-1.57l15.73-16.8a2,2,0,0,1,3,0,2.35,2.35,0,0,1,0,3.15l-15.73,16.8a2,2,0,0,1-2.95,0A2.31,2.31,0,0,1,270.94,720.77Z"/><path class="cls-11" d="M270.93,704a2.31,2.31,0,0,1,.61-1.57,2,2,0,0,1,3,0l15.73,16.79a2.35,2.35,0,0,1,0,3.15,2,2,0,0,1-3,0l-15.74-16.79A2.36,2.36,0,0,1,270.93,704Z"/><path class="cls-11" d="M270.94,767.21a2.31,2.31,0,0,1,.61-1.58l15.73-16.8a2,2,0,0,1,3,0,2.35,2.35,0,0,1,0,3.15l-15.73,16.8a2,2,0,0,1-2.95,0A2.27,2.27,0,0,1,270.94,767.21Z"/><path class="cls-11" d="M270.93,750.41a2.36,2.36,0,0,1,.61-1.58,2,2,0,0,1,3,0l15.73,16.8a2.35,2.35,0,0,1,0,3.15,2,2,0,0,1-3,0L271.54,752A2.31,2.31,0,0,1,270.93,750.41Z"/><path class="cls-11" d="M318,1242.13a2,2,0,0,1-1.47-.66l-15.73-16.79a2.34,2.34,0,0,1,0-3.16,2,2,0,0,1,3,0l15.73,16.8a2.32,2.32,0,0,1,0,3.15A2,2,0,0,1,318,1242.13Z"/><path class="cls-11" d="M302.32,1242.13a2,2,0,0,1-1.48-.65,2.32,2.32,0,0,1,0-3.15l15.73-16.81a2,2,0,0,1,2.95,0,2.36,2.36,0,0,1,0,3.16l-15.73,16.8A2,2,0,0,1,302.32,1242.13Z"/><path class="cls-11" d="M361.52,1242.13a2,2,0,0,1-1.47-.66l-15.73-16.79a2.34,2.34,0,0,1,0-3.16,2,2,0,0,1,2.95,0l15.73,16.8a2.35,2.35,0,0,1,0,3.15A2,2,0,0,1,361.52,1242.13Z"/><path class="cls-11" d="M345.79,1242.13a2,2,0,0,1-1.47-.65,2.32,2.32,0,0,1,0-3.15L360,1221.52a2,2,0,0,1,3,0,2.36,2.36,0,0,1,0,3.16l-15.73,16.8A2,2,0,0,1,345.79,1242.13Z"/><path class="cls-11" d="M405,1242.13a2,2,0,0,1-1.47-.66l-15.73-16.79a2.34,2.34,0,0,1,0-3.16,2,2,0,0,1,2.95,0l15.73,16.8a2.35,2.35,0,0,1,0,3.15A2,2,0,0,1,405,1242.13Z"/><path class="cls-11" d="M389.27,1242.13a2,2,0,0,1-1.47-.65,2.32,2.32,0,0,1,0-3.15l15.72-16.81a2,2,0,0,1,3,0,2.36,2.36,0,0,1,0,3.16l-15.73,16.8A2,2,0,0,1,389.27,1242.13Z"/><path class="cls-11" d="M448.48,1242.13a2,2,0,0,1-1.47-.66l-15.73-16.79a2.34,2.34,0,0,1,0-3.16,2,2,0,0,1,3,0l15.73,16.8a2.35,2.35,0,0,1,0,3.15A2,2,0,0,1,448.48,1242.13Z"/><path class="cls-11" d="M432.75,1242.13a2,2,0,0,1-1.47-.65,2.32,2.32,0,0,1,0-3.15L447,1221.52a2,2,0,0,1,2.95,0,2.34,2.34,0,0,1,0,3.16l-15.72,16.8A2,2,0,0,1,432.75,1242.13Z"/><path class="cls-11" d="M318,1283.44a2,2,0,0,1-1.47-.65L300.84,1266a2.34,2.34,0,0,1,0-3.16,2,2,0,0,1,3,0l15.73,16.8a2.34,2.34,0,0,1,0,3.16A2,2,0,0,1,318,1283.44Z"/><path class="cls-11" d="M302.32,1283.44a2,2,0,0,1-1.48-.65,2.32,2.32,0,0,1,0-3.15l15.73-16.81a2,2,0,0,1,2.95,0,2.36,2.36,0,0,1,0,3.16l-15.73,16.8A2,2,0,0,1,302.32,1283.44Z"/><path class="cls-11" d="M361.52,1283.44a2,2,0,0,1-1.47-.65L344.32,1266a2.34,2.34,0,0,1,0-3.16,2,2,0,0,1,2.95,0l15.73,16.8a2.36,2.36,0,0,1,0,3.16A2,2,0,0,1,361.52,1283.44Z"/><path class="cls-11" d="M345.79,1283.44a2,2,0,0,1-1.47-.65,2.32,2.32,0,0,1,0-3.15L360,1262.83a2,2,0,0,1,3,0,2.36,2.36,0,0,1,0,3.16l-15.73,16.8A2,2,0,0,1,345.79,1283.44Z"/><path class="cls-11" d="M405,1283.44a2,2,0,0,1-1.47-.65L387.8,1266a2.34,2.34,0,0,1,0-3.16,2,2,0,0,1,2.95,0l15.73,16.8a2.36,2.36,0,0,1,0,3.16A2,2,0,0,1,405,1283.44Z"/><path class="cls-11" d="M389.27,1283.44a2,2,0,0,1-1.47-.65,2.32,2.32,0,0,1,0-3.15l15.72-16.81a2,2,0,0,1,3,0,2.36,2.36,0,0,1,0,3.16l-15.73,16.8A2,2,0,0,1,389.27,1283.44Z"/><path class="cls-11" d="M448.48,1283.44a2,2,0,0,1-1.47-.65L431.28,1266a2.34,2.34,0,0,1,0-3.16,2,2,0,0,1,3,0l15.73,16.8a2.36,2.36,0,0,1,0,3.16A2,2,0,0,1,448.48,1283.44Z"/><path class="cls-11" d="M432.75,1283.44a2,2,0,0,1-1.47-.65,2.32,2.32,0,0,1,0-3.15L447,1262.83a2,2,0,0,1,2.95,0,2.34,2.34,0,0,1,0,3.16l-15.72,16.8A2,2,0,0,1,432.75,1283.44Z"/><path class="cls-12" d="M2150.48,914.72,1875.83,621.4a31.82,31.82,0,0,0-47.08,0c-13,13.89-13,36.39,0,50.29l82.22,87.8c13,13.89,13,36.4,0,50.27a31.81,31.81,0,0,1-47.06,0l-3.6-3.83a31.79,31.79,0,0,0-47.07,0c-13,13.87-13,36.39,0,50.26l34.48,36.84c13,13.88,13,36.41,0,50.28a31.82,31.82,0,0,1-47.08,0l3.44,3.68a31.81,31.81,0,0,0-47.06,0c-13,13.88-13,36.4,0,50.28l201.66,215.37,16,17,18.84,20.12,157,167.67Z"/><polygon class="cls-6" points="1219.92 1096.08 1315.83 1123.53 1411.74 1150.97 1341.53 1225.95 1271.32 1300.94 1245.62 1198.51 1219.92 1096.08"/><path class="cls-11" d="M1318.89,1298.2l-56.06-223.43L1472,1134.63Zm-41.36-207.73,46.74,186.29L1452,1140.38Z"/><polygon class="cls-7" points="606.52 594.24 676.99 567.43 747.45 540.62 733.96 619.19 720.47 697.77 663.5 646 606.52 594.24"/><path class="cls-11" d="M736.84,747.61,612.56,634.69,766.27,576.2ZM628,637.7l103.62,94.15,24.53-142.91Z"/><polygon class="cls-7" points="1517.15 128.65 1573.46 157.19 1629.77 185.74 1578.47 223.55 1527.17 261.35 1522.16 195 1517.15 128.65"/><path class="cls-11" d="M1509.32,301,1498.4,156.29l122.83,62.26Zm-3.51-133.26,9.11,120.67,93.3-68.76Z"/><ellipse class="cls-7" cx="687.05" cy="1252.16" rx="81.16" ry="86.67"/><ellipse class="cls-6" cx="1915.13" cy="392.99" rx="81.16" ry="86.67"/><ellipse class="cls-6" cx="764.44" cy="193.41" rx="81.16" ry="86.67"/><ellipse class="cls-13" cx="623.05" cy="1181.02" rx="44.73" ry="47.77"/><ellipse class="cls-13" cx="1973.15" cy="440.75" rx="44.73" ry="47.77"/><path class="cls-11" d="M474.06,887.13c-12.95,0-23.49-11.25-23.49-25.09S461.11,837,474.06,837s23.5,11.26,23.5,25.09S487,887.13,474.06,887.13Zm0-39.08c-7.22,0-13.09,6.28-13.09,14s5.87,14,13.09,14,13.1-6.27,13.1-14S481.28,848.05,474.06,848.05Z"/><path class="cls-11" d="M1742.81,173c-13,0-23.5-11.25-23.5-25.08s10.54-25.1,23.5-25.1,23.49,11.26,23.49,25.1S1755.76,173,1742.81,173Zm0-39.07c-7.22,0-13.1,6.27-13.1,14s5.88,14,13.1,14,13.09-6.27,13.09-14S1750,133.92,1742.81,133.92Z"/><path class="cls-11" d="M1510.52,971.26c-13,0-23.49-11.26-23.49-25.09s10.54-25.09,23.49-25.09S1534,932.33,1534,946.17,1523.48,971.26,1510.52,971.26Zm0-39.08c-7.22,0-13.09,6.28-13.09,14s5.87,14,13.09,14,13.1-6.27,13.1-14S1517.74,932.18,1510.52,932.18Z"/><path class="cls-11" d="M2017.87,1157.65c-12.95,0-23.49-11.26-23.49-25.09s10.54-25.09,23.49-25.09,23.5,11.25,23.5,25.09S2030.83,1157.65,2017.87,1157.65Zm0-39.08c-7.22,0-13.09,6.28-13.09,14s5.87,14,13.09,14,13.1-6.27,13.1-14S2025.1,1118.57,2017.87,1118.57Z"/><path class="cls-11" d="M1174.38,424.74c-13,0-23.49-11.25-23.49-25.09s10.54-25.09,23.49-25.09,23.5,11.26,23.5,25.09S1187.34,424.74,1174.38,424.74Zm0-39.08c-7.22,0-13.09,6.28-13.09,14s5.87,14,13.09,14,13.1-6.27,13.1-14S1181.61,385.66,1174.38,385.66Z"/><path class="cls-11" d="M409.47,1106.3a10,10,0,0,1-7.35-3.26,11.64,11.64,0,0,1,0-15.7L551.55,927.77a9.93,9.93,0,0,1,14.7,0,11.64,11.64,0,0,1,0,15.7L416.83,1103A10.06,10.06,0,0,1,409.47,1106.3Z"/><path class="cls-6" d="M1018.57,474.16a7.31,7.31,0,0,1,5.37,2.38,8.51,8.51,0,0,1,0,11.48L914.69,604.69a7.26,7.26,0,0,1-10.75,0,8.51,8.51,0,0,1,0-11.48l109.25-116.67A7.34,7.34,0,0,1,1018.57,474.16Z"/><path class="cls-10" d="M1637,982a7.35,7.35,0,0,1,5.37,2.38,8.51,8.51,0,0,1,0,11.48l-109.25,116.68a7.26,7.26,0,0,1-10.75,0,8.51,8.51,0,0,1,0-11.48l109.25-116.68A7.37,7.37,0,0,1,1637,982Z"/><path class="cls-10" d="M2072.5.25a7.34,7.34,0,0,1,5.38,2.38,8.51,8.51,0,0,1,0,11.48L1968.62,130.78a7.26,7.26,0,0,1-10.75,0,8.53,8.53,0,0,1,0-11.48L2067.13,2.63A7.31,7.31,0,0,1,2072.5.25Z"/><path class="cls-10" d="M2169.27,1165a7.35,7.35,0,0,1,5.37,2.38,8.51,8.51,0,0,1,0,11.48l-109.25,116.68a7.26,7.26,0,0,1-10.75,0,8.51,8.51,0,0,1,0-11.48l109.25-116.68A7.37,7.37,0,0,1,2169.27,1165Z"/><path class="cls-6" d="M1330.16,956.08a10,10,0,0,1-7.35-3.25,11.64,11.64,0,0,1,0-15.7l158-168.78a9.94,9.94,0,0,1,14.7,0,11.64,11.64,0,0,1,0,15.7l-158,168.78A10,10,0,0,1,1330.16,956.08Z"/><path class="cls-6" d="M2028.27,662.74a10,10,0,0,1-7.35-3.25,11.64,11.64,0,0,1,0-15.7L2179,475a9.93,9.93,0,0,1,14.7,0,11.64,11.64,0,0,1,0,15.7l-158,168.78A10,10,0,0,1,2028.27,662.74Z"/><path class="cls-6" d="M1627.43,1513a10,10,0,0,1-7.35-3.25,11.64,11.64,0,0,1,0-15.7l158-168.78a9.94,9.94,0,0,1,14.7,0,11.64,11.64,0,0,1,0,15.7l-158,168.78A10,10,0,0,1,1627.43,1513Z"/><path class="cls-7" d="M981.09,324.15a10.07,10.07,0,0,1-7.36-3.26,11.64,11.64,0,0,1,0-15.7l158-168.78a9.94,9.94,0,0,1,14.7,0,11.63,11.63,0,0,1,0,15.71l-158,168.77A10,10,0,0,1,981.09,324.15Z"/><path class="cls-6" d="M250.5,202.23a10,10,0,0,1-7.35-3.26,11.64,11.64,0,0,1,0-15.7l158-168.78a9.94,9.94,0,0,1,14.7,0,11.65,11.65,0,0,1,0,15.71L257.85,199A10,10,0,0,1,250.5,202.23Z"/><path class="cls-7" d="M141.74,1228.74a10,10,0,0,1-7.35-3.25,11.64,11.64,0,0,1,0-15.7l158-168.78a9.94,9.94,0,0,1,14.7,0,11.62,11.62,0,0,1,0,15.7l-158,168.78A10.06,10.06,0,0,1,141.74,1228.74Z"/><rect class="cls-3" x="1506.72" y="467.91" width="43.72" height="46.69"/></g></g></g></svg>