<svg xmlns="http://www.w3.org/2000/svg" xmlns:xlink="http://www.w3.org/1999/xlink" viewBox="0 0 529.24 616.77"><defs><style>.cls-1{fill:none;}.cls-2{isolation:isolate;}.cls-3{clip-path:url(#clip-path);}.cls-4{fill:#c5cbc0;}.cls-5{fill:#c2c8bd;}.cls-6{fill:#bfc5ba;}.cls-7{fill:#bcc2b7;}.cls-8{fill:#babfb4;}.cls-9{fill:#b7bcb1;}.cls-10{fill:#b4b9ae;}.cls-11{fill:#b1b6ac;}.cls-12{fill:#afb4aa;}.cls-13{clip-path:url(#clip-path-2);}.cls-14{clip-path:url(#clip-path-3);}.cls-15{fill:#ccd2c7;}.cls-16{clip-path:url(#clip-path-4);}.cls-17{clip-path:url(#clip-path-5);}.cls-18{fill:#e5ecdf;}.cls-19{clip-path:url(#clip-path-6);}.cls-20{clip-path:url(#clip-path-7);}.cls-21{fill:#d6dcd0;}.cls-22{fill:#d4dace;}.cls-23{fill:#d2d8cc;}.cls-24{fill:#dbe1d5;}.cls-25{clip-path:url(#clip-path-8);}.cls-26{fill:#c8cec3;}.cls-27{fill:#c7cdc2;}.cls-28{clip-path:url(#clip-path-9);}.cls-29{clip-path:url(#clip-path-10);}.cls-30{fill:#cad0c5;}.cls-31{fill:#ced4c9;}.cls-32{fill:#d0d6ca;}.cls-33{fill:#ebf2e5;}.cls-34{clip-path:url(#clip-path-11);}.cls-35{clip-path:url(#clip-path-12);}.cls-36{clip-path:url(#clip-path-13);}.cls-37{clip-path:url(#clip-path-14);}.cls-38{clip-path:url(#clip-path-15);}.cls-39{clip-path:url(#clip-path-16);}.cls-40{clip-path:url(#clip-path-17);}.cls-41{clip-path:url(#clip-path-18);}.cls-42{clip-path:url(#clip-path-19);}.cls-43{clip-path:url(#clip-path-20);}.cls-44{clip-path:url(#clip-path-21);}.cls-45{clip-path:url(#clip-path-22);}.cls-46{clip-path:url(#clip-path-23);}.cls-47{clip-path:url(#clip-path-24);}.cls-48{clip-path:url(#clip-path-25);}.cls-49{clip-path:url(#clip-path-26);}.cls-50{clip-path:url(#clip-path-27);}.cls-51{clip-path:url(#clip-path-28);}.cls-52{clip-path:url(#clip-path-29);}.cls-53{clip-path:url(#clip-path-30);}.cls-54{fill:#c6ccc1;}.cls-55{clip-path:url(#clip-path-31);}.cls-56{clip-path:url(#clip-path-32);}.cls-57{clip-path:url(#clip-path-33);}.cls-58{fill:#ccd1c6;}.cls-59{clip-path:url(#clip-path-34);}.cls-60{clip-path:url(#clip-path-35);}.cls-61{clip-path:url(#clip-path-36);}.cls-62{clip-path:url(#clip-path-37);}.cls-63{fill:#cfd5c9;}.cls-64{clip-path:url(#clip-path-38);}.cls-65{clip-path:url(#clip-path-39);}.cls-66{clip-path:url(#clip-path-40);}.cls-67{clip-path:url(#clip-path-41);}.cls-68{clip-path:url(#clip-path-42);}</style><clipPath id="clip-path" transform="translate(0 0)"><path class="cls-1" d="M481,540.32l-22.79-12.4c16.76-2.36,30.43-19,30.47-37.09l22.79,12.4C511.47,521.32,497.81,538,481,540.32Z"/></clipPath><clipPath id="clip-path-2" transform="translate(0 0)"><path class="cls-1" d="M475.41,21.48l22.79,12.4c8.51,4.63,14.15,14.09,14.13,25.75l-22.79-12.4C489.56,35.57,483.92,26.11,475.41,21.48Z"/></clipPath><clipPath id="clip-path-3" transform="translate(0 0)"><path class="cls-1" d="M484.46,4.78l22.8,12.4A40.54,40.54,0,0,0,482,12.83L459.23.43A40.53,40.53,0,0,1,484.46,4.78Z"/></clipPath><clipPath id="clip-path-4" transform="translate(0 0)"><path class="cls-1" d="M53.83,595.29,31,582.89a26,26,0,0,0,16.22,2.79l22.79,12.4A26,26,0,0,1,53.83,595.29Z"/></clipPath><clipPath id="clip-path-5" transform="translate(0 0)"><path class="cls-1" d="M44.78,612,22,599.58C8.75,592.39,0,577.66,0,559.51l22.79,12.4C22.76,590.06,31.54,604.78,44.78,612Z"/></clipPath><clipPath id="clip-path-6" transform="translate(0 0)"><path class="cls-1" d="M23.62,128.32.82,115.92C.88,87.76,22.15,61.86,48.24,58.2L71,70.59C44.94,74.26,23.67,100.16,23.62,128.32Z"/></clipPath><clipPath id="clip-path-7" transform="translate(0 0)"><path class="cls-1" d="M140.49,531.13l22.79,12.4a10.36,10.36,0,0,0-6.45-.75L134,530.38A10.38,10.38,0,0,1,140.49,531.13Z"/></clipPath><clipPath id="clip-path-8" transform="translate(0 0)"><path class="cls-1" d="M85.41,572.16l-22.79-12.4q-3.63-2-3.61-8.38l22.79,12.4Q81.79,570.18,85.41,572.16Z"/></clipPath><clipPath id="clip-path-9" transform="translate(0 0)"><path class="cls-1" d="M75.2,402.86,98,415.26a9.32,9.32,0,0,0-5.81-.73l-22.8-12.4A9.31,9.31,0,0,1,75.2,402.86Z"/></clipPath><clipPath id="clip-path-10" transform="translate(0 0)"><path class="cls-1" d="M82.06,426.87l-22.8-12.4q0-10.92,10.13-12.34l22.8,12.4Q82.08,416,82.06,426.87Z"/></clipPath><clipPath id="clip-path-11" transform="translate(0 0)"><path class="cls-1" d="M411,499.33l-22.8-12.4q4.21-5.6,4.66-16.11l22.8,12.4Q415.18,493.74,411,499.33Z"/></clipPath><clipPath id="clip-path-12" transform="translate(0 0)"><path class="cls-1" d="M403,506.37,380.15,494a33.28,33.28,0,0,0,8-7l22.8,12.4A33.67,33.67,0,0,1,403,506.37Z"/></clipPath><clipPath id="clip-path-13" transform="translate(0 0)"><path class="cls-1" d="M392.41,509.67l-22.79-12.4c.6,0,1.21-.09,1.81-.18a23.44,23.44,0,0,0,8.72-3.12l22.8,12.4a23.55,23.55,0,0,1-8.73,3.12C393.62,509.58,393,509.63,392.41,509.67Z"/></clipPath><clipPath id="clip-path-14" transform="translate(0 0)"><path class="cls-1" d="M415.63,483.22l-22.8-12.4q.45-12.35-8.39-17.93l22.79,12.4Q416.08,470.87,415.63,483.22Z"/></clipPath><clipPath id="clip-path-15" transform="translate(0 0)"><path class="cls-1" d="M383,452l22.79,12.4c.51.28,1,.58,1.49.9l-22.79-12.4C384,452.57,383.46,452.27,383,452Z"/></clipPath><clipPath id="clip-path-16" transform="translate(0 0)"><path class="cls-1" d="M392.92,431l22.8,12.4a30.53,30.53,0,0,0-10.12-3.32l-22.79-12.4A30.47,30.47,0,0,1,392.92,431Z"/></clipPath><clipPath id="clip-path-17" transform="translate(0 0)"><path class="cls-1" d="M330.3,538l-22.79-12.4a7.42,7.42,0,0,1-2-1.6l22.8,12.4A7.38,7.38,0,0,0,330.3,538Z"/></clipPath><clipPath id="clip-path-18" transform="translate(0 0)"><path class="cls-1" d="M380.74,439.91,358,427.51a29.21,29.21,0,0,0,8-7.49l22.8,12.4A29.54,29.54,0,0,1,380.74,439.91Z"/></clipPath><clipPath id="clip-path-19" transform="translate(0 0)"><path class="cls-1" d="M388.76,432.42,366,420q5.49-7.12,5.51-17.6l22.8,12.4Q394.24,425.29,388.76,432.42Z"/></clipPath><clipPath id="clip-path-20" transform="translate(0 0)"><path class="cls-1" d="M328.32,536.41,305.52,524,303,521.64,325.79,534Z"/></clipPath><clipPath id="clip-path-21" transform="translate(0 0)"><path class="cls-1" d="M325.79,534,303,521.64c0-.08,0-1.51,0-4.55v-1.82l22.79,12.4V534Z"/></clipPath><clipPath id="clip-path-22" transform="translate(0 0)"><path class="cls-1" d="M371,444l-22.79-12.4a21.61,21.61,0,0,0,9.7-4.1l22.79,12.4A21.56,21.56,0,0,1,371,444Z"/></clipPath><clipPath id="clip-path-23" transform="translate(0 0)"><path class="cls-1" d="M363,385.7l22.79,12.4q8.14,4.42,8.52,16.72l-22.8-12.4Q371.11,390.14,363,385.7Z"/></clipPath><clipPath id="clip-path-24" transform="translate(0 0)"><path class="cls-1" d="M361.56,385l22.79,12.4.26.14-22.79-12.39Z"/></clipPath><clipPath id="clip-path-25" transform="translate(0 0)"><path class="cls-1" d="M371.37,365.76l22.79,12.4a31,31,0,0,0-19.62-3.31l-22.79-12.4A31,31,0,0,1,371.37,365.76Z"/></clipPath><clipPath id="clip-path-26" transform="translate(0 0)"><path class="cls-1" d="M328.6,384.49l-22.79-12.4a9.68,9.68,0,0,1,6.32-3.62l22.79,12.4A9.68,9.68,0,0,0,328.6,384.49Z"/></clipPath><clipPath id="clip-path-27" transform="translate(0 0)"><path class="cls-1" d="M326.05,393.94l-22.79-12.4v-1.82a12.93,12.93,0,0,1,2.55-7.63l22.79,12.4a12.93,12.93,0,0,0-2.55,7.63Z"/></clipPath><clipPath id="clip-path-28" transform="translate(0 0)"><path class="cls-1" d="M290.82,543.68,268,531.28a8.25,8.25,0,0,1-3.79-4.65L287,539A8.22,8.22,0,0,0,290.82,543.68Z"/></clipPath><clipPath id="clip-path-29" transform="translate(0 0)"><path class="cls-1" d="M200.39,556.05l-22.79-12.4a7,7,0,0,1-3.13-3.95l22.79,12.4A7,7,0,0,0,200.39,556.05Z"/></clipPath><clipPath id="clip-path-30" transform="translate(0 0)"><path class="cls-1" d="M197.26,552.1l-22.79-12.4a10.22,10.22,0,0,1-.41-7.68l22.79,12.4A10.27,10.27,0,0,0,197.26,552.1Z"/></clipPath><clipPath id="clip-path-31" transform="translate(0 0)"><path class="cls-1" d="M217.46,420.12l22.79,12.4a5.92,5.92,0,0,0-1.06-.45l-22.79-12.4A6.25,6.25,0,0,1,217.46,420.12Z"/></clipPath><clipPath id="clip-path-32" transform="translate(0 0)"><path class="cls-1" d="M232.87,433.41,210.08,421a7.48,7.48,0,0,1,3.51-1.53,7.1,7.1,0,0,1,2.81.19l22.79,12.4a7.1,7.1,0,0,0-2.81-.19A7.57,7.57,0,0,0,232.87,433.41Z"/></clipPath><clipPath id="clip-path-33" transform="translate(0 0)"><path class="cls-1" d="M231.53,380.91l22.79,12.4-.31-.16-22.79-12.4Z"/></clipPath><clipPath id="clip-path-34" transform="translate(0 0)"><path class="cls-1" d="M228.65,439.46l-22.79-12.4a10,10,0,0,1,4.22-6.05l22.79,12.4A10,10,0,0,0,228.65,439.46Z"/></clipPath><clipPath id="clip-path-35" transform="translate(0 0)"><path class="cls-1" d="M247.69,394l-22.79-12.4a9.31,9.31,0,0,1,3.26-1.14,6.7,6.7,0,0,1,3.06.25L254,393.15a6.67,6.67,0,0,0-3-.25A9.28,9.28,0,0,0,247.69,394Z"/></clipPath><clipPath id="clip-path-36" transform="translate(0 0)"><path class="cls-1" d="M243,407.42,220.23,395a12.15,12.15,0,0,1,0-7.73L243,399.69A12.14,12.14,0,0,0,243,407.42Z"/></clipPath><clipPath id="clip-path-37" transform="translate(0 0)"><path class="cls-1" d="M243,399.69l-22.79-12.4a11.84,11.84,0,0,1,4.65-5.65L247.69,394A12,12,0,0,0,243,399.69Z"/></clipPath><clipPath id="clip-path-38" transform="translate(0 0)"><path class="cls-1" d="M246.61,288.52l-22.79-12.4a21.85,21.85,0,0,0,13.83,2.11q16.23-2.28,24.09-20l22.79,12.4q-7.86,17.72-24.08,20A21.89,21.89,0,0,1,246.61,288.52Z"/></clipPath><clipPath id="clip-path-39" transform="translate(0 0)"><path class="cls-1" d="M246.15,192.4l22.79,12.4a13.86,13.86,0,0,0-8.76-1.39L237.38,191A13.88,13.88,0,0,1,246.15,192.4Z"/></clipPath><clipPath id="clip-path-40" transform="translate(0 0)"><path class="cls-1" d="M252,141.39l22.79,12.4q6,3.27,9.94,11,7.8,15.39,7.73,51.82t-7.93,54l-22.79-12.4q7.86-17.72,7.93-54t-7.73-51.82Q258,144.67,252,141.39Z"/></clipPath><clipPath id="clip-path-41" transform="translate(0 0)"><path class="cls-1" d="M252,238.5l-22.79-12.4a14.46,14.46,0,0,1-3.34-2.55A17,17,0,0,1,221.13,211a20.53,20.53,0,0,1,4.68-13.31A17.7,17.7,0,0,1,237.38,191l22.8,12.4a17.69,17.69,0,0,0-11.58,6.71,20.53,20.53,0,0,0-4.68,13.31,17,17,0,0,0,4.74,12.51A14.66,14.66,0,0,0,252,238.5Z"/></clipPath><clipPath id="clip-path-42" transform="translate(0 0)"><path class="cls-1" d="M236.91,304.07l-22.79-12.4A38.93,38.93,0,0,1,200,277.84q-13.22-20.83-13.13-62,.06-40,13-65.14T237.94,122q13.5-1.91,23.56,3.57L284.29,138q-10.05-5.47-23.55-3.57-25.2,3.54-38.12,28.71t-13,65.14q-.07,41.14,13.14,62A38.83,38.83,0,0,0,236.91,304.07Z"/></clipPath></defs><title>资源 66</title><g id="图层_2" data-name="图层 2"><g id="图层_1-2" data-name="图层 1"><g class="cls-2"><g class="cls-2"><g class="cls-3"><g class="cls-2"><path class="cls-4" d="M481,540.32l-22.79-12.4a31.16,31.16,0,0,0,8.86-2.66l22.79,12.4a31.07,31.07,0,0,1-8.86,2.66" transform="translate(0 0)"/><path class="cls-5" d="M489.9,537.66l-22.79-12.4a36.34,36.34,0,0,0,4.94-2.85l22.79,12.4a35.16,35.16,0,0,1-4.94,2.85" transform="translate(0 0)"/><path class="cls-6" d="M494.84,534.81l-22.79-12.4a38,38,0,0,0,3.68-2.92l22.79,12.4a38,38,0,0,1-3.68,2.92" transform="translate(0 0)"/><path class="cls-7" d="M498.52,531.89l-22.79-12.4a38.41,38.41,0,0,0,3.11-3.14l22.8,12.4a37,37,0,0,1-3.12,3.14" transform="translate(0 0)"/><path class="cls-8" d="M501.64,528.75l-22.8-12.4a40.42,40.42,0,0,0,2.75-3.48l22.79,12.4a41.91,41.91,0,0,1-2.74,3.48" transform="translate(0 0)"/><path class="cls-9" d="M504.38,525.27l-22.79-12.4a41.46,41.46,0,0,0,2.48-4l22.79,12.4a41.46,41.46,0,0,1-2.48,4" transform="translate(0 0)"/><path class="cls-10" d="M506.86,521.24l-22.79-12.4a41.31,41.31,0,0,0,2.31-5.12l22.79,12.39a39.4,39.4,0,0,1-2.31,5.13" transform="translate(0 0)"/><path class="cls-11" d="M509.17,516.11l-22.79-12.39a37.67,37.67,0,0,0,2.34-12.89l22.79,12.4a37.61,37.61,0,0,1-2.34,12.88" transform="translate(0 0)"/></g></g></g><polygon class="cls-12" points="511.51 503.23 488.71 490.83 489.54 47.23 512.33 59.63 511.51 503.23"/><g class="cls-2"><g class="cls-13"><g class="cls-2"><path class="cls-11" d="M512.33,59.63l-22.79-12.4c0-11.66-5.62-21.12-14.13-25.75l22.79,12.4c8.51,4.63,14.15,14.09,14.13,25.75" transform="translate(0 0)"/></g></g></g><g class="cls-2"><g class="cls-14"><g class="cls-2"><path class="cls-4" d="M482,12.83,459.23.43a41.92,41.92,0,0,1,16.31.84l22.79,12.4A41.92,41.92,0,0,0,482,12.83" transform="translate(0 0)"/><path class="cls-5" d="M498.33,13.67,475.54,1.27A38.51,38.51,0,0,1,483,4l22.79,12.4a38.51,38.51,0,0,0-7.48-2.77" transform="translate(0 0)"/><path class="cls-6" d="M505.81,16.44,483,4c.49.24,1,.48,1.44.74l22.8,12.4c-.48-.26-1-.51-1.45-.74" transform="translate(0 0)"/></g></g></g><polygon class="cls-15" points="70.05 598.08 47.26 585.68 458.25 527.92 481.04 540.32 70.05 598.08"/><g class="cls-2"><g class="cls-16"><g class="cls-2"><path class="cls-6" d="M53.83,595.29,31,582.89l.93.48,22.79,12.4-.93-.48" transform="translate(0 0)"/><path class="cls-5" d="M54.76,595.77,32,583.37a24.69,24.69,0,0,0,4.81,1.77l22.79,12.4a24.69,24.69,0,0,1-4.81-1.77" transform="translate(0 0)"/><path class="cls-4" d="M59.57,597.54l-22.79-12.4a26.65,26.65,0,0,0,10.48.54l22.79,12.4a26.86,26.86,0,0,1-10.48-.54" transform="translate(0 0)"/></g></g></g><g class="cls-2"><g class="cls-17"><g class="cls-2"><path class="cls-11" d="M44.78,612,22,599.58C8.75,592.39,0,577.66,0,559.51l22.79,12.4c0,18.15,8.75,32.87,22,40.07" transform="translate(0 0)"/></g></g></g><polygon class="cls-15" points="71.03 70.59 48.24 58.2 459.23 0.43 482.02 12.83 71.03 70.59"/><polygon class="cls-12" points="22.79 571.91 0 559.51 0.82 115.92 23.62 128.32 22.79 571.91"/><path class="cls-18" d="M482,12.83c26.09-3.66,47.28,16.27,47.22,44.43l-.82,443.59c0,28.16-21.32,54-47.41,57.72L70,616.33C43.93,620,22.74,600.07,22.79,571.91l.83-443.59C23.67,100.16,44.94,74.26,71,70.59Zm29.49,490.4.82-443.6c0-18.09-13.58-30.9-30.34-28.54L71,88.85c-16.77,2.35-30.44,19-30.47,37.09l-.83,443.6c0,18.09,13.58,30.9,30.35,28.54l411-57.76c16.77-2.36,30.43-19,30.47-37.09" transform="translate(0 0)"/><g class="cls-2"><g class="cls-19"><g class="cls-2"><path class="cls-11" d="M23.62,128.32.82,115.92A58.79,58.79,0,0,1,4.46,95.86l22.8,12.4a58.31,58.31,0,0,0-3.64,20.06" transform="translate(0 0)"/><path class="cls-10" d="M27.26,108.26,4.46,95.86a63.41,63.41,0,0,1,3.59-8l22.8,12.4a62,62,0,0,0-3.59,8" transform="translate(0 0)"/><path class="cls-9" d="M30.85,100.29,8.05,87.89a62.83,62.83,0,0,1,3.87-6.27L34.71,94a61,61,0,0,0-3.86,6.27" transform="translate(0 0)"/><path class="cls-8" d="M34.71,94,11.92,81.62a60.55,60.55,0,0,1,4.27-5.42L39,88.6A62.42,62.42,0,0,0,34.71,94" transform="translate(0 0)"/><path class="cls-7" d="M39,88.6,16.19,76.2A60.37,60.37,0,0,1,21,71.31l22.79,12.4A60.39,60.39,0,0,0,39,88.6" transform="translate(0 0)"/><path class="cls-6" d="M43.82,83.71,21,71.31a57.54,57.54,0,0,1,5.73-4.53l22.79,12.4a57.54,57.54,0,0,0-5.73,4.53" transform="translate(0 0)"/><path class="cls-5" d="M49.55,79.18,26.76,66.78a53.62,53.62,0,0,1,7.69-4.44l22.79,12.4a53.62,53.62,0,0,0-7.69,4.44" transform="translate(0 0)"/><path class="cls-4" d="M57.24,74.74,34.45,62.34A48,48,0,0,1,48.24,58.2L71,70.59a48.51,48.51,0,0,0-13.79,4.15" transform="translate(0 0)"/></g></g></g></g><g class="cls-2"><g class="cls-2"><g class="cls-20"><g class="cls-2"><path class="cls-21" d="M156.83,542.78,134,530.38a12.74,12.74,0,0,1,4.83.12l22.79,12.4a12.74,12.74,0,0,0-4.83-.12" transform="translate(0 0)"/><path class="cls-22" d="M161.66,542.9l-22.79-12.4a7.91,7.91,0,0,1,1.37.5L163,543.4a8.34,8.34,0,0,0-1.38-.5" transform="translate(0 0)"/><path class="cls-23" d="M163,543.4,140.24,531l.25.13,22.79,12.4-.24-.13" transform="translate(0 0)"/></g></g></g><polygon class="cls-24" points="101.62 550.54 78.83 538.14 134.04 530.38 156.83 542.78 101.62 550.54"/><g class="cls-2"><g class="cls-25"><g class="cls-2"><path class="cls-26" d="M85.41,572.16l-22.79-12.4q-3.63-2-3.61-8.38l22.79,12.4q0,6.4,3.61,8.38" transform="translate(0 0)"/></g></g></g><polygon class="cls-27" points="81.8 563.78 59.01 551.38 59.01 549.56 81.81 561.96 81.8 563.78"/><g class="cls-2"><g class="cls-28"><g class="cls-2"><path class="cls-21" d="M92.19,414.53l-22.8-12.4a11.27,11.27,0,0,1,4.27.13l22.79,12.4a11,11,0,0,0-4.26-.13" transform="translate(0 0)"/><path class="cls-22" d="M96.45,414.66l-22.79-12.4a6.79,6.79,0,0,1,1.31.48l22.79,12.4a6.56,6.56,0,0,0-1.31-.48" transform="translate(0 0)"/><path class="cls-23" d="M97.76,415.14,75,402.74l.23.12L98,415.26l-.24-.12" transform="translate(0 0)"/></g></g></g><polygon class="cls-27" points="81.81 561.96 59.01 549.56 59.26 414.47 82.06 426.87 81.81 561.96"/><g class="cls-2"><g class="cls-29"><g class="cls-2"><path class="cls-26" d="M82.06,426.87l-22.8-12.4a16.42,16.42,0,0,1,.88-5.58l22.8,12.39a16,16,0,0,0-.88,5.59" transform="translate(0 0)"/><path class="cls-30" d="M82.94,421.28l-22.8-12.39a9.92,9.92,0,0,1,.63-1.4l22.79,12.39a11,11,0,0,0-.62,1.4" transform="translate(0 0)"/><path class="cls-15" d="M83.56,419.88,60.77,407.49a9.2,9.2,0,0,1,.61-1l22.79,12.4c-.22.32-.42.65-.61,1" transform="translate(0 0)"/><path class="cls-31" d="M84.17,418.89l-22.79-12.4a9.89,9.89,0,0,1,.64-.81l22.79,12.4a9.89,9.89,0,0,0-.64.81" transform="translate(0 0)"/><path class="cls-32" d="M84.81,418.08,62,405.68a7.49,7.49,0,0,1,.74-.75l22.8,12.4a7.59,7.59,0,0,0-.75.75" transform="translate(0 0)"/><path class="cls-23" d="M85.56,417.33l-22.8-12.4a10.34,10.34,0,0,1,1-.76l22.79,12.4a10.2,10.2,0,0,0-1,.76" transform="translate(0 0)"/><path class="cls-22" d="M86.51,416.57l-22.79-12.4a11,11,0,0,1,1.51-.86L88,415.71a11.61,11.61,0,0,0-1.51.86" transform="translate(0 0)"/><path class="cls-21" d="M88,415.71l-22.79-12.4a14.61,14.61,0,0,1,4.16-1.18l22.8,12.4A14.68,14.68,0,0,0,88,415.71" transform="translate(0 0)"/></g></g></g><path class="cls-33" d="M92.19,414.53c6.17-.86,9.4,2.16,9.67,9.1l-.24,126.91,55.21-7.76q10.13-1.42,10.1,9T156.79,563.7l-65.32,9.18c-6.47.91-9.68-2.12-9.67-9.1V562l.26-135.09Q82.07,415.95,92.19,414.53Z" transform="translate(0 0)"/></g><g class="cls-2"><g class="cls-2"><g class="cls-34"><g class="cls-2"><path class="cls-31" d="M411,499.33l-22.8-12.4.35-.47,22.79,12.4-.34.47" transform="translate(0 0)"/><path class="cls-15" d="M411.31,498.86l-22.79-12.4a19.15,19.15,0,0,0,1.11-1.82L412.42,497a17.29,17.29,0,0,1-1.11,1.82" transform="translate(0 0)"/><path class="cls-30" d="M412.42,497l-22.79-12.4a21.45,21.45,0,0,0,1.25-2.78l22.79,12.39a21,21,0,0,1-1.25,2.79" transform="translate(0 0)"/><path class="cls-26" d="M413.67,494.25l-22.79-12.39a36.86,36.86,0,0,0,1.95-11l22.8,12.4a36.71,36.71,0,0,1-2,11" transform="translate(0 0)"/></g></g></g><g class="cls-2"><g class="cls-35"><g class="cls-2"><path class="cls-22" d="M403,506.37,380.15,494l1.27-.84,22.8,12.4-1.27.84" transform="translate(0 0)"/><path class="cls-23" d="M404.22,505.53l-22.8-12.4a35,35,0,0,0,3.36-2.65l22.79,12.4a34.83,34.83,0,0,1-3.35,2.65" transform="translate(0 0)"/><path class="cls-32" d="M407.57,502.88l-22.79-12.4a35.26,35.26,0,0,0,2.65-2.68l22.79,12.4a33.49,33.49,0,0,1-2.65,2.68" transform="translate(0 0)"/><path class="cls-31" d="M410.22,500.2l-22.79-12.4.74-.87,22.8,12.4c-.25.29-.49.58-.75.87" transform="translate(0 0)"/></g></g></g><g class="cls-2"><g class="cls-36"><g class="cls-2"><path class="cls-21" d="M392.41,509.67l-22.79-12.4c.6,0,1.21-.09,1.81-.18a22.66,22.66,0,0,0,6.58-2l22.79,12.4a22.57,22.57,0,0,1-6.58,2c-.6.09-1.2.14-1.81.18" transform="translate(0 0)"/><path class="cls-22" d="M400.8,507.5,378,495.1c.72-.34,1.43-.72,2.14-1.13l22.8,12.4c-.71.41-1.43.79-2.15,1.13" transform="translate(0 0)"/></g></g></g><g class="cls-2"><g class="cls-37"><g class="cls-2"><path class="cls-26" d="M415.63,483.22l-22.8-12.4q.45-12.35-8.39-17.93l22.79,12.4q8.85,5.58,8.4,17.93" transform="translate(0 0)"/></g></g></g><g class="cls-2"><g class="cls-38"><g class="cls-2"><path class="cls-26" d="M407.23,465.29l-22.79-12.4c-.48-.32-1-.62-1.49-.9l22.79,12.4c.51.28,1,.58,1.49.9" transform="translate(0 0)"/></g></g></g><g class="cls-2"><g class="cls-39"><g class="cls-2"><path class="cls-21" d="M405.6,440.06l-22.79-12.4c1.16.18,2.3.41,3.4.69l22.8,12.4a33.72,33.72,0,0,0-3.41-.69" transform="translate(0 0)"/><path class="cls-22" d="M409,440.75l-22.8-12.4a30,30,0,0,1,5.69,2.1l22.79,12.4a29.85,29.85,0,0,0-5.68-2.1" transform="translate(0 0)"/><path class="cls-23" d="M414.69,442.85l-22.79-12.4,1,.53,22.8,12.4c-.34-.18-.68-.36-1-.53" transform="translate(0 0)"/></g></g></g><polygon class="cls-24" points="343.52 516.54 320.73 504.14 369.62 497.27 392.41 509.67 343.52 516.54"/><g class="cls-2"><g class="cls-40"><g class="cls-2"><path class="cls-26" d="M330.3,538l-22.79-12.4a7.42,7.42,0,0,1-2-1.6l22.8,12.4a7.38,7.38,0,0,0,2,1.6" transform="translate(0 0)"/></g></g></g><g class="cls-2"><g class="cls-41"><g class="cls-2"><path class="cls-22" d="M380.74,439.91,358,427.51c.35-.22.69-.44,1-.67l22.8,12.4-1,.67" transform="translate(0 0)"/><path class="cls-23" d="M381.77,439.24,359,426.84a28.83,28.83,0,0,0,2.88-2.28l22.8,12.4a30,30,0,0,1-2.88,2.28" transform="translate(0 0)"/><path class="cls-32" d="M384.65,437l-22.8-12.4a30.46,30.46,0,0,0,2.4-2.42L387,434.54a30.34,30.34,0,0,1-2.39,2.42" transform="translate(0 0)"/><path class="cls-31" d="M387,434.54l-22.79-12.4c.59-.68,1.17-1.38,1.71-2.12l22.8,12.4c-.55.74-1.12,1.44-1.72,2.12" transform="translate(0 0)"/></g></g></g><g class="cls-2"><g class="cls-42"><g class="cls-2"><path class="cls-31" d="M388.76,432.42,366,420c.23-.3.46-.61.67-.91l22.8,12.39c-.22.31-.44.62-.67.92" transform="translate(0 0)"/><path class="cls-15" d="M389.43,431.5l-22.8-12.39a23.34,23.34,0,0,0,1.55-2.52L391,429a25.61,25.61,0,0,1-1.55,2.51" transform="translate(0 0)"/><path class="cls-30" d="M391,429l-22.8-12.4a25.18,25.18,0,0,0,1.49-3.3l22.79,12.4A25.74,25.74,0,0,1,391,429" transform="translate(0 0)"/><path class="cls-26" d="M392.46,425.69l-22.79-12.4a31.49,31.49,0,0,0,1.8-10.87l22.8,12.4a31.49,31.49,0,0,1-1.81,10.87" transform="translate(0 0)"/></g></g></g><g class="cls-2"><g class="cls-43"><g class="cls-2"><path class="cls-26" d="M328.32,536.41,305.52,524,303,521.64,325.79,534l2.53,2.37" transform="translate(0 0)"/></g></g></g><g class="cls-2"><g class="cls-44"><g class="cls-2"><path class="cls-26" d="M325.79,534,303,521.64v-6.37l22.79,12.4V534" transform="translate(0 0)"/></g></g></g><g class="cls-2"><g class="cls-45"><g class="cls-2"><path class="cls-21" d="M371,444l-22.79-12.4a20.05,20.05,0,0,0,5.75-1.74l22.79,12.4A20.05,20.05,0,0,1,371,444" transform="translate(0 0)"/><path class="cls-22" d="M376.79,442.27,354,429.87a25.39,25.39,0,0,0,3.45-2l22.79,12.4a24.24,24.24,0,0,1-3.45,2" transform="translate(0 0)"/><path class="cls-23" d="M380.24,440.27l-22.79-12.4.5-.36,22.79,12.4-.5.36" transform="translate(0 0)"/></g></g></g><g class="cls-2"><g class="cls-46"><g class="cls-2"><path class="cls-26" d="M394.27,414.82l-22.8-12.4q-.36-12.29-8.51-16.72l22.79,12.4q8.14,4.42,8.52,16.72" transform="translate(0 0)"/></g></g></g><g class="cls-2"><g class="cls-47"><g class="cls-2"><path class="cls-26" d="M384.61,397.53l-22.79-12.39-.26-.15,22.79,12.4.26.14" transform="translate(0 0)"/></g></g></g><polygon class="cls-24" points="343.65 447.86 320.86 435.46 348.25 431.61 371.05 444.01 343.65 447.86"/><polygon class="cls-27" points="374.54 375.3 351.75 362.9 351.75 362.45 374.55 374.85 374.54 375.3"/><g class="cls-2"><g class="cls-48"><g class="cls-2"><path class="cls-21" d="M374.54,374.85l-22.79-12.4a32.64,32.64,0,0,1,12.8.61l22.8,12.4a32.7,32.7,0,0,0-12.81-.61" transform="translate(0 0)"/><path class="cls-22" d="M387.35,375.46l-22.8-12.4a29.57,29.57,0,0,1,5.69,2.12L393,377.58a29.48,29.48,0,0,0-5.68-2.12" transform="translate(0 0)"/><path class="cls-23" d="M393,377.58l-22.79-12.4c.38.18.75.38,1.13.58l22.79,12.4c-.37-.2-.75-.4-1.13-.58" transform="translate(0 0)"/></g></g></g><polygon class="cls-24" points="334.92 380.87 312.13 368.47 351.75 362.9 374.54 375.3 334.92 380.87"/><polygon class="cls-27" points="325.8 527.67 303.01 515.27 303.26 381.54 326.05 393.94 325.8 527.67"/><g class="cls-2"><g class="cls-49"><g class="cls-2"><path class="cls-31" d="M328.6,384.49l-22.79-12.4.27-.33,22.8,12.4-.28.33" transform="translate(0 0)"/><path class="cls-32" d="M328.88,384.16l-22.8-12.4c.29-.32.59-.62.89-.9l22.8,12.4a10.81,10.81,0,0,0-.89.9" transform="translate(0 0)"/><path class="cls-23" d="M329.77,383.26,307,370.86a10.49,10.49,0,0,1,1-.79l22.8,12.4a9.37,9.37,0,0,0-1,.79" transform="translate(0 0)"/><path class="cls-22" d="M330.77,382.47,308,370.07a9.89,9.89,0,0,1,1.34-.77l22.79,12.4a8.84,8.84,0,0,0-1.33.77" transform="translate(0 0)"/><path class="cls-21" d="M332.1,381.7l-22.79-12.4a9.7,9.7,0,0,1,2.82-.83l22.79,12.4a9.89,9.89,0,0,0-2.82.83" transform="translate(0 0)"/></g></g></g><g class="cls-2"><g class="cls-50"><g class="cls-2"><path class="cls-26" d="M326.05,393.94l-22.79-12.4v-1.82a12.35,12.35,0,0,1,.77-4.31l22.79,12.4a12.59,12.59,0,0,0-.77,4.31v1.82" transform="translate(0 0)"/><path class="cls-30" d="M326.82,387.81,304,375.41a13,13,0,0,1,.77-1.71l22.8,12.4a13.07,13.07,0,0,0-.78,1.71" transform="translate(0 0)"/><path class="cls-15" d="M327.6,386.1l-22.8-12.4c.28-.51.59-1,.93-1.51l22.8,12.4a14.3,14.3,0,0,0-.93,1.51" transform="translate(0 0)"/><path class="cls-31" d="M328.53,384.59l-22.8-12.4.08-.1,22.79,12.4a.61.61,0,0,0-.07.1" transform="translate(0 0)"/></g></g></g><path class="cls-33" d="M433.76,479.75q.36,18.6-9.76,32.75a46.34,46.34,0,0,1-24.88,16.69,8.42,8.42,0,0,1-2.54.81l-61.95,8.71a6.76,6.76,0,0,1-6.31-2.3L325.79,534v-6.37l.25-133.73v-1.82a12.93,12.93,0,0,1,2.55-7.63,9.68,9.68,0,0,1,6.32-3.62l39.62-5.57v-.45a30.86,30.86,0,0,1,24,6.17q13.05,9.56,13.85,30.35a54.87,54.87,0,0,1-6.79,28.69,29.24,29.24,0,0,1,18.1,9.73Q432.94,460.32,433.76,479.75Zm-18.13,3.47q.44-12.35-8.4-17.93a20,20,0,0,0-7.57-3l-3.37-.43-2.53-.56-50.15,7.05-.09,48.22,48.89-6.87c.61,0,1.21-.09,1.81-.18a23.55,23.55,0,0,0,8.73-3.12,33.67,33.67,0,0,0,8-7q4.21-5.59,4.66-16.11M343.74,400.1l-.09,47.76L371,444a21.56,21.56,0,0,0,9.7-4.1,29.54,29.54,0,0,0,8-7.49q5.49-7.12,5.51-17.6-.4-13.12-9.66-17.29a15.81,15.81,0,0,0-6.32-1.84,7.19,7.19,0,0,1-2.53-.09l-.84.11-.41.06-30.77,4.33" transform="translate(0 0)"/></g><g class="cls-2"><g class="cls-2"><g class="cls-51"><g class="cls-2"><path class="cls-26" d="M290.82,543.68,268,531.28a8.25,8.25,0,0,1-3.79-4.65L287,539a8.22,8.22,0,0,0,3.8,4.65" transform="translate(0 0)"/></g></g></g><g class="cls-2"><g class="cls-52"><g class="cls-2"><path class="cls-26" d="M200.39,556.05l-22.79-12.4a7,7,0,0,1-3.13-3.95l22.79,12.4a7,7,0,0,0,3.13,3.95" transform="translate(0 0)"/></g></g></g><g class="cls-2"><g class="cls-53"><g class="cls-2"><path class="cls-26" d="M197.26,552.1l-22.79-12.4a10.22,10.22,0,0,1-.41-7.68l22.79,12.4a10.27,10.27,0,0,0,.41,7.68" transform="translate(0 0)"/></g></g></g><polygon class="cls-54" points="287.02 539.03 264.23 526.63 220.23 395.02 243.03 407.42 287.02 539.03"/><g class="cls-2"><g class="cls-55"><g class="cls-2"><path class="cls-22" d="M239.19,432.07l-22.79-12.4a5.67,5.67,0,0,1,.84.34l22.8,12.4a5.79,5.79,0,0,0-.85-.34" transform="translate(0 0)"/><path class="cls-23" d="M240,432.41,217.24,420l.22.11,22.79,12.4-.21-.11" transform="translate(0 0)"/></g></g></g><g class="cls-2"><g class="cls-56"><g class="cls-2"><path class="cls-23" d="M232.87,433.41,210.08,421l.31-.23,22.79,12.4-.31.23" transform="translate(0 0)"/><path class="cls-22" d="M233.18,433.18l-22.79-12.4a8.07,8.07,0,0,1,1.2-.69l22.79,12.4a9.22,9.22,0,0,0-1.2.69" transform="translate(0 0)"/><path class="cls-21" d="M234.38,432.49l-22.79-12.4a7,7,0,0,1,2-.61,7.33,7.33,0,0,1,2.78.18l22.8,12.4a6.82,6.82,0,0,0-4.79.43" transform="translate(0 0)"/><path class="cls-22" d="M239.17,432.06l-22.8-12.4h0l22.79,12.4h0" transform="translate(0 0)"/></g></g></g><g class="cls-2"><g class="cls-57"><g class="cls-2"><path class="cls-22" d="M254,393.15l-22.79-12.4.05,0,22.8,12.39-.06,0" transform="translate(0 0)"/><path class="cls-23" d="M254.07,393.17l-22.8-12.39.26.13,22.79,12.4-.25-.14" transform="translate(0 0)"/></g></g></g><polygon class="cls-58" points="196.85 544.42 174.06 532.02 205.86 427.06 228.65 439.46 196.85 544.42"/><path class="cls-33" d="M239.19,432.07a6.65,6.65,0,0,1,4.21,4.4,10.5,10.5,0,0,1,.41,7.68L212,549.57a12.13,12.13,0,0,1-4.22,6,7.91,7.91,0,0,1-6.32.89,6.62,6.62,0,0,1-4.21-4.41,10.27,10.27,0,0,1-.41-7.68l31.8-105a10,10,0,0,1,4.22-6,7.57,7.57,0,0,1,3.51-1.53A7.1,7.1,0,0,1,239.19,432.07Z" transform="translate(0 0)"/><g class="cls-2"><g class="cls-59"><g class="cls-2"><path class="cls-26" d="M228.65,439.46l-22.79-12.4c.09-.33.2-.65.31-.95l22.8,12.4c-.12.3-.22.62-.32.95" transform="translate(0 0)"/><path class="cls-30" d="M229,438.51l-22.8-12.4a14.24,14.24,0,0,1,.74-1.67l22.8,12.4a11.55,11.55,0,0,0-.74,1.67" transform="translate(0 0)"/><path class="cls-15" d="M229.71,436.84l-22.8-12.4a10.92,10.92,0,0,1,.65-1.05l22.79,12.4a10.86,10.86,0,0,0-.64,1" transform="translate(0 0)"/><path class="cls-31" d="M230.35,435.79l-22.79-12.4a10.09,10.09,0,0,1,.63-.8L231,435a10.09,10.09,0,0,0-.63.8" transform="translate(0 0)"/><path class="cls-32" d="M231,435l-22.79-12.4a8.73,8.73,0,0,1,.68-.68l22.79,12.4a8.73,8.73,0,0,0-.68.68" transform="translate(0 0)"/><path class="cls-23" d="M231.66,434.31l-22.79-12.4a8.3,8.3,0,0,1,.8-.64l22.8,12.4a7.12,7.12,0,0,0-.81.64" transform="translate(0 0)"/><path class="cls-22" d="M232.47,433.67l-22.8-12.4.41-.26,22.79,12.4c-.14.08-.27.17-.4.26" transform="translate(0 0)"/></g></g></g><g class="cls-2"><g class="cls-60"><g class="cls-2"><path class="cls-22" d="M247.69,394l-22.79-12.4.63-.33,22.8,12.4c-.22.1-.43.21-.64.33" transform="translate(0 0)"/><path class="cls-21" d="M248.33,393.71l-22.8-12.4a9.32,9.32,0,0,1,2.63-.81,6.69,6.69,0,0,1,2.68.14L253.63,393a6.64,6.64,0,0,0-2.67-.14,9.13,9.13,0,0,0-2.63.81" transform="translate(0 0)"/><path class="cls-22" d="M253.63,393l-22.79-12.4.38.11L254,393.15l-.38-.11" transform="translate(0 0)"/></g></g></g><g class="cls-2"><g class="cls-61"><g class="cls-2"><path class="cls-26" d="M243,407.42,220.23,395a12.15,12.15,0,0,1,0-7.73L243,399.69a12.14,12.14,0,0,0,0,7.73" transform="translate(0 0)"/></g></g></g><g class="cls-2"><g class="cls-62"><g class="cls-2"><path class="cls-30" d="M243,399.69l-22.79-12.4c.18-.42.38-.82.59-1.21l22.79,12.4c-.21.39-.4.79-.59,1.21" transform="translate(0 0)"/><path class="cls-15" d="M243.63,398.48l-22.79-12.4a12.17,12.17,0,0,1,.86-1.4l22.79,12.4a13.75,13.75,0,0,0-.86,1.4" transform="translate(0 0)"/><path class="cls-31" d="M244.49,397.08l-22.79-12.4a12.27,12.27,0,0,1,.82-1.05L245.31,396a12.27,12.27,0,0,0-.82,1.05" transform="translate(0 0)"/><path class="cls-32" d="M245.31,396l-22.79-12.4a10.2,10.2,0,0,1,.87-.87l22.79,12.4a11.9,11.9,0,0,0-.87.87" transform="translate(0 0)"/><path class="cls-23" d="M246.18,395.16l-22.79-12.4a9.47,9.47,0,0,1,1-.8l22.8,12.4a9.58,9.58,0,0,0-1,.8" transform="translate(0 0)"/><path class="cls-22" d="M247.19,394.36,224.39,382c.17-.11.33-.22.51-.32L247.69,394l-.5.32" transform="translate(0 0)"/></g></g></g><path class="cls-33" d="M302.21,529.62a14.82,14.82,0,0,1-.43,7.79,9.83,9.83,0,0,1-4.23,5.59,9.52,9.52,0,0,1-3.27,1.15,6.67,6.67,0,0,1-3-.26A8.16,8.16,0,0,1,287,539L243,407.42a12.14,12.14,0,0,1,0-7.73,12,12,0,0,1,4.65-5.65A9.28,9.28,0,0,1,251,392.9a6.67,6.67,0,0,1,3,.25,8.3,8.3,0,0,1,4.2,5.32Z" transform="translate(0 0)"/></g><g class="cls-2"><polygon class="cls-24" points="157.31 263.5 134.51 251.1 153.58 248.43 176.37 260.82 157.31 263.5"/><polygon class="cls-27" points="139.24 321.49 116.44 309.09 116.52 270.54 139.31 282.94 139.24 321.49"/><polygon class="cls-24" points="90.25 272.93 67.46 260.53 116.55 253.63 139.34 266.03 90.25 272.93"/><polygon class="cls-27" points="139.34 266.03 116.55 253.63 116.72 161.39 139.51 173.79 139.34 266.03"/><polygon class="cls-27" points="72.03 292.39 49.24 280 49.26 265.21 72.06 277.61 72.03 292.39"/><polygon class="cls-63" points="72.06 277.61 49.26 265.21 110.51 143.1 133.3 155.5 72.06 277.61"/><path class="cls-33" d="M157.31,263.5l19.06-2.68,0,16.92-19.06,2.67L157.21,319l-18,2.52.07-38.55L72,292.4l0-14.79L133.3,155.5l24.22-3.4Zm-18,2.53.17-92.24L90.25,272.93l49.09-6.9" transform="translate(0 0)"/><polygon class="cls-24" points="133.3 155.5 110.51 143.1 134.72 139.7 157.51 152.1 133.3 155.5"/></g><g class="cls-2"><g class="cls-2"><g class="cls-64"><g class="cls-2"><path class="cls-23" d="M246.61,288.52l-22.79-12.4.69.37,22.8,12.39c-.24-.11-.47-.23-.7-.36" transform="translate(0 0)"/><path class="cls-22" d="M247.31,288.88l-22.8-12.39a19.51,19.51,0,0,0,3.68,1.35L251,290.24a18.54,18.54,0,0,1-3.67-1.36" transform="translate(0 0)"/><path class="cls-21" d="M251,290.24l-22.79-12.4a24.24,24.24,0,0,0,9.46.39,28.66,28.66,0,0,0,8.32-2.44l22.79,12.4a28.69,28.69,0,0,1-8.31,2.44,24.29,24.29,0,0,1-9.47-.39" transform="translate(0 0)"/><path class="cls-22" d="M268.76,288.19,246,275.79a27,27,0,0,0,3.86-2.22L272.62,286a26.43,26.43,0,0,1-3.86,2.22" transform="translate(0 0)"/><path class="cls-23" d="M272.62,286l-22.79-12.4a27.05,27.05,0,0,0,2.82-2.23l22.8,12.4a29.78,29.78,0,0,1-2.83,2.23" transform="translate(0 0)"/><path class="cls-32" d="M275.45,283.74l-22.8-12.4a32.53,32.53,0,0,0,2.48-2.5l22.79,12.39a32.59,32.59,0,0,1-2.47,2.51" transform="translate(0 0)"/><path class="cls-31" d="M277.92,281.23l-22.79-12.39c.83-1,1.64-2,2.4-3.06l22.79,12.39a33.78,33.78,0,0,1-2.4,3.06" transform="translate(0 0)"/><path class="cls-15" d="M280.32,278.17l-22.79-12.39a43,43,0,0,0,2.55-4.16L282.87,274a38.24,38.24,0,0,1-2.55,4.15" transform="translate(0 0)"/><path class="cls-30" d="M282.87,274l-22.79-12.4c.58-1.08,1.13-2.21,1.66-3.39l22.79,12.4c-.52,1.18-1.08,2.31-1.66,3.39" transform="translate(0 0)"/></g></g></g><g class="cls-2"><g class="cls-65"><g class="cls-2"><path class="cls-21" d="M260.18,203.41,237.38,191a15,15,0,0,1,5.9.26l22.79,12.4a15,15,0,0,0-5.89-.26" transform="translate(0 0)"/><path class="cls-22" d="M266.07,203.67l-22.79-12.4a12.15,12.15,0,0,1,2.4.89l22.79,12.4a12.15,12.15,0,0,0-2.4-.89" transform="translate(0 0)"/><path class="cls-23" d="M268.47,204.56l-22.79-12.4.47.24,22.79,12.4-.47-.24" transform="translate(0 0)"/></g></g></g><g class="cls-2"><g class="cls-66"><g class="cls-2"><path class="cls-30" d="M284.53,270.63l-22.79-12.4c.48-1.1.95-2.24,1.39-3.45l22.79,12.4c-.44,1.21-.9,2.35-1.39,3.45" transform="translate(0 0)"/><path class="cls-26" d="M285.92,267.18l-22.79-12.4q6.48-17.62,6.54-50.57.07-36.44-7.73-51.82-3.92-7.72-9.94-11l22.79,12.4q6,3.27,9.94,11,7.8,15.39,7.73,51.82-.06,32.92-6.54,50.57" transform="translate(0 0)"/></g></g></g><path class="cls-33" d="M260.18,203.41a13.42,13.42,0,0,1,11.65,3.5q4.76,4.49,4.74,11.93a21.94,21.94,0,0,1-4.85,13.86q-4.82,6.18-11.61,7.13a12.78,12.78,0,0,1-11.45-3.89,17,17,0,0,1-4.74-12.51,20.53,20.53,0,0,1,4.68-13.31A17.69,17.69,0,0,1,260.18,203.41Z" transform="translate(0 0)"/><g class="cls-2"><g class="cls-67"><g class="cls-2"><path class="cls-26" d="M252,238.5l-22.79-12.4a14.46,14.46,0,0,1-3.34-2.55A17,17,0,0,1,221.13,211a21.35,21.35,0,0,1,1.27-7.38l22.79,12.4a21.55,21.55,0,0,0-1.27,7.38,17,17,0,0,0,4.74,12.51A14.66,14.66,0,0,0,252,238.5" transform="translate(0 0)"/><path class="cls-30" d="M245.19,216.05l-22.79-12.4a19.79,19.79,0,0,1,1.16-2.58l22.79,12.4a21.22,21.22,0,0,0-1.16,2.58" transform="translate(0 0)"/><path class="cls-15" d="M246.35,213.47l-22.79-12.4a20.86,20.86,0,0,1,1.3-2.1l22.79,12.4a20.86,20.86,0,0,0-1.3,2.1" transform="translate(0 0)"/><path class="cls-31" d="M247.65,211.37,224.86,199c.3-.43.61-.84.95-1.25.19-.24.38-.47.58-.69l22.79,12.4c-.2.22-.39.45-.58.69-.33.41-.65.82-.95,1.25" transform="translate(0 0)"/><path class="cls-32" d="M249.18,209.43,226.39,197c.53-.6,1.08-1.15,1.64-1.67l22.8,12.4a21.71,21.71,0,0,0-1.65,1.67" transform="translate(0 0)"/><path class="cls-23" d="M250.83,207.76,228,195.36a18,18,0,0,1,1.84-1.45l22.79,12.4a19.07,19.07,0,0,0-1.83,1.45" transform="translate(0 0)"/><path class="cls-22" d="M252.66,206.31l-22.79-12.4a17,17,0,0,1,2.44-1.41l22.79,12.4a17,17,0,0,0-2.44,1.41" transform="translate(0 0)"/><path class="cls-21" d="M255.1,204.9l-22.79-12.4a17.41,17.41,0,0,1,5.07-1.49l22.8,12.4a17.56,17.56,0,0,0-5.08,1.49" transform="translate(0 0)"/></g></g></g><g class="cls-2"><g class="cls-68"><g class="cls-2"><path class="cls-26" d="M236.91,304.07l-22.79-12.4A38.93,38.93,0,0,1,200,277.84q-13.22-20.83-13.13-62,0-32,8.32-54.47l22.8,12.4q-8.28,22.5-8.33,54.47-.07,41.14,13.14,62a38.83,38.83,0,0,0,14.14,13.83" transform="translate(0 0)"/><path class="cls-30" d="M218,173.78l-22.8-12.4a96.72,96.72,0,0,1,4.67-10.67c.21-.43.44-.85.66-1.27l22.79,12.4-.66,1.27A94.84,94.84,0,0,0,218,173.78" transform="translate(0 0)"/><path class="cls-15" d="M223.28,161.84l-22.79-12.4a66.5,66.5,0,0,1,4.15-6.76l22.79,12.4a68.34,68.34,0,0,0-4.15,6.76" transform="translate(0 0)"/><path class="cls-31" d="M227.43,155.08l-22.79-12.4a58.58,58.58,0,0,1,3.93-5l22.79,12.4a58.58,58.58,0,0,0-3.93,5" transform="translate(0 0)"/><path class="cls-32" d="M231.36,150.08l-22.79-12.4a52.83,52.83,0,0,1,4.07-4.12L235.43,146a52.83,52.83,0,0,0-4.07,4.12" transform="translate(0 0)"/><path class="cls-23" d="M235.43,146l-22.79-12.4a48.08,48.08,0,0,1,4.68-3.7l22.79,12.4a48.08,48.08,0,0,0-4.68,3.7" transform="translate(0 0)"/><path class="cls-22" d="M240.11,142.26l-22.79-12.4a44.79,44.79,0,0,1,6.44-3.71l22.79,12.4a45.34,45.34,0,0,0-6.44,3.71" transform="translate(0 0)"/><path class="cls-21" d="M246.55,138.55l-22.79-12.4A48.88,48.88,0,0,1,237.94,122a41.11,41.11,0,0,1,16.16.66l22.79,12.4a41.06,41.06,0,0,0-16.15-.66,48.86,48.86,0,0,0-14.19,4.15" transform="translate(0 0)"/><path class="cls-22" d="M276.89,135.06l-22.79-12.4a32.29,32.29,0,0,1,6.21,2.3l22.8,12.4a32.63,32.63,0,0,0-6.22-2.3" transform="translate(0 0)"/><path class="cls-23" d="M283.11,137.36,260.31,125c.4.19.8.4,1.19.61L284.29,138c-.39-.21-.78-.42-1.18-.61" transform="translate(0 0)"/></g></g></g><path class="cls-33" d="M298.45,151.86q13.14,20.91,13.08,62.07-.07,39.85-12.94,65t-38.18,28.71q-24.42,3.44-37.64-17.41t-13.14-62q.08-40,13-65.14t38.12-28.71Q285.28,131,298.45,151.86ZM284.53,270.63q7.88-17.72,7.93-54t-7.73-51.82q-7.8-15.4-24-13.13-16,2.25-23.91,20.27t-8,53.62q-.08,36.07,7.73,51.7t23.91,13.38q16.21-2.28,24.08-20" transform="translate(0 0)"/></g><g class="cls-2"><polygon class="cls-24" points="426.63 225.65 403.84 213.25 422.91 210.57 445.7 222.97 426.63 225.65"/><polygon class="cls-27" points="408.56 283.64 385.77 271.24 385.84 232.69 408.64 245.09 408.56 283.64"/><polygon class="cls-24" points="359.58 235.08 336.79 222.68 385.87 215.78 408.67 228.18 359.58 235.08"/><polygon class="cls-27" points="408.67 228.18 385.87 215.78 386.05 123.53 408.84 135.93 408.67 228.18"/><polygon class="cls-27" points="341.36 254.54 318.56 242.15 318.59 227.36 341.38 239.76 341.36 254.54"/><polygon class="cls-63" points="341.38 239.76 318.59 227.36 379.83 105.25 402.63 117.65 341.38 239.76"/><path class="cls-33" d="M426.63,225.65,445.7,223l0,16.91-19.07,2.68-.07,38.56-18,2.52.08-38.55-67.28,9.45,0-14.78,61.25-122.11,24.21-3.4Zm-18,2.53.17-92.25-49.26,99.15,49.09-6.9" transform="translate(0 0)"/><polygon class="cls-24" points="402.63 117.65 379.83 105.25 404.05 101.85 426.84 114.25 402.63 117.65"/></g></g></g></svg>