<svg xmlns="http://www.w3.org/2000/svg" viewBox="0 0 122.08 122.91"><defs><style>.cls-1{fill:#44ad35;}.cls-1,.cls-2{fill-rule:evenodd;}.cls-2{fill:#fff;}</style></defs><title>资源 60</title><g id="图层_2" data-name="图层 2"><g id="character"><path class="cls-1" d="M18.69.22,103.07,0a18.79,18.79,0,0,1,18.79,18.69l.22,85.21a18.79,18.79,0,0,1-18.69,18.79L19,122.91A18.8,18.8,0,0,1,.22,104.22L0,19A18.79,18.79,0,0,1,18.69.22Z"/><path class="cls-2" d="M41.14,19.86a43.73,43.73,0,0,1,4.75-.29h.37a41.71,41.71,0,0,1,4.77.27c.64.07,1.26.15,1.89.25l1.47.25,1.23.26,1.09.25,1,.26.89.26.83.25.77.26.73.26.69.25.65.26.62.26.6.25.57.26.55.26.53.26.51.25.49.26.48.26.46.25.45.26.43.26.42.26.41.25.4.26.38.26.38.26.37.25.36.26.35.26.34.26.34.26.32.25.32.26.31.26.3.26.3.25.29.26.28.26.28.26.27.26.27.25a3.19,3.19,0,0,0,.26.26l.25.26.25.26.24.25.24.26.24.26.22.26c.08.08.15.17.23.26l.21.25.22.26.21.26.21.26.19.26a2.56,2.56,0,0,1,.2.26c.07.08.13.17.19.25l.19.26.18.26.18.26.18.26.17.25.17.26.16.26.17.26.15.26c0,.08.1.17.16.25l.14.26.15.26c.05.09.1.17.14.26a2.15,2.15,0,0,1,.14.26c0,.08.09.17.14.26l.13.25c0,.09.09.18.13.26s.08.17.13.26l.12.26.12.26c0,.08.07.17.11.25l.11.26c0,.09.08.17.11.26l.11.26c0,.09.07.17.1.26a2,2,0,0,1,.1.26,2.6,2.6,0,0,1,.1.25,2,2,0,0,0,.1.26L82,42a2.67,2.67,0,0,1,.09.26l.09.26c0,.08,0,.17.08.26a2.41,2.41,0,0,1,.08.25c0,.09,0,.18.08.26s.05.17.07.26,0,.17.07.26,0,.17.07.26,0,.17.07.26l.06.25.06.26,0,.17h0c-.65-.07-1.31-.13-2-.16-.5,0-1,0-1.52,0s-1.15,0-1.72.05c-1,0-1.88.14-2.8.26-.55.08-1.09.16-1.63.27s-.84.16-1.25.26l-1.07.26-.93.26-.84.26-.76.26-.71.26-.66.26-.63.26-.58.26-.56.26-.53.26-.5.26-.49.26-.47.26-.44.26-.43.26-.42.26-.4.26-.38.26-.38.26-.36.26L60,51.1l-.35.26-.33.26-.33.26-.31.26-.3.26-.3.25-.29.26-.28.26-.28.26-.27.26-.26.26-.26.26-.24.26-.25.26a2.85,2.85,0,0,0-.23.26l-.24.26-.22.26a2.75,2.75,0,0,0-.22.26c-.08.08-.15.17-.22.25l-.21.26-.21.26a2.56,2.56,0,0,1-.2.26l-.19.26-.19.26-.19.26a2.4,2.4,0,0,0-.18.26,2.48,2.48,0,0,0-.19.26l-.17.26c-.06.08-.11.17-.17.26l-.17.25a39490779815919.77,39490779815919.77,0,0,0-.32.52l-.15.26-.15.26-.15.26c0,.09-.1.17-.14.26a26804507499691.7,26804507499691.7,0,0,0-.28.52l-.14.25-.12.26-.13.26-.12.26-.12.26-.12.26c0,.08-.07.17-.11.26a23421817177100.52,23421817177100.52,0,0,1-.22.52,2.6,2.6,0,0,0-.1.25c0,.09-.07.18-.11.26l-.09.26a2.77,2.77,0,0,0-.1.26l-.09.26-.09.26-.09.26c0,.08,0,.17-.08.26s0,.17-.08.25-.05.18-.08.26-.05.18-.07.26l-.08.26-.06.26a2.5,2.5,0,0,0-.07.26c0,.09-.05.17-.07.26l-.06.26-.06.25a2,2,0,0,1,0,.26c0,.09,0,.18,0,.26l-.06.26c0,.09,0,.17,0,.26s0,.17-.05.26,0,.17,0,.26a2,2,0,0,0,0,.26c0,.08,0,.17,0,.25s0,.18,0,.26l0,.26,0,.26,0,.26c0,.08,0,.17,0,.26a83.64,83.64,0,0,1,0,.51,2.46,2.46,0,0,0,0,.26c0,.09,0,.18,0,.26s0,.17,0,.26,0,.17,0,.26,0,.17,0,.26v.26a2.17,2.17,0,0,0,0,.26v.51a2.26,2.26,0,0,0,0,.26v.26a2.26,2.26,0,0,1,0,.26,2.17,2.17,0,0,1,0,.26c0,.08,0,.17,0,.25a9229251440241.74,9229251440241.74,0,0,0,0,.52,2.28,2.28,0,0,0,0,.26,2.28,2.28,0,0,1,0,.26l0,.26,0,.26a2.17,2.17,0,0,0,0,.25l0,.26c0,.09,0,.18,0,.26s0,.17,0,.26,0,.17,0,.26,0,.17,0,.26,0,.17.05.26a2.21,2.21,0,0,0,0,.25c0,.09,0,.18.05.26l.06.26.06.26.06.26.06.26a2.33,2.33,0,0,0,.07.25l.06.26.08.26a2.5,2.5,0,0,0,.07.26l0,.15c-.61,0-1.22.09-1.84.11s-1,0-1.55,0-1,0-1.48,0c-1,0-2-.13-3-.25-.59-.07-1.18-.16-1.76-.25l-1.46-.26-1.33-.25L36,80.12l-1.26-.25-1.2-.24-.48.24-.52.26-.51.26-.52.26-.51.26-.52.26-.51.26-.52.26-.51.26-.52.26-.51.26-.52.26-.51.26-.52.26-.51.26-.52.26-.51.26-.52.26-.51.26-.52.26-.51.26-.52.26-.51.26-.52.26L20.8,86l.06-.18.08-.26.09-.26.08-.26.09-.26.08-.26.09-.25.08-.26.09-.26.08-.26.09-.26L21.8,83l.08-.26.09-.26.08-.25.09-.26.08-.26.09-.26.08-.26.09-.26.08-.26.09-.26.08-.25.09-.26.08-.26.09-.26.08-.26.09-.26.09-.26.08-.26.09-.26.08-.25.09-.26.08-.26.09-.26.08-.26.09-.26.08-.26L24.1,76l.08-.25.09-.26.08-.26,0-.15L24.25,75l-.36-.26-.36-.26-.35-.25L22.83,74l-.33-.26c-.12-.08-.23-.17-.34-.26l-.32-.25-.32-.26-.32-.26-.3-.26-.31-.25-.29-.26L20,71.63l-.29-.26-.28-.26-.27-.25-.27-.26-.27-.26-.26-.26-.25-.26c-.09-.08-.17-.17-.25-.25l-.25-.26-.24-.26c-.08-.08-.15-.17-.23-.26l-.23-.25c-.08-.09-.15-.18-.23-.26L16.47,68l-.22-.26L16,67.5l-.21-.25c-.07-.09-.13-.18-.2-.26s-.14-.17-.2-.26l-.2-.26L15,66.21,14.85,66l-.18-.25-.18-.26c-.06-.09-.12-.17-.17-.26s-.12-.17-.17-.26a2.33,2.33,0,0,1-.17-.26c-.06-.08-.11-.17-.16-.25s-.11-.18-.17-.26l-.15-.26-.15-.26-.15-.26-.15-.25a2.15,2.15,0,0,0-.14-.26c0-.09-.09-.17-.14-.26s-.09-.17-.13-.26l-.13-.26-.13-.26-.12-.25-.12-.26L12,61.05l-.11-.26a23421817177095.29,23421817177095.29,0,0,0-.22-.52,2.6,2.6,0,0,1-.1-.25c0-.09-.07-.18-.1-.26a2.77,2.77,0,0,1-.1-.26c0-.09-.07-.17-.1-.26L11.2,59l-.09-.26a2.41,2.41,0,0,0-.08-.25c0-.09-.06-.18-.08-.26a2.58,2.58,0,0,1-.08-.26l-.08-.26c0-.08,0-.17-.07-.26s-.05-.17-.07-.26l-.07-.25-.06-.26-.06-.26-.06-.26-.06-.26c0-.08,0-.17-.05-.26s0-.17,0-.25,0-.18-.05-.26,0-.17,0-.26a18949259632199,18949259632199,0,0,1-.08-.52,2,2,0,0,1,0-.26l0-.25,0-.26,0-.26,0-.26c0-.09,0-.17,0-.26a2.28,2.28,0,0,1,0-.26,2.11,2.11,0,0,1,0-.26c0-.08,0-.17,0-.25s0-.18,0-.26,0-.18,0-.26,0-.17,0-.26V51a2.17,2.17,0,0,1,0-.26v-.26c0-.08,0-.17,0-.25v-.26a2.17,2.17,0,0,1,0-.26,2.26,2.26,0,0,1,0-.26,2.26,2.26,0,0,1,0-.26,2.35,2.35,0,0,1,0-.26,2.46,2.46,0,0,1,0-.26,83.64,83.64,0,0,0,0-.51,2.11,2.11,0,0,1,0-.26l0-.26,0-.26,0-.26,0-.26a2.17,2.17,0,0,0,0-.25c0-.09,0-.18,0-.26s0-.18,0-.26,0-.18,0-.26a2.38,2.38,0,0,0,.05-.26,2.38,2.38,0,0,0,.05-.26,2,2,0,0,0,0-.26l.06-.26.06-.25.06-.26.06-.26a2.5,2.5,0,0,1,.07-.26l.06-.26.08-.26c0-.08,0-.17.07-.26s.05-.17.08-.26a2.41,2.41,0,0,1,.08-.25c0-.09.05-.18.08-.26l.09-.26a2.67,2.67,0,0,1,.09-.26,2.58,2.58,0,0,1,.08-.26,2.77,2.77,0,0,0,.1-.26c0-.08.06-.17.1-.26s.06-.17.1-.26l.1-.25c0-.09.07-.18.11-.26s.07-.18.1-.26l.12-.26.11-.26.12-.26.12-.26a2.1,2.1,0,0,0,.13-.26l.13-.26c0-.08.08-.17.13-.25l.13-.26.14-.26.14-.26L13.4,37l.15-.26.15-.26.16-.26L14,36l.16-.26.17-.25a2.33,2.33,0,0,1,.17-.26c.06-.09.11-.18.17-.26l.18-.26.18-.26.19-.26.19-.26.2-.26c.07-.08.13-.17.2-.26s.13-.17.2-.26l.21-.26.21-.25c.08-.09.15-.18.23-.26a2.75,2.75,0,0,1,.22-.26,2.85,2.85,0,0,1,.23-.26c.07-.09.15-.17.23-.26l.24-.26.24-.26.25-.26.26-.26.26-.26.26-.26.28-.26.28-.25a3.45,3.45,0,0,1,.28-.26L20,29l.3-.26.31-.26.31-.26.32-.26.33-.26.34-.26.35-.26.35-.26.37-.26.37-.26.39-.26.4-.26.4-.26.42-.26.44-.26.44-.26.47-.26.48-.26.49-.26.52-.26.53-.25.56-.27.58-.26.61-.26.64-.26.67-.26L32.1,22l.76-.26.81-.26.88-.26,1-.26,1.07-.26,1.22-.26c.48-.1,1-.19,1.46-.27s1.25-.18,1.88-.26ZM71.63,61.33a3.64,3.64,0,1,0,0,7.27c2.75,0,4.55-1.81,4.54-3.65s-1.81-3.63-4.56-3.62Zm20,0a3.64,3.64,0,0,0,0,7.27c2.72,0,4.54-1.81,4.54-3.65s-1.84-3.63-4.56-3.62ZM34.3,35.06c-2.73,0-5.47,1.81-5.47,4.55s2.76,4.54,5.49,4.53a4.3,4.3,0,0,0,4.53-4.56,4.28,4.28,0,0,0-4.55-4.52Zm25.46,9a4.3,4.3,0,0,0,4.54-4.57A4.27,4.27,0,0,0,59.74,35c-2.73,0-5.45,1.82-5.45,4.55s2.75,4.54,5.47,4.54Zm-1,11.31.24-.22.24-.22.25-.22.25-.22.26-.22.27-.22.27-.22.28-.22a23374213232054.57,23374213232054.57,0,0,1,.58-.44l.3-.22.31-.23.32-.22.32-.22.34-.22.35-.22.35-.22.37-.22.38-.22.39-.22.41-.22.41-.22.44-.22.45-.22.48-.22.48-.22.52-.23.55-.22.57-.22.6-.22.64-.22.69-.22.75-.22.82-.23.91-.22,1-.22,1.25-.22c.53-.09,1.06-.16,1.6-.23a39.44,39.44,0,0,1,4.11-.25h.19a34,34,0,0,1,3.92.23c.52.06,1,.13,1.54.22s.81.13,1.21.21l1,.22.88.22.8.22.74.21.68.22.63.22.6.22.56.22.54.21.52.22.48.22.48.22.45.22.44.22.42.21c.13.08.27.15.41.22l.39.22.38.22.37.22.36.22.35.22.34.22.33.21.32.22.32.22.3.22.3.22a3.15,3.15,0,0,1,.29.22l.29.22.28.22.27.21.26.22.26.22.26.22.24.22.25.22.23.22.24.22.23.22.22.22.22.21.21.22.21.22.2.22.2.22.2.22.19.22c.07.07.13.15.19.22l.18.22c.06.07.13.14.19.22l.17.22.18.22.16.21.17.22c0,.08.11.15.16.22l.16.22c0,.08.11.15.16.22l.15.22.15.22.15.22.14.22L109,61c0,.07.09.14.13.22a1.59,1.59,0,0,1,.13.22l.14.22.12.22.13.21.12.22.12.22.11.22.12.22a2.26,2.26,0,0,0,.11.22l.1.22c0,.07.07.15.11.22l.1.22c0,.07.07.14.1.22l.09.22a1.47,1.47,0,0,1,.1.22l.09.22.09.22.09.22a1.8,1.8,0,0,0,.08.21c0,.08,0,.15.08.22s0,.15.08.22,0,.15.07.22.05.15.08.22.05.15.07.22a1.42,1.42,0,0,0,.07.22l.06.22.07.22.06.22.06.22a1.74,1.74,0,0,1,.05.22L112,68a2.25,2.25,0,0,0,.05.22c0,.07,0,.14,0,.22a1.43,1.43,0,0,1,0,.22,1.42,1.42,0,0,1,.05.22c0,.07,0,.14,0,.22a1.43,1.43,0,0,1,0,.22c0,.07,0,.14,0,.21s0,.15,0,.22l0,.22,0,.22,0,.22a1.8,1.8,0,0,1,0,.22l0,.22a1.8,1.8,0,0,1,0,.22c0,.07,0,.15,0,.22s0,.15,0,.22,0,.15,0,.22,0,.15,0,.22a3105825436419.95,3105825436419.95,0,0,0,0,.44v.91a1.15,1.15,0,0,1,0,.19v.22c0,.07,0,.14,0,.22s0,.14,0,.22,0,.14,0,.22a1.7,1.7,0,0,1,0,.22c0,.07,0,.14,0,.22s0,.14,0,.22l0,.22a1.49,1.49,0,0,1,0,.21l0,.22,0,.22a2.07,2.07,0,0,0,0,.22,9753055504486.27,9753055504486.27,0,0,0-.12.66c0,.08,0,.15,0,.22s0,.15,0,.22,0,.15,0,.22a2.25,2.25,0,0,0,0,.22l-.06.22-.06.22-.06.22-.06.22-.07.22a1.87,1.87,0,0,1-.07.22l-.07.22-.07.22c0,.07,0,.15-.08.22s0,.15-.08.22,0,.15-.08.22l-.09.22-.09.22-.09.22-.09.22a13679255158834.54,13679255158834.54,0,0,0-.3.66l-.1.22c0,.07-.07.15-.11.22a2.26,2.26,0,0,1-.11.22c0,.07-.07.15-.11.22l-.12.22-.12.22-.12.22-.12.22a5391277631752.34,5391277631752.34,0,0,0-.26.44l-.13.22-.14.22-.13.22-.15.22-.14.22-.15.22-.15.22-.15.22c0,.07-.1.15-.16.22s-.1.15-.16.22-.1.15-.16.22l-.16.22-.17.22-.17.22-.18.22-.18.22-.18.22-.18.22-.19.22-.19.22c-.07.07-.13.15-.19.22l-.2.22-.2.22-.21.22-.2.22-.21.22c-.08.07-.15.15-.22.22s-.14.15-.22.22a2.28,2.28,0,0,1-.22.22c-.07.08-.15.15-.22.22l-.23.22-.23.22-.24.22-.24.22-.24.22-.25.22-.25.22-.25.22-.26.22-.27.22-.26.23-.27.22-.28.22-.28.22-.28.22-.29.22-.1.07,0,.15.07.22.07.22.06.22.07.21.07.22.06.22.07.22.07.22.06.22.07.22.07.22.06.22.07.22.07.22.06.22.07.22.07.22.06.22.07.22.07.22.06.22.07.21.07.22.06.22.07.22.07.22.06.22.07.22.07.22.06.22.07.22.07.22.06.22.07.22.07.22.06.22.07.22.07.22.06.22.07.22.05.15-.29-.15-.4-.22-.4-.22-.4-.22-.41-.22-.4-.22-.4-.22-.4-.21-.4-.22-.4-.22-.4-.22-.41-.22-.4-.22-.4-.22-.4-.21-.4-.22-.4-.22-.41-.22-.4-.22-.4-.22-.4-.22-.4-.21-.4-.22-.4-.22-.41-.22-.06,0-.14,0-.88.22-.89.22-.92.23-1,.22-1,.22L86.67,99c-.47.09-.94.16-1.41.23-.76.1-1.51.18-2.27.22-.41,0-.82,0-1.23,0s-1.07,0-1.6,0c-.93,0-1.84-.11-2.74-.21-.52-.06-1-.14-1.57-.22l-1.23-.21-1-.22-.91-.22-.81-.22L71.14,98l-.69-.22-.64-.22-.61-.22-.57-.22-.54-.21-.52-.22-.49-.22-.47-.22L66.16,96l-.44-.22-.42-.21-.4-.22-.39-.22-.38-.22-.37-.22-.36-.22-.34-.22L62.72,94l-.33-.21a3.62,3.62,0,0,0-.32-.22l-.3-.22-.31-.22-.29-.22-.29-.22-.28-.22-.27-.22-.27-.21a2.75,2.75,0,0,0-.26-.22l-.25-.22-.25-.22-.24-.22L58.82,91l-.23-.22-.23-.22-.22-.22-.21-.22a2.28,2.28,0,0,1-.22-.22l-.2-.21-.21-.22c-.06-.08-.13-.15-.19-.22l-.2-.22-.19-.22c-.06-.07-.12-.15-.19-.22l-.18-.22-.18-.22L56,87.9l-.17-.22-.17-.22c0-.07-.11-.14-.16-.22L55.34,87c-.05-.08-.11-.15-.16-.22L55,86.59l-.15-.22-.15-.22-.14-.22-.14-.22-.13-.22-.14-.22c0-.07-.09-.14-.13-.22l-.13-.22-.12-.22-.12-.22-.12-.21L53.44,84l-.11-.22c0-.08-.08-.15-.11-.22l-.11-.22c0-.08-.07-.15-.1-.22s-.07-.15-.11-.22l-.09-.22a2.14,2.14,0,0,1-.1-.22l-.1-.22L52.52,82l-.09-.22c0-.07,0-.14-.08-.22l-.09-.22c0-.07,0-.14-.08-.22s0-.14-.08-.22-.05-.14-.07-.22a1.8,1.8,0,0,1-.08-.21c0-.08-.05-.15-.07-.22s-.05-.15-.07-.22-.05-.15-.07-.22l-.06-.22-.06-.22c0-.08,0-.15-.07-.22a1.74,1.74,0,0,0,0-.22l-.06-.22c0-.07,0-.15,0-.22s0-.15,0-.22,0-.15-.05-.22,0-.15,0-.22,0-.14,0-.22,0-.14,0-.22a1.43,1.43,0,0,1,0-.22,1.43,1.43,0,0,1,0-.22,2.07,2.07,0,0,0,0-.22l0-.22,0-.22,0-.21,0-.22a1.5,1.5,0,0,0,0-.22,7836717224765,7836717224765,0,0,0,0-.44c0-.08,0-.15,0-.22s0-.15,0-.22,0-.15,0-.22a1.62,1.62,0,0,1,0-.22v-.22a1.62,1.62,0,0,1,0-.22,1.62,1.62,0,0,0,0-.22v-.43h0v-.66a1.55,1.55,0,0,0,0-.22,1.55,1.55,0,0,0,0-.22,1.55,1.55,0,0,0,0-.22c0-.07,0-.14,0-.22s0-.14,0-.22,0-.14,0-.22a7836717224779.29,7836717224779.29,0,0,1,0-.44c0-.07,0-.14,0-.22l0-.22,0-.22,0-.21,0-.22,0-.22a2.07,2.07,0,0,0,0-.22c0-.08,0-.15,0-.22s0-.15,0-.22,0-.15,0-.22,0-.15.05-.22a1.42,1.42,0,0,1,0-.22,11130632742386.85,11130632742386.85,0,0,1,.1-.44,2.25,2.25,0,0,0,0-.22l.06-.22.06-.22.06-.22.06-.22a1.87,1.87,0,0,0,.07-.22l.07-.22.07-.22a2,2,0,0,1,.08-.22,1.87,1.87,0,0,1,.07-.22c0-.07,0-.15.08-.22a2,2,0,0,1,.08-.22c0-.07.05-.15.08-.22l.09-.22.09-.22.09-.22.09-.22a2.14,2.14,0,0,1,.1-.22l.09-.22.11-.22.1-.22.11-.22.11-.22.11-.22.11-.22.12-.22.12-.22.13-.22.12-.22a2.53,2.53,0,0,0,.13-.22l.14-.22.13-.22.14-.22.14-.22.15-.22.15-.22.15-.22c0-.07.1-.15.16-.22l.15-.22.17-.22.16-.22.17-.22.18-.22.17-.22c.06-.07.12-.15.19-.22l.18-.22.19-.22.19-.22.2-.22.2-.22.21-.22.21-.22.22-.22.22-.22.22-.22.23-.22Z"/></g></g></svg>