<svg xmlns="http://www.w3.org/2000/svg" xmlns:xlink="http://www.w3.org/1999/xlink" viewBox="0 0 258.24 257.3"><defs><style>.cls-1{fill:none;}.cls-2{isolation:isolate;}.cls-3{clip-path:url(#clip-path);}.cls-4{fill:#e7cd6e;}.cls-5{fill:#e8ce6f;}.cls-6{fill:#e9cf6f;}.cls-7{fill:#ead070;}.cls-8{fill:#ebd170;}.cls-9{fill:#ecd271;}.cls-10{fill:#edd371;}.cls-11{fill:#eed472;}.cls-12{fill:#efd472;}.cls-13{fill:#f0d573;}.cls-14{fill:#f1d673;}.cls-15{fill:#f2d774;}.cls-16{fill:#f3d874;}.cls-17{fill:#f4d975;}.cls-18{fill:#f5da75;}.cls-19{fill:#f6db76;}.cls-20{fill:#f7dc76;}.cls-21{fill:#f8dd77;}.cls-22{fill:#f9de77;}.cls-23{fill:#fade78;}.cls-24{fill:#fbdf78;}.cls-25{fill:#fce079;}.cls-26{fill:#fde179;}.cls-27{fill:#fee27a;}.cls-28{fill:#ffe37a;}.cls-29{fill:#ffe68a;}.cls-30{fill:#ffe891;}.cls-31{fill:#ffe996;}.cls-32{fill:#ffea9a;}.cls-33{fill:#ffeb9e;}.cls-34{fill:#ffeba2;}.cls-35{fill:#ffeca5;}.cls-36{fill:#ffeda8;}.cls-37{fill:#ffedab;}.cls-38{fill:#ffeead;}.cls-39{fill:#ffeeb0;}.cls-40{fill:#ffefb2;}.cls-41{fill:#ffefb5;}.cls-42{fill:#fff0b7;}.cls-43{clip-path:url(#clip-path-2);}.cls-44{fill:#e6cd6e;}.cls-45{clip-path:url(#clip-path-3);}.cls-46{clip-path:url(#clip-path-4);}.cls-47{fill:#fff0b9;}.cls-48{fill:#fff1bb;}.cls-49{fill:#fff1bd;}.cls-50{fill:#fff1bf;}.cls-51{fill:#fff2c1;}.cls-52{fill:#fff2c3;}.cls-53{fill:#fff3c4;}.cls-54{clip-path:url(#clip-path-5);}.cls-55{clip-path:url(#clip-path-6);}.cls-56{clip-path:url(#clip-path-7);}.cls-57{fill:#e6cc6e;}</style><clipPath id="clip-path"><path class="cls-1" d="M140.8,256.73c-3.07.29-6.8.48-10.22.52-2.13,0-5,0-7.09-.08-1.09,0-2.53-.13-3.61-.18-2.6-.14-6-.54-8.62-.88-2.36-.32-5.49-.85-7.83-1.33-2.8-.58-6.52-1.46-9.28-2.23s-6.28-1.9-8.92-2.86a123.65,123.65,0,0,1-18-8.07c-2.62-1.48-6.09-3.5-8.62-5.14s-5.67-3.86-8-5.64-5.48-4.38-7.72-6.38-5.06-4.71-7.1-6.85a127.64,127.64,0,0,1-12.69-15.44c-1.74-2.49-3.93-5.91-5.47-8.53s-3.35-6.22-4.76-8.9A94.71,94.71,0,0,1,7.21,171c-1-3-2.23-6.92-3-9.93S2.43,153.82,2,150.66a166.62,166.62,0,0,1-1.9-20.79,128.11,128.11,0,0,1,1.44-20.42c1.1-8.82,5.24-22.92,8.06-29.13,1.22-2.7,2.75-6.35,4.08-9s3.32-6.27,4.89-8.87A130.11,130.11,0,0,1,30.21,46.11c1.88-2.24,4.49-5.15,6.54-7.23,2.27-2.3,5.38-5.28,7.83-7.38,2.17-1.85,5.11-4.28,7.41-6,3-2.18,7.14-4.87,10.24-6.89,2.3-1.48,5.52-3.19,8-4.43s6-2.89,8.68-4,6-2.37,8.62-3.29c.65-.22,2.56-.87,6.29-2a130.65,130.65,0,0,1,18-3.77A126.66,126.66,0,0,1,130.7,0a124.15,124.15,0,0,1,19.59,1.64,129.4,129.4,0,0,1,68.25,34.07,166.34,166.34,0,0,1,13.23,14.72,127.73,127.73,0,0,1,11,17A179.57,179.57,0,0,1,251,86.08a102.54,102.54,0,0,1,3,10c.8,3.06,1.57,7.21,2.23,10.3a100,100,0,0,1,1.47,11.33,127.6,127.6,0,0,1-3.09,40.73c-.8,2.88-1.79,6.75-2.71,9.59a97.69,97.69,0,0,1-3.5,9.48c-1.27,2.78-2.78,6.57-4.26,9.24-2.87,5.14-6.91,11.89-10.22,16.76a128.58,128.58,0,0,1-12.88,15.28,126.43,126.43,0,0,1-15.26,13.25c-3,2.16-7.15,4.91-10.31,6.87-2.2,1.36-5.24,3-7.55,4.18-2.53,1.26-5.93,2.9-8.55,3.95-1.28.52-3,1.25-4.29,1.72-2.47.89-5.78,2-8.28,2.83,46.08-14,73.58-69.64,62.62-132.45C217.35,49.67,162.63-2.67,107.13,2.54c55.5-5.21,110.22,47.13,122.35,116.63,11,62.81-16.54,118.49-62.62,132.45A134.16,134.16,0,0,1,140.8,256.73Z"/></clipPath><clipPath id="clip-path-2"><path class="cls-1" d="M91.69,6.54c1.09-.34,4.76-1.42,8.59-2.29,2.39-.54,5.39-1.18,9.55-1.82a130.39,130.39,0,0,1,37-.36,134.14,134.14,0,0,1,16.95,3.52,129.87,129.87,0,0,1,18,6.52A129.42,129.42,0,0,1,214.5,33.32a156.79,156.79,0,0,1,13.57,14.07,125.37,125.37,0,0,1,11.5,16.38,157.05,157.05,0,0,1,8.79,18,108.59,108.59,0,0,1,4.74,14.6,127.44,127.44,0,0,1,2.68,51.25c-.56,2.93-1.2,6.86-1.88,9.76s-1.76,6.82-2.68,9.7a125.85,125.85,0,0,1-7.49,18.4c-2.71,5.16-6.8,11.79-10,16.67-1.67,2.55-4.32,5.64-6.19,8.05a126.52,126.52,0,0,1-14.12,14.47c-3,2.52-7,5.85-10.23,8.06-4.19,2.86-10,6.36-14.41,8.82-.31.18-5.5,2.84-9.51,4.48-1.29.53-3,1.26-4.33,1.74-2.49.9-5.84,2.05-8.37,2.86a76.68,76.68,0,0,1-14.83,2.94c.33-.1.25-.15-.17-.11a8.83,8.83,0,0,0-1.39.26c-.33.1-.25.15.18.11a8.91,8.91,0,0,0,1.38-.26,76.68,76.68,0,0,0,14.83-2.94,131.59,131.59,0,0,1-18.14,4.12c-4.08.63-7.7.95-7.73.95-1.88.16-4.39.32-6.27.41-1.08.06-2.53.1-3.62.1-5.61,0-6.07,0-11.64-.32-2.37-.14-5.52-.48-7.88-.81-3.59-.51-8.34-1.44-11.89-2.23-2.47-.55-5.7-1.54-8.14-2.22a80.78,80.78,0,0,1-10-3.54c-2.72-1.21-6.38-2.74-9.06-4.06a95.84,95.84,0,0,1-8.46-4.59c-2.5-1.61-5.9-3.67-8.34-5.38s-5.48-4-7.73-5.88a122.06,122.06,0,0,1-14.22-13.62c-1.92-2.28-4.53-5.3-6.35-7.67s-4.07-5.59-5.68-8.08-3.69-6-5.12-8.66-3.11-6.29-4.41-9c-2.6-5.44-3.72-9.23-6.73-19.36a82.49,82.49,0,0,1-2.43-11.52A181.85,181.85,0,0,1,1,128.71a126.41,126.41,0,0,1,6.3-39.54,123.29,123.29,0,0,1,7.72-18.51C17.81,65.52,22,58.94,25.2,54.09c1.69-2.54,4.38-5.61,6.27-8A92.83,92.83,0,0,1,38,39c2.25-2.26,5.33-5.21,7.78-7.26,3.06-2.56,7.21-5.89,10.52-8.11,4.15-2.78,9.92-6.15,14.3-8.55,0,0,5.18-2.62,8.66-4A129.75,129.75,0,0,1,91.69,6.54Z"/></clipPath><clipPath id="clip-path-3"><path class="cls-1" d="M107.13,2.54l44.49,252s0,0-.1.05Z"/></clipPath><clipPath id="clip-path-4"><path class="cls-1" d="M150.65,254.74,107.13,2.54l44.39,252.08a4.24,4.24,0,0,1-.69.13C150.71,254.76,150.65,254.75,150.65,254.74Z"/></clipPath><clipPath id="clip-path-5"><path class="cls-1" d="M107.13,2.54l44.49,252s-.07,0-.19,0a4.11,4.11,0,0,0-.68.13c-.07,0-.11,0-.1.05C137.59,179.08,120.18,78.2,107.13,2.54Z"/></clipPath><clipPath id="clip-path-6"><path class="cls-1" d="M253.92,157.29v0c.75-2.75,1.3-6.48,1.8-9.37C255.19,150.76,254.57,154.48,253.92,157.29ZM251.24,167c0-.07,0-.16.08-.23s.05-.17.08-.26C251.35,166.7,251.29,166.87,251.24,167Zm-3.31,9.17,0,0a92.64,92.64,0,0,0,3.23-8.94C250.12,170.53,249,173.57,247.93,176.19Zm-14.17,25.94c1.67-2.37,3.55-5.19,5.42-8.34,1.43-2.4,3.19-5.61,4.5-8.2C241,190.73,236.93,197.28,233.76,202.13Zm-6.08,7.92c.06-.08.13-.15.19-.22s1.46-1.7,3.58-4.53C230.17,207,228.8,208.61,227.68,210.05Zm-38.82,31.47c1.09-.57,2.15-1.14,3.08-1.66,2.21-1.24,5.12-3,7.23-4.38,1.14-.76,2.33-1.56,3.55-2.42C198.61,235.85,193.13,239.16,188.86,241.52Zm-5.1,2.53.74-.34c1.08-.5,2.3-1.12,3.53-1.75C187.14,242.41,185.54,243.21,183.76,244.05Zm-4.62,2-1.95.8Zm-3.85,1.55,0,0Zm-11.7,3.86-1.07.3ZM162,252l-2,.52Zm-2.1.54-2.21.52Zm-2.21.52-2.17.47Zm8.91-2.36c3.15-1,5.92-1.93,8.33-2.85C172.41,248.7,169.09,249.84,166.57,250.65Zm0,0-.75.22Zm-22.64,4.73-1.4.16Zm4.5-.61,2-.33c1.94-.34,2.69-.49,3-.55l1.8-.36Q151.92,254.22,148.43,254.77Zm-29.2,1.14c2.46.17,5.22.3,7.42.31,1,0,2.19,0,3.58,0C125.19,256.23,124.54,256.22,119.23,255.91Zm-19.83-3c-2.47-.55-5.7-1.54-8.14-2.22a116.26,116.26,0,0,0,11.78,3c1.47.3,3.16.6,4.89.88C105,254.06,101.92,253.43,99.4,252.87Zm-27.2-9.82c-1.55-.76-3.41-1.7-5.17-2.67,2.24,1.26,4.69,2.53,6.74,3.44l.7.3C73.67,243.76,72.9,243.4,72.2,243.05Zm-16.61-9.84,0,0c2.21,1.67,5.31,3.52,7.81,5C61,236.74,57.92,234.82,55.59,233.21Zm-7.78-5.89.08.07.16.12Zm-.58-.48-.36-.3ZM27.1,205.91c-.89-1.18-1.91-2.57-2.9-4,1,1.52,2.1,3,3.1,4.24l.06.07Zm-5.68-8.08c-1.62-2.51-3.65-5.94-5.08-8.58v0c1.44,2.66,3.42,6.18,5.15,8.67l0,0Zm-9.53-17.67-.28-.58.33.69c.06.14.13.28.2.42C12.06,180.51,12,180.33,11.89,180.16ZM5.16,160.81l0,.1a97.36,97.36,0,0,0,3,9.94l0,0C7.37,168.26,6.44,165.11,5.16,160.81ZM1,128.71c0-3.77.17-7.24.41-10.23v.12A80.64,80.64,0,0,0,1.05,130c0,.1,0,.21,0,.31C1.05,129.78,1,129.24,1,128.71Zm1.59-20.09v.09A.28.28,0,0,1,2.63,108.62ZM4.31,100c0-.16.07-.31.11-.46C4.38,99.72,4.35,99.87,4.31,100Zm2.06-7.77c.13-.43.27-.87.4-1.31Zm.51-1.65c.14-.46.29-.92.44-1.39Zm-.53,1.71c-.6,2-1.2,4.18-1.75,6.48,0,.17-.08.36-.13.54C5,97.19,5.61,94.83,6.35,92.32Zm1-3.17c1.12-3.43,2.3-6.52,3.4-9.17C10.68,80.12,9.13,83.69,7.35,89.15Zm17.83-35c-1.7,2.36-3.58,5.14-5.51,8.3-1.45,2.39-3.24,5.58-4.57,8.16C17.85,65.47,22,58.94,25.18,54.12Zm6.27-8-.33.39c-.76.91-1.91,2.29-3.31,4.11C29.06,49,30.38,47.46,31.45,46.1Zm7-7.58,0,0Zm7.27-6.75,0-.05c2.27-1.9,5.14-4.22,7.82-6.2C51,27.4,48.27,29.56,45.7,31.77Zm10.57-8.16c4.15-2.78,9.92-6.15,14.3-8.55-3.24,1.7-7.45,4.17-10.58,6.07-1.62,1-3.83,2.49-6.25,4.27C54.61,24.76,55.46,24.15,56.27,23.61Zm14.3-8.55s1.55-.78,3.49-1.7C72.82,13.93,71.61,14.51,70.57,15.06Zm8.57-4,.09,0c2.55-1,4.29-1.73,6.26-2.44C83.36,9.36,81,10.26,79.14,11.08Zm14-5h0Zm4.39-1.18,1-.24ZM101,4.09l-1.25.28.51-.12Zm1.23-.27.73-.15Zm2.69-.55.19,0ZM91.69,6.54l.79-.24c-1.39.41-3,.91-5,1.6L87.23,8C88.48,7.56,89.9,7.1,91.69,6.54Zm48.49-5.19-.72-.06Zm-1.63-.13h0Zm8.26.85,2.22.32c-2.23-.38-5-.69-7.2-.9l-1.35-.12C143.05,1.59,145.12,1.86,146.81,2.07Zm34.24,9.72.42.19Zm-17.29-6.2c2.64.79,5.34,1.6,8.33,2.64l-1-.34c-2.62-.94-6.16-2-8.86-2.71L162,5.12C163.1,5.4,163.74,5.58,163.76,5.59Zm18.12,6.57q2.13,1,4.22,2Q183.87,13.07,181.88,12.16Zm8.79,4.38c1.16.63,2.29,1.29,3.42,1.95C192.92,17.8,191.75,17.13,190.67,16.54Zm-.16-.09-.7-.37c-1.19-.64-2.34-1.23-3.45-1.78C187.76,15,189.15,15.71,190.51,16.45Zm8.35,5-.23-.15c-.94-.6-2-1.27-3.12-1.93C196.64,20,197.77,20.71,198.86,21.42Zm.63.41.13.09Zm13.75,10.39,1.07.94Zm-.13-.11c-2.61-2.26-4.87-4-6.53-5.29l-.39-.29C208.26,28.08,210.61,29.94,213.11,32.11Zm15,15.28c-1.92-2.31-4.59-5.3-6.67-7.45-2.37-2.45-4.66-4.61-6.76-6.49A156.31,156.31,0,0,1,228.07,47.39ZM133.7,1l-.9,0Zm-1.42,0-.76,0Zm-10.18.17h0ZM121,1.2l-.92.06Zm-1.07.07-2.41.2Zm-2.65.23-.92.09Zm-9.5,1.26-.55.09ZM112.56,2l-.7.09Zm-2.73.39.44-.07-.76.12Zm30.83,253.3c-1.87.15-4.36.31-6.23.4h-.1C136.27,256.07,138.4,255.94,140.66,255.73Zm10.91-2.25a8.83,8.83,0,0,0-1.39.26c-.33.1-.25.15.18.11a8.91,8.91,0,0,0,1.38-.26C152.07,253.49,152,253.44,151.57,253.48Zm61.9-28.84-.05.05c-2.12,1.79-4.76,4-7.27,5.89C208.43,228.88,210.85,226.94,213.47,224.64ZM239.53,63.7l0,0A94.92,94.92,0,0,0,234,55.22h0C235.74,57.63,237.63,60.5,239.53,63.7Zm8.83,18.09c.17.42.35.87.52,1.32q-.27-.72-.57-1.44c-1.14-2.8-2.63-6.56-4.07-9.22l-1.33-2.52C244.93,73.92,246.89,78.2,248.36,81.79Zm6.87,24.33c-.28-1.66-.59-3.26-.93-4.69-.21-.87-.43-1.83-.68-2.86C254.35,101.73,254.84,104,255.23,106.12Zm1.4,34.95c0-.15,0-.29,0-.44C256.66,140.78,256.64,140.92,256.63,141.07Zm.22-22.54a2.46,2.46,0,0,0,0,.26A2.46,2.46,0,0,1,256.85,118.53Zm.15,2a.22.22,0,0,0,0,.08A.22.22,0,0,1,257,120.53Zm.1,1.88a1.77,1.77,0,0,1,0,.23Zm.07,1.92c0,.16,0,.32,0,.47C257.18,124.65,257.18,124.49,257.17,124.33Zm0,1.88c0,.31,0,.63,0,.94C257.22,126.84,257.21,126.52,257.21,126.21Zm-.46,13.42c.32-3.85.49-8.13.47-12.29C257.23,131.56,257.05,135.87,256.75,139.63ZM256.7,117a.57.57,0,0,0,0,.13l0-.25c-.05-.47-.11-1-.17-1.46C256.57,116,256.63,116.48,256.7,117Z"/></clipPath><clipPath id="clip-path-7"><path class="cls-1" d="M166.86,251.62a134.09,134.09,0,0,1-17.24,4,124.64,124.64,0,0,1-18.31,1.64,128.32,128.32,0,0,1-15-.54c-2.35-.29-5.5-.59-7.82-1A129,129,0,0,1,95.66,253c-2.69-.8-6.3-1.81-9-2.74-3.09-1.1-7.17-2.7-10.17-4A138,138,0,0,1,59.47,237a128.54,128.54,0,0,1-16.14-12.2,130.94,130.94,0,0,1-13.95-14.43,125.79,125.79,0,0,1-11.65-16.63,159.58,159.58,0,0,1-8.85-18.23,132.69,132.69,0,0,1-6-20A143.86,143.86,0,0,1,.58,140.34a129.56,129.56,0,0,1,.91-30.89A185,185,0,0,1,6.05,90a127.07,127.07,0,0,1,7.58-18.64c2.74-5.22,6.89-11.91,10.12-16.84a92.39,92.39,0,0,1,6.12-8c1.88-2.25,4.47-5.16,6.51-7.26s5.08-4.86,7.27-6.94A98.69,98.69,0,0,1,52,25.54a164.12,164.12,0,0,1,14.32-9.25,119.3,119.3,0,0,1,12-5.86A133.86,133.86,0,0,1,91.6,5.57c1.91-.56,4.52-1.32,7.33-2,1.76-.42,2.48-.59,4.71-1,1.71-.34,4-.74,4-.73h0c.6-.09,1.4-.25,2-.33h0c1.12-.16,2.25-.33,3.37-.47.31,0,1.23-.16,2.74-.32a136.45,136.45,0,0,1,30.72.4c2.5.36,5.84.85,8.31,1.39,3.64.79,8.47,2,12,3a174.45,174.45,0,0,1,17.71,6.84,80.16,80.16,0,0,1,9.75,5.13c2.61,1.64,6.14,3.77,8.68,5.52s5.57,4,7.85,5.9A130.11,130.11,0,0,1,225.3,42.68c2,2.26,4.62,5.37,6.47,7.77s4,5.7,5.76,8.15A128.7,128.7,0,0,1,251,86.08c1.94,6,3.93,14.09,5.25,20.21.68,3.12,1,7.39,1.41,10.56a91.63,91.63,0,0,1,.53,10.35c0,3.34-.14,7.78-.36,11.11a127.67,127.67,0,0,1-3.15,20c-.82,2.92-1.69,6.88-2.74,9.73s-2.29,6.56-3.43,9.31-2.83,6.46-4.2,9.15a125.8,125.8,0,0,1-10.35,17c-3.57,4.61-8.58,10.57-12.5,14.89a81.88,81.88,0,0,1-7.28,6.9c-2.46,2.07-5.72,4.89-8.36,6.74-4.15,2.91-9.78,6.65-14.21,9.11a131.4,131.4,0,0,1-24.77,10.44,77.87,77.87,0,0,1-15.34,3c.16-.05.13-.08-.09-.06a4.11,4.11,0,0,0-.68.13c-.17.05-.13.08.08.06a4.24,4.24,0,0,0,.69-.13A77.87,77.87,0,0,0,166.86,251.62Z"/></clipPath></defs><title>资源 37</title><g id="图层_2" data-name="图层 2"><g id="character"><g class="cls-2"><g class="cls-2"><g class="cls-3"><g class="cls-2"><path class="cls-4" d="M140.8,256.73a134.61,134.61,0,0,0,26-5.1c46.13-14,73.63-69.65,62.67-132.46C217.35,49.67,162.63-2.67,107.13,2.54c55.5-5.21,110.22,47.13,122.35,116.63,11,62.81-16.54,118.49-62.62,132.45,14.32-4.62,22.68-8.65,35.77-17.26a130.34,130.34,0,0,0,25-22.72c7.38-9.18,27-33.56,30.18-73.21,3-37.26-12-65.65-15-71-5.78-10.1-21.14-36.93-56.65-54.32A129.54,129.54,0,0,0,44.58,31.5C14.53,58,7,86,3.43,99.44A117.26,117.26,0,0,0,.37,119.51a185.84,185.84,0,0,0,.2,20.71c.12,2.18,1,13.9,6.64,30.78,8.69,25.91,27.93,50.39,51.45,65.48a128.21,128.21,0,0,0,82.14,20.25"/><path class="cls-4" d="M159.5,253.61c2.09-.51,2.09-.51,3.15-.79l2-.57,2.17-.63a79,79,0,0,0,27.85-15.19l-.51.4c-8.2,5.83-18.4,13.09-36.44,17.19l1.29-.3.45-.11"/><path class="cls-4" d="M229.48,119.17a158.69,158.69,0,0,1,2.36,31l.31,4.6c-.16,12.92-.63,52.25-37.44,81.69a79,79,0,0,1-27.85,15.19l4.07-1.31a135.15,135.15,0,0,0,17.26-7.3l7.34-4.07c3.12-2,7.29-4.71,10.31-6.87l7.41-5.91c2.36-2.19,5.58-5,7.85-7.34l6.56-7.18c1.9-2.43,4.52-5.6,6.32-8.1l5.42-8.18c1.48-2.65,3.55-6.14,4.93-8.84l4.13-9c1-2.84,2.56-6.59,3.5-9.48l2.71-9.59c.6-3,1.51-7,2-10l1.18-10c.12-3.1.39-7.24.38-10.35l-.46-10.34c-.43-3.4-.89-8-1.47-11.33l-2.23-10.3c-.91-3-2-7.06-3-10l-3.76-9.52c-1.36-2.76-3.06-6.5-4.52-9.2l-5.13-8.64c-1.75-2.48-4-5.86-5.84-8.27l-6.34-7.63c-2.11-2.17-4.84-5.14-7-7.22L211,29.09c-2.42-1.83-5.59-4.35-8.08-6.09l-8.21-5.25c-2.72-1.46-6.3-3.5-9.07-4.85L177,9.07c-3-1.09-7.08-2.61-10.16-3.56l-8.21-2.2c-3.63-.72-8.48-1.67-12.14-2.22L142.52.64A139.26,139.26,0,0,0,117.29.53l-1.55.16-1.49.16L113,1l-1.21.16-1.09.15-1.07.16-1,.16-1,.17-1,.17-1,.17-1,.19-1,.2-1.08.23L101.45,3l-1.24.27-1.28.31L97.4,4l-1.6.42-2,.56-2.17.63L87.48,6.9a134.58,134.58,0,0,0-17.84,7.6l-7.41,4.15c-3.1,2-7.24,4.73-10.24,6.89l-7.41,6c-2.36,2.21-5.56,5.08-7.83,7.38l-6.54,7.23c-1.89,2.43-4.5,5.62-6.29,8.13L22,57l4.72-6.43c71.08-80.8,198.63-6.63,204.79,92.82.13,2,.21,4.75.3,6.78a158.69,158.69,0,0,0-2.36-31C217.35,49.67,162.63-2.67,107.13,2.54c55.5-5.21,110.22,47.13,122.35,116.63"/><path class="cls-5" d="M6.09,89.83c-3.5,12.65-3.57,12.89-4.6,19.62L.37,119.51c-.1,3.11-.35,7.25-.32,10.36l.52,10.35c.42,3.17.85,7.41,1.4,10.56L4.2,161.07c1.31,4.33,3.07,10.1,4.63,14.34l4.08,9.33c1.44,2.7,3.27,6.36,4.82,9l5.41,8.42c1.83,2.42,4.18,5.71,6.11,8.05l6.58,7.39c2.17,2.1,5,5,7.25,7l7.57,6.24c2.49,1.75,5.74,4.17,8.29,5.82l8.34,5c2.77,1.38,6.43,3.31,9.26,4.57l8.69,3.5c3.12,1,7.27,2.41,10.43,3.27l7.77,1.82c3.85.65,9,1.46,12.86,1.92l3.59.29a146,146,0,0,0,18.17,0h0c97.28-8.3,119.69-137.41,35.78-206.19C122.24,8.43,44.47,8.86,11,77l-3.65,9.2L6.09,89.83"/><path class="cls-6" d="M1.49,109.45C0,122.69,0,123,.05,129.87l.52,10.35c.42,3.17.85,7.41,1.4,10.56L4.2,161.07c1.31,4.33,3.07,10.1,4.63,14.34l4.08,9.33c1.44,2.7,3.27,6.36,4.82,9l5.41,8.42c1.83,2.42,4.18,5.71,6.11,8.05l6.58,7.39c2.17,2.1,5,5,7.25,7l7.57,6.24c2.49,1.75,5.74,4.17,8.29,5.82l8.34,5c2.77,1.38,6.43,3.31,9.26,4.57l8.69,3.5c3.12,1,7.27,2.41,10.43,3.27l7.77,1.82c3.44.58,8,1.35,11.48,1.77l2.09.21c96.56,7.88,138.09-107.37,67.32-186.84C129.25,8.07,30.27,9.26,4.5,95.22L2.26,105l-.77,4.48"/><path class="cls-7" d="M.05,129.87C.73,143.5.75,143.76,2,150.78L4.2,161.07c1.31,4.33,3.07,10.1,4.63,14.34l4.08,9.33c1.44,2.7,3.27,6.36,4.82,9l5.41,8.42c1.83,2.42,4.18,5.71,6.11,8.05l6.58,7.39c2.17,2.1,5,5,7.25,7l7.57,6.24c2.49,1.75,5.74,4.17,8.29,5.82l8.34,5c2.77,1.38,6.43,3.31,9.26,4.57l8.69,3.5c3.12,1,7.27,2.41,10.43,3.27l5.51,1.33c91,17.41,145.06-78.57,91.84-163C139,5.59,21.65,12.77,2.76,102.91,2.12,106,1.38,110.1,1,113.2L.15,123.34l-.1,6.53"/><path class="cls-8" d="M2,150.78c2.8,12.91,3.16,14.57,6.86,24.63l4.08,9.33c1.44,2.7,3.27,6.36,4.82,9l5.41,8.42c1.83,2.42,4.18,5.71,6.11,8.05l6.58,7.39c2.17,2.1,5,5,7.25,7l7.57,6.24c2.49,1.75,5.74,4.17,8.29,5.82l8.34,5c2.77,1.38,6.43,3.31,9.26,4.57,1.44.64,3.39,1.44,4.85,2,90.09,32.32,156.75-51.85,113.21-142.95C157.5,27.66,38.84,7.05,6.53,92.62,0,109.92.07,124.29.11,132.88l.77,10.38L2,150.78"/><path class="cls-9" d="M8.83,175.41c5.43,12.43,5.43,12.43,8.9,18.34l5.41,8.42c1.83,2.42,4.18,5.71,6.11,8.05l6.58,7.39c2.17,2.1,5,5,7.25,7l7.57,6.24,6.84,4.87,2.75,1.78c84.94,51,158.69-16.92,140.85-98.14C180,43.27,56.86,6.08,12.89,82.5.58,103.88-2.72,128.74,3.07,156.37l2.66,10.1,3.1,8.94"/><path class="cls-10" d="M19.1,196c55.59,87,160.82,68,177.31-10.55,19.17-91.23-89-175.19-160.78-124.78C-3.57,88.22-11,148.93,19.1,196"/><path class="cls-11" d="M19.56,196.52c53.81,83.52,155.76,65.37,171.76-9.88C210.07,98.53,109,16,39,62.33-6.88,92.66-6.81,155.6,19.56,196.52"/><path class="cls-12" d="M14.46,186.6c40.82,78.79,141.8,85.69,168.83,11.54,28.42-78-56.07-167.46-131-138.74C6.18,77.07-11.49,136.5,14.46,186.6"/><path class="cls-13" d="M15.35,187c43.14,82.86,141.2,77.86,163.31,10.59C206.3,113.44,117.14,37,50.47,64.24,6.2,82.32-9.88,138.53,15.35,187"/><path class="cls-14" d="M16.44,187.31c40.22,76.69,140.31,78.31,159.84,2.58,21-81.43-74-159.37-139.22-114.24-37.74,26.11-38.79,77-20.62,111.66"/><path class="cls-15" d="M17.75,187.6c41.84,79.06,135.06,69.92,153.38,3.35C191.12,118.27,112.46,44,47.36,74.12,4.27,94-2.74,148.88,17.75,187.6"/><path class="cls-16" d="M19.28,187.85c39.81,74.42,129,66.46,146.63,4.14C186.23,120.32,110.05,48.63,46,79.19,9.39,96.69-2.87,146.45,19.28,187.85"/><path class="cls-17" d="M21,188.05c35.24,65,118.63,68,139.42,5,22.17-67.2-55.6-140.31-115.58-108.65C6.44,104.69,2.57,154,21,188.05"/><path class="cls-18" d="M23,188.21c32.84,59.74,111.71,63.28,131.85,5.91,25.26-72-56.51-133.86-111-104.32-31.3,17-40.85,62-20.85,98.41"/><path class="cls-19" d="M25.22,188.32c34.67,61.52,113.1,59,127.14-4.11C168.8,110.39,87.52,68,43,95.38,10.79,115.15,8.71,159,25.22,188.32"/><path class="cls-20" d="M27.78,188.39c29.78,51.78,100.06,59.2,119.07-3.17,20-65.64-56.48-114.24-104.62-83.94-25.7,16.16-32.32,56.06-14.45,87.11"/><path class="cls-21" d="M30.57,188.41c30.17,51.58,100.89,52.2,113.71-13.68C156.86,110,79.84,79.24,41.67,107.5c-23.23,17.21-28,52-11.1,80.91"/><path class="cls-22" d="M33.9,188.36c23.36,37.36,85.75,54.7,105.85-12.82,16.15-54.29-43.27-85.31-84.64-69.25-30.54,11.85-40.65,51-21.21,82.07"/><path class="cls-23" d="M37.76,188.24c17,26.39,43.72,31.1,57.49,27.83,34.7-8.25,43.88-51.5,44-51.93C148,114.48,82.35,94,49.07,115.87c-26.48,17.38-25.59,50.26-11.31,72.37"/><path class="cls-24" d="M41.07,186.53c5.85,10,26.95,30,51.58,24.37,29.71-6.83,43.44-45.84,43.55-46.23.81-3.06,7.19-30.32-20.21-45.82-28.34-16-53.78-4.13-60.91-.09-19.4,11-32.06,36.89-14,67.77"/><path class="cls-25" d="M48,187.68C65.93,210.46,89.74,205.11,90,205l13.19-5.35,13-10.19c14-16.17,19.31-22.23,19.18-36.65-.32-36.66-53.66-53-82.71-25.35-28.83,27.45-7.13,56.92-4.56,60.19"/><path class="cls-26" d="M47.89,176.51c.11.25,11.92,25.3,39.24,21.71,4.38-.57,10.39-2.17,13.91-4.84,4.32-3.26,10.12-3.75,14.15-7.57.12-.12,12.8-13.71,15-20.1,3.87-11.31,5.44-27.05-9-37.86C109.94,119.47,96,109,70.26,120.92c-15.92,7.36-34,30.11-22.37,55.59"/><path class="cls-27" d="M55.89,175.82c14,21.1,39,15,43.9,13.54,4.67-1.38,11.28-3.64,14.48-7.31,13.35-15.32,16.13-18.51,16.68-28.45,1.16-20.92-18-29.61-28.26-34.27-7-3.17-25.1-.59-33.39,6.29-4.24,3.52-10.91,8.31-12.34,13.64-1.22,4.59-5.4,7.91-5.54,13-.4,13.38-.48,16.17,4.47,23.6"/><path class="cls-28" d="M62.81,171.49c3.78,7.51,14.92,12.19,17.12,13,4.57,1.8,18.63,1.06,18.74,1L113.55,179c10.32-9.11,11.93-14.05,13.35-18.4,2.26-6.93,2.73-8.37,0-18.76A23.15,23.15,0,0,0,119,130.66c-4.48-3.26-10.54-8.4-16-9.19-15-2.18-16.24-1.57-25.72,3.14-12.15,6-16.52,14.18-16.54,14.25-1.14,3.69-2.56,8.81-2.32,12.67.27,4.07-.54,8.17.35,12.23.57,2.56,2.88,5.39,4.06,7.73"/><path class="cls-29" d="M70,174.36c14,13,33.63,6.07,43.08,2.73,2.92-1,13-14.35,13.5-22.75,1.36-21-17.27-28.74-23.4-31.28L86.48,123c-.93.24-15.19,8.31-15.28,8.38-15.49,12-11,33.85-1.18,43"/><path class="cls-30" d="M75.66,173.71C81,177.92,97,180,97.1,180c4.89.18,11-3.08,15.56-4.85,2.9-1.13,11.26-13.88,12.08-20.47,1.5-12-7.66-24.85-21.31-30-4.7-1.78-12-1.44-16.76.06-5.17,1.61-11,6.41-15.1,9.89-.22.19-19.18,20.61,4.09,39.1"/><path class="cls-31" d="M69.41,162.6C76,174.05,95,178.19,96.57,178c4.86-.7,11.93-1.6,15.64-4.82,7.24-6.28,10.85-18.11,10.87-18.21a24.71,24.71,0,0,0-1.57-12.15A32.17,32.17,0,0,0,113,131.65c-2.53-2-6.16-4.75-9.33-5.39-4.94-1-12-1.55-16.8.06-5.24,1.76-12.26,6.2-14.65,11.19-5.7,11.84-7.83,16.28-2.8,25.09"/><path class="cls-32" d="M72.64,162.22c3.2,5.42,17.73,14.52,23.4,13.71,4.88-.71,11.91-1.67,15.73-4.79,4-3.28,9.62-15.84,9.64-15.93A23,23,0,0,0,120,143,33.8,33.8,0,0,0,111,132c-1.92-1.53-4.67-3.7-7.09-4.11-5-.84-12.06-1.55-16.84.07-4.33,1.45-10.32,5-12.09,9.23-7.12,17-7.12,17-2.33,25.06"/><path class="cls-33" d="M75.9,161.82c1.77,2.91,15.39,12.67,19.62,12.06,4.91-.71,11.87-1.76,15.81-4.76.68-.51,8.4-13.55,8.42-13.64a21.57,21.57,0,0,0-1.26-12.2c-1.83-4-6.09-8.27-9.5-11-1.32-1-3.18-2.61-4.86-2.82-5-.64-12.08-1.55-16.87.07a22.25,22.25,0,0,0-9.5,7.26c-.08.11-5.14,12.51-5.36,13.13-1.23,3.51,1.57,8.71,3.5,11.89"/><path class="cls-34" d="M78.1,161.55c.09.11,15.39,10.48,16.91,10.26l15.93-4.51c3.35-2.33,6.21-7.58,7.14-11.55a21,21,0,0,0-1.1-12.23c-1.92-4-6.53-8.14-10-10.92a5.81,5.81,0,0,0-2.61-1.52c-5.06-.38-12.11-1.56-16.91.07-7.84,2.65-10.78,12.18-12.72,18.49-1.09,3.55,1.12,8.94,3.35,11.91"/><path class="cls-35" d="M80.22,161.28c3.11,3.94,9.36,8,14.34,8.65s12.9-.53,16-4.43c2.09-2.61,5.11-6.22,5.85-9.48.81-3.6.56-8.89-1-12.25,0-.08-10.09-10.78-10.84-11.07-4.73-1.88-11.92-.67-16.95.06-5.21.76-11.06,16.5-11.08,16.65a19.42,19.42,0,0,0,3.62,11.87"/><path class="cls-36" d="M82.35,161c2.6,3.22,7.69,6.58,11.79,7.12,5,.67,12.88-.56,16-4.42,1.66-2,4.08-4.85,4.57-7.41.69-3.63.7-8.9-.79-12.28-1.57-3.55-5.38-7.92-9-9.27-4.8-1.77-12-1.09-17-.36-2.39.35-9.43,14.66-9.45,14.79-.36,3.72,1.54,8.92,3.89,11.83"/><path class="cls-37" d="M84.49,160.72c2.06,2.49,6,5.15,9.23,5.59,5,.66,12.86-.62,16.1-4.43,1.22-1.43,3-3.47,3.28-5.33.54-3.65.83-8.91-.64-12.3-1.23-2.83-4.24-6.4-7.17-7.37-4.88-1.61-12.57-3-17.12-.66-4,2.09-7.37,8.26-7.83,12.71-.39,3.73,1.76,8.9,4.15,11.79"/><path class="cls-38" d="M86.64,160.43a12.44,12.44,0,0,0,6.67,4c5,.7,12.82-.66,16.15-4.43.75-.85,1.87-2.1,2-3.23.36-3.68,1-8.92-.48-12.32-.9-2.1-3.11-4.87-5.32-5.46-5-1.34-12.6-3-17.14-.57-3.18,1.69-6,6.64-6.28,10.22-.35,3.75,2,8.87,4.42,11.75"/><path class="cls-39" d="M88.81,160.14a7.78,7.78,0,0,0,4.1,2.49c5,.7,12.77-.73,16.18-4.43,2.07-2.23.4-13.38.36-13.47-.57-1.37-2-3.27-3.45-3.55-5-1-12.62-2.93-17.16-.49-2.39,1.29-4.5,5-4.73,7.74-.33,3.77,2.23,8.84,4.7,11.71"/><path class="cls-40" d="M91,159.84a2.94,2.94,0,0,0,1.54.93c5.17.74,13.38-3,15.58-7.77,1.24-2.68.87-8.29-1.74-9.67-4.54-2.42-12.63-2.86-17.16-.4a7.48,7.48,0,0,0-3.2,5.24c-.28,3.8,2.47,8.81,5,11.67"/><path class="cls-41" d="M91.63,156.46c5,1.16,9.11-7.69,13-11-4.52-.08-11.09-2.47-15.06-.31a3.89,3.89,0,0,0-1.66,2.74c-.19,2.79,1,7.91,3.72,8.55"/><path class="cls-42" d="M90.12,148.35c.4.1.74-.62,1-.89-.36,0-.9-.21-1.22,0a.3.3,0,0,0-.13.23c0,.23.07.65.3.7"/></g></g></g><g class="cls-2"><g class="cls-43"><g class="cls-2"><path class="cls-44" d="M91.69,6.54c-16.62,5.19-25.88,10.8-35.42,17.07a129.61,129.61,0,0,0-24.8,22.47c-7.33,9.09-26.8,33.24-30,72.4-3,37,11.83,65.38,14.85,70.69a129.12,129.12,0,0,0,55.9,53.88c20.44,10.1,53.39,19.62,94.32,7.62a76.91,76.91,0,0,1-14.78,2.92,8.91,8.91,0,0,1-1.38.26c-.43,0-.51,0-.18-.11a8.83,8.83,0,0,1,1.39-.26c.42,0,.5,0,.17.11a76.68,76.68,0,0,0,14.83-2.94c15.9-5.13,23.42-9.15,36.62-17.9a128.39,128.39,0,0,0,24.35-22.53,129.78,129.78,0,0,0,20.34-33.89c6.79-16.82,8-29,9-38.8a118,118,0,0,0-.2-20.5,168.11,168.11,0,0,0-3.6-20.64c-3.27-13.94-9.95-26.09-13.53-32.62-2.7-4.92-17.76-30.29-49.2-47.4C147.5-6.94,107.08,1.73,91.69,6.54"/><path class="cls-4" d="M243.85,185.25c5.3-11.73,5.4-11.95,7.43-18.33l2.62-9.52c.57-3,1.45-6.91,1.9-9.9l1.1-10c.1-3.07.34-7.17.31-10.25L256.7,117c-.42-3.14-.85-7.34-1.39-10.45L253.1,96.39C251.77,92,250,86.1,248.36,81.79l-4.06-9.23c-1.44-2.67-3.25-6.29-4.8-8.9l-5.37-8.32c-1.82-2.39-4.15-5.64-6.06-8l-6.53-7.3c-2.16-2.08-5-4.92-7.19-6.9L206.84,27c-2.46-1.73-5.68-4.12-8.21-5.75l-8.26-4.9c-2.75-1.36-6.37-3.26-9.17-4.51L172.59,8.4c-3.1-1-7.2-2.37-10.33-3.22l-7.7-1.8c-3.8-.64-8.89-1.44-12.72-1.89l-3.56-.29a136.49,136.49,0,0,0-20.71.27L116,1.62l-1.49.17L113.25,2,112,2.11l-1.11.15-1.08.17-1,.16-1,.17-1,.17-1,.18-1,.19-1,.21-1.09.22L101.53,4l-1,.24C3.72,27.64-1.73,163.08,91.8,220.49c62.94,38.64,118.55,16.35,143.58-20.71l5.13-8.26,3.34-6.27"/><path class="cls-5" d="M251.28,166.92c3.44-12.52,3.51-12.76,4.52-19.42l1.1-10c.1-3.07.34-7.17.31-10.25L256.7,117c-.42-3.14-.85-7.34-1.39-10.45L253.1,96.39C251.77,92,250,86.1,248.36,81.79l-4.06-9.23c-1.44-2.67-3.25-6.29-4.8-8.9l-5.37-8.32c-1.82-2.39-4.15-5.64-6.06-8l-6.53-7.3c-2.16-2.08-5-4.92-7.19-6.9L206.84,27c-2.46-1.73-5.68-4.12-8.21-5.75l-8.26-4.9c-2.75-1.36-6.37-3.26-9.17-4.51L172.59,8.4c-3.1-1-7.2-2.37-10.33-3.22l-7.7-1.8c-3.8-.64-8.89-1.44-12.72-1.89l-3.56-.29a145.42,145.42,0,0,0-18,.05h0C24.15,9.44,1.78,137.47,84.52,205.71c51.32,42.33,128.6,42.06,161.84-25.8L250,170.8l1.3-3.88"/><path class="cls-6" d="M255.8,147.5c1.45-13.12,1.48-13.37,1.41-20.22L256.7,117c-.42-3.14-.85-7.34-1.39-10.45L253.1,96.39C251.77,92,250,86.1,248.36,81.79l-4.06-9.23c-1.44-2.67-3.25-6.29-4.8-8.9l-5.37-8.32c-1.82-2.39-4.15-5.64-6.06-8l-6.53-7.3c-2.16-2.08-5-4.92-7.19-6.9L206.84,27c-2.46-1.73-5.68-4.12-8.21-5.75l-8.26-4.9c-2.75-1.36-6.37-3.26-9.17-4.51L172.59,8.4c-3.1-1-7.2-2.37-10.33-3.22l-7.7-1.8c-3.39-.57-7.92-1.33-11.34-1.75l-1.53-.15C45.77-6.57,4.17,107.69,74.24,186.71c53.86,60.74,153.86,59.5,178.55-24.92l2.22-9.66.79-4.63"/><path class="cls-7" d="M257.21,127.28c-.68-13.49-.69-13.75-1.9-20.7L253.1,96.39C251.77,92,250,86.1,248.36,81.79l-4.06-9.23c-1.44-2.67-3.25-6.29-4.8-8.9l-5.37-8.32c-1.82-2.39-4.15-5.64-6.06-8l-6.53-7.3c-2.16-2.08-5-4.92-7.19-6.9L206.84,27c-2.46-1.73-5.68-4.12-8.21-5.75l-8.26-4.9c-2.75-1.36-6.37-3.26-9.17-4.51L172.59,8.4c-3.1-1-7.2-2.37-10.33-3.22L156.9,3.89C66.62-13.59,12.92,81.6,65.69,165.54c52.37,83.32,170.64,76.08,188.87-11.57.62-3,1.34-7,1.73-10.08l.82-10,.1-6.58"/><path class="cls-8" d="M255.31,106.58c-2.72-12.57-3.14-14.5-6.95-24.79l-4.06-9.23c-1.44-2.67-3.25-6.29-4.8-8.9l-5.37-8.32c-1.82-2.39-4.15-5.64-6.06-8l-6.53-7.3c-2.16-2.08-5-4.92-7.19-6.9L206.84,27c-2.46-1.73-5.68-4.12-8.21-5.75l-8.26-4.9c-2.75-1.36-6.37-3.26-9.17-4.51-1.31-.57-3.07-1.3-4.39-1.85C87.22-22.4,20.88,61,64.15,151.68,101,229,218.83,249.42,250.85,164.17c6.42-17.11,6.35-31.32,6.3-39.81l-.76-10.28-1.08-7.5"/><path class="cls-9" d="M248.36,81.79C243,69.49,243,69.49,239.5,63.66l-5.37-8.32c-1.82-2.39-4.15-5.64-6.06-8l-6.53-7.3c-2.16-2.08-5-4.92-7.19-6.9L206.84,27l-6.65-4.73-2.48-1.61c-82.08-49.42-157.46,17.76-140,97.26,20.45,93,135,132.07,182.92,62.42C251.21,165,262.13,138.82,254.22,101l-2.63-10-3.23-9.25"/><path class="cls-10" d="M238.37,61.78C183.12-24.88,78.66-5.9,62.34,72.28c-18.9,90.58,88.45,173.89,159.55,123.82,38.86-27.37,46.25-87.62,16.48-134.32"/><path class="cls-11" d="M237.92,61.29C184.43-21.88,83.23-3.81,67.39,71.13c-18.54,87.73,82.1,169.35,151.67,123,45.1-30,44.9-92.35,18.86-132.85"/><path class="cls-12" d="M243,71.11C202.38-7.34,102.13-14.14,75.34,59.73c-28.06,77.42,55.79,166.18,130,137.65C251.09,179.81,268.65,120.8,243,71.11"/><path class="cls-13" d="M242.07,70.73C200.23-9.79,101.37-5.12,80,60.15c-27.37,83.57,61.08,159.47,127.19,132.41,43.89-18,59.88-73.76,34.89-121.83"/><path class="cls-14" d="M241,70.4C201-6,101.66-7.54,82.32,67.9c-20.75,81,73.5,158.28,138.16,113.33,37.4-26,38.48-76.5,20.51-110.83"/><path class="cls-15" d="M239.69,70.11C201-3.09,107.1-5.11,87.43,66.85,67.7,139,145.76,212.67,210.26,182.75,253,162.94,260,108.51,239.69,70.11"/><path class="cls-16" d="M238.17,69.87C198.62-4.22,110.11,3.74,92.6,65.81c-19.57,69.36,57.15,141.52,119,111.9,36.34-17.4,48.52-66.79,26.6-107.84"/><path class="cls-17" d="M236.45,69.67C201.42,4.9,118.63,2,98,64.76,76.13,131.48,153.32,204,212.74,172.53c38.09-20.17,42-69.1,23.71-102.86"/><path class="cls-18" d="M234.5,69.52C201.87,10,123.57,6.55,103.59,63.7c-25,71.48,56.18,132.85,110.18,103.47,31-16.88,40.51-61.6,20.73-97.65"/><path class="cls-19" d="M232.28,69.4C197.83,8.15,120,10.69,106.06,73.51c-15.87,71.6,65.52,114.79,108.58,88.11,31.84-19.72,33.94-63.23,17.64-92.22"/><path class="cls-20" d="M229.74,69.33c-29.14-50.79-99.9-57.21-118.22,3.18-19.78,65.2,56.13,113.38,103.84,83.25,25.46-16.07,32-55.65,14.38-86.43"/><path class="cls-21" d="M227,69.32C197,18,126.78,17.31,114.09,82.89c-1.91,9.86-5.68,43.63,25.87,64.29,22.86,15,57.64,16.07,75.95,2.4,26.2-19.55,25.25-56,11.06-80.26"/><path class="cls-22" d="M223.67,69.36c-23.2-37.21-85.16-54.5-105.09,12.73-16,53.83,43,84.6,84,68.69,30.28-11.75,40.33-50.56,21.09-81.42"/><path class="cls-23" d="M219.85,69.48C201,40.15,172.23,39.56,162.76,41.81,128.28,50,119.2,93,119.13,93.38c-8.73,49.39,56.59,69.55,89.66,47.74,25.13-16.57,25.35-49.44,11.06-71.64"/><path class="cls-24" d="M216.5,71.07C208.75,57.78,186.66,42,165.33,46.93c-29.53,6.81-43.12,45.54-43.22,45.92-.81,3-7.11,30.07,20,45.37,28.31,16,53.49,4.17,60.54.16,19.22-10.94,31.76-36.67,13.89-67.31"/><path class="cls-25" d="M209.67,70C190,45,165.37,53.84,165.13,53.94,148,60.76,122.8,81.56,123,104.56c.33,36.46,53.32,52.62,82.17,25.06,28.44-27.17,7-56.34,4.48-59.58"/><path class="cls-26" d="M209.77,81.1c-.11-.25-11.82-25.16-39-21.59-4.35.57-10.31,2.14-13.81,4.78-4.29,3.24-10,3.75-14,7.54-.12.12-12.87,14.06-14.9,20-12.29,36,27.39,59.25,59.47,44.41,15.79-7.3,33.77-29.87,22.23-55.13"/><path class="cls-27" d="M201.84,81.78c-13.9-21-38.75-14.9-43.59-13.47-4.63,1.37-11.21,3.58-14.38,7.22-13.24,15.21-16,18.37-16.55,28.28-1.15,20.85,18.57,29.75,28.05,34,4.54,2,11.68,1.95,16.58,1,.1,0,15.21-6.13,16.71-7.38,4.18-3.49,10.7-8.24,12.1-13.49,1.2-4.55,5.34-7.84,5.49-12.84.4-13.24.48-16-4.41-23.36"/><path class="cls-28" d="M194.93,86c-3.89-7.74-16.25-12.66-16.78-12.87-4.89-1.91-18.68-1.11-18.8-1.09l-14.76,6.53c-10.26,9.07-11.85,13.94-13.25,18.24-2.13,6.55-2.7,8.31,0,18.61a22.77,22.77,0,0,0,7.79,11.1c4.48,3.23,10.49,8.38,16,9.16l16.63.83c3-.37,6.44-2.72,9.11-4,11.69-5.85,16.19-14,16.21-14.08,1.11-3.66,2.53-8.73,2.28-12.54-.26-4,.55-8.1-.33-12.12-.57-2.55-2.87-5.38-4-7.72"/><path class="cls-29" d="M187.85,83.22c-6.66-6.23-8.63-6.36-27.47-7.56-4.82-.31-10.79,3.23-15.34,4.83-2.9,1-12.87,14.24-13.41,22.58-1.34,20.85,17.15,28.51,23.23,31l16.6.07c1.13-.29,15.07-8.27,15.15-8.33,15.33-12,10.9-33.57,1.24-42.62"/><path class="cls-30" d="M182.27,83.87c-5-4-21.21-6.23-21.36-6.24-4.84-.19-10.91,3.06-15.43,4.81-2.88,1.12-11.19,13.78-12,20.32-1.48,11.87,7.62,24.66,21.16,29.75,4.66,1.76,11.86,1.42,16.62-.07,5.13-1.6,10.87-6.36,15-9.81.22-.19,19.42-20.11-4-38.76"/><path class="cls-31" d="M188.41,94.88c-6.49-11.38-25.37-15.48-27-15.26-4.82.69-11.84,1.58-15.52,4.78-7.19,6.25-10.78,18-10.79,18.09a24.48,24.48,0,0,0,1.55,12,31.81,31.81,0,0,0,8.41,11c2.53,2,6.15,4.74,9.32,5.39,4.9,1,11.93,1.52,16.67-.07,5.21-1.76,12.17-6.19,14.56-11.15,6.42-13.32,7.75-16.09,2.77-24.83"/><path class="cls-32" d="M185.21,95.25C182,89.87,167.6,80.82,162,81.63c-4.85.7-11.82,1.65-15.61,4.75-4,3.26-9.57,15.74-9.58,15.83a22.79,22.79,0,0,0,1.4,12.06,33.5,33.5,0,0,0,8.89,11c1.93,1.53,4.68,3.7,7.1,4.12,5,.84,12,1.53,16.71-.07,4.31-1.46,10.26-5,12-9.21,7.05-16.75,7.05-16.75,2.3-24.81"/><path class="cls-33" d="M182,95.65c-1.77-2.9-15.3-12.59-19.5-12-4.86.71-11.78,1.74-15.69,4.71-.67.52-8.35,13.49-8.37,13.57A21.5,21.5,0,0,0,139.68,114c1.81,3.91,6,8.2,9.38,10.89,1.32,1,3.2,2.62,4.88,2.83,5,.64,12,1.54,16.74-.07,5.66-1.91,20.84-16.33,11.3-32"/><path class="cls-34" d="M179.79,95.92c-.09-.11-15.29-10.43-16.81-10.21l-15.8,4.47c-3.33,2.32-6.18,7.55-7.11,11.5a20.76,20.76,0,0,0,1.1,12.1c1.9,4,6.44,8.07,9.86,10.82a6,6,0,0,0,2.67,1.55c5,.38,12,1.54,16.78-.08,7.76-2.63,10.57-11.73,12.62-18.37,1.09-3.51-1.11-8.84-3.31-11.78"/><path class="cls-35" d="M177.7,96.19c-3.1-3.93-9.31-8-14.27-8.61s-12.79.52-15.88,4.38c-2.08,2.6-5.1,6.2-5.83,9.45a21.79,21.79,0,0,0,.95,12.13c0,.08,9.92,10.66,10.78,11,4.69,1.85,11.82.65,16.81-.08,5.34-.77,11-16.39,11-16.54a19.19,19.19,0,0,0-3.57-11.74"/><path class="cls-36" d="M175.59,96.46c-2.58-3.21-7.66-6.55-11.74-7.1-4.91-.66-12.78.56-15.93,4.39-1.66,2-4.07,4.84-4.56,7.4-.69,3.58-.68,8.8.8,12.14,1.57,3.54,5.35,7.9,9,9.24,4.76,1.76,11.89,1.07,16.91.34,2.37-.34,9.37-14.57,9.38-14.7.36-3.68-1.51-8.83-3.83-11.71"/><path class="cls-37" d="M173.47,96.74c-2.05-2.5-6-5.15-9.21-5.58-4.92-.66-12.76.6-16,4.39-1.22,1.43-3,3.48-3.29,5.34-.54,3.61-.8,8.81.66,12.17,1.22,2.81,4.22,6.37,7.13,7.34,4.84,1.61,12.48,3,17,.66,3.94-2.08,7.32-8.22,7.78-12.65.39-3.69-1.73-8.81-4.09-11.67"/><path class="cls-38" d="M171.34,97a12.48,12.48,0,0,0-6.67-4c-4.94-.69-12.72.66-16,4.39-.76.86-1.9,2.12-2,3.27-.35,3.64-.93,8.82.51,12.19.89,2.1,3.09,4.86,5.3,5.45,4.92,1.33,12.5,3,17,.58,3.16-1.69,5.91-6.62,6.24-10.19s-1.95-8.79-4.36-11.64"/><path class="cls-39" d="M169.21,97.31a7.86,7.86,0,0,0-4.14-2.51c-4.95-.71-12.67.72-16.06,4.39-1.8,1.94-.41,13.3-.37,13.39.57,1.37,2,3.27,3.45,3.56,5,1,12.53,2.91,17,.48,2.39-1.28,4.48-5,4.72-7.71.32-3.74-2.18-8.76-4.62-11.6"/><path class="cls-40" d="M167.06,97.61a3.06,3.06,0,0,0-1.6-1c-4.21-.6-14.17,4.62-15.5,7.53-1.25,2.72-.87,8.4,1.77,9.84,4.49,2.44,12.54,2.84,17,.4a7.46,7.46,0,0,0,3.19-5.24c.28-3.75-2.41-8.72-4.89-11.55"/><path class="cls-41" d="M166.3,100.75c-5-1.16-9.12,7.78-13,11.12,4.54.07,11.14,2.47,15.12.3a3.9,3.9,0,0,0,1.67-2.75c.19-2.83-1-8-3.76-8.67"/><path class="cls-42" d="M167.82,108.88c-.45-.11-.83.71-1.18,1,.41,0,1,.23,1.37,0a.32.32,0,0,0,.15-.25c0-.26-.08-.74-.34-.8"/></g></g></g><g class="cls-2"><g class="cls-45"><g class="cls-2"><path class="cls-4" d="M107.13,2.54l44.49,252s0,0-.1.05L107.13,2.54"/></g></g></g><g class="cls-2"><g class="cls-46"><g class="cls-2"><polyline class="cls-4" points="107.13 2.54 151.52 254.62 151.51 254.62 107.13 2.54"/><path class="cls-5" d="M107.13,2.54l44.38,252.08h0L107.13,2.54"/><path class="cls-6" d="M107.13,2.54l44.35,252.09h0L107.13,2.54"/><path class="cls-7" d="M107.13,2.54l44.33,252.1h0L107.13,2.54"/><path class="cls-8" d="M107.13,2.54l44.31,252.1h0L107.13,2.54"/><path class="cls-9" d="M107.13,2.54l44.28,252.11h0L107.13,2.54"/><path class="cls-10" d="M107.13,2.54,151.4,254.65h0L107.13,2.54h0"/><path class="cls-11" d="M107.13,2.54l44.25,252.12h0L107.13,2.54h0"/><path class="cls-12" d="M107.13,2.54l44.23,252.12h0L107.13,2.54"/><path class="cls-13" d="M107.13,2.54l44.21,252.12h0L107.13,2.54"/><path class="cls-14" d="M107.13,2.54l44.19,252.13h0L107.13,2.54"/><path class="cls-15" d="M107.13,2.54,151.3,254.67h0L107.13,2.54"/><path class="cls-16" d="M107.13,2.54l44.15,252.14h0L107.13,2.54"/><path class="cls-17" d="M107.13,2.54l44.13,252.14h0L107.13,2.54"/><path class="cls-18" d="M107.13,2.54l44.11,252.14h0L107.13,2.54"/><path class="cls-19" d="M107.13,2.54l44.09,252.15h0L107.13,2.54"/><path class="cls-20" d="M107.13,2.54l44.08,252.15h0L107.13,2.54"/><path class="cls-21" d="M107.13,2.54l44.06,252.15h0l-44-252.16"/><path class="cls-22" d="M107.13,2.54l44,252.16h0l-44-252.16"/><polyline class="cls-23" points="107.13 2.54 151.16 254.7 151.15 254.7 107.13 2.54"/><polyline class="cls-24" points="107.13 2.54 151.15 254.7 151.15 254.7 107.13 2.54"/><polyline class="cls-25" points="107.13 2.54 151.15 254.7 151.14 254.7 107.13 2.54"/><polyline class="cls-26" points="107.13 2.54 151.14 254.7 151.13 254.7 107.13 2.54"/><polyline class="cls-27" points="107.13 2.54 151.13 254.7 151.12 254.71 107.13 2.54"/><polyline class="cls-28" points="107.13 2.54 151.12 254.71 151.12 254.71 107.13 2.54"/><polyline class="cls-29" points="107.13 2.54 151.12 254.71 151.11 254.71 107.13 2.54"/><polyline class="cls-30" points="107.13 2.54 151.11 254.71 151.11 254.71 107.13 2.54"/><polyline class="cls-31" points="107.13 2.54 151.11 254.71 151.1 254.71 107.13 2.54"/><polyline class="cls-32" points="107.13 2.54 151.1 254.71 151.1 254.71 107.13 2.54 107.13 2.54"/><polyline class="cls-33" points="107.13 2.54 151.1 254.71 151.1 254.71 107.13 2.54"/><polyline class="cls-34" points="107.13 2.54 151.1 254.71 151.09 254.71 107.13 2.54"/><polyline class="cls-35" points="107.13 2.54 151.09 254.71 151.09 254.71 107.13 2.54"/><polyline class="cls-36" points="107.13 2.54 151.09 254.71 151.08 254.71 107.13 2.54"/><polyline class="cls-37" points="107.13 2.54 151.08 254.71 151.08 254.71 107.13 2.54"/><polyline class="cls-38" points="107.13 2.54 151.08 254.71 151.07 254.71 107.13 2.54"/><polyline class="cls-39" points="107.13 2.54 151.07 254.71 151.07 254.71 107.13 2.54"/><polyline class="cls-40" points="107.13 2.54 151.07 254.71 151.07 254.72 107.13 2.54"/><polyline class="cls-41" points="107.13 2.54 151.07 254.72 151.06 254.72 107.13 2.54"/><polyline class="cls-42" points="107.13 2.54 151.06 254.72 151.06 254.72 107.13 2.54"/><polyline class="cls-47" points="107.13 2.54 151.06 254.72 151.06 254.72 107.13 2.54"/><polyline class="cls-48" points="107.13 2.54 151.06 254.72 151.05 254.72 107.13 2.54"/><polyline class="cls-49" points="107.13 2.54 151.05 254.72 151.05 254.72 107.13 2.54 107.13 2.54"/><polyline class="cls-50" points="107.13 2.54 151.05 254.72 151.04 254.72 107.13 2.54"/><path class="cls-51" d="M107.13,2.54,151,254.72h0L107.13,2.54"/><path class="cls-52" d="M107.13,2.54,151,254.72h0L107.13,2.54"/><path class="cls-53" d="M107.13,2.54,151,254.72h0L107.13,2.54"/><polyline class="cls-52" points="107.13 2.54 151 254.72 150.99 254.73 107.13 2.54"/><polyline class="cls-51" points="107.13 2.54 150.99 254.73 150.99 254.73 107.13 2.54"/><polyline class="cls-50" points="107.13 2.54 150.99 254.73 150.98 254.73 107.13 2.54"/><polyline class="cls-49" points="107.13 2.54 150.98 254.73 150.97 254.73 107.13 2.54"/><polyline class="cls-48" points="107.13 2.54 150.97 254.73 150.97 254.73 107.13 2.54"/><polyline class="cls-47" points="107.13 2.54 150.97 254.73 150.96 254.73 107.13 2.54"/><polyline class="cls-42" points="107.13 2.54 150.96 254.73 150.96 254.73 107.13 2.54"/><polyline class="cls-41" points="107.13 2.54 150.96 254.73 150.95 254.73 107.13 2.54"/><polyline class="cls-40" points="107.13 2.54 150.95 254.73 150.95 254.73 107.13 2.54"/><polyline class="cls-39" points="107.13 2.54 150.95 254.73 150.95 254.73 107.13 2.54"/><polyline class="cls-38" points="107.13 2.54 150.95 254.73 150.94 254.73 107.13 2.54"/><polyline class="cls-37" points="107.13 2.54 150.94 254.73 150.94 254.73 107.13 2.54"/><polyline class="cls-36" points="107.13 2.54 150.94 254.73 150.93 254.73 107.13 2.54"/><polyline class="cls-35" points="107.13 2.54 150.93 254.73 150.93 254.74 107.13 2.54"/><polyline class="cls-34" points="107.13 2.54 150.93 254.74 150.92 254.74 107.13 2.54"/><polyline class="cls-33" points="107.13 2.54 150.92 254.74 150.91 254.74 107.13 2.54"/><polyline class="cls-32" points="107.13 2.54 150.91 254.74 150.91 254.74 107.13 2.54"/><polyline class="cls-31" points="107.13 2.54 150.91 254.74 150.9 254.74 107.13 2.54"/><path class="cls-30" d="M107.13,2.54l43.77,252.2h0L107.13,2.54"/><path class="cls-29" d="M107.13,2.54l43.76,252.2h0L107.13,2.54"/><path class="cls-28" d="M107.13,2.54l43.74,252.2h0L107.13,2.54h0"/><path class="cls-27" d="M107.13,2.54l43.71,252.2h0L107.13,2.54"/><path class="cls-26" d="M107.13,2.54,150.8,254.75h0L107.13,2.54"/><path class="cls-25" d="M107.13,2.54l43.65,252.21h0L107.13,2.54"/><path class="cls-24" d="M107.13,2.54l43.63,252.21h0L107.13,2.54"/><path class="cls-23" d="M107.13,2.54l43.61,252.21h0L107.13,2.54"/><path class="cls-22" d="M107.13,2.54l43.6,252.21h0L107.13,2.54"/><polyline class="cls-21" points="107.13 2.54 150.72 254.75 150.71 254.75 107.13 2.54"/><polyline class="cls-20" points="107.13 2.54 150.71 254.75 150.69 254.75 107.13 2.54"/><polyline class="cls-19" points="107.13 2.54 150.69 254.75 150.69 254.75 107.13 2.54"/><polyline class="cls-18" points="107.13 2.54 150.69 254.75 150.68 254.75 107.13 2.54"/><polyline class="cls-17" points="107.13 2.54 150.68 254.75 150.67 254.75 107.13 2.54"/><polyline class="cls-16" points="107.13 2.54 150.67 254.75 150.67 254.75 107.13 2.54"/><polyline class="cls-15" points="107.13 2.54 150.67 254.75 150.66 254.75 107.13 2.54"/><polyline class="cls-14" points="107.13 2.54 150.66 254.75 150.66 254.75 107.13 2.54"/><polyline class="cls-13" points="107.13 2.54 150.66 254.75 150.65 254.75 107.13 2.54"/><polyline class="cls-12" points="107.13 2.54 150.65 254.75 150.65 254.74 107.13 2.54"/><polyline class="cls-11" points="107.13 2.54 150.65 254.74 150.65 254.74 107.13 2.54"/><polyline class="cls-10" points="107.13 2.54 150.65 254.74 150.65 254.74 107.13 2.54"/><polyline class="cls-9" points="107.13 2.54 150.65 254.74 150.65 254.74 107.13 2.54"/></g></g></g><g class="cls-2"><g class="cls-54"><g class="cls-2"><path class="cls-4" d="M107.13,2.54l43.52,252.2s0,0,.1-.05h0L107.13,2.54"/><path class="cls-5" d="M107.13,2.54l43.63,252.15h0L107.13,2.54"/><path class="cls-6" d="M107.13,2.54l43.65,252.14h0L107.13,2.54"/><path class="cls-7" d="M107.13,2.54l43.68,252.13h0L107.13,2.54"/><path class="cls-8" d="M107.13,2.54l43.7,252.13h0L107.13,2.54"/><path class="cls-9" d="M107.13,2.54l43.72,252.12h0L107.13,2.54"/><path class="cls-10" d="M107.13,2.54l43.74,252.12h0L107.13,2.54h0"/><path class="cls-11" d="M107.13,2.54l43.76,252.11h0L107.13,2.54"/><path class="cls-12" d="M107.13,2.54l43.78,252.11h0L107.13,2.54"/><path class="cls-13" d="M107.13,2.54l43.8,252.11h0L107.13,2.54"/><path class="cls-14" d="M107.13,2.54,151,254.64h0L107.13,2.54"/><path class="cls-15" d="M107.13,2.54,151,254.64h0L107.13,2.54"/><path class="cls-16" d="M107.13,2.54,151,254.63h0L107.13,2.54"/><path class="cls-17" d="M107.13,2.54,151,254.63h0L107.13,2.54"/><path class="cls-18" d="M107.13,2.54,151,254.63h0L107.13,2.54"/><path class="cls-19" d="M107.13,2.54,151,254.62h0L107.13,2.54h0"/><path class="cls-20" d="M107.13,2.54l43.93,252.08h0l-44-252.07"/><path class="cls-21" d="M107.13,2.54l44,252.07h0l-44-252.07"/><path class="cls-22" d="M107.13,2.54l44,252.07h0l-44-252.07"/><polyline class="cls-23" points="107.13 2.54 151.1 254.61 151.11 254.61 107.13 2.54"/><polyline class="cls-24" points="107.13 2.54 151.11 254.61 151.12 254.61 107.13 2.54"/><polyline class="cls-25" points="107.13 2.54 151.12 254.61 151.13 254.61 107.13 2.54"/><polyline class="cls-26" points="107.13 2.54 151.13 254.61 151.14 254.6 107.13 2.54"/><polyline class="cls-27" points="107.13 2.54 151.14 254.6 151.14 254.6 107.13 2.54"/><polyline class="cls-28" points="107.13 2.54 151.14 254.6 151.15 254.6 107.13 2.54"/><polyline class="cls-29" points="107.13 2.54 151.15 254.6 151.15 254.6 107.13 2.54"/><polyline class="cls-30" points="107.13 2.54 151.15 254.6 151.16 254.6 107.13 2.54"/><polyline class="cls-31" points="107.13 2.54 151.16 254.6 151.16 254.6 107.13 2.54"/><polyline class="cls-32" points="107.13 2.54 151.16 254.6 151.17 254.6 107.13 2.54"/><polyline class="cls-33" points="107.13 2.54 151.17 254.6 151.17 254.6 107.13 2.54"/><polyline class="cls-34" points="107.13 2.54 151.17 254.6 151.17 254.6 107.13 2.54"/><polyline class="cls-35" points="107.13 2.54 151.17 254.6 151.18 254.6 107.13 2.54 107.13 2.54"/><polyline class="cls-36" points="107.13 2.54 151.18 254.6 151.18 254.6 107.13 2.54"/><polyline class="cls-37" points="107.13 2.54 151.18 254.6 151.19 254.6 107.13 2.54"/><polyline class="cls-38" points="107.13 2.54 151.19 254.6 151.19 254.59 107.13 2.54"/><polyline class="cls-39" points="107.13 2.54 151.19 254.59 151.19 254.59 107.13 2.54"/><polyline class="cls-40" points="107.13 2.54 151.19 254.59 151.2 254.59 107.13 2.54"/><polyline class="cls-41" points="107.13 2.54 151.2 254.59 151.2 254.59 107.13 2.54"/><polyline class="cls-42" points="107.13 2.54 151.2 254.59 151.21 254.59 107.13 2.54"/><polyline class="cls-47" points="107.13 2.54 151.21 254.59 151.21 254.59 107.13 2.54"/><polyline class="cls-48" points="107.13 2.54 151.21 254.59 151.22 254.59 107.13 2.54"/><polyline class="cls-49" points="107.13 2.54 151.22 254.59 151.22 254.59 107.13 2.54"/><polyline class="cls-50" points="107.13 2.54 151.22 254.59 151.22 254.59 107.13 2.54"/><polyline class="cls-51" points="107.13 2.54 151.22 254.59 151.24 254.59 107.13 2.54"/><polyline class="cls-52" points="107.13 2.54 151.24 254.59 151.25 254.59 107.13 2.54"/><path class="cls-53" d="M107.13,2.54l44.12,252.05h0l-44.14-252"/><polyline class="cls-52" points="107.13 2.54 151.27 254.58 151.27 254.58 107.13 2.54"/><polyline class="cls-51" points="107.13 2.54 151.27 254.58 151.28 254.58 107.13 2.54"/><polyline class="cls-50" points="107.13 2.54 151.28 254.58 151.29 254.58 107.13 2.54"/><polyline class="cls-49" points="107.13 2.54 151.29 254.58 151.29 254.58 107.13 2.54"/><polyline class="cls-48" points="107.13 2.54 151.29 254.58 151.3 254.58 107.13 2.54"/><polyline class="cls-47" points="107.13 2.54 151.3 254.58 151.3 254.58 107.13 2.54 107.13 2.54"/><polyline class="cls-42" points="107.13 2.54 151.3 254.58 151.31 254.58 107.13 2.54"/><polyline class="cls-41" points="107.13 2.54 151.31 254.58 151.31 254.58 107.13 2.54 107.13 2.54"/><polyline class="cls-40" points="107.13 2.54 151.31 254.58 151.32 254.58 107.13 2.54"/><polyline class="cls-39" points="107.13 2.54 151.32 254.58 151.32 254.58 107.13 2.54"/><polyline class="cls-38" points="107.13 2.54 151.32 254.58 151.32 254.58 107.13 2.54 107.13 2.54"/><polyline class="cls-37" points="107.13 2.54 151.32 254.58 151.33 254.57 107.13 2.54"/><polyline class="cls-36" points="107.13 2.54 151.33 254.57 151.34 254.57 107.13 2.54"/><polyline class="cls-35" points="107.13 2.54 151.34 254.57 151.34 254.57 107.13 2.54"/><polyline class="cls-34" points="107.13 2.54 151.34 254.57 151.35 254.57 107.13 2.54"/><polyline class="cls-33" points="107.13 2.54 151.35 254.57 151.35 254.57 107.13 2.54 107.13 2.54"/><polyline class="cls-32" points="107.13 2.54 151.35 254.57 151.36 254.57 107.13 2.54"/><polyline class="cls-31" points="107.13 2.54 151.36 254.57 151.37 254.57 107.13 2.54"/><path class="cls-30" d="M107.13,2.54l44.24,252h0l-44.25-252"/><path class="cls-29" d="M107.13,2.54l44.25,252h0l-44.27-252"/><path class="cls-28" d="M107.13,2.54l44.27,252h0l-44.3-252"/><path class="cls-27" d="M107.13,2.54l44.3,252h0l-44.33-252"/><path class="cls-26" d="M107.13,2.54l44.33,252h0l-44.36-252"/><path class="cls-25" d="M107.13,2.54l44.36,252h0l-44.38-252"/><path class="cls-24" d="M107.13,2.54l44.38,252h0l-44.39-252h0"/><path class="cls-23" d="M107.13,2.54l44.39,252h0l-44.41-252"/><path class="cls-22" d="M107.13,2.54l44.41,252h0l-44.42-252"/><polyline class="cls-21" points="107.13 2.54 151.55 254.56 151.56 254.56 107.13 2.54"/><polyline class="cls-20" points="107.13 2.54 151.56 254.56 151.57 254.56 107.13 2.54 107.13 2.54"/><polyline class="cls-19" points="107.13 2.54 151.57 254.56 151.58 254.56 107.13 2.54"/><polyline class="cls-18" points="107.13 2.54 151.58 254.56 151.59 254.56 107.13 2.54 107.13 2.54"/><polyline class="cls-17" points="107.13 2.54 151.59 254.56 151.59 254.56 107.13 2.54"/><polyline class="cls-16" points="107.13 2.54 151.59 254.56 151.6 254.56 107.13 2.54"/><polyline class="cls-15" points="107.13 2.54 151.6 254.56 151.61 254.56 107.13 2.54"/><polyline class="cls-14" points="107.13 2.54 151.61 254.56 151.61 254.56 107.13 2.54"/><polyline class="cls-13" points="107.13 2.54 151.61 254.56 151.61 254.56 107.13 2.54"/><polyline class="cls-12" points="107.13 2.54 151.61 254.56 151.62 254.56 107.13 2.54"/><polyline class="cls-11" points="107.13 2.54 151.62 254.56 151.62 254.57 107.13 2.54"/><polyline class="cls-10" points="107.13 2.54 151.62 254.57 151.62 254.57 107.13 2.54"/><polyline class="cls-9" points="107.13 2.54 151.62 254.57 151.62 254.57 107.13 2.54"/></g></g></g><g class="cls-2"><g class="cls-55"><g class="cls-2"><path class="cls-4" d="M3,150.61C.39,134,.9,123.42,1.44,118.6A176.21,176.21,0,0,1,4.6,98.8,124.8,124.8,0,0,1,10.75,80,129.88,129.88,0,0,1,31.12,46.49,128,128,0,0,1,60,21.13C68.79,15.79,95.57-.49,134,1a128.38,128.38,0,0,1,72.62,25.82,126.67,126.67,0,0,1,41.73,54.85c9.83,24,10.19,50.43,7.51,65.71-3.23,18.4-6.72,26.21-7.87,28.78a187.8,187.8,0,0,1-8.77,17.63,126.28,126.28,0,0,1-11.31,16,128.83,128.83,0,0,1-28.7,25.65c-13,8.7-26.63,13.22-31.78,14.92,44.9-13.6,72.19-68.83,61.31-131.16C216.69,50.44,162.64-1.4,108.08,3.45c.33-.1.26-.15-.17-.11a8.48,8.48,0,0,0-1.38.26c-.34.1-.26.15.17.11a8.48,8.48,0,0,0,1.38-.26c54.56-4.85,108.61,47,120.62,115.79,10.88,62.33-16.41,117.56-62.13,131.41C116,265.49,78.14,247.26,64.2,238.73c-23.09-14.12-33-26.82-42.7-40.78C14.31,187.61,5.64,168,3,150.61"/><path class="cls-4" d="M157.77,253a90.84,90.84,0,0,0,36.42-17.4,78.06,78.06,0,0,1-27.62,15.06l-2.1.62c-.62.17-1.45.41-2.07.57l-1.59.41-1.54.38-1.29.31-.48.11.27-.06"/><path class="cls-4" d="M194.19,235.59C221,212.91,233.35,184.1,231,150a157,157,0,0,0-2.34-30.74C216.69,50.44,162.64-1.4,108.08,3.45a4.12,4.12,0,0,0-1.55.15,4.12,4.12,0,0,0,1.55-.15c54.56-4.85,108.61,47,120.62,115.79A157,157,0,0,1,231,150c-.09-2-.2-4.76-.29-6.79C217.08,17,78.19-13.65,27.7,50.87c-1.51,1.93-3.47,4.54-4.84,6.57,2.36-3.38,5.73-7.71,8.26-10.95C33.17,44.23,35.83,41.15,38,39l6.83-6.44c2.48-2,5.73-4.75,8.29-6.66L60,21.13c3.15-1.87,7.35-4.36,10.58-6.07L74.78,13A131.87,131.87,0,0,1,91.69,6.54l2.11-.62,2.07-.57,1.58-.41L99,4.56l1.29-.31L101.53,4l1.12-.24,1.1-.22,1-.21,1-.19,1-.18,1-.17,1-.17,1-.16,1.08-.17L112,2.11,113.25,2l1.27-.16L116,1.62l1.57-.15,2.92-.24a139.09,139.09,0,0,1,21.35.26l7.74,1c3.82.74,8.9,1.77,12.68,2.7l8.86,2.7c3,1.18,7.1,2.68,10.08,4l8.61,4.22c2.65,1.55,6.24,3.53,8.82,5.19l8,5.55c2.33,1.91,5.51,4.37,7.77,6.37l7.05,6.75c2,2.23,4.75,5.14,6.67,7.45l6,7.83c1.64,2.53,3.93,5.85,5.46,8.44l4.74,8.79c1.24,2.8,3,6.49,4.12,9.34l3.35,9.63c1.17,4.52,2.7,10.57,3.6,15.16l1.37,10.33c.17,3.11.5,7.26.53,10.37l-.3,10.13c-.33,3-.66,7.08-1.11,10.09l-1.87,9.76c-.8,2.9-1.75,6.8-2.65,9.66L248,176.16c-1.23,2.73-2.77,6.41-4.1,9.09l-4.67,8.54c-1.63,2.51-3.72,5.93-5.45,8.38l-5.86,7.66c-2,2.27-4.65,5.37-6.77,7.56l-6.79,6.51c-2.45,2-5.66,4.79-8.19,6.71l-7,4.87c-3.09,1.87-7.21,4.37-10.39,6.09l-4.28,2.14a132.43,132.43,0,0,1-17.93,6.94,78.06,78.06,0,0,0,27.62-15.06"/><path class="cls-5" d="M15.31,70.33c52.82-88.49,179.6-42.08,205,51.36,18.3,67.47-19.3,129-82.12,134.24l-3.39.19a138.91,138.91,0,0,1-23.47-1L103,253.68c-3.55-.86-8.28-2-11.78-3l-8.86-3.09c-2.93-1.27-6.86-2.89-9.72-4.27l-8.48-4.56c-2.58-1.64-6.06-3.75-8.56-5.49l-7.75-5.86c-2.26-2-5.33-4.56-7.51-6.63l-6.8-7c-1.92-2.31-4.56-5.32-6.39-7.7L21.5,198c-1.55-2.6-3.71-6-5.15-8.67l-4.41-9c-1.13-2.86-2.75-6.63-3.77-9.54l-3-9.82c-.67-3.09-1.69-7.19-2.24-10.3L1.58,140.27c-.18-3.47-.52-8.09-.54-11.56l.4-10.11c.36-3,.72-7.06,1.2-10.07l2-9.73c.82-2.89,1.81-6.78,2.74-9.63L10.75,80l1.15-2.68,3.41-7"/><path class="cls-6" d="M6.59,91.58c37-101.93,160.11-68.8,198.54,9.07,37.92,76.84-5.67,158.18-83.3,155.42l-4-.26c-2-.19-4.61-.47-6.58-.71L103,253.68c-3.55-.86-8.28-2-11.78-3l-8.86-3.09c-2.93-1.27-6.86-2.89-9.72-4.27l-8.48-4.56c-2.58-1.64-6.06-3.75-8.56-5.49l-7.75-5.86c-2.26-2-5.33-4.56-7.51-6.63l-6.8-7c-1.92-2.31-4.56-5.32-6.39-7.7L21.5,198c-1.55-2.6-3.71-6-5.15-8.67l-4.41-9c-1.13-2.86-2.75-6.63-3.77-9.54l-3-9.82c-.67-3.09-1.69-7.19-2.24-10.3L1.58,140.27c-.18-3.47-.52-8.09-.54-11.56l.4-10.11c.36-3,.72-7.06,1.2-10.07l2-9.73.87-3.39,1.12-3.83"/><path class="cls-7" d="M3.71,103.22C25.24,7.6,144.33,13.78,192.57,91.64c55.88,90.18-9.34,179.2-91.2,161.66-1.31-.28-3.05-.71-4.36-1-4.43-1.25-10.26-3.2-14.61-4.72-2.93-1.27-6.86-2.89-9.72-4.27l-8.48-4.56c-2.58-1.64-6.06-3.75-8.56-5.49l-7.75-5.86c-2.26-2-5.33-4.56-7.51-6.63l-6.8-7c-1.92-2.31-4.56-5.32-6.39-7.7L21.5,198c-1.55-2.6-3.71-6-5.15-8.67l-4.41-9c-1.13-2.86-2.75-6.63-3.77-9.54l-3-9.82c-.67-3.09-1.69-7.19-2.24-10.3L1.58,140.27c-.18-3.47-.52-8.09-.54-11.56l.4-10.11L2,113.3l1.46-8.82c.09-.38.19-.89.28-1.26"/><path class="cls-8" d="M1.08,126.52c3.41-89.18,103.35-120.36,169.74-53C240.2,144,207.87,255.72,118.42,254.7c-19.22-.22-34.57-6.54-39.62-8.61-4.46-2-10.28-5-14.6-7.36-2.58-1.64-6.06-3.75-8.56-5.49l-7.75-5.86c-2.26-2-5.33-4.56-7.51-6.63l-6.8-7c-1.92-2.31-4.56-5.32-6.39-7.7L21.5,198c-1.55-2.6-3.71-6-5.15-8.67l-4.41-9c-1.13-2.86-2.75-6.63-3.77-9.54l-3-9.82c-.67-3.09-1.69-7.19-2.24-10.3L1.58,140.27l-.47-7.44,0-6.31"/><path class="cls-9" d="M3.55,153.77C-14.21,58.35,74.2,14,143.15,58.23c89.12,57.17,70.76,177.51-8.26,193.56-17.59,3.58-45.18,3.57-76.66-16.78-3.18-2.17-7.27-5.3-10.34-7.63-2.26-2-5.33-4.56-7.51-6.63l-6.8-7c-1.92-2.31-4.56-5.32-6.39-7.7L21.5,198c-1.55-2.6-3.71-6-5.15-8.67l-4.41-9c-1.13-2.86-2.75-6.63-3.77-9.54l-3-9.82-1.14-4.75-.5-2.39"/><path class="cls-10" d="M9.51,174.33c-32-88.7,42.93-151.2,113.66-120.7,94.29,40.66,95.89,162.74,22.91,192.6C90.9,268.8,28.46,226.88,9.51,174.33"/><path class="cls-11" d="M9.93,174.82C-19.58,92.52,46.85,25.76,124.57,59.6c79.82,34.76,93,151.81,20.73,184.19-53.68,24-116.85-17.33-135.37-69"/><path class="cls-12" d="M7,164C-13.74,81,61.86,24.81,133.41,70.07c80.35,50.84,65.85,159.36-4.51,176.67C78.13,259.24,21.17,220.55,7,164"/><path class="cls-13" d="M7.92,164.33C-10.74,86,56.91,33.13,126.58,71.68c75.86,42,76.12,153.52.41,173-53.91,13.86-107.32-31-119.07-80.34"/><path class="cls-14" d="M9,164.66C-9.07,87,60.34,37.17,128.82,78.74c68.79,41.77,66.48,144.27-3.7,163.7C77.8,255.53,21.38,217.73,9,164.66"/><path class="cls-15" d="M10.34,165C-6.66,90.19,59,43.27,125.5,82.64,190.39,121,189,221.06,123.26,240,72.6,254.62,21,211.65,10.34,165"/><path class="cls-16" d="M11.86,165.19C-5.82,85.69,68,53.42,118,84c75.23,46,57.54,136.48,3.4,153.42C73,252.52,21.88,210.27,11.86,165.19"/><path class="cls-17" d="M13.58,165.39C-.51,100.47,57.25,56.23,114.91,87.79c68.28,37.38,61.51,128.22,4.65,146.75-42.88,14-95.37-20.28-106-69.15"/><path class="cls-18" d="M15.5,165.55C3,106.31,52.74,59.32,115.83,94c56.83,31.26,58,117.31,1.86,137.42-41.39,14.83-92-17.81-102.19-65.89"/><path class="cls-19" d="M17.69,165.67c-12.53-61.6,43-98.51,99-65.84,60.81,35.46,43.13,121.88-11.65,131.16-38.15,6.46-79-24.06-87.37-65.32"/><path class="cls-20" d="M20.18,165.74c-11.75-59.46,42-92.63,97.42-60.17,49.79,29.15,39.66,112.45-14.84,122.1C67.19,234,27.83,204.45,20.18,165.74"/><path class="cls-21" d="M22.9,165.76c-10.79-56.27,41.81-87,95.4-55.74C161.6,135.28,149,215.14,100.38,224,66.84,230,29.91,202.3,22.9,165.76"/><path class="cls-22" d="M26,165.73c-9.84-55.82,47-78.4,92.94-51.59C161.63,139,139.29,212,98,220c-34.56,6.66-66.51-23.13-72-54.23"/><path class="cls-23" d="M29.73,165.64c-10-59,55.35-69.71,89.9-47.34,26.24,17,19.58,45.22,19.51,45.51-6.83,27.45-23.95,47.69-43.63,51.58C67,221,35,196.84,29.73,165.64"/><path class="cls-24" d="M33.75,165.47c0-.33-5.08-32.92,21.9-46.66,6.06-3.09,37.66-17.46,64.5,2.67,42.5,31.87-3.19,83.72-27.22,88.79-19.93,4.2-53.7-11.52-59.18-44.8"/><path class="cls-25" d="M39.05,165.17c-4-30.49,19.05-41.92,31.42-48.06.11-.06,11.47-5.54,31.8-2.49,1.55.23,11.77,5,18.41,10,36.66,27.58-3.7,74.18-30.43,79.77C65,209.71,42,187.66,39.05,165.17"/><path class="cls-26" d="M45.26,155.79C45.6,137.5,64.9,122.88,70.72,121c18.74-6.19,18.74-6.19,31.86-4,.11,0,16.94,8.29,21,12.92,18.39,21.08,5.11,38.93,5,39.1-12.82,16.74-12.82,16.74-27.26,23.88-6.2,3.06-14.68,7.25-29,3.92-.13,0-15.17-7.07-19.49-13.62-7.84-11.9-7.71-18.74-7.55-27.41"/><path class="cls-27" d="M52,152l5.5-12.83c3-4.52,8.23-9.68,12.11-13.49,1.1-1.09,16.59-7.36,16.7-7.37s13.28-.92,19.26,2.32c16.41,8.88,19.69,11.79,23.38,20.74,8.69,21.13-14.33,40.07-14.57,40.24-8,6-24.57,14.55-46.11,5.11C62.25,184.11,48.1,169.42,52,152"/><path class="cls-28" d="M59,151.93c-1.19-21.08,20.43-28.73,27.53-31.25l16.64.85a47,47,0,0,1,15.93,9.14c3,2.74,6.77,7.16,7.8,11.09,2.86,10.9,2.48,11.93,0,18.62-2.25,6.06-3.61,9.71-13.25,18.24-1.11,1-3.35.9-4.7,1.5-3.09,1.36-6.77,4.28-10.06,5-.09,0-12.26.95-18.8-1.1C75,182.46,69.08,178,65,174.56c-2.88-2.39-4.72-7.48-5.67-11.1-.88-3.35-.08-8.07-.27-11.53"/><path class="cls-29" d="M61.67,151.06c.22-3.93.72-9.75,3.34-12.68,4.42-4.93,9.92-11.06,21.8-15.36l16.6.09c4.59,1.21,10.21,4.69,13.72,7.89l7.76,11.11c1.38,3.36,1.23,8.4,1.74,12,.08.59-3.72,10.6-4.48,12.6-1.43,3.75-5.5,7.89-8.93,10-4.11,2.52-10.54,4.3-15.33,4.84a49.35,49.35,0,0,1-16.5-1.43,33,33,0,0,1-11-6.14c-6.7-5.64-9-17.89-8.74-22.9"/><path class="cls-30" d="M64.41,150.76c.33-4.06,1.77-9.75,4.44-12.83C75.2,130.62,86.9,124.79,87,124.75c4.66-1.79,11.77-1.19,16.63-.06,3.88.91,8.55,4,11.51,6.63,12,10.8,9.68,23,9.64,23.1-5.19,14.1-5.19,14.1-12,20.33-3.58,3.27-10.59,4.61-15.43,4.8-.14,0-17-2.41-21.36-6.24-5.28-4.61-12.5-10.93-11.58-22.55"/><path class="cls-31" d="M72.44,137.91c.53-1.22,14.63-11.53,14.75-11.57,4.69-1.74,11.69-.54,16.67-.06,8.39.82,17.65,16.23,17.71,16.39,1.4,3.36,2.63,8.55,1.56,12,0,.13-4.72,13.59-10.79,18.09-3.91,2.9-10.65,4.79-15.52,4.77S85.45,175,81,172.69C79.75,172,70,163,69.86,162.31c-.88-3.55-3-8.24-2.67-11.87.43-4.05,3.64-8.79,5.25-12.53"/><path class="cls-32" d="M73.1,142.59c.67-1.64,1-4.19,2.26-5.46,3.17-3.25,7.92-7.26,12-9.2,4.53-2.15,11.7-.09,16.71-.05,5.39,0,15.5,13.89,16,15,1.42,3.36,2.43,8.57,1.41,12.06,0,.1-5.8,12.66-9.59,15.84s-10.72,4.5-15.6,4.74c-3.47.18-8-1.81-11.07-3.39C81,170,74.87,166.34,73.05,161.93c-4-9.66-4-9.66,0-19.34"/><path class="cls-33" d="M73.84,147.28c1.27-3.16,2.19-7.81,4.28-10.51s5.9-6.92,9.46-7.25c5-.46,12.15-2.07,16.75-.05,7.88,3.47,14.21,13.6,14.25,13.69,1.45,3.34,2.23,8.57,1.26,12.08,0,.08-7.7,12.92-8.37,13.57-3.51,3.44-10.81,4.1-15.69,4.71-2,.25-4.54-1-6.31-1.92-.1,0-12.74-9.37-13.18-10.06-.05-.08-4.73-8.64-2.45-14.26"/><path class="cls-34" d="M80.89,136.41c1.62-2,4.35-4.72,6.9-5.29a45.73,45.73,0,0,1,16.78-.05c3.36.65,12.47,12.23,12.51,12.34a21.05,21.05,0,0,1,1.11,12.1c-1,3.93-4.49,8.4-7.1,11.49l-15.81,4.48a2.94,2.94,0,0,1-1.53-.47c-5-2.25-13.38-4.65-15.28-9.74-1.28-3.45-3.67-8.13-3.31-11.79.41-4.26,3.07-9.72,5.73-13.07"/><path class="cls-35" d="M83.68,136c1-1.26,2.71-3.07,4.32-3.32,5-.79,11.91-1.22,16.82-.05.68.17,10.73,10.88,10.77,11,1.5,3.32,1.76,8.57,1,12.13-.74,3.25-3.76,6.84-5.84,9.45-3.08,3.86-11,5-15.88,4.38S82.14,165.74,80.57,161c-1.16-3.5-4-8.09-3.57-11.75.55-4.41,3.83-9.81,6.68-13.21"/><path class="cls-36" d="M86.5,135.65c.43-.49,1.07-1.29,1.72-1.33,5.07-.26,12.79-2.58,16.92.38,3.12,2.24,7.35,5.69,9,9.19,1.52,3.32,1.68,8.6.81,12.15-.62,2.53-2.3,6.1-4.56,7.4-4.29,2.47-11,5.06-15.93,4.38-4.07-.56-9.11-3.92-11.74-7.09-2.35-2.85-4.22-8-3.83-11.72.5-4.59,4.6-9.89,7.66-13.36"/><path class="cls-37" d="M88.48,136.13c4.52-2.37,13-2.54,17,.68,2.38,1.94,6,4.47,7.13,7.32a22.38,22.38,0,0,1,.66,12.17c-.46,1.82-1.61,4.49-3.28,5.34-4.44,2.24-11.06,5.08-16,4.39a16.29,16.29,0,0,1-9.21-5.58c-2.27-2.94-4.51-8-4.09-11.68.5-4.42,3.84-10.57,7.78-12.64"/><path class="cls-38" d="M88.81,138.35c4.51-2.39,13-2.6,17,.59,1.78,1.42,4.58,3.27,5.29,5.43a24.57,24.57,0,0,1,.51,12.19c-.29,1.11-1,2.81-2,3.26-4.58,2-11.08,5.09-16,4.39a11.26,11.26,0,0,1-6.68-4c-2.15-3-4.74-7.93-4.35-11.64s3.07-8.51,6.24-10.18"/><path class="cls-39" d="M89.15,140.57c4.5-2.43,13-2.65,17,.5,1.16.91,3.09,2.09,3.44,3.53.86,3.56,1.29,8.67.36,12.21-.11.41-.33,1.06-.73,1.19-4.74,1.57-11.11,5.09-16,4.39a6.57,6.57,0,0,1-4.14-2.51c-2-3.19-5-7.87-4.62-11.6.25-2.7,2.32-6.43,4.71-7.71"/><path class="cls-40" d="M89.5,142.79c4.49-2.44,12.55-2,17,.41,2.63,1.43,3,7.1,1.76,9.82-1,2.12-3.9,3.94-6,5-2.65,1.29-6.57,3-9.49,2.57a2.38,2.38,0,0,1-1.61-1c-1.73-3.34-5.19-7.8-4.88-11.56a7.5,7.5,0,0,1,3.18-5.23"/><path class="cls-41" d="M89.87,145c4-2.17,10.56.24,15.09.3-3.9,3.34-8,12.27-13,11.11-2.76-.64-3.94-5.84-3.75-8.67A3.87,3.87,0,0,1,89.87,145"/><path class="cls-42" d="M90.25,147.26c.36-.2.94,0,1.34,0-.34.3-.71,1.1-1.16,1-.24-.06-.34-.53-.33-.79a.38.38,0,0,1,.15-.24"/></g></g></g><g class="cls-2"><g class="cls-56"><g class="cls-2"><path class="cls-57" d="M166.86,251.62c-35.48,10.42-63.47,3.66-71.2,1.34-11.65-3.49-22.42-7.11-36.19-16a130.37,130.37,0,0,1-30.09-26.63C2.65,179-12.61,123.85,13.55,71.49a129,129,0,0,1,89-68.72A130.58,130.58,0,0,1,139.23.36,127.59,127.59,0,0,1,175.78,8.6c17.76,7.09,26.53,13.8,35,20.3C215.41,32.44,239,51.8,251,86A128.71,128.71,0,0,1,214.2,225.33c-15.37,13-28.15,20.07-47.14,26.23a78.43,78.43,0,0,1-15.54,3.06c.16-.05.13-.08-.09-.06a4.11,4.11,0,0,0-.68.13c-.17.05-.13.08.08.06a4.24,4.24,0,0,0,.69-.13,77.87,77.87,0,0,0,15.34-3"/><path class="cls-4" d="M231.21,207.12C168,282.23,35.07,222.4,25.06,114.34c-5-53.65,26-99.34,75.34-111.1l2.16-.47,1.08-.23,1-.2,1-.19,1-.17,1-.17,1-.17,1-.16,1.06-.16,1.1-.15L113,1l1.26-.16,1.48-.16,1.56-.16,3.18-.25a139.52,139.52,0,0,1,26,.81l8.31,1.39c3.63.85,8.46,2,12,3l9,3.09c3,1.28,7,2.9,9.88,4.3l8.6,4.58c2.6,1.65,6.14,3.77,8.68,5.52l7.85,5.9c2.29,2,5.41,4.6,7.61,6.7l6.9,7.08c1.94,2.33,4.62,5.37,6.47,7.77l5.76,8.15c1.56,2.63,3.75,6.07,5.21,8.76l4.47,9.09c1.14,2.89,2.78,6.7,3.81,9.63L254,96c.68,3.12,1.71,7.26,2.26,10.41l1.39,10.44c.17,3.37.51,7.86.54,11.23l-.37,10.23c-.36,3.05-.71,7.14-1.19,10.17l-2,9.85c-.82,2.92-1.81,6.85-2.74,9.73l-3.43,9.31c-1.26,2.74-2.83,6.45-4.2,9.15l-4.78,8.59-3.34,5.23-4.73,6.43-.27.35"/><path class="cls-5" d="M243.75,187.48c-53.92,90.14-180,43.73-206.83-51.83C18.16,68.87,56.88,5.64,119.78.33l3.38-.19a139,139,0,0,1,23.29,1l8.31,1.39c3.63.85,8.46,2,12,3l9,3.09c3,1.28,7,2.9,9.88,4.3l8.6,4.58c2.6,1.65,6.14,3.77,8.68,5.52l7.85,5.9c2.29,2,5.41,4.6,7.61,6.7l6.9,7.08c1.94,2.33,4.62,5.37,6.47,7.77l5.76,8.15c1.56,2.63,3.75,6.07,5.21,8.76l4.47,9.09c1.14,2.89,2.78,6.7,3.81,9.63L254,96c.68,3.12,1.71,7.26,2.26,10.41l1.39,10.44c.17,3.37.51,7.86.54,11.23l-.37,10.23c-.36,3.05-.71,7.14-1.19,10.17l-2,9.85c-.82,2.92-1.81,6.85-2.74,9.73l-3.43,9.31-1.26,2.94-3.52,7.17"/><path class="cls-6" d="M252.59,166c-37.36,102.43-161.35,69.06-200-9.21C14.2,79.14,58.4-2.81,137,.22l4,.28c1.63.17,3.82.39,5.45.59l8.31,1.39c3.63.85,8.46,2,12,3l9,3.09c3,1.28,7,2.9,9.88,4.3l8.6,4.58c2.6,1.65,6.14,3.77,8.68,5.52l7.85,5.9c2.29,2,5.41,4.6,7.61,6.7l6.9,7.08c1.94,2.33,4.62,5.37,6.47,7.77l5.76,8.15c1.56,2.63,3.75,6.07,5.21,8.76l4.47,9.09c1.14,2.89,2.78,6.7,3.81,9.63L254,96c.68,3.12,1.71,7.26,2.26,10.41l1.39,10.44c.17,3.37.51,7.86.54,11.23l-.37,10.23c-.36,3.05-.71,7.14-1.19,10.17l-2,9.85-.95,3.71-1.16,4"/><path class="cls-7" d="M255.51,154.28c-21.72,96.17-141.68,89.94-190.27,11.63C9,75.19,74.64-14.54,157.09,3c1.32.28,3.06.71,4.36,1,4.35,1.22,10.06,3.12,14.33,4.59,3,1.28,7,2.9,9.88,4.3l8.6,4.58c2.6,1.65,6.14,3.77,8.68,5.52l7.85,5.9c2.29,2,5.41,4.6,7.61,6.7l6.9,7.08c1.94,2.33,4.62,5.37,6.47,7.77l5.76,8.15c1.56,2.63,3.75,6.07,5.21,8.76l4.47,9.09c1.14,2.89,2.78,6.7,3.81,9.63L254,96c.68,3.12,1.71,7.26,2.26,10.41l1.39,10.44c.17,3.37.51,7.86.54,11.23l-.37,10.23-.57,5.7-1.48,8.91c-.08.41-.2,1-.29,1.36"/><path class="cls-8" d="M258.18,130.74c-3.53,91.75-102.59,122.71-171,53.43C17.09,113.1,49.57.47,139.89,1.58,159.18,1.81,174.28,8,180,10.3c4.36,2,10.06,4.92,14.3,7.18,2.6,1.65,6.14,3.77,8.68,5.52l7.85,5.9c2.29,2,5.41,4.6,7.61,6.7l6.9,7.08c1.94,2.33,4.62,5.37,6.47,7.77l5.76,8.15c1.56,2.63,3.75,6.07,5.21,8.76l4.47,9.09c1.14,2.89,2.78,6.7,3.81,9.63L254,96c.68,3.12,1.71,7.26,2.26,10.41l1.39,10.44.47,7.47,0,6.42"/><path class="cls-9" d="M255.69,103.22c17.88,96-71.1,140.82-140.49,96.42C25.14,142,43.54,20.69,123.32,4.5,141,.91,168.83,1,200.76,21.53c3.09,2.09,7.05,5.13,10,7.37,2.29,2,5.41,4.6,7.61,6.7l6.9,7.08c1.94,2.33,4.62,5.37,6.47,7.77l5.76,8.15c1.56,2.63,3.75,6.07,5.21,8.76l4.47,9.09c1.14,2.89,2.78,6.7,3.81,9.63L254,96l1.16,4.81.5,2.41"/><path class="cls-10" d="M249.67,82.45c33.2,91.92-42.13,152.87-114.53,121.71C47.21,166.32,32.54,43,112.07,10.13c50.75-21,116.34,13.48,137.6,72.32"/><path class="cls-11" d="M249.24,82C279,164.88,212.1,232.2,133.73,198.13,53.21,163.14,40,45.23,112.85,12.6,166.94-11.61,230.58,30,249.24,82"/><path class="cls-12" d="M252.19,92.93c21,83.7-55.23,140.32-127.37,94.65C44,136.4,58.58,27.08,129.38,9.62,180.54-3,237.92,35.93,252.19,92.93"/><path class="cls-13" d="M251.28,92.55c20.33,85.26-57.14,131.06-120.38,93C50.09,136.88,62,29.92,131.32,11.71c49.6-13,106.78,25.51,120,80.84"/><path class="cls-14" d="M250.17,92.22c18.25,78.27-51.7,128.46-120.72,86.62-69.34-42-67-145.28,3.76-164.87,47.67-13.2,104.51,24.83,117,78.25"/><path class="cls-15" d="M248.84,91.93C266,167.24,199.92,214.6,133,175c-65.53-38.74-64.17-139.53,2.14-158.6C186.13,1.74,238.15,45,248.84,91.93"/><path class="cls-16" d="M247.31,91.68c17.83,80.08-56.48,112.7-106.79,82C62.87,126.32,81,36.59,137,19.08c49.59-15.51,100,26.29,110.35,72.6"/><path class="cls-17" d="M245.58,91.48c14.22,65.42-44,110-102.11,78.24C74.52,132,81.39,40.54,138.82,21.93c44-14.26,95.89,19.54,106.76,69.55"/><path class="cls-18" d="M243.64,91.32c12.65,59.7-37.5,107.07-101.11,72.12C85.24,132,84.09,45.3,140.7,25.05,182.4,10.14,233.39,43,243.64,91.32"/><path class="cls-19" d="M241.43,91.2c12.66,62.11-43.29,99.34-99.78,66.39C80.41,121.87,98.25,34.84,153.43,25.51,191.85,19,233,49.7,241.43,91.2"/><path class="cls-20" d="M238.92,91.13c11.88,60-42.26,93.41-98.17,60.66-50.13-29.35-39.9-113.22,15-122.93,35.82-6.33,75.46,23.35,83.16,62.27"/><path class="cls-21" d="M236.18,91.1c10.91,56.76-42.1,87.77-96.13,56.23-45-26.24-32.46-105.6,18.09-114.74,33.79-6.11,71,21.78,78,58.51"/><path class="cls-22" d="M233,91.13c10,56.31-47.33,79.08-93.66,52-43-25.09-20.43-98.55,21.16-106.55,34.8-6.7,67,23.26,72.5,54.51"/><path class="cls-23" d="M229.3,91.23c9.54,56.26-52.05,72.73-90.6,47.73-26-16.88-19.71-45.63-19.64-45.91,6.87-27.58,24.14-47.93,44-51.84,28.73-5.66,60.93,18.65,66.25,50"/><path class="cls-24" d="M225.25,91.4c.05.33,5.14,33.19-22.07,47.06-6.11,3.11-37.94,17.61-65-2.69-42.8-32.11,3.26-84.31,27.46-89.4,20.08-4.22,54.09,11.58,59.61,45"/><path class="cls-25" d="M219.91,91.7c4,30.75-19.19,42.28-31.66,48.48-1.16.58-11.92,5.54-32.05,2.51-1.56-.23-11.84-5.08-18.55-10.13-36.9-27.77,3.77-74.7,30.68-80.33,25.44-5.33,48.61,16.84,51.58,39.47"/><path class="cls-26" d="M213.65,101.17c-.33,18.44-19.79,33.18-25.65,35.12-18.87,6.25-18.87,6.25-32.11,4-.11,0-17-8.36-21.11-13-18.25-20.93-5.18-39.24-5-39.42,12.85-16.78,12.85-16.78,27.49-24,4.8-2.37,14.79-7.3,29.19-4,.13,0,15.16,6.95,19.65,13.75,7.87,11.94,7.75,18.49,7.58,27.55"/><path class="cls-27" d="M206.85,105l-5.55,13c-3.07,4.58-8.37,9.78-12.3,13.64-1,1-16.61,7.35-16.72,7.37s-13.48.86-19.34-2.31c-16.6-9-19.91-11.92-23.63-21-8.6-20.91,14.45-40.32,14.69-40.5,5.05-3.77,23.32-15.28,46.47-5.17,6.07,2.66,20.32,17.43,16.38,35"/><path class="cls-28" d="M199.79,105.05C201,126.29,179.2,134,172,136.57l-16.76-.84a47.41,47.41,0,0,1-16-9.2c-3-2.77-6.83-7.24-7.88-11.21-2.88-11-1.92-13.57,0-18.75,2.28-6.13,3.65-9.83,13.35-18.39,1.23-1.09,3.69-1,5.19-1.66,3-1.31,6.53-4.15,9.7-4.88.09,0,12.68-.84,18.66,1,5.22,1.61,11.3,6.07,15.51,9.56,2.9,2.41,4.77,7.55,5.74,11.21.89,3.37.08,8.14.28,11.62"/><path class="cls-29" d="M197.12,106c-.23,4-.74,9.85-3.39,12.81-4.43,4.94-9.94,11.09-21.94,15.44l-16.73-.06c-4.62-1.21-10.28-4.72-13.81-7.95L133.42,115c-1.4-3.4-1.25-8.49-1.76-12.12,0-.19-.07-.54,4.56-12.73,1.43-3.76,5.51-7.9,8.94-10,4.16-2.54,10.63-4.35,15.46-4.88a49.87,49.87,0,0,1,16.63,1.45,33.15,33.15,0,0,1,11,6.12c6.8,5.73,9.17,18.09,8.88,23.13"/><path class="cls-30" d="M194.35,106.26c-.33,4.1-1.79,9.85-4.49,12.95-6.37,7.34-18.17,13.23-18.27,13.27-4.69,1.8-11.86,1.2-16.76.06-3.9-.91-8.59-4-11.57-6.67-12.08-10.91-9.78-23.23-9.74-23.34,5.21-14.14,5.21-14.14,12.09-20.44,3.61-3.3,10.67-4.65,15.55-4.85.14,0,17.18,2.53,21.43,6.24,5.65,4.94,12.68,11.1,11.76,22.78"/><path class="cls-31" d="M186.26,119.19c-.58,1.35-14.74,11.64-14.86,11.68-4.72,1.76-11.78.55-16.8.07-8.45-.82-17.78-16.38-17.85-16.53-1.4-3.4-2.64-8.64-1.56-12.16,0-.13,4.85-13.7,10.87-18.17,3.94-2.93,10.73-4.83,15.64-4.82s11.38,2.6,15.8,4.85c1.4.71,11.16,9.72,11.35,10.48.89,3.57,3.08,8.32,2.7,12-.43,4.08-3.67,8.84-5.29,12.61"/><path class="cls-32" d="M185.6,114.47c-.69,1.67-1,4.26-2.31,5.55-3.18,3.27-8,7.28-12.08,9.25-4.56,2.17-11.79.1-16.84.06-5.43,0-15.62-14-16.11-15.17-1.43-3.39-2.44-8.65-1.4-12.18,0-.11,5.91-12.76,9.64-15.9s10.8-4.53,15.73-4.79c3.45-.18,7.93,1.79,11,3.36,4.31,2.2,10.53,5.85,12.38,10.32,4,9.72,4,9.72,0,19.5"/><path class="cls-33" d="M184.85,109.74c-1.29,3.19-2.23,7.91-4.34,10.64s-5.93,6.94-9.5,7.28c-5,.46-12.25,2.1-16.88.06-7.94-3.49-14.32-13.72-14.36-13.81-1.46-3.38-2.23-8.66-1.25-12.21,0-.07,7.85-13,8.42-13.6,3.53-3.48,10.89-4.12,15.81-4.76,1.92-.25,4.45,1,6.19,1.88.1,0,13,9.45,13.42,10.15,0,.07,4.93,8.37,2.49,14.37"/><path class="cls-34" d="M177.7,120.75c-1.62,2-4.36,4.72-6.9,5.29a46.05,46.05,0,0,1-16.92.07c-3.38-.66-12.55-12.34-12.6-12.45a21.41,21.41,0,0,1-1.1-12.23c1-3.94,4.53-8.4,7.14-11.52.08-.08,14.79-5.21,17.27-4.09,5,2.26,13.63,4.65,15.57,9.82,1.3,3.47,3.71,8.21,3.35,11.9-.42,4.31-3.11,9.82-5.81,13.21"/><path class="cls-35" d="M174.88,121.13c-1,1.24-2.7,3-4.3,3.3-5,.79-12,1.25-16.94.06-.69-.16-10.81-11-10.85-11.07-4.49-10,2.34-18.5,4.91-21.72,3.11-3.88,11.07-5.08,16-4.42s12.76,3.86,14.34,8.63c1.16,3.53,4.08,8.17,3.62,11.86-.56,4.46-3.89,9.92-6.78,13.36"/><path class="cls-36" d="M172,121.52c-.42.47-1,1.25-1.67,1.29-5.11.25-12.9,2.63-17.05-.37-3.14-2.27-7.41-5.74-9-9.27-1.53-3.36-1.68-8.69-.79-12.27.62-2.53,2.3-6.1,4.56-7.39,4.34-2.48,11.11-5.1,16.06-4.43,4.09.57,9.15,3.93,11.78,7.1,2.38,2.88,4.29,8.12,3.89,11.83-.51,4.65-4.67,10-7.77,13.51"/><path class="cls-37" d="M170.09,121c-4.55,2.39-13.13,2.59-17.12-.66-2.39-2-6-4.5-7.17-7.37a22.65,22.65,0,0,1-.63-12.3c.46-1.81,1.6-4.46,3.27-5.3,4.48-2.25,11.14-5.12,16.1-4.43a16.35,16.35,0,0,1,9.23,5.57c2.29,3,4.58,8.06,4.16,11.78-.51,4.45-3.87,10.63-7.84,12.71"/><path class="cls-38" d="M169.76,118.73c-4.54,2.41-13.12,2.64-17.14-.57-1.78-1.43-4.61-3.29-5.31-5.47a24.74,24.74,0,0,1-.48-12.32c.28-1.09.93-2.78,2-3.22C153.43,95.2,160,92,165,92.73a11.18,11.18,0,0,1,6.66,4c2.17,3.08,4.82,8,4.44,11.75-.37,3.58-3.1,8.55-6.29,10.23"/><path class="cls-39" d="M169.42,116.5c-4.53,2.44-13.1,2.68-17.16-.49-1.17-.92-3.11-2.11-3.45-3.55-.86-3.61-1.28-8.77-.33-12.35.1-.38.32-1,.69-1.12,4.78-1.57,11.2-5.13,16.18-4.42a6.5,6.5,0,0,1,4.1,2.48c2,3.21,5.05,7.93,4.71,11.7-.25,2.72-2.34,6.45-4.74,7.75"/><path class="cls-40" d="M169.06,114.26c-4.52,2.46-12.61,2-17.16-.4-2.6-1.39-3-7-1.73-9.65,2.2-4.74,10.4-8.52,15.58-7.79,3,.43,6.52,12.48,6.51,12.59a7.53,7.53,0,0,1-3.2,5.25"/><path class="cls-41" d="M168.69,112c-4,2.17-10.54-.23-15.06-.3,3.9-3.29,8-12.12,13-11,2.72.63,3.91,5.74,3.73,8.52a3.88,3.88,0,0,1-1.67,2.74"/><path class="cls-42" d="M168.31,109.76c-.32.18-.86,0-1.22,0,.32-.27.65-1,1.06-.9.22,0,.31.48.29.71a.29.29,0,0,1-.13.22"/></g></g></g></g></g></g></svg>