<svg xmlns="http://www.w3.org/2000/svg" xmlns:xlink="http://www.w3.org/1999/xlink" viewBox="0 0 291.1 290.13"><defs><style>.cls-1{fill:none;}.cls-2{isolation:isolate;}.cls-3{clip-path:url(#clip-path);}.cls-4{fill:#aed264;}.cls-5{fill:#aed365;}.cls-6{fill:#afd465;}.cls-7{fill:#b0d566;}.cls-8{fill:#b1d566;}.cls-9{fill:#b1d667;}.cls-10{fill:#b2d767;}.cls-11{fill:#b3d867;}.cls-12{fill:#b4d968;}.cls-13{fill:#b4da68;}.cls-14{fill:#b5db69;}.cls-15{fill:#b6dc69;}.cls-16{fill:#b7dd6a;}.cls-17{fill:#b8de6a;}.cls-18{fill:#b8df6b;}.cls-19{fill:#b9e06b;}.cls-20{fill:#bae16b;}.cls-21{fill:#bbe26c;}.cls-22{fill:#bce36d;}.cls-23{fill:#bde46d;}.cls-24{fill:#bee56e;}.cls-25{fill:#bee66e;}.cls-26{fill:#bfe76f;}.cls-27{fill:#c0e86f;}.cls-28{fill:#c8eb81;}.cls-29{fill:#cbec88;}.cls-30{fill:#cded8d;}.cls-31{fill:#cfee92;}.cls-32{fill:#d1ee96;}.cls-33{fill:#d3ef9a;}.cls-34{fill:#d4ef9d;}.cls-35{fill:#d6f0a1;}.cls-36{fill:#d7f0a4;}.cls-37{fill:#d8f1a7;}.cls-38{fill:#d9f1a9;}.cls-39{fill:#dbf2ac;}.cls-40{fill:#dcf2ae;}.cls-41{fill:#ddf2b1;}.cls-42{clip-path:url(#clip-path-2);}.cls-43{fill:#add164;}.cls-44{clip-path:url(#clip-path-3);}.cls-45{clip-path:url(#clip-path-4);}.cls-46{fill:#def3b3;}.cls-47{fill:#dff3b5;}.cls-48{fill:#e0f4b7;}.cls-49{fill:#e1f4ba;}.cls-50{fill:#e2f4bc;}.cls-51{fill:#e2f5be;}.cls-52{fill:#e3f5c0;}.cls-53{clip-path:url(#clip-path-5);}.cls-54{clip-path:url(#clip-path-6);}.cls-55{clip-path:url(#clip-path-7);}</style><clipPath id="clip-path"><path class="cls-1" d="M158.74,289.48c-3.45.33-7.65.55-11.51.59-2.4,0-5.59,0-8-.09-1.22,0-2.85-.14-4.07-.21-2.92-.15-6.81-.6-9.71-1-2.67-.36-6.2-.95-8.83-1.49-3.17-.65-7.36-1.65-10.47-2.52s-7.08-2.14-10.06-3.22a141.73,141.73,0,0,1-20.24-9.1c-3-1.67-6.87-3.95-9.72-5.79s-6.39-4.36-9-6.37-6.18-4.94-8.71-7.19-5.7-5.31-8-7.72A145.08,145.08,0,0,1,26.09,228c-2-2.82-4.44-6.67-6.17-9.63s-3.78-7-5.37-10a109.19,109.19,0,0,1-6.43-15.49c-1.07-3.34-2.51-7.8-3.39-11.2s-2-8.17-2.54-11.74A189.91,189.91,0,0,1,.05,146.43c-.1-9.16.51-14.09,1.63-23,1.24-9.93,5.9-25.83,9.08-32.84,1.38-3,3.1-7.16,4.6-10.15s3.75-7.07,5.52-10A146.33,146.33,0,0,1,34.05,52c2.12-2.53,5.06-5.8,7.38-8.15,2.55-2.59,6.06-5.95,8.82-8.31,2.44-2.1,5.76-4.83,8.36-6.72,3.37-2.46,8-5.5,11.54-7.77,2.58-1.68,6.22-3.61,9-5s6.81-3.25,9.77-4.54,6.78-2.67,9.72-3.7c1.38-.49,3.25-1.06,4.65-1.5.73-.23,1.71-.5,2.44-.72.18,0,4.57-1.33,9.9-2.44,5-1,8.92-1.61,10.39-1.8a150.25,150.25,0,0,1,43.4.56,142.88,142.88,0,0,1,20,4.76,146.06,146.06,0,0,1,57,33.65A186.51,186.51,0,0,1,261.25,56.9a141.92,141.92,0,0,1,12.43,19.18,200.23,200.23,0,0,1,9.27,21,113.62,113.62,0,0,1,3.44,11.32c.89,3.45,1.77,8.12,2.51,11.61a114.06,114.06,0,0,1,1.66,12.77,143.51,143.51,0,0,1,.09,23.33,139.53,139.53,0,0,1-3.58,22.6c-.9,3.25-2,7.61-3.05,10.82a109.51,109.51,0,0,1-3.95,10.69c-1.43,3.13-3.13,7.41-4.8,10.42-3.23,5.8-7.79,13.4-11.52,18.89a146.47,146.47,0,0,1-14.53,17.23A142.22,142.22,0,0,1,232,261.69c-3.41,2.44-8.06,5.54-11.62,7.74-2.49,1.54-5.91,3.41-8.52,4.72-2.85,1.43-6.68,3.27-9.63,4.46-1.45.58-3.37,1.4-4.84,1.93-2.78,1-6.52,2.28-9.34,3.19,52-15.74,83-78.51,70.62-149.34C245,56,183.3-3,120.75,2.86,183.3-3,245,56,258.68,134.39,271,205.22,240,268,188.06,283.73A151,151,0,0,1,158.74,289.48Z"/></clipPath><clipPath id="clip-path-2"><path class="cls-1" d="M103.35,7.23c1.23-.38,5.36-1.59,9.68-2.57,1.76-.4,5.42-1.23,10.74-2.05a147.72,147.72,0,0,1,41.7-.4,151.76,151.76,0,0,1,19.13,4A145,145,0,0,1,241.88,37.5,178.21,178.21,0,0,1,257.2,53.39a141.59,141.59,0,0,1,13,18.5,176.09,176.09,0,0,1,9.92,20.34,122.08,122.08,0,0,1,5.34,16.43A144.81,144.81,0,0,1,289.48,132c1.26,11.1.33,27.38-1,34.55-.63,3.31-1.36,7.74-2.13,11s-2,7.7-3,11a142.17,142.17,0,0,1-8.46,20.77c-3.06,5.83-7.69,13.31-11.29,18.82-1.89,2.88-4.89,6.37-7,9.09a142.7,142.7,0,0,1-15.95,16.33c-3.38,2.85-7.93,6.61-11.57,9.1-4.72,3.23-11.26,7.18-16.26,9.95-.35.2-6.18,3.19-10.69,5-1.46.6-3.4,1.43-4.88,2-2.82,1-6.59,2.32-9.44,3.24A87.28,87.28,0,0,1,171,286.1c.33-.1.25-.15-.18-.11a8.69,8.69,0,0,0-1.38.26c-.33.1-.25.15.17.11a8.83,8.83,0,0,0,1.39-.26,87.28,87.28,0,0,0,16.79-3.32c-3.6,1.09-7.53,2.11-11.08,2.89-5.65,1.23-10,1.84-11.8,2.09-3.17.45-7.29.85-9.43,1-2.38.14-5.55.25-7.93.31-1.28,0-3,0-4.26,0-2.66,0-6.2-.21-8.85-.36-1.34-.07-3.13-.26-4.47-.38-2.58-.22-6-.76-8.56-1.16a181,181,0,0,1-18.48-4.38,90.66,90.66,0,0,1-11.29-4c-3.07-1.36-7.21-3.09-10.23-4.57s-6.81-3.43-9.55-5.19-6.66-4.14-9.42-6.07-6.19-4.54-8.73-6.63a138,138,0,0,1-16-15.37c-2.18-2.59-5.12-6-7.17-8.67s-4.6-6.31-6.42-9.12-4.17-6.77-5.78-9.77-3.52-7.11-5-10.17c-2.92-6.12-4.1-10.08-7.6-21.86A90.88,90.88,0,0,1,3,168.4,205.34,205.34,0,0,1,1,145.18a142.86,142.86,0,0,1,7.1-44.65,140.48,140.48,0,0,1,8.71-20.9c3.11-5.8,7.79-13.24,11.44-18.71,1.92-2.86,5-6.34,7.08-9a105,105,0,0,1,7.34-8c2.54-2.56,6-5.88,8.79-8.2,3.44-2.88,8.13-6.64,11.87-9.15,4.68-3.15,11.19-7,16.14-9.66,0,0,5.85-3,9.78-4.53A147.48,147.48,0,0,1,103.35,7.23Z"/></clipPath><clipPath id="clip-path-3"><path class="cls-1" d="M120.75,2.86l50.12,284.21-.11.05Z"/></clipPath><clipPath id="clip-path-4"><path class="cls-1" d="M169.87,287.24Q145.32,145,120.75,2.86l50,284.26a5.86,5.86,0,0,1-.7.13A.39.39,0,0,1,169.87,287.24Z"/></clipPath><clipPath id="clip-path-5"><path class="cls-1" d="M120.75,2.86l50.12,284.21s-.07,0-.2,0a4.46,4.46,0,0,0-.69.13c-.07,0-.11,0-.11.05Q145.32,145,120.75,2.86Z"/></clipPath><clipPath id="clip-path-6"><path class="cls-1" d="M289.8,153.85c0-.09,0-.18,0-.28Zm-.08,1.19V155c0-.08,0-.16,0-.24Zm-3.37,22.38v0c.85-3.11,1.46-7.32,2-10.59C287.79,170,287.09,174.24,286.35,177.42Zm-3,11,.09-.28.09-.31Zm-3.75,10.37,0-.07a106.49,106.49,0,0,0,3.68-10.17C282.07,192.34,280.78,195.81,279.57,198.79Zm-16,29.24c1.89-2.68,4-5.86,6.13-9.41,1.62-2.72,3.61-6.36,5.09-9.28C271.75,215.14,267.17,222.55,263.58,228ZM256.71,237l.22-.26s1.63-1.9,4-5.07C259.51,233.5,258,235.36,256.71,237Zm-23.92,22.88.64-.49c2.18-1.66,4.91-3.9,7.14-5.84C238.29,255.45,235.49,257.78,232.79,259.86ZM212.88,272.5c1.23-.65,2.44-1.3,3.48-1.89,2.49-1.39,5.78-3.35,8.16-4.93l3.45-2.35C223.4,266.39,217.51,269.93,212.88,272.5Zm-5.76,2.85L208,275c1.21-.56,2.59-1.25,4-2C210.92,273.51,209.13,274.4,207.12,275.35ZM202,277.62l-2.65,1.09Zm-4.37,1.76-.29.11Zm-13,4.31c-2.58.71-5.2,1.37-7.66,1.91C180.06,284.92,182.5,284.28,184.63,283.69Zm3.14-.91c3.56-1.09,6.69-2.19,9.42-3.23C194.38,280.57,190.61,281.86,187.77,282.78Zm0,0-2,.57Zm-13.36,3.36-.75.15Zm-3.7.71h0c.72-.13,1.57-.28,2.32-.43l.63-.12Zm-.88.15c-1.11.19-2.08.34-2.91.47l.43-.06c.69-.1,1.61-.25,2.29-.37l.19,0Zm-4.94.76-.87.12Zm-3.71.47.69-.08Zm-3.3.32.78-.07c.92-.08,1.68-.16,2.37-.24C159.93,288.36,158.85,288.47,157.88,288.55Zm-55-5.78a129.16,129.16,0,0,0,13.31,3.41c.56.12,1.16.24,1.78.35C113,285.53,107.36,284,102.91,282.77ZM81.39,274.2c-1.76-.87-3.87-1.94-5.87-3,2.54,1.43,5.32,2.87,7.65,3.89l.66.29C83,275,82.15,274.57,81.39,274.2ZM62.63,263.08l.06.05c2.49,1.87,6,3.95,8.79,5.66C68.76,267.05,65.25,264.9,62.63,263.08Zm-8.81-6.66.12.1.23.18Zm-.53-.44-.55-.46ZM30.47,232.27c-1-1.32-2.16-2.89-3.27-4.48,1.16,1.71,2.36,3.41,3.49,4.78l.07.07Zm-6.42-9.12c-1.83-2.84-4.12-6.7-5.74-9.69l0,0c1.63,3,3.86,7,5.81,9.79h0ZM13.29,203.21c-.09-.2-.18-.38-.27-.57l.32.69c.08.15.16.32.23.47C13.48,203.6,13.38,203.4,13.29,203.21ZM5.7,181.37l0,.1a108.34,108.34,0,0,0,3.41,11.22h0C8.2,189.79,7.15,186.26,5.7,181.37ZM1,145.18c0-4.25.19-8.17.46-11.54a.49.49,0,0,0,0,.12,90.26,90.26,0,0,0-.44,12.84c0,.1,0,.22,0,.32Q1,146,1,145.18Zm1.79-22.69v.12S2.82,122.52,2.83,122.49Zm1.89-9.66c0-.21.09-.41.14-.62C4.82,112.41,4.77,112.62,4.72,112.83ZM7.05,104c.15-.51.31-1,.47-1.54C7.36,103,7.21,103.5,7.05,104ZM12,90.15A126.36,126.36,0,0,0,7.6,102.21l.54-1.68C9.41,96.66,10.75,93.15,12,90.15ZM7,104.1c-.68,2.26-1.35,4.71-2,7.3L4.9,112C5.48,109.6,6.18,106.93,7,104.1Zm9.82-24.47C20,73.84,24.62,66.43,28.27,61c-1.92,2.66-4,5.8-6.22,9.37s-3.71,6.3-5.3,9.5C16.79,79.75,16.83,79.68,16.85,79.63ZM35.35,51.9l-.37.44c-.86,1-2.16,2.6-3.75,4.65C32.65,55.22,34.14,53.44,35.35,51.9Zm8-8.68-.29.29Zm8.07-7.49.08-.07c2.55-2.13,5.78-4.75,8.8-7C57.44,30.79,54.32,33.24,51.42,35.73ZM96,9.68l.31-.11ZM63.37,26.51c4.68-3.15,11.19-7,16.14-9.66-3.65,1.92-8.41,4.71-11.94,6.86-1.83,1.11-4.32,2.8-7,4.81C61.5,27.8,62.46,27.11,63.37,26.51Zm16.14-9.66s1.73-.87,3.91-1.91C82,15.58,80.68,16.24,79.51,16.85Zm9.68-4.49.1,0c2.66-1.08,4.54-1.84,6.56-2.58C93.58,10.56,91.15,11.5,89.19,12.36Zm20.84-7,.78-.19Zm3.13-.75-.31.07.18,0Zm-9.81,2.61.91-.28c-1.59.47-3.39,1-5.67,1.81l-.28.1C99.72,8.39,101.33,7.87,103.35,7.24ZM128.28,2c-1.42.18-2.89.38-4.4.61C125.35,2.36,126.82,2.16,128.28,2Zm5.48-.56c1.6-.14,3.22-.24,4.84-.32C136.81,1.18,135.18,1.3,133.76,1.42Zm-.06,0c-2,.17-3.67.36-4.67.47H129C130.54,1.71,132.12,1.55,133.7,1.42ZM143.45,1c-1.27,0-2.66.06-4.13.12l-.4,0C140.42,1,141.93,1,143.45,1Zm14.42.43-.67,0Zm-1.72-.13h0Zm9.32,1q1.25.17,2.49.36c-2.52-.43-5.68-.78-8.11-1l-1.51-.14C161.24,1.67,163.57,2,165.47,2.21Zm38.69,11,.43.19Zm-19.56-7c3,.9,5.92,1.78,9.11,2.88l-.8-.28c-3-1.06-7-2.3-10-3.06l-.25-.06C183.87,6,184.58,6.17,184.6,6.18Zm20.45,7.43c1.6.72,3.19,1.48,4.77,2.26C208.13,15,206.55,14.28,205.05,13.61Zm9.89,4.92c1.32.72,2.62,1.47,3.9,2.22C217.51,20,216.18,19.21,214.94,18.53Zm-.1-.06L214,18c-1.35-.72-2.64-1.39-3.89-2C211.71,16.81,213.29,17.63,214.84,18.47Zm9.38,5.58-.25-.16c-1.06-.67-2.25-1.41-3.49-2.16Q222.37,22.87,224.22,24.05Zm.76.5.09.06Zm8.35,5.91c2.12,1.62,4.49,3.51,7,5.67C237.55,33.74,235.16,31.85,233.33,30.46Zm7.15,5.81,1.19,1Zm-7.17-5.82-.37-.29-.45-.33ZM257.2,53.39c-2.16-2.61-5.18-6-7.53-8.42-2.7-2.79-5.31-5.25-7.7-7.38A176.06,176.06,0,0,1,257.2,53.39ZM150.79,1l-1.34,0ZM149.4,1h0Zm20.19,285.41.13,0,0-.16-.27.07C169.09,286.35,169.16,286.4,169.59,286.36Zm-36.45,2.24-3.19-.29-.22,0C130.66,288.39,131.83,288.5,133.14,288.6Zm1.32.1c2.24.15,4.71.27,6.89.32C139.07,289,136.51,288.81,134.46,288.7Zm21,0c-2.24.13-5.17.24-7.49.3,2.33,0,5-.12,8-.33ZM170.8,286l-.23,0,0,.17.37-.09C171.31,286,171.23,286,170.8,286ZM270.14,71.83l0-.06a107,107,0,0,0-6.16-9.54v0C265.85,65,268,68.2,270.14,71.83Zm9.94,20.38a.49.49,0,0,0,0-.11c-1.29-3.16-3-7.41-4.59-10.41l-1.52-2.87C276.21,83.32,278.42,88.16,280.08,92.21Zm7.78,27.62c-.32-1.92-.67-3.77-1.07-5.42-.22-1-.48-2-.74-3.09C286.87,114.84,287.42,117.36,287.86,119.83ZM289.48,132a108,108,0,0,1,.59,11.36,91.45,91.45,0,0,0-.6-11.49q-.12-1.12-.27-2.34C289.29,130.28,289.38,131.08,289.48,132Z"/></clipPath><clipPath id="clip-path-7"><path class="cls-1" d="M188.06,283.73c-3.15.93-5.43,1.6-9.74,2.59-4.72,1.09-8.87,1.77-9.65,1.89a142.78,142.78,0,0,1-20.62,1.85,147.68,147.68,0,0,1-16.93-.61c-2.65-.32-6.19-.66-8.82-1.14a147,147,0,0,1-14.44-3.07c-3-.91-7.1-2-10.09-3.1-3.48-1.23-8.08-3-11.47-4.53a156.86,156.86,0,0,1-19.24-10.36A145.66,145.66,0,0,1,48.85,253.5a147.18,147.18,0,0,1-15.73-16.28A142.67,142.67,0,0,1,20,218.47a177.8,177.8,0,0,1-10-20.55,149.63,149.63,0,0,1-6.76-22.55,164.23,164.23,0,0,1-2.6-17.13c-1.28-11.31-.33-27.66,1-34.84a208.39,208.39,0,0,1,5.13-22,143.8,143.8,0,0,1,8.55-21,184.33,184.33,0,0,1,11.41-19A147.71,147.71,0,0,1,41,44.26a144.66,144.66,0,0,1,33.74-25.9,144.14,144.14,0,0,1,18.41-8.6c2.29-.87,5.76-2.18,10.1-3.48,3.78-1.14,7.51-2.11,11.09-2.89A144.48,144.48,0,0,1,135.78.32c2.39-.17,5.58-.24,8-.3,1.28,0,3,0,4.29,0,2.66,0,6.21.21,8.87.38,2.45.15,5.71.49,8.14.82,2.83.39,6.6.94,9.38,1.57C178.53,3.72,184,5,188,6.21c3.09.9,7.14,2.3,10.12,3.49,3.39,1.35,7.86,3.27,11.14,4.85,3,1.42,6.85,3.51,9.7,5.16,3,1.75,6.92,4.25,9.79,6.23s6.21,4.63,8.85,6.65A139.94,139.94,0,0,1,254,48.13c2.29,2.54,5.21,6,7.3,8.77s4.55,6.42,6.5,9.18c4.06,5.78,11.61,20,15.2,31,2.2,6.72,4.43,15.89,5.93,22.8.76,3.52,1.12,8.33,1.59,11.9a105.87,105.87,0,0,1,.6,11.68c0,3.76-.16,8.77-.41,12.51a144.29,144.29,0,0,1-3.55,22.58c-.92,3.3-1.91,7.77-3.09,11s-2.59,7.39-3.87,10.49-3.19,7.28-4.73,10.32a143.12,143.12,0,0,1-11.67,19.19c-4,5.2-9.68,11.93-14.1,16.8a92.75,92.75,0,0,1-8.21,7.77c-2.78,2.34-6.45,5.51-9.43,7.6-4.67,3.28-11,7.5-16,10.27a147.21,147.21,0,0,1-27.93,11.77,88.17,88.17,0,0,1-17.3,3.39c.17-.06.13-.08-.09-.06a4.46,4.46,0,0,0-.69.13c-.17.05-.13.08.08.06a5.86,5.86,0,0,0,.7-.13A88.17,88.17,0,0,0,188.06,283.73Z"/></clipPath></defs><title>资源 59</title><g id="图层_2" data-name="图层 2"><g id="character"><g class="cls-2"><g class="cls-2"><g class="cls-3"><g class="cls-2"><path class="cls-4" d="M158.74,289.48A151.83,151.83,0,0,0,188,283.75c52-15.76,83-78.53,70.67-149.36C245,56,183.3-3,120.75,2.86,183.3-3,245,56,258.68,134.39,271,205.22,240,268,188.06,283.73c16.15-5.2,25.58-9.75,40.34-19.46,8.92-5.86,21.58-17.35,28.22-25.61,6.21-7.74,15.61-19.43,23.45-38.45a143.8,143.8,0,0,0,10.58-44.11c3.4-42-13.54-74-17-80-6.51-11.39-23.82-41.65-63.86-61.26C183.71,2,155.51-2.51,126,1.32A145.51,145.51,0,0,0,20.88,70.41c-10.48,17.31-14.26,31.42-17,41.71A132.9,132.9,0,0,0,.41,134.75a211.72,211.72,0,0,0,.23,23.36c.13,2.46,1.1,15.68,7.48,34.71,9.81,29.21,31.5,56.81,58,73.84a144.52,144.52,0,0,0,92.6,22.82"/><path class="cls-4" d="M179.78,286c2.26-.56,2.35-.58,3.55-.9l2.29-.63,2.44-.72a88.86,88.86,0,0,0,31.41-17.13h0a103,103,0,0,1-41.65,19.84l1.45-.34.51-.12"/><path class="cls-4" d="M258.68,134.39a178.55,178.55,0,0,1,2.66,34.92l.35,5.19c-.18,14.57-.71,58.91-42.22,92.1a88.86,88.86,0,0,1-31.41,17.13h0a153.33,153.33,0,0,0,24.05-9.7l8.28-4.6c3.52-2.26,8.21-5.3,11.62-7.74l8.35-6.66c2.67-2.47,6.3-5.7,8.86-8.28l7.4-8.09c2.14-2.74,5.09-6.32,7.13-9.14l6.11-9.22c1.67-3,4-6.92,5.56-10l4.65-10.12c1.19-3.21,2.89-7.44,3.95-10.69l3.05-10.82c.68-3.38,1.71-7.86,2.25-11.26l1.33-11.34c.13-3.5.44-8.16.43-11.66l-.52-11.67c-.49-3.83-1-9-1.66-12.77l-2.51-11.61c-1-3.4-2.27-8-3.44-11.32l-4.24-10.73c-1.52-3.12-3.44-7.33-5.09-10.38l-5.79-9.74c-2-2.8-4.5-6.61-6.58-9.32l-7.15-8.61c-2.38-2.45-5.45-5.8-7.92-8.15l-8.32-7.34c-2.73-2.06-6.3-4.9-9.11-6.86L219.49,20c-3.07-1.65-7.1-3.95-10.23-5.47l-9.8-4.33c-3.43-1.22-8-2.93-11.46-4l-9.25-2.48c-4.09-.81-9.56-1.88-13.69-2.5L160.63.72A156,156,0,0,0,132.2.6l-1.75.17L128.78,1l-1.42.17L126,1.32l-1.23.17-1.2.18-1.14.18L121.3,2l-1.1.2-1.11.2L118,2.64l-1.15.23-1.22.25-1.25.27L113,3.7,111.51,4l-1.72.42-1.8.47-2.29.63-2.44.72-4.65,1.5a152.58,152.58,0,0,0-20.12,8.56L70.15,21c-3.5,2.28-8.16,5.32-11.54,7.77l-8.36,6.72C47.59,38,44,41.24,41.43,43.83L34.05,52C31.92,54.73,29,58.32,27,61.15l-2.12,3.06L30.16,57C110.29-34.12,254.06,49.53,261,161.66c.14,2.29.23,5.36.33,7.65a178.55,178.55,0,0,0-2.66-34.92C245,56,183.3-3,120.75,2.86,183.3-3,245,56,258.68,134.39"/><path class="cls-5" d="M6.86,101.28c-3.95,14.27-4,14.54-5.18,22.12L.41,134.75C.3,138.26,0,142.93.05,146.43l.59,11.68c.47,3.57,1,8.36,1.58,11.91l2.51,11.6C6.21,186.5,8.19,193,10,197.78l4.59,10.53c1.63,3.05,3.69,7.18,5.44,10.16l6.1,9.5c2.06,2.72,4.71,6.43,6.88,9.07l7.42,8.34c2.46,2.36,5.64,5.6,8.18,7.87l8.54,7c2.8,2,6.47,4.71,9.34,6.57l9.41,5.59c3.13,1.55,7.25,3.73,10.44,5.16l9.8,3.94c3.52,1.13,8.2,2.71,11.76,3.69l8.77,2.05c4.33.73,10.13,1.64,14.49,2.16l4,.32a163.12,163.12,0,0,0,20.48,0h0C265.34,280.38,290.57,134.8,196,57.23,138,9.7,51.36,7.48,12.37,86.77L8.25,97.15l-1.39,4.13"/><path class="cls-6" d="M1.68,123.4C0,138.34,0,138.63.05,146.43l.59,11.68c.47,3.57,1,8.36,1.58,11.91l2.51,11.6C6.21,186.5,8.19,193,10,197.78l4.59,10.53c1.63,3.05,3.69,7.18,5.44,10.16l6.1,9.5c2.06,2.72,4.71,6.43,6.88,9.07l7.42,8.34c2.46,2.36,5.64,5.6,8.18,7.87l8.54,7c2.8,2,6.47,4.71,9.34,6.57l9.41,5.59c3.13,1.55,7.25,3.73,10.44,5.16l9.8,3.94c3.52,1.13,8.2,2.71,11.76,3.69l8.77,2.05c3.87.65,9,1.52,12.94,2l2.36.23c108.81,8.88,155.59-121.08,75.84-210.69C145.7,9.09,34.13,10.43,5.07,107.35l-2.53,11-.86,5.05"/><path class="cls-7" d="M.05,146.43C.82,161.8.84,162.1,2.22,170l2.51,11.6C6.21,186.5,8.19,193,10,197.78l4.59,10.53c1.63,3.05,3.69,7.18,5.44,10.16l6.1,9.5c2.06,2.72,4.71,6.43,6.88,9.07l7.42,8.34c2.46,2.36,5.64,5.6,8.18,7.87l8.54,7c2.8,2,6.47,4.71,9.34,6.57l9.41,5.59c3.13,1.55,7.25,3.73,10.44,5.16l9.8,3.94c3.52,1.13,8.2,2.71,11.76,3.69l6.21,1.49c102.54,19.62,163.48-88.6,103.5-183.8C156.69,6.3,24.4,14.38,3.11,116c-.73,3.45-1.56,8.09-2,11.59L.17,139.06l-.12,7.37"/><path class="cls-8" d="M2.22,170c3.15,14.55,3.56,16.42,7.74,27.76l4.59,10.53c1.63,3.05,3.69,7.18,5.44,10.16l6.1,9.5c2.06,2.72,4.71,6.43,6.88,9.07l7.42,8.34c2.46,2.36,5.64,5.6,8.18,7.87l8.54,7c2.8,2,6.47,4.71,9.34,6.57l9.41,5.59c3.13,1.55,7.25,3.73,10.44,5.16,1.63.71,3.83,1.62,5.48,2.29,101.52,36.41,176.64-58.49,127.57-161.18C177.53,31.19,43.78,7.94,7.36,104.42,0,123.93.08,140.14.12,149.82L1,161.53,2.22,170"/><path class="cls-9" d="M10,197.78c6.12,14,6.12,14,10,20.69l6.1,9.5c2.06,2.72,4.71,6.43,6.88,9.07l7.42,8.34c2.46,2.36,5.64,5.6,8.18,7.87l8.54,7,7.7,5.49,3.12,2c95.73,57.5,178.86-19.11,158.75-110.66C202.24,45.87,65.43,4.51,14.52,93,.65,117.13-3.07,145.16,3.46,176.32l3,11.39L10,197.78"/><path class="cls-10" d="M21.54,221c62.66,98.1,181.28,76.61,199.87-11.89C243,106.26,121.06,11.56,40.16,68.41-4,99.47-12.39,167.94,21.54,221"/><path class="cls-11" d="M22.05,221.59c60.67,94.14,175.58,73.69,193.62-11.13C236.81,111.08,122.85,18.05,43.93,70.27-7.77,104.48-7.68,175.45,22.05,221.59"/><path class="cls-12" d="M16.3,210.41c46,88.82,159.85,96.6,190.31,13,32-88-63.18-188.87-147.68-156.47C7,86.88-13,153.91,16.3,210.41"/><path class="cls-13" d="M17.3,210.84c48.63,93.4,159.17,87.78,184.09,11.94,31.17-94.87-69.33-181.07-144.5-150.36C7,92.8-11.15,156.19,17.3,210.84"/><path class="cls-14" d="M18.53,211.21c45.35,86.46,158.16,88.28,180.18,2.92C222.39,122.28,115.33,34.37,41.78,85.28-.78,114.73-2,172.14,18.53,211.21"/><path class="cls-15" d="M20,211.54c47.17,89.12,152.25,78.83,172.89,3.78,22.54-82-66.12-165.71-139.52-131.77C4.8,106-3.1,167.87,20,211.54"/><path class="cls-16" d="M21.73,211.82c44.88,83.9,145.38,74.93,165.29,4.68,22.91-80.84-63-161.7-135.12-127.23C10.57,109-3.24,165.13,21.73,211.82"/><path class="cls-17" d="M23.7,212.05c39.72,73.31,133.72,76.69,157.15,5.65,25-75.79-62.66-158.25-130.28-122.55C7.25,118,2.89,173.64,23.7,212.05"/><path class="cls-18" d="M25.9,212.22c37,67.36,125.93,71.35,148.63,6.68,28.49-81.17-63.7-151-125.12-117.67-35.3,19.14-46.06,70-23.51,111"/><path class="cls-19" d="M28.43,212.35c39.09,69.35,127.49,66.49,143.32-4.63C190.33,124.25,98.69,76.49,48.42,107.53c-36.23,22.37-38.58,71.83-20,104.82"/><path class="cls-20" d="M31.31,212.43c33.58,58.38,112.8,66.75,134.23-3.57,22.55-74-63.67-128.85-117.94-94.68-29,18.24-36.43,63.23-16.29,98.25"/><path class="cls-21" d="M34.47,212.45c34,58.16,113.72,58.86,128.16-15.42C176.82,124.07,90,89.32,47,121.2c-26.19,19.41-31.57,58.64-12.5,91.25"/><path class="cls-21" d="M38.22,212.4c26.33,42.12,96.66,61.67,119.31-14.46,18.21-61.22-48.78-96.21-95.41-78.11-34.44,13.37-45.83,57.49-23.9,92.57"/><path class="cls-22" d="M42.56,212.26c19.22,29.76,49.29,35.07,64.81,31.38,39.12-9.3,49.46-58.07,49.55-58.55,9.94-56-64.11-79.09-101.62-54.45-29.84,19.61-28.84,56.69-12.74,81.62"/><path class="cls-23" d="M46.3,210.33c6.59,11.28,30.38,33.86,58.14,27.48,33.5-7.7,49-51.69,49.09-52.13.92-3.44,8.1-34.19-22.78-51.67-32-18.1-60.64-4.66-68.66-.11-21.88,12.4-36.15,41.61-15.79,76.43"/><path class="cls-24" d="M54.13,211.63c20.19,25.69,47,19.65,47.27,19.56l14.86-6,14.63-11.49c15.84-18.24,21.76-25.06,21.62-41.33C152.14,131,92,112.56,59.26,143.75c-32.49,31-8,64.19-5.13,67.88"/><path class="cls-25" d="M54,199c.13.29,13.44,28.53,44.24,24.49,4.94-.65,11.71-2.46,15.68-5.46,4.87-3.68,11.41-4.24,15.94-8.54.14-.13,14.44-15.46,16.9-22.66,4.35-12.75,6.12-30.51-10.18-42.7-12.64-9.46-28.37-21.22-57.36-7.82-18,8.29-38.38,34-25.22,62.69"/><path class="cls-26" d="M63,198.26c15.83,23.79,44,16.89,49.49,15.26,5.26-1.55,12.72-4.1,16.32-8.24C143.86,188,147,184.41,147.61,173.2c1.31-23.6-20.27-33.39-31.86-38.66-7.86-3.57-28.29-.65-37.64,7.1-4.78,4-12.3,9.38-13.9,15.39C62.83,162.2,58.12,166,58,171.64c-.44,15.09-.53,18.24,5,26.62"/><path class="cls-27" d="M70.8,193.37c4.27,8.47,16.83,13.75,19.3,14.72,5.16,2,21,1.19,21.13,1.17L128,201.88c11.63-10.28,13.44-15.84,15.05-20.75,2.55-7.81,3.08-9.44,0-21.16-1.18-4.48-5.13-9.92-8.88-12.64-5.06-3.67-11.89-9.47-18.08-10.37-16.94-2.45-18.31-1.77-29,3.55-13.69,6.81-18.61,16-18.64,16.06-1.28,4.16-2.89,9.94-2.61,14.29.3,4.59-.61,9.22.4,13.79.63,2.89,3.24,6.09,4.57,8.72"/><path class="cls-28" d="M78.93,196.61c15.74,14.69,37.91,6.85,48.57,3.07,3.28-1.16,14.6-16.17,15.21-25.64,1.53-23.71-19.48-32.42-26.38-35.28l-18.85-.07c-1,.27-17.12,9.37-17.22,9.44-17.47,13.59-12.37,38.18-1.33,48.48"/><path class="cls-29" d="M85.29,195.87c6,4.75,24,7.06,24.17,7.06,5.51.21,12.4-3.47,17.53-5.46,3.27-1.27,12.7-15.65,13.63-23.08,1.68-13.49-8.65-28-24-33.83-5.31-2-13.48-1.63-18.89.06-5.83,1.83-12.35,7.24-17,11.16-.25.21-21.63,23.24,4.61,44.09"/><path class="cls-30" d="M78.24,183.34c7.38,12.92,28.8,17.58,30.62,17.32,5.48-.78,13.45-1.8,17.63-5.43,8.15-7.08,12.23-20.41,12.25-20.53A28,28,0,0,0,137,161a36.4,36.4,0,0,0-9.6-12.56c-2.86-2.26-7-5.35-10.52-6.08-5.57-1.13-13.56-1.74-18.94.07-5.91,2-13.82,7-16.52,12.62-6.42,13.36-8.82,18.36-3.15,28.29"/><path class="cls-31" d="M81.88,182.91c3.61,6.12,20,16.38,26.38,15.46,5.51-.79,13.43-1.87,17.73-5.39,4.53-3.7,10.85-17.86,10.87-18a26,26,0,0,0-1.59-13.73c-2-4.4-6.38-9.47-10.16-12.47-2.17-1.73-5.26-4.17-8-4.64-5.61-.95-13.58-1.74-19,.07-4.88,1.65-11.63,5.68-13.62,10.42-8,19.11-8,19.11-2.63,28.25"/><path class="cls-32" d="M85.56,182.47c2,3.28,17.35,14.28,22.12,13.59,5.52-.8,13.37-2,17.82-5.35.76-.58,9.46-15.29,9.48-15.39a24.34,24.34,0,0,0-1.42-13.76c-2.06-4.46-6.86-9.33-10.7-12.4-1.49-1.18-3.59-2.93-5.48-3.17-5.66-.72-13.62-1.76-19,.07-3.84,1.29-8.33,4.93-10.71,8.2-.09.12-5.79,14.1-6,14.8-1.39,4,1.77,9.83,4,13.41"/><path class="cls-33" d="M88,182.16c.1.13,17.34,11.82,19.06,11.57l18-5.08c3.77-2.62,7-8.55,8.05-13,.95-4,.55-10-1.25-13.79-2.16-4.52-7.35-9.18-11.26-12.32-.79-.64-1.92-1.64-2.94-1.72-5.71-.42-13.65-1.76-19.07.08-8.83,3-12.14,13.74-14.33,20.86-1.23,4,1.27,10.07,3.78,13.42"/><path class="cls-34" d="M90.43,181.85c3.5,4.46,10.55,9,16.17,9.76s14.53-.6,18-5c2.35-2.94,5.76-7,6.59-10.69.92-4.06.63-10-1.07-13.82,0-.09-11.37-12.15-12.22-12.49-5.33-2.11-13.43-.74-19.1.08-5.88.85-12.48,18.6-12.49,18.77a21.77,21.77,0,0,0,4.08,13.39"/><path class="cls-35" d="M92.83,181.54c2.92,3.63,8.67,7.42,13.29,8,5.58.74,14.52-.64,18.1-5,1.86-2.28,4.59-5.47,5.14-8.36.78-4.09.79-10-.89-13.84-1.77-4-6.07-8.94-10.17-10.45-5.41-2-13.51-1.24-19.21-.41-2.69.39-10.63,16.52-10.64,16.67-.42,4.2,1.73,10.07,4.38,13.34"/><path class="cls-36" d="M95.24,181.23c2.33,2.81,6.79,5.81,10.41,6.3,5.6.75,14.49-.69,18.15-5,1.37-1.61,3.38-3.91,3.69-6,.61-4.12.94-10.05-.72-13.87-1.39-3.19-4.78-7.22-8.08-8.31-5.51-1.82-14.18-3.45-19.31-.75-4.46,2.36-8.3,9.31-8.82,14.33-.44,4.21,2,10,4.68,13.3"/><path class="cls-37" d="M97.67,180.9c1.7,2,4.91,4.19,7.52,4.56,5.6.79,14.45-.75,18.19-5,.85-1,2.12-2.37,2.24-3.65.4-4.15,1.09-10-.55-13.89-1-2.37-3.5-5.49-6-6.16-5.6-1.51-14.21-3.38-19.32-.65-3.59,1.91-6.71,7.49-7.08,11.53-.39,4.23,2.25,10,5,13.25"/><path class="cls-38" d="M100.11,180.57a8.74,8.74,0,0,0,4.62,2.81c5.62.8,14.39-.83,18.24-5,2.33-2.52.45-15.09.41-15.19-.65-1.55-2.25-3.69-3.9-4-5.69-1.12-14.23-3.3-19.34-.55-2.7,1.46-5.07,5.67-5.33,8.73-.37,4.25,2.51,10,5.3,13.2"/><path class="cls-39" d="M102.56,180.24a3.39,3.39,0,0,0,1.73,1c5.83.83,15.09-3.43,17.56-8.77,1.4-3,1-9.34-1.95-10.9-5.13-2.73-14.25-3.22-19.35-.45a8.41,8.41,0,0,0-3.61,5.91c-.31,4.28,2.78,9.93,5.62,13.16"/><path class="cls-40" d="M103.29,176.42c5.61,1.31,10.26-8.66,14.65-12.38-5.09-.09-12.5-2.79-17-.34a4.35,4.35,0,0,0-1.87,3.08c-.21,3.15,1.13,8.92,4.2,9.64"/><path class="cls-41" d="M101.58,167.28c.46.11.84-.71,1.19-1-.41,0-1-.24-1.37,0a.33.33,0,0,0-.15.25c0,.26.08.74.33.8"/></g></g></g><g class="cls-2"><g class="cls-42"><g class="cls-2"><path class="cls-43" d="M103.35,7.23c-18.74,5.86-29.61,12.46-40,19.28C54.52,32.32,42,43.7,35.37,51.88,27.1,62.14,5.13,89.4,1.5,133.63c-3.44,41.78,13.36,73.76,16.77,79.75,5.79,10.19,23.42,41.2,63.12,60.82,23.06,11.38,60.21,22.12,106.33,8.59A86.77,86.77,0,0,1,171,286.1a8.83,8.83,0,0,1-1.39.26c-.42,0-.5,0-.17-.11a8.69,8.69,0,0,1,1.38-.26c.43,0,.51,0,.18.11a87.28,87.28,0,0,0,16.79-3.32C206,276.9,214.84,272,229,262.6c7.4-4.9,20.22-16.29,27.52-25.43a146.55,146.55,0,0,0,23-38.26c7.68-19,9.08-32.75,10.2-43.8a133.47,133.47,0,0,0-.24-23.14,190,190,0,0,0-4.05-23.31,118.86,118.86,0,0,0-5.34-16.43c-2.6-6.27-6.65-14.39-9.92-20.34-3-5.55-20-34.22-55.53-53.53C166.27-7.95,120.7,1.81,103.35,7.23"/><path class="cls-4" d="M275,209c6-13.24,6.09-13.49,8.38-20.69l3-10.75c.65-3.35,1.64-7.8,2.15-11.18l1.25-11.25c.11-3.47.38-8.1.35-11.57L289.48,132c-.46-3.54-1-8.28-1.56-11.8l-2.49-11.51c-1.5-5-3.54-11.57-5.34-16.43l-4.58-10.42c-1.62-3-3.67-7.1-5.41-10L264,62.37c-2.05-2.7-4.69-6.37-6.84-9l-7.37-8.25c-2.44-2.34-5.6-5.55-8.12-7.79l-8.47-7c-2.78-2-6.42-4.66-9.27-6.5l-9.33-5.53c-3.1-1.53-7.19-3.68-10.35-5.1l-9.72-3.9c-3.49-1.11-8.13-2.68-11.66-3.64l-8.69-2c-4.3-.73-10-1.63-14.37-2.13l-4-.33a153.57,153.57,0,0,0-23.36.3l-1.75.17L129,1.89l-1.43.17-1.38.19L125,2.42l-1.21.19-1.16.18L121.48,3l-1.12.19-1.13.2-1.14.22-1.16.23-1.23.25-1.27.27-1.16.27C4,31.06-2.09,183.93,103.48,248.74c71,43.58,133.7,18.43,162-23.38l5.78-9.33L275,209"/><path class="cls-5" d="M283.36,188.29c3.9-14.14,4-14.41,5.11-21.93l1.25-11.25c.11-3.47.38-8.1.35-11.57L289.48,132c-.46-3.54-1-8.28-1.56-11.8l-2.49-11.51c-1.5-5-3.54-11.57-5.34-16.43l-4.58-10.42c-1.62-3-3.67-7.1-5.41-10L264,62.37c-2.05-2.7-4.69-6.37-6.84-9l-7.37-8.25c-2.44-2.34-5.6-5.55-8.12-7.79l-8.47-7c-2.78-2-6.42-4.66-9.27-6.5l-9.33-5.53c-3.1-1.53-7.19-3.68-10.35-5.1l-9.72-3.9c-3.49-1.11-8.13-2.68-11.66-3.64l-8.69-2c-4.3-.73-10-1.63-14.37-2.13l-4-.33a162.39,162.39,0,0,0-20.28.05h-.05C27.05,10.53,1.86,155,95.26,232.06c57.89,47.74,145.06,47.43,182.56-29.13l4.08-10.28,1.46-4.36"/><path class="cls-6" d="M288.47,166.36c1.64-14.8,1.68-15.09,1.6-22.82L289.48,132c-.46-3.54-1-8.28-1.56-11.8l-2.49-11.51c-1.5-5-3.54-11.57-5.34-16.43l-4.58-10.42c-1.62-3-3.67-7.1-5.41-10L264,62.37c-2.05-2.7-4.69-6.37-6.84-9l-7.37-8.25c-2.44-2.34-5.6-5.55-8.12-7.79l-8.47-7c-2.78-2-6.42-4.66-9.27-6.5l-9.33-5.53c-3.1-1.53-7.19-3.68-10.35-5.1l-9.72-3.9c-3.49-1.11-8.13-2.68-11.66-3.64l-8.69-2c-3.83-.65-8.95-1.5-12.81-2l-1.8-.18c-108.17-9.06-155,119.91-76,209.08,60.75,68.51,173.57,67.09,201.42-28.14l2.51-10.9.89-5.22"/><path class="cls-7" d="M290.07,143.54c-.77-15.23-.79-15.53-2.15-23.37l-2.49-11.51c-1.5-5-3.54-11.57-5.34-16.43l-4.58-10.42c-1.62-3-3.67-7.1-5.41-10L264,62.37c-2.05-2.7-4.69-6.37-6.84-9l-7.37-8.25c-2.44-2.34-5.6-5.55-8.12-7.79l-8.47-7c-2.78-2-6.42-4.66-9.27-6.5l-9.33-5.53c-3.1-1.53-7.19-3.68-10.35-5.1l-9.72-3.9c-3.49-1.11-8.13-2.68-11.66-3.64l-6.07-1.46C75-15.43,14.45,92,74,186.72c59.08,94,192.5,85.81,213.08-13.05.7-3.39,1.52-7.95,2-11.39L290,151l.12-7.42"/><path class="cls-8" d="M287.92,120.17c-3.07-14.18-3.54-16.35-7.83-27.94l-4.58-10.42c-1.62-3-3.67-7.1-5.41-10L264,62.37c-2.05-2.7-4.69-6.37-6.84-9l-7.37-8.25c-2.44-2.34-5.6-5.55-8.12-7.79l-8.47-7c-2.78-2-6.42-4.66-9.27-6.5l-9.33-5.53c-3.1-1.53-7.19-3.68-10.35-5.1-1.5-.65-3.5-1.48-5-2.1-101-36.53-175.84,57.62-127,159.91,41.6,87.19,174.5,110.27,210.63,14.11,7.25-19.31,7.17-35.36,7.12-45l-.86-11.6-1.22-8.46"/><path class="cls-9" d="M280.09,92.23c-6.1-13.88-6.1-13.88-10-20.46L264,62.37c-2.05-2.7-4.69-6.37-6.84-9l-7.37-8.25c-2.44-2.34-5.6-5.55-8.12-7.79l-8.47-7L225.71,25l-2.83-1.83C130.3-32.53,45.29,43.29,65,133,88.07,237.9,217.3,282,271.38,203.45c11.91-17.31,24.24-46.89,15.3-89.54l-3-11.29-3.63-10.39"/><path class="cls-10" d="M268.79,69.59C206.46-28.16,88.62-6.74,70.21,81.43,48.86,183.67,170,277.72,250.2,221.21c43.86-30.9,52.2-98.91,18.59-151.62"/><path class="cls-11" d="M268.28,69C207.94-24.77,93.78-4.39,75.91,80.13,55,179.14,168.49,271.3,247,219c50.92-33.92,50.71-104.26,21.3-150"/><path class="cls-12" d="M274,80.13C228.19-8.37,115.09-16.06,84.88,67.27c-31.69,87.39,62.91,187.59,146.7,155.38C283.17,202.81,303,136.22,274,80.13"/><path class="cls-13" d="M273,79.7c-47.22-90.84-158.75-85.58-182.87-12-30.89,94.33,68.91,180,143.5,149.46C283.15,196.93,301.18,134,273,79.7"/><path class="cls-14" d="M271.75,79.33c-45.1-86.15-157.19-87.93-179-2.85-23.43,91.38,82.91,178.67,155.87,128,42.21-29.35,43.42-86.36,23.13-125.1"/><path class="cls-15" d="M270.29,79C226.66-3.58,120.7-5.86,98.51,75.3c-22.27,81.46,65.8,164.61,138.58,130.84,48.22-22.36,56.09-83.8,33.2-127.14"/><path class="cls-16" d="M268.58,78.73C224-4.86,124.1,4.12,104.35,74.13c-22.09,78.29,64.47,159.75,134.22,126.32,41-19.65,54.75-75.39,30-121.72"/><path class="cls-17" d="M266.63,78.5C227.11,5.44,133.71,2.11,110.47,72.94,85.75,148.26,172.84,230.12,239.89,194.6c43-22.77,47.35-78,26.74-116.1"/><path class="cls-18" d="M264.44,78.33c-36.82-67.11-125.16-71-147.69-6.58-28.2,80.68,63.37,150,124.3,116.8,35-19.05,45.72-69.52,23.39-110.22"/><path class="cls-19" d="M261.92,78.2C223.06,9.11,135.23,12,119.53,82.83,101.62,163.64,193.45,212.4,242,182.29,278,160,280.33,110.93,261.92,78.2"/><path class="cls-20" d="M259.07,78.12C226.18,20.83,146.36,13.57,125.69,81.7c-22.32,73.59,63.32,128,117.16,94,28.73-18.14,36.15-62.81,16.22-97.55"/><path class="cls-21" d="M255.94,78.11c-33.83-57.95-113-58.67-127.35,15.31-2.15,11.13-6.41,49.23,29.19,72.56,25.79,16.9,65,18.14,85.69,2.72C273,146.63,272,105.55,255.94,78.11"/><path class="cls-21" d="M252.21,78.15c-26.18-42-96.07-61.47-118.56,14.37-18,60.76,48.51,95.5,94.78,77.53,34.17-13.26,45.5-57.07,23.78-91.9"/><path class="cls-22" d="M247.9,78.29c-21.32-33.11-53.73-33.77-64.41-31.23-38.89,9.23-49.13,57.71-49.22,58.2-9.84,55.73,63.84,78.5,101.14,53.9,28.38-18.71,28.63-55.81,12.49-80.87"/><path class="cls-23" d="M244.13,80.09c-8.75-15-33.68-32.81-57.74-27.26-33.31,7.69-48.64,51.4-48.76,51.84-.91,3.42-8,33.92,22.55,51.22,31.92,18.05,60.33,4.69,68.28.17,21.69-12.34,35.84-41.38,15.67-76"/><path class="cls-24" d="M236.42,78.92c-22.18-28.32-49.94-18.29-50.21-18.18-19.32,7.7-47.8,31.18-47.55,57.15.38,41.13,60.17,59.38,92.7,28.29,32.11-30.67,7.92-63.61,5.06-67.26"/><path class="cls-25" d="M236.54,91.4c-.13-.28-13.34-28.38-44-24.36-4.91.64-11.64,2.42-15.58,5.41-4.84,3.65-11.33,4.22-15.83,8.5-.13.13-14.32,15.25-16.81,22.55-13.87,40.66,30.91,66.88,67.11,50.13,17.81-8.24,38.09-33.71,25.07-62.23"/><path class="cls-26" d="M227.59,92.17C211.9,68.51,183.87,75.36,178.41,77c-5.22,1.54-12.64,4-16.22,8.15-14.94,17.17-18.06,20.74-18.67,31.91-1.3,23.51,20.95,33.55,31.65,38.38,5.12,2.31,13.17,2.22,18.7,1.16.11,0,17.13-6.89,18.83-8.31,4.71-3.94,12.09-9.3,13.67-15.23,1.36-5.13,6-8.85,6.2-14.49.44-15,.54-18.06-5-26.38"/><path class="cls-27" d="M219.8,97c-4.32-8.59-17.48-14-19-14.54-5.5-2.15-21.06-1.24-21.18-1.22L163,88.55c-11.58,10.24-13.37,15.73-14.94,20.58-2.41,7.4-3.06,9.39,0,21a25.73,25.73,0,0,0,8.81,12.52c5,3.64,11.82,9.44,18,10.32l18.76,1c3.34-.42,7.24-3.06,10.25-4.56,13.21-6.61,18.29-15.82,18.32-15.9,1.25-4.13,2.85-9.85,2.57-14.16-.29-4.55.62-9.14-.38-13.67-.64-2.88-3.24-6.08-4.56-8.71"/><path class="cls-28" d="M211.8,93.8c-7.51-7-9.74-7.17-31-8.53-5.43-.34-12.17,3.64-17.3,5.45-3.27,1.16-14.52,16.07-15.13,25.49-1.5,23.52,19.35,32.16,26.21,35l18.73.09c1.27-.33,17-9.32,17.09-9.4,17.31-13.5,12.3-37.89,1.39-48.1"/><path class="cls-29" d="M205.51,94.53c-5.67-4.51-23.93-7-24.09-7-5.47-.22-12.31,3.44-17.41,5.42-3.26,1.26-12.63,15.55-13.55,22.94-1.66,13.38,8.61,27.81,23.87,33.56,5.27,2,13.39,1.62,18.77-.06,5.78-1.81,12.26-7.18,16.9-11.08.24-.21,21.91-22.7-4.49-43.75"/><path class="cls-30" d="M212.43,107C205.11,94.12,183.82,89.49,182,89.74c-5.44.78-13.36,1.78-17.51,5.39-8.12,7.06-12.16,20.3-12.18,20.42a27.65,27.65,0,0,0,1.77,13.58,35.9,35.9,0,0,0,9.51,12.44c2.85,2.25,6.92,5.33,10.48,6.05,5.52,1.14,13.46,1.74,18.81-.05,5.88-2,13.73-7,16.42-12.57,7.24-15,8.75-18.18,3.12-28"/><path class="cls-31" d="M208.83,107.38C205.24,101.31,189,91.1,182.6,92c-5.46.79-13.33,1.86-17.61,5.35-4.5,3.69-10.78,17.77-10.81,17.88a25.75,25.75,0,0,0,1.6,13.61c1.95,4.36,6.31,9.39,10.06,12.36,2.16,1.72,5.25,4.15,8,4.62,5.58.95,13.5,1.75,18.86-.06,4.85-1.64,11.57-5.66,13.56-10.39,8-18.91,8-18.91,2.6-28"/><path class="cls-32" d="M205.18,107.83c-2-3.27-17.26-14.21-22-13.53-5.49.79-13.28,2-17.7,5.31-.76.58-9.41,15.22-9.44,15.32a24.19,24.19,0,0,0,1.42,13.64c2.06,4.42,6.81,9.24,10.62,12.28,1.48,1.18,3.58,2.93,5.46,3.18,5.63.72,13.53,1.75,18.9-.06,6.36-2.15,23.51-18.42,12.74-36.14"/><path class="cls-33" d="M202.71,108.13c-.09-.12-17.24-11.77-19-11.52l-17.83,5c-3.76,2.61-7,8.52-8,13-.94,4-.53,10,1.25,13.66,2.15,4.48,7.3,9.1,11.17,12.21.8.64,1.93,1.64,3,1.72,5.67.43,13.56,1.77,18.94-.05,8.76-3,11.93-13.23,14.24-20.73,1.23-4-1.25-10-3.74-13.31"/><path class="cls-34" d="M200.35,108.43c-3.49-4.43-10.5-9-16.09-9.71s-14.44.59-17.92,4.94c-2.35,2.94-5.75,7-6.58,10.67-.91,4-.61,9.93,1.08,13.69,0,.09,11.31,12.06,12.15,12.39,5.29,2.1,13.34.77,19,0,5.84-.85,12.4-18.49,12.41-18.66a21.66,21.66,0,0,0-4-13.27"/><path class="cls-35" d="M198,108.74c-2.91-3.62-8.64-7.39-13.24-8-5.54-.74-14.42.63-18,5-1.87,2.27-4.59,5.46-5.15,8.35-.77,4-.76,10,.91,13.72,1.77,4,6,8.87,10.11,10.38,5.37,2,13.42,1.24,19.09.42,2.67-.39,10.56-16.43,10.58-16.59.41-4.15-1.71-10-4.33-13.22"/><path class="cls-36" d="M195.59,109.06c-2.32-2.82-6.78-5.81-10.4-6.3-5.55-.75-14.39.68-18,4.95-1.37,1.62-3.39,3.93-3.7,6-.62,4.08-.91,10,.74,13.74,1.38,3.17,4.76,7.17,8,8.25,5.47,1.82,14.08,3.46,19.18.78,4.44-2.34,8.25-9.27,8.77-14.27.44-4.17-1.95-9.95-4.61-13.18"/><path class="cls-37" d="M193.19,109.38c-1.71-2-4.92-4.21-7.54-4.57-5.57-.79-14.35.73-18.07,5-.86,1-2.14,2.39-2.26,3.69-.4,4.11-1,10,.57,13.76,1,2.36,3.49,5.46,6,6.13,5.56,1.5,14.11,3.37,19.2.67,3.56-1.91,6.66-7.47,7-11.5.39-4.19-2.2-9.92-4.91-13.13"/><path class="cls-38" d="M190.77,109.7a8.88,8.88,0,0,0-4.67-2.84c-5.58-.79-14.29.82-18.12,5-2,2.2-.45,15-.41,15.12.65,1.54,2.25,3.67,3.89,4,5.66,1.11,14.13,3.29,19.21.56,2.69-1.45,5.05-5.66,5.31-8.71.37-4.21-2.45-9.88-5.21-13.09"/><path class="cls-39" d="M188.35,110a3.46,3.46,0,0,0-1.81-1.1c-4.75-.68-16,5.22-17.48,8.5-1.41,3.07-1,9.47,2,11.09,5.07,2.76,14.15,3.21,19.22.46a8.39,8.39,0,0,0,3.59-5.91c.32-4.23-2.71-9.85-5.51-13"/><path class="cls-40" d="M187.49,113.59c-5.63-1.31-10.26,8.77-14.66,12.54,5.11.09,12.54,2.79,17,.34a4.34,4.34,0,0,0,1.88-3.1c.22-3.19-1.12-9.06-4.24-9.78"/><path class="cls-41" d="M189.22,122.78c-.5-.12-.91.79-1.31,1.13.46,0,1.12.26,1.51,0a.4.4,0,0,0,.17-.28c0-.29-.09-.82-.37-.89"/></g></g></g><g class="cls-2"><g class="cls-44"><g class="cls-2"><path class="cls-4" d="M120.75,2.86l50.12,284.21-.11.05-50-284.26"/></g></g></g><g class="cls-2"><g class="cls-45"><g class="cls-2"><polyline class="cls-4" points="120.75 2.86 170.76 287.12 170.75 287.12 120.75 2.86"/><path class="cls-5" d="M120.75,2.86l50,284.26h0l-50-284.27"/><path class="cls-6" d="M120.75,2.86l50,284.27h0L120.75,2.86"/><path class="cls-7" d="M120.75,2.86,170.7,287.13h0L120.75,2.86"/><path class="cls-8" d="M120.75,2.86l49.93,284.28h0L120.75,2.86"/><path class="cls-9" d="M120.75,2.86l49.91,284.28h0L120.75,2.86"/><path class="cls-10" d="M120.75,2.86l49.89,284.29h0L120.75,2.86"/><path class="cls-11" d="M120.75,2.86l49.87,284.29h0L120.75,2.86"/><path class="cls-12" d="M120.75,2.86l49.85,284.3h0L120.75,2.86"/><path class="cls-13" d="M120.75,2.86l49.83,284.3h0L120.75,2.86"/><path class="cls-14" d="M120.75,2.86l49.81,284.31h0L120.75,2.86"/><path class="cls-15" d="M120.75,2.86l49.79,284.31h0L120.75,2.86"/><path class="cls-16" d="M120.75,2.86l49.77,284.31h0L120.75,2.86"/><path class="cls-17" d="M120.75,2.86,170.5,287.18h0L120.75,2.86"/><path class="cls-18" d="M120.75,2.86l49.73,284.32h0L120.75,2.86"/><path class="cls-19" d="M120.75,2.86l49.71,284.33h0L120.75,2.86"/><path class="cls-20" d="M120.75,2.86l49.69,284.33h0L120.75,2.86"/><path class="cls-21" d="M120.75,2.86l49.68,284.33h0L120.75,2.86"/><path class="cls-21" d="M120.75,2.86,170.41,287.2h0L120.75,2.86h0"/><polyline class="cls-22" points="120.75 2.86 170.4 287.2 170.39 287.2 120.75 2.86"/><polyline class="cls-23" points="120.75 2.86 170.39 287.2 170.38 287.2 120.75 2.86"/><polyline class="cls-24" points="120.75 2.86 170.38 287.2 170.37 287.2 120.75 2.86"/><polyline class="cls-25" points="120.75 2.86 170.37 287.2 170.37 287.2 120.75 2.86"/><polyline class="cls-26" points="120.75 2.86 170.37 287.2 170.36 287.2 120.75 2.86"/><polyline class="cls-27" points="120.75 2.86 170.36 287.2 170.35 287.21 120.75 2.86"/><polyline class="cls-28" points="120.75 2.86 170.35 287.21 170.35 287.21 120.75 2.86"/><polyline class="cls-29" points="120.75 2.86 170.35 287.21 170.34 287.21 120.75 2.86"/><polyline class="cls-30" points="120.75 2.86 170.34 287.21 170.34 287.21 120.75 2.86"/><polyline class="cls-31" points="120.75 2.86 170.34 287.21 170.34 287.21 120.75 2.86"/><polyline class="cls-32" points="120.75 2.86 170.34 287.21 170.33 287.21 120.75 2.86"/><polyline class="cls-33" points="120.75 2.86 170.33 287.21 170.33 287.21 120.75 2.86"/><polyline class="cls-34" points="120.75 2.86 170.33 287.21 170.32 287.21 120.75 2.86"/><polyline class="cls-35" points="120.75 2.86 170.32 287.21 170.32 287.21 120.75 2.86"/><polyline class="cls-36" points="120.75 2.86 170.32 287.21 170.31 287.21 120.75 2.86"/><polyline class="cls-37" points="120.75 2.86 170.31 287.21 170.31 287.21 120.75 2.86 120.75 2.86"/><polyline class="cls-38" points="120.75 2.86 170.31 287.21 170.31 287.21 120.75 2.86"/><polyline class="cls-39" points="120.75 2.86 170.31 287.21 170.3 287.21 120.75 2.86"/><polyline class="cls-40" points="120.75 2.86 170.3 287.21 170.3 287.21 120.75 2.86"/><polyline class="cls-41" points="120.75 2.86 170.3 287.21 170.29 287.22 120.75 2.86"/><polyline class="cls-46" points="120.75 2.86 170.29 287.22 170.29 287.22 120.75 2.86"/><polyline class="cls-47" points="120.75 2.86 170.29 287.22 170.29 287.22 120.75 2.86"/><polyline class="cls-48" points="120.75 2.86 170.29 287.22 170.28 287.22 120.75 2.86"/><polyline class="cls-49" points="120.75 2.86 170.28 287.22 170.28 287.22 120.75 2.86"/><path class="cls-50" d="M120.75,2.86l49.52,284.36h0L120.75,2.86"/><path class="cls-51" d="M120.75,2.86l49.51,284.36h0L120.75,2.86"/><path class="cls-52" d="M120.75,2.86l49.5,284.36h0L120.75,2.86"/><polyline class="cls-51" points="120.75 2.86 170.24 287.22 170.23 287.23 120.75 2.86"/><polyline class="cls-50" points="120.75 2.86 170.23 287.23 170.22 287.23 120.75 2.86"/><polyline class="cls-49" points="120.75 2.86 170.22 287.23 170.21 287.23 120.75 2.86"/><polyline class="cls-48" points="120.75 2.86 170.21 287.23 170.21 287.23 120.75 2.86"/><polyline class="cls-47" points="120.75 2.86 170.21 287.23 170.2 287.23 120.75 2.86"/><polyline class="cls-46" points="120.75 2.86 170.2 287.23 170.2 287.23 120.75 2.86"/><polyline class="cls-41" points="120.75 2.86 170.2 287.23 170.19 287.23 120.75 2.86"/><polyline class="cls-40" points="120.75 2.86 170.19 287.23 170.19 287.23 120.75 2.86"/><polyline class="cls-39" points="120.75 2.86 170.19 287.23 170.18 287.23 120.75 2.86"/><polyline class="cls-38" points="120.75 2.86 170.18 287.23 170.18 287.23 120.75 2.86"/><polyline class="cls-37" points="120.75 2.86 170.18 287.23 170.17 287.23 120.75 2.86"/><polyline class="cls-36" points="120.75 2.86 170.17 287.23 170.17 287.23 120.75 2.86"/><polyline class="cls-35" points="120.75 2.86 170.17 287.23 170.16 287.23 120.75 2.86 120.75 2.86"/><polyline class="cls-34" points="120.75 2.86 170.16 287.23 170.16 287.24 120.75 2.86"/><polyline class="cls-33" points="120.75 2.86 170.16 287.24 170.15 287.24 120.75 2.86"/><polyline class="cls-32" points="120.75 2.86 170.15 287.24 170.15 287.24 120.75 2.86"/><polyline class="cls-31" points="120.75 2.86 170.15 287.24 170.14 287.24 120.75 2.86"/><polyline class="cls-30" points="120.75 2.86 170.14 287.24 170.13 287.24 120.75 2.86"/><path class="cls-29" d="M120.75,2.86l49.38,284.38h0L120.75,2.86"/><path class="cls-28" d="M120.75,2.86l49.37,284.38h0L120.75,2.86"/><path class="cls-27" d="M120.75,2.86,170.1,287.24h0L120.75,2.86"/><path class="cls-26" d="M120.75,2.86l49.32,284.38h0L120.75,2.86"/><path class="cls-25" d="M120.75,2.86,170,287.25h0L120.75,2.86"/><path class="cls-24" d="M120.75,2.86,170,287.25h0L120.75,2.86"/><path class="cls-23" d="M120.75,2.86,170,287.25h0L120.75,2.86"/><path class="cls-22" d="M120.75,2.86,170,287.25h0L120.75,2.86"/><path class="cls-21" d="M120.75,2.86,170,287.25h0L120.75,2.86"/><polyline class="cls-21" points="120.75 2.86 169.94 287.25 169.93 287.25 120.75 2.86"/><polyline class="cls-20" points="120.75 2.86 169.93 287.25 169.92 287.25 120.75 2.86"/><polyline class="cls-19" points="120.75 2.86 169.92 287.25 169.91 287.25 120.75 2.86"/><polyline class="cls-18" points="120.75 2.86 169.91 287.25 169.91 287.25 120.75 2.86"/><polyline class="cls-17" points="120.75 2.86 169.91 287.25 169.9 287.25 120.75 2.86"/><polyline class="cls-16" points="120.75 2.86 169.9 287.25 169.89 287.25 120.75 2.86"/><polyline class="cls-15" points="120.75 2.86 169.89 287.25 169.89 287.25 120.75 2.86"/><polyline class="cls-14" points="120.75 2.86 169.89 287.25 169.88 287.25 120.75 2.86"/><polyline class="cls-13" points="120.75 2.86 169.88 287.25 169.88 287.25 120.75 2.86"/><polyline class="cls-12" points="120.75 2.86 169.88 287.25 169.88 287.24 120.75 2.86"/><polyline class="cls-11" points="120.75 2.86 169.88 287.24 169.87 287.24 120.75 2.86"/><polyline class="cls-10" points="120.75 2.86 169.87 287.24 169.87 287.24 120.75 2.86"/><polyline class="cls-9" points="120.75 2.86 169.87 287.24 169.87 287.24 120.75 2.86 120.75 2.86"/></g></g></g><g class="cls-2"><g class="cls-53"><g class="cls-2"><path class="cls-4" d="M120.75,2.86l49.12,284.38s0,0,.11-.05h0L120.75,2.86"/><path class="cls-5" d="M120.75,2.86,170,287.19h0L120.75,2.86"/><path class="cls-6" d="M120.75,2.86,170,287.18h0L120.75,2.86"/><path class="cls-7" d="M120.75,2.86,170,287.17h0L120.75,2.86"/><path class="cls-8" d="M120.75,2.86l49.31,284.31h0L120.75,2.86"/><path class="cls-9" d="M120.75,2.86l49.33,284.3h0L120.75,2.86"/><path class="cls-10" d="M120.75,2.86l49.35,284.3h0L120.75,2.86"/><path class="cls-11" d="M120.75,2.86l49.37,284.29h0L120.75,2.86"/><path class="cls-12" d="M120.75,2.86l49.39,284.29h0L120.75,2.86"/><path class="cls-13" d="M120.75,2.86l49.41,284.28h0L120.75,2.86"/><path class="cls-14" d="M120.75,2.86l49.43,284.28h0L120.75,2.86"/><path class="cls-15" d="M120.75,2.86,170.2,287.13h0L120.75,2.86"/><path class="cls-16" d="M120.75,2.86l49.47,284.27h0L120.75,2.86"/><path class="cls-17" d="M120.75,2.86l49.49,284.27h0L120.75,2.86"/><path class="cls-18" d="M120.75,2.86l49.51,284.26h0L120.75,2.86"/><path class="cls-19" d="M120.75,2.86l49.53,284.26h0L120.75,2.86"/><path class="cls-20" d="M120.75,2.86,170.3,287.12h0L120.75,2.86"/><path class="cls-21" d="M120.75,2.86l49.56,284.25h0L120.75,2.86"/><path class="cls-21" d="M120.75,2.86l49.58,284.25h0L120.75,2.86"/><polyline class="cls-22" points="120.75 2.86 170.34 287.11 170.35 287.11 120.75 2.86"/><polyline class="cls-23" points="120.75 2.86 170.35 287.11 170.36 287.1 120.75 2.86"/><polyline class="cls-24" points="120.75 2.86 170.36 287.1 170.37 287.1 120.75 2.86"/><polyline class="cls-25" points="120.75 2.86 170.37 287.1 170.37 287.1 120.75 2.86 120.75 2.86"/><polyline class="cls-26" points="120.75 2.86 170.37 287.1 170.38 287.1 120.75 2.86 120.75 2.86"/><polyline class="cls-27" points="120.75 2.86 170.38 287.1 170.39 287.1 120.75 2.86"/><polyline class="cls-28" points="120.75 2.86 170.39 287.1 170.39 287.1 120.75 2.86 120.75 2.86"/><polyline class="cls-29" points="120.75 2.86 170.39 287.1 170.39 287.1 120.75 2.86"/><polyline class="cls-30" points="120.75 2.86 170.39 287.1 170.4 287.1 120.75 2.86"/><polyline class="cls-31" points="120.75 2.86 170.4 287.1 170.4 287.1 120.75 2.86"/><polyline class="cls-32" points="120.75 2.86 170.4 287.1 170.41 287.1 120.75 2.86"/><polyline class="cls-33" points="120.75 2.86 170.41 287.1 170.41 287.1 120.75 2.86"/><polyline class="cls-34" points="120.75 2.86 170.41 287.1 170.42 287.1 120.75 2.86"/><polyline class="cls-35" points="120.75 2.86 170.42 287.1 170.42 287.09 120.75 2.86 120.75 2.86"/><polyline class="cls-36" points="120.75 2.86 170.42 287.09 170.42 287.09 120.75 2.86"/><polyline class="cls-37" points="120.75 2.86 170.42 287.09 170.43 287.09 120.75 2.86"/><polyline class="cls-38" points="120.75 2.86 170.43 287.09 170.43 287.09 120.75 2.86"/><polyline class="cls-39" points="120.75 2.86 170.43 287.09 170.44 287.09 120.75 2.86 120.75 2.86"/><polyline class="cls-40" points="120.75 2.86 170.44 287.09 170.44 287.09 120.75 2.86"/><polyline class="cls-41" points="120.75 2.86 170.44 287.09 170.44 287.09 120.75 2.86"/><polyline class="cls-46" points="120.75 2.86 170.44 287.09 170.45 287.09 120.75 2.86"/><polyline class="cls-47" points="120.75 2.86 170.45 287.09 170.45 287.09 120.75 2.86"/><polyline class="cls-48" points="120.75 2.86 170.45 287.09 170.46 287.09 120.75 2.86 120.75 2.86"/><polyline class="cls-49" points="120.75 2.86 170.46 287.09 170.46 287.09 120.75 2.86"/><path class="cls-50" d="M120.75,2.86l49.71,284.23h0L120.75,2.86"/><path class="cls-51" d="M120.75,2.86l49.73,284.23h0L120.75,2.86"/><path class="cls-52" d="M120.75,2.86l49.74,284.22h0L120.75,2.86"/><polyline class="cls-51" points="120.75 2.86 170.5 287.08 170.51 287.08 120.75 2.86"/><polyline class="cls-50" points="120.75 2.86 170.51 287.08 170.52 287.08 120.75 2.86"/><polyline class="cls-49" points="120.75 2.86 170.52 287.08 170.53 287.08 120.75 2.86"/><polyline class="cls-48" points="120.75 2.86 170.53 287.08 170.53 287.08 120.75 2.86"/><polyline class="cls-47" points="120.75 2.86 170.53 287.08 170.54 287.08 120.75 2.86"/><polyline class="cls-46" points="120.75 2.86 170.54 287.08 170.54 287.07 120.75 2.86"/><polyline class="cls-41" points="120.75 2.86 170.54 287.07 170.55 287.07 120.75 2.86"/><polyline class="cls-40" points="120.75 2.86 170.55 287.07 170.55 287.07 120.75 2.86"/><polyline class="cls-39" points="120.75 2.86 170.55 287.07 170.56 287.07 120.75 2.86"/><polyline class="cls-38" points="120.75 2.86 170.56 287.07 170.56 287.07 120.75 2.86"/><polyline class="cls-37" points="120.75 2.86 170.56 287.07 170.56 287.07 120.75 2.86"/><polyline class="cls-36" points="120.75 2.86 170.56 287.07 170.57 287.07 120.75 2.86"/><polyline class="cls-35" points="120.75 2.86 170.57 287.07 170.57 287.07 120.75 2.86"/><polyline class="cls-34" points="120.75 2.86 170.57 287.07 170.58 287.07 120.75 2.86"/><polyline class="cls-33" points="120.75 2.86 170.58 287.07 170.59 287.07 120.75 2.86"/><polyline class="cls-32" points="120.75 2.86 170.59 287.07 170.59 287.07 120.75 2.86"/><polyline class="cls-31" points="120.75 2.86 170.59 287.07 170.6 287.07 120.75 2.86"/><polyline class="cls-30" points="120.75 2.86 170.6 287.07 170.61 287.07 120.75 2.86"/><path class="cls-29" d="M120.75,2.86l49.86,284.21h0L120.75,2.86h0"/><path class="cls-28" d="M120.75,2.86l49.87,284.21h0L120.75,2.86"/><path class="cls-27" d="M120.75,2.86l49.89,284.2h0L120.75,2.86"/><path class="cls-26" d="M120.75,2.86l49.92,284.2h0l-50-284.2"/><path class="cls-25" d="M120.75,2.86l50,284.2h0l-50-284.2"/><path class="cls-24" d="M120.75,2.86l50,284.2h0l-50-284.19"/><path class="cls-23" d="M120.75,2.86l50,284.19h0l-50-284.19"/><path class="cls-22" d="M120.75,2.86l50,284.19h0l-50-284.19"/><path class="cls-21" d="M120.75,2.86l50,284.19h0L120.75,2.86"/><polyline class="cls-21" points="120.75 2.86 170.79 287.05 170.81 287.05 120.75 2.86"/><polyline class="cls-20" points="120.75 2.86 170.81 287.05 170.82 287.05 120.75 2.86"/><polyline class="cls-19" points="120.75 2.86 170.82 287.05 170.82 287.05 120.75 2.86"/><polyline class="cls-18" points="120.75 2.86 170.82 287.05 170.83 287.05 120.75 2.86"/><polyline class="cls-17" points="120.75 2.86 170.83 287.05 170.84 287.06 120.75 2.86"/><polyline class="cls-16" points="120.75 2.86 170.84 287.06 170.85 287.06 120.75 2.86"/><polyline class="cls-15" points="120.75 2.86 170.85 287.06 170.85 287.06 120.75 2.86"/><polyline class="cls-14" points="120.75 2.86 170.85 287.06 170.86 287.06 120.75 2.86"/><polyline class="cls-13" points="120.75 2.86 170.86 287.06 170.86 287.06 120.75 2.86"/><polyline class="cls-12" points="120.75 2.86 170.86 287.06 170.86 287.06 120.75 2.86"/><polyline class="cls-11" points="120.75 2.86 170.86 287.06 170.87 287.06 120.75 2.86"/><polyline class="cls-10" points="120.75 2.86 170.87 287.06 170.87 287.06 120.75 2.86"/><polyline class="cls-9" points="120.75 2.86 170.87 287.06 170.87 287.07 120.75 2.86"/></g></g></g><g class="cls-2"><g class="cls-54"><g class="cls-2"><path class="cls-4" d="M3.2,169.84C.31,151.1.89,139.19,1.49,133.76A198.53,198.53,0,0,1,5.05,111.4,139,139,0,0,1,12,90.14a146.75,146.75,0,0,1,23-37.8A143.88,143.88,0,0,1,67.57,23.71C77.5,17.68,107.71-.69,151,1a144.94,144.94,0,0,1,82,29.16A143.07,143.07,0,0,1,280,92.1c11.08,27.13,11.48,56.89,8.45,74.13-3.64,20.77-7.59,29.59-8.89,32.49a211.69,211.69,0,0,1-9.89,19.9,144,144,0,0,1-12.78,18.1c-9.47,11-17.44,18.91-32.41,29-14.64,9.81-30.05,14.9-35.85,16.82,50.71-15.36,81.51-77.7,69.23-148C244.34,56.78,183.3-1.75,121.7,3.77c.33-.11.26-.16-.17-.11a8.53,8.53,0,0,0-1.38.25c-.34.1-.26.15.17.11a8.73,8.73,0,0,0,1.38-.25c61.6-5.52,122.64,53,136.2,130.69,12.28,70.34-18.52,132.68-70.13,148.32-19.86,5.83-39.47,7.68-58.28,5.48-29.19-3.4-49.68-14.38-57.14-18.94A148.45,148.45,0,0,1,45.7,249.25c-10.44-10-15.35-17-21.56-26C16,211.62,6.23,189.51,3.2,169.84"/><path class="cls-4" d="M177.85,285.41A102.62,102.62,0,0,0,219,265.78a88.45,88.45,0,0,1-31.18,17l-2.37.69-2.33.65-1.79.46-1.73.43-1.46.34-.53.12.29-.06"/><path class="cls-4" d="M219,265.78h0c30.18-25.89,44.17-58.41,41.59-96.64a176.87,176.87,0,0,0-2.64-34.68C244.34,56.78,183.3-1.75,121.7,3.77a4.15,4.15,0,0,0-1.55.14,4.17,4.17,0,0,0,1.55-.14c61.6-5.52,122.64,53,136.2,130.69a176.87,176.87,0,0,1,2.64,34.68c-.1-2.29-.23-5.36-.33-7.65C244.79,19.16,88.12-15.52,31.15,57.24c-1.71,2.18-3.92,5.14-5.47,7.44C28.33,60.87,32.13,56,35,52.34c2.31-2.55,5.32-6,7.73-8.48l7.71-7.27c2.8-2.27,6.47-5.37,9.36-7.52l7.79-5.36c3.55-2.11,8.3-4.92,11.94-6.86l4.75-2.31a150.12,150.12,0,0,1,19.09-7.31l2.37-.69,2.33-.65,1.79-.46L111.57,5,113,4.66l1.4-.32,1.27-.27,1.23-.25,1.16-.23,1.14-.22,1.13-.2L121.48,3l1.13-.19,1.16-.18L125,2.42l1.25-.17,1.37-.18L129,1.89l1.67-.19,1.76-.17,3.3-.27a156.21,156.21,0,0,1,24.08.3l8.74,1.12c4.31.82,10,2,14.32,3l10,3.06c3.42,1.32,8,3,11.38,4.48L214,18c3,1.75,7,4,10,5.86l9,6.27c2.63,2.16,6.22,4.94,8.77,7.19l8,7.62c2.26,2.53,5.37,5.81,7.53,8.42l6.74,8.84c1.85,2.86,4.43,6.6,6.16,9.54l5.35,9.92c1.4,3.16,3.38,7.33,4.64,10.54l3.78,10.88c1.32,5.09,3,11.9,4.05,17.06l1.55,11.67c.18,3.51.56,8.18.6,11.7L289.73,155c-.38,3.41-.75,8-1.26,11.38l-2.11,11c-.9,3.27-2,7.67-3,10.9l-3.76,10.43C278.22,201.8,276.48,206,275,209l-5.27,9.64c-1.85,2.84-4.21,6.69-6.16,9.46l-6.62,8.64c-2.29,2.57-5.26,6.06-7.64,8.54l-7.68,7.35c-2.76,2.28-6.39,5.4-9.25,7.57l-7.84,5.5c-3.49,2.11-8.15,4.93-11.74,6.87L208,275a151.07,151.07,0,0,1-20.19,7.82,88.45,88.45,0,0,0,31.18-17"/><path class="cls-5" d="M17.16,79.21c59.59-99.81,202.62-47.42,231.22,58,20.66,76.15-21.75,145.53-92.6,151.5l-3.82.21a155.66,155.66,0,0,1-26.43-1.15l-9.31-1.6c-4-1-9.35-2.25-13.31-3.41l-10-3.49c-3.3-1.43-7.74-3.25-11-4.82l-9.58-5.14c-2.9-1.85-6.83-4.23-9.66-6.19l-8.75-6.62c-2.55-2.24-6-5.15-8.48-7.49l-7.68-7.93c-2.17-2.6-5.15-6-7.21-8.69l-6.43-9.11c-1.74-2.94-4.18-6.79-5.81-9.79l-5-10.17c-1.27-3.23-3.1-7.49-4.25-10.77L5.73,181.47C5,178,3.82,173.36,3.2,169.84L1.65,158.17c-.2-3.89-.58-9.09-.61-13l.45-11.42c.4-3.41.81-8,1.35-11.36l2.21-11c.93-3.26,2-7.64,3.09-10.87L12,90.14l1.31-3,3.86-7.88"/><path class="cls-6" d="M7.31,103.2c41.78-115,180.64-77.58,224,10.26,42.8,86.74-6.38,178.54-94,175.41l-4.46-.3c-2.2-.21-5.13-.51-7.33-.79l-9.31-1.6c-4-1-9.35-2.25-13.31-3.41l-10-3.49c-3.3-1.43-7.74-3.25-11-4.82l-9.58-5.14c-2.9-1.85-6.83-4.23-9.66-6.19l-8.75-6.62c-2.55-2.24-6-5.15-8.48-7.49l-7.68-7.93c-2.17-2.6-5.15-6-7.21-8.69l-6.43-9.11c-1.74-2.94-4.18-6.79-5.81-9.79l-5-10.17c-1.27-3.23-3.1-7.49-4.25-10.77L5.73,181.47C5,178,3.82,173.36,3.2,169.84L1.65,158.17c-.2-3.89-.58-9.09-.61-13l.45-11.42c.4-3.41.81-8,1.35-11.36l2.21-11,1-3.86,1.27-4.34"/><path class="cls-7" d="M4.05,116.34c24.31-107.88,158.65-100.9,213.08-13,63.05,101.77-10.5,202.24-102.85,182.46-1.48-.31-3.44-.81-4.91-1.15-5-1.41-11.56-3.61-16.46-5.32-3.3-1.43-7.74-3.25-11-4.82l-9.58-5.14c-2.9-1.85-6.83-4.23-9.66-6.19l-8.75-6.62c-2.55-2.24-6-5.15-8.48-7.49l-7.68-7.93c-2.17-2.6-5.15-6-7.21-8.69l-6.43-9.11c-1.74-2.94-4.18-6.79-5.81-9.79l-5-10.17c-1.27-3.23-3.1-7.49-4.25-10.77L5.73,181.47C5,178,3.82,173.36,3.2,169.84L1.65,158.17c-.2-3.89-.58-9.09-.61-13l.45-11.42.6-6,1.65-10c.1-.43.22-1,.31-1.43"/><path class="cls-8" d="M1.09,142.65C4.93,42,117.68,6.83,192.58,82.88c78.3,79.5,41.87,205.61-59.06,204.45-21.68-.25-39-7.38-44.72-9.72-5-2.3-11.58-5.68-16.45-8.29-2.9-1.85-6.83-4.23-9.66-6.19l-8.75-6.62c-2.55-2.24-6-5.15-8.48-7.49l-7.68-7.93c-2.17-2.6-5.15-6-7.21-8.69l-6.43-9.11c-1.74-2.94-4.18-6.79-5.81-9.79l-5-10.17c-1.27-3.23-3.1-7.49-4.25-10.77L5.73,181.47C5,178,3.82,173.36,3.2,169.84L1.65,158.17l-.53-8.39,0-7.13"/><path class="cls-9" d="M3.87,173.41C-15.62,68.72,84.73,16.41,161.35,65.57c100.47,64.47,79.8,200.31-9.27,218.48-19.82,4-50.92,4-86.49-18.95-3.59-2.44-8.19-6-11.65-8.59-2.55-2.24-6-5.15-8.48-7.49l-7.68-7.93c-2.17-2.6-5.15-6-7.21-8.69l-6.43-9.11c-1.74-2.94-4.18-6.79-5.81-9.79l-5-10.17c-1.27-3.23-3.1-7.49-4.25-10.77L5.73,181.47l-1.29-5.36-.57-2.7"/><path class="cls-10" d="M10.6,196.62C-25.52,96.5,59,26,138.83,60.39,245.21,106.28,247,244.07,164.69,277.77,102.44,303.25,32,255.94,10.6,196.62"/><path class="cls-11" d="M11.08,197.18c-33.32-92.9,41.62-168.26,129.33-130,90.06,39.23,104.93,171.34,23.4,207.89C103.26,302.16,32,255.46,11.08,197.18"/><path class="cls-12" d="M7.79,184.91C-15.65,91.23,69.64,27.85,150.38,79c90.65,57.38,74.3,179.86-5.06,199.4C88,292.45,23.77,248.79,7.79,184.91"/><path class="cls-13" d="M8.8,185.33C-12.26,96.87,64.05,37.24,142.66,80.74c84.27,46.64,85.2,172.37,1.44,195C82.91,292.23,22.21,241.62,8.8,185.33"/><path class="cls-14" d="M10.05,185.71C-10.38,98,67.94,41.81,145.2,88.73c77.62,47.15,75,162.84-4.15,184.76-53.39,14.78-117-27.88-131-87.78"/><path class="cls-15" d="M11.54,186C-7.66,101.65,66.4,48.68,141.45,93.11c73.21,43.36,71.63,156.25-2.5,177.64C81.79,287.23,23.53,238.74,11.54,186"/><path class="cls-16" d="M13.25,186.3C-6.71,96.56,76.6,60.14,133,94.6c84.9,51.89,65,154.05,3.88,173.17C87.08,283.35,25.86,243,13.25,186.3"/><path class="cls-17" d="M15.19,186.53C-.72,113.24,64.45,63.31,129.51,98.94c77,42.19,69.4,144.71,5.26,165.63-48.37,15.78-107.6-22.88-119.58-78"/><path class="cls-18" d="M17.36,186.71C3.21,119.84,59.36,66.8,130.55,106c64.12,35.28,65.44,132.4,2.11,155.1C86,277.82,28.85,241,17.36,186.71"/><path class="cls-19" d="M19.83,186.84c-14.15-69.53,48.49-111.2,111.72-74.3,68.59,40,48.66,137.56-13.14,148-43,7.29-89.1-27.16-98.58-73.73"/><path class="cls-20" d="M22.64,186.92C9.37,119.8,70,82.36,132.55,119c56.16,32.9,44.75,126.91-16.73,137.8-40.13,7.1-84.54-26.21-93.18-69.9"/><path class="cls-21" d="M25.71,187C13.52,123.42,72.87,88.73,133.34,124c48.85,28.52,34.69,118.65-20.21,128.6C75.29,259.48,33.62,228.18,25.71,187"/><path class="cls-21" d="M29.23,186.92c-11.12-63,53-88.5,104.85-58.23,48.14,28.1,22.95,110.45-23.62,119.43-39,7.52-75-26.11-81.23-61.2"/><path class="cls-22" d="M33.42,186.81c-11.27-66.64,62.43-78.69,101.42-53.43,29.6,19.18,22.09,51.05,22,51.37-7.69,31-27,53.82-49.22,58.21C75.44,249.31,39.37,222,33.42,186.81"/><path class="cls-23" d="M38,186.62c-.06-.37-5.73-37.16,24.71-52.67,6.84-3.48,42.48-19.71,72.77,3,47.94,36-3.6,94.49-30.7,100.21-22.49,4.74-60.6-13-66.78-50.56"/><path class="cls-24" d="M43.93,186.29C39.44,151.86,65.42,139,79.38,132c.12-.06,12.94-6.26,35.87-2.81,1.75.27,13.28,5.69,20.77,11.33,41.36,31.14-4.17,83.73-34.32,90-28.5,6-54.46-18.92-57.77-44.3"/><path class="cls-25" d="M50.93,175.69c.39-20.65,22.16-37.14,28.72-39.31,21.15-7,21.15-7,35.95-4.48.13,0,19.11,9.37,23.66,14.6,20.75,23.79,5.78,43.93,5.62,44.14-14.44,18.86-14.44,18.86-30.76,26.93-7,3.45-16.56,8.19-32.68,4.43-.14,0-17.11-8-22-15.38-8.84-13.42-8.7-21.15-8.52-30.93"/><path class="cls-26" d="M58.55,171.46,64.75,157c3.41-5.11,9.29-10.93,13.67-15.24,1.14-1.11,18.71-8.3,18.83-8.31s15-1,21.74,2.62c18.51,10,22.21,13.31,26.37,23.42,4.33,10.52,2.54,15.47-1.39,26.32-1.2,3.34-14.93,19-15,19.09-9,6.72-27.73,16.42-52,5.76-6.81-3-22.77-19.56-18.36-39.18"/><path class="cls-27" d="M66.45,171.34c-1.34-23.8,23-32.44,31.07-35.28l18.77,1a53,53,0,0,1,18,10.32c3.4,3.09,7.64,8.08,8.81,12.52,3.23,12.31,2.8,13.47,0,21-2.54,6.84-4.07,11-14.95,20.58-1.27,1.12-3.83,1-5.37,1.71-3.47,1.53-7.6,4.81-11.29,5.65-.1,0-13.81,1.07-21.18-1.22-5.78-1.8-12.46-6.84-17.12-10.72-3.24-2.7-5.33-8.44-6.4-12.53-1-3.77-.09-9.11-.31-13"/><path class="cls-28" d="M69.44,170.35c.26-4.43.81-11,3.78-14.31,5-5.56,11.19-12.48,24.59-17.33l18.72.09c5.19,1.37,11.53,5.3,15.49,8.91l8.75,12.55c1.56,3.79,1.39,9.48,2,13.55.09.66-4.19,12-5.05,14.21-1.62,4.24-6.21,8.91-10.08,11.27-4.64,2.83-11.89,4.85-17.3,5.45a55.34,55.34,0,0,1-18.61-1.61,37.28,37.28,0,0,1-12.38-6.92c-7.57-6.37-10.2-20.2-9.88-25.86"/><path class="cls-29" d="M72.54,170c.37-4.58,2-11,5-14.48,7.17-8.25,20.37-14.83,20.49-14.88,5.25-2,13.28-1.34,18.76-.06,4.37,1,9.64,4.48,13,7.49,13.51,12.19,10.93,25.95,10.89,26.08-5.86,15.9-5.86,15.9-13.55,22.93-4,3.7-11.94,5.2-17.41,5.42-.15,0-19.16-2.72-24.09-7-6-5.21-14.11-12.34-13.07-25.47"/><path class="cls-30" d="M81.6,155.51c.59-1.38,16.5-13,16.64-13.06,5.29-2,13.19-.61,18.8-.06,9.47.91,19.92,18.32,20,18.49,1.57,3.8,3,9.66,1.77,13.59-.05.14-5.33,15.33-12.18,20.41-4.42,3.27-12,5.4-17.51,5.39s-12.83-3-17.8-5.49c-1.46-.75-12.43-10.94-12.62-11.73-1-4-3.45-9.3-3-13.39.48-4.58,4.1-9.92,5.92-14.15"/><path class="cls-31" d="M82.34,160.79c.76-1.85,1.16-4.73,2.55-6.16,3.58-3.67,8.93-8.19,13.56-10.39,5.11-2.43,13.2-.1,18.86-.06,6.08,0,17.49,15.7,18,17,1.6,3.79,2.74,9.67,1.59,13.61,0,.12-6.54,14.29-10.81,17.88S114,197.72,108.52,198c-3.91.2-9-2-12.48-3.83-4.79-2.46-11.7-6.56-13.75-11.54-4.47-10.9-4.47-10.9,0-21.84"/><path class="cls-32" d="M83.17,166.09c1.45-3.56,2.48-8.82,4.83-11.86s6.66-7.82,10.68-8.19c5.64-.52,13.71-2.34,18.9,0,8.89,3.91,16,15.35,16.08,15.45,1.63,3.78,2.51,9.68,1.42,13.64,0,.08-8.69,14.59-9.44,15.32-4,3.87-12.2,4.61-17.7,5.31-2.22.28-5.12-1.16-7.12-2.17-.11-.06-14.38-10.58-14.88-11.36-.06-.08-5.29-9.85-2.77-16.09"/><path class="cls-33" d="M91.13,153.82c1.83-2.31,4.91-5.33,7.78-6a51.75,51.75,0,0,1,18.94-.05c3.79.74,14.06,13.81,14.12,13.93a23.82,23.82,0,0,1,1.25,13.66c-1.13,4.44-5.07,9.48-8,13-.08.1-16.2,6.05-19.55,4.53-5.58-2.54-15.1-5.25-17.24-11C87,178,84.27,172.7,84.67,168.57c.46-4.81,3.46-11,6.46-14.75"/><path class="cls-34" d="M94.29,153.39c1.18-1.41,3-3.45,4.86-3.74,5.63-.89,13.44-1.37,19-.05.77.19,12.1,12.29,12.15,12.39,1.7,3.76,2,9.67,1.08,13.69-.83,3.67-4.23,7.73-6.58,10.67-3.48,4.36-12.39,5.7-17.92,5s-14.31-4.37-16.09-9.72c-1.31-4-4.54-9.14-4-13.27.62-5,4.32-11.07,7.55-14.92"/><path class="cls-35" d="M97.46,153c.48-.55,1.21-1.46,1.94-1.5,5.72-.29,14.44-2.91,19.09.43,3.53,2.53,8.3,6.42,10.11,10.38,1.71,3.75,1.89,9.71.91,13.71-.7,2.86-2.59,6.88-5.14,8.35-4.85,2.79-12.44,5.71-18,4.95-4.6-.63-10.28-4.43-13.24-8-2.66-3.22-4.77-9.07-4.33-13.22.57-5.19,5.19-11.18,8.64-15.09"/><path class="cls-36" d="M99.7,153.5c5.09-2.67,14.7-2.86,19.17.78,2.68,2.18,6.76,5,8,8.26a25.23,25.23,0,0,1,.74,13.73c-.51,2.06-1.81,5.07-3.7,6-5,2.53-12.47,5.73-18,4.95-3.61-.51-8.17-3.41-10.4-6.29-2.55-3.32-5.09-9-4.61-13.18.57-5,4.32-11.94,8.78-14.28"/><path class="cls-37" d="M100.07,156c5.09-2.7,14.69-2.93,19.19.66,2,1.61,5.17,3.7,6,6.13a27.71,27.71,0,0,1,.57,13.77c-.32,1.25-1.06,3.17-2.26,3.68-5.17,2.2-12.5,5.74-18.07,5a12.7,12.7,0,0,1-7.53-4.57c-2.42-3.45-5.35-9-4.92-13.14.42-4,3.47-9.6,7-11.49"/><path class="cls-38" d="M100.45,158.51c5.07-2.73,14.66-3,19.21.57,1.32,1,3.5,2.36,3.89,4,1,4,1.46,9.78.41,13.79-.12.45-.38,1.18-.82,1.33-5.35,1.78-12.54,5.75-18.12,5a7.44,7.44,0,0,1-4.67-2.84c-2.23-3.59-5.61-8.88-5.21-13.09.28-3.05,2.62-7.25,5.31-8.71"/><path class="cls-39" d="M100.85,161c5.07-2.76,14.15-2.3,19.22.45,3,1.62,3.4,8,2,11.09-1.1,2.4-4.4,4.45-6.77,5.6-3,1.46-7.42,3.38-10.71,2.9a2.68,2.68,0,0,1-1.81-1.09c-2-3.78-5.86-8.82-5.51-13a8.44,8.44,0,0,1,3.59-5.9"/><path class="cls-40" d="M101.27,163.54c4.47-2.45,11.91.27,17,.34-4.4,3.77-9,13.85-14.66,12.54-3.12-.72-4.46-6.59-4.24-9.78a4.34,4.34,0,0,1,1.88-3.1"/><path class="cls-41" d="M101.7,166.06c.39-.21,1,0,1.51,0-.39.34-.81,1.25-1.31,1.13-.28-.07-.39-.6-.37-.89a.4.4,0,0,1,.17-.28"/></g></g></g><g class="cls-2"><g class="cls-55"><g class="cls-2"><path class="cls-43" d="M188.06,283.73a148.69,148.69,0,0,1-40,6.33,141.57,141.57,0,0,1-40.19-4.82c-13.15-3.95-25.29-8-40.8-18a146.33,146.33,0,0,1-33.94-30C3,201.79-14.22,139.63,15.27,80.6,28.48,54.17,48.49,33.22,74.75,18.36A145.64,145.64,0,0,1,115.6,3.12,149.35,149.35,0,0,1,156.92.41a143.16,143.16,0,0,1,41.2,9.29c20,8,29.92,15.57,39.48,22.89,5.2,4,31.84,25.83,45.31,64.35a145.17,145.17,0,0,1-41.47,157.15c-17.33,14.61-31.74,22.63-53.15,29.57a88.75,88.75,0,0,1-17.53,3.46c.17-.06.13-.08-.09-.06a4.46,4.46,0,0,0-.69.13c-.17.05-.13.08.08.06a5.86,5.86,0,0,0,.7-.13,88.17,88.17,0,0,0,17.3-3.39"/><path class="cls-4" d="M260.61,233.56C189.37,318.22,39.53,250.75,28.24,128.92c-5.6-60.49,29.33-112,84.93-125.27l2.43-.53,1.22-.25L118,2.64l1.12-.21,1.11-.2,1.1-.2,1.12-.18,1.14-.18,1.19-.18L126,1.32l1.36-.18L128.78,1l1.66-.18L132.2.6l3.58-.28a156.65,156.65,0,0,1,29.28.91l9.38,1.57c4.08,1,9.53,2.26,13.56,3.41L198.12,9.7c3.35,1.44,7.86,3.27,11.14,4.85l9.7,5.16c2.94,1.86,6.92,4.25,9.79,6.23l8.85,6.65c2.58,2.27,6.09,5.19,8.58,7.55l7.77,8c2.19,2.63,5.21,6,7.3,8.77l6.5,9.18c1.76,3,4.23,6.85,5.87,9.88l5,10.25c1.29,3.26,3.14,7.55,4.29,10.86l3.41,11.19c.76,3.52,1.92,8.19,2.54,11.74l1.57,11.77c.19,3.8.58,8.86.61,12.67L290.66,156c-.4,3.45-.8,8.06-1.34,11.48l-2.21,11.1c-.92,3.3-2,7.72-3.09,11L280.15,200c-1.42,3.1-3.2,7.28-4.73,10.32L270,220l-3.77,5.89-5.33,7.25-.32.4"/><path class="cls-5" d="M274.76,211.42C214,313,71.86,260.69,41.61,153,20.47,77.66,64.11,6.35,135,.37l3.81-.22a158,158,0,0,1,26.25,1.08l9.38,1.57c4.08,1,9.53,2.26,13.56,3.41L198.12,9.7c3.35,1.44,7.86,3.27,11.14,4.85l9.7,5.16c2.94,1.86,6.92,4.25,9.79,6.23l8.85,6.65c2.58,2.27,6.09,5.19,8.58,7.55l7.77,8c2.19,2.63,5.21,6,7.3,8.77l6.5,9.18c1.76,3,4.23,6.85,5.87,9.88l5,10.25c1.29,3.26,3.14,7.55,4.29,10.86l3.41,11.19c.76,3.52,1.92,8.19,2.54,11.74l1.57,11.77c.19,3.8.58,8.86.61,12.67L290.66,156c-.4,3.45-.8,8.06-1.34,11.48l-2.21,11.1c-.92,3.3-2,7.72-3.09,11L280.15,200l-1.42,3.33-4,8.08"/><path class="cls-6" d="M284.72,187.22c-42.11,115.47-181.87,77.84-225.46-10.4C16,89.25,65.8-3.16,154.42.25l4.47.31c1.85.19,4.33.44,6.17.67l9.38,1.57c4.08,1,9.53,2.26,13.56,3.41L198.12,9.7c3.35,1.44,7.86,3.27,11.14,4.85l9.7,5.16c2.94,1.86,6.92,4.25,9.79,6.23l8.85,6.65c2.58,2.27,6.09,5.19,8.58,7.55l7.77,8c2.19,2.63,5.21,6,7.3,8.77l6.5,9.18c1.76,3,4.23,6.85,5.87,9.88l5,10.25c1.29,3.26,3.14,7.55,4.29,10.86l3.41,11.19c.76,3.52,1.92,8.19,2.54,11.74l1.57,11.77c.19,3.8.58,8.86.61,12.67L290.66,156c-.4,3.45-.8,8.06-1.34,11.48l-2.21,11.1L286,182.73l-1.32,4.49"/><path class="cls-7" d="M288,174c-24.48,108.41-159.71,101.39-214.48,13.1C10.09,84.79,84.11-16.39,177.05,3.37c1.48.31,3.44.81,4.92,1.15C186.87,5.9,193.31,8,198.12,9.7c3.35,1.44,7.86,3.27,11.14,4.85l9.7,5.16c2.94,1.86,6.92,4.25,9.79,6.23l8.85,6.65c2.58,2.27,6.09,5.19,8.58,7.55l7.77,8c2.19,2.63,5.21,6,7.3,8.77l6.5,9.18c1.76,3,4.23,6.85,5.87,9.88l5,10.25c1.29,3.26,3.14,7.55,4.29,10.86l3.41,11.19c.76,3.52,1.92,8.19,2.54,11.74l1.57,11.77c.19,3.8.58,8.86.61,12.67L290.66,156,290,162.4l-1.67,10L288,174"/><path class="cls-8" d="M291,147.43c-4,103.44-115.64,138.35-192.71,60.25C19.25,127.53,55.85.53,157.66,1.78,179.41,2,196.42,9,202.82,11.61c4.93,2.25,11.36,5.55,16.14,8.1,2.94,1.86,6.92,4.25,9.79,6.23l8.85,6.65c2.58,2.27,6.09,5.19,8.58,7.55l7.77,8c2.19,2.63,5.21,6,7.3,8.77l6.5,9.18c1.76,3,4.23,6.85,5.87,9.88l5,10.25c1.29,3.26,3.14,7.55,4.29,10.86l3.41,11.19c.76,3.52,1.92,8.19,2.54,11.74l1.57,11.77.53,8.43,0,7.23"/><path class="cls-9" d="M288.23,116.4c20.15,108.27-80.14,158.78-158.36,108.72-101.55-65-80.82-201.8,9.12-220,19.95-4.05,51.3-4,87.28,19.19,3.49,2.37,8,5.8,11.33,8.33,2.58,2.27,6.09,5.19,8.58,7.55l7.77,8c2.19,2.63,5.21,6,7.3,8.77l6.5,9.18c1.76,3,4.23,6.85,5.87,9.88l5,10.25c1.29,3.26,3.14,7.55,4.29,10.86l3.41,11.19,1.3,5.42.57,2.72"/><path class="cls-10" d="M281.43,93C318.87,196.62,234,265.35,152.34,230.22,53.21,187.55,36.67,48.5,126.32,11.41,183.53-12.25,257.46,26.63,281.43,93"/><path class="cls-11" d="M281,92.42c33.58,93.5-41.86,169.41-130.2,131C60,184,45,51,127.2,14.2c61-27.3,132.71,19.64,153.75,78.22"/><path class="cls-12" d="M284.28,104.79C307.91,199.18,222,263,140.7,211.53,49.54,153.8,66,30.53,145.83,10.84c57.66-14.23,122.36,29.68,138.45,94"/><path class="cls-13" d="M283.25,104.37c22.92,96.14-64.4,147.78-135.69,104.85-91.11-54.87-77.7-175.49.46-196C203.92-1.48,268.38,42,283.25,104.37"/><path class="cls-14" d="M282,104c20.57,88.25-58.27,144.85-136.08,97.67C67.74,154.26,70.38,37.84,150.14,15.74,203.87.86,268,43.75,282,104"/><path class="cls-15" d="M280.5,103.67c19.34,84.92-55.13,138.33-130.63,93.69C76,153.67,77.51,40,152.26,18.51,209.79,2,268.44,50.7,280.5,103.67"/><path class="cls-16" d="M278.78,103.39c20.1,90.29-63.66,127.08-120.37,92.48-87.56-53.43-67.18-154.61-4-174.36,50.09-15.68,111.72,24.88,124.41,81.88"/><path class="cls-17" d="M276.82,103.17c16,73.77-49.58,124.07-115.1,88.22C84,148.87,91.73,45.71,156.46,24.72c49.61-16.08,108.1,22,120.36,78.45"/><path class="cls-18" d="M274.64,103c14.27,67.31-42.27,120.73-114,81.31-64.6-35.51-65.9-133.23-2.08-156.06,47-16.81,104.49,20.21,116,74.75"/><path class="cls-19" d="M272.15,102.85c14.28,70-48.8,112-112.48,74.86-69-40.29-48.94-138.43,13.27-149,43.31-7.33,89.67,27.3,99.21,74.1"/><path class="cls-20" d="M269.32,102.77c13.39,67.61-47.63,105.33-110.66,68.41-56.52-33.11-45-127.7,16.9-138.64,40.38-7.14,85.07,26.33,93.76,70.23"/><path class="cls-21" d="M266.23,102.74c12.31,64-47.45,99-108.36,63.4-50.71-29.6-36.61-119.09,20.38-129.4,38.08-6.89,80,24.57,88,66"/><path class="cls-21" d="M262.69,102.77c11.23,63.5-53.34,89.17-105.57,58.68C108.67,133.16,134.07,50.31,181,41.29c39.23-7.55,75.51,26.23,81.74,61.48"/><path class="cls-22" d="M258.47,102.88c10.76,63.45-58.66,82-102.12,53.83-29.34-19-22.22-51.46-22.14-51.79,7.73-31.1,27.19-54,49.57-58.46,32.39-6.38,68.69,21,74.69,56.42"/><path class="cls-23" d="M253.91,103.07c.06.38,5.79,37.44-24.87,53.07-6.89,3.51-42.77,19.86-73.28-3-48.25-36.21,3.66-95.09,31-100.83,22.62-4.76,61,13.07,67.2,50.79"/><path class="cls-24" d="M247.89,103.41c4.55,34.68-21.63,47.68-35.69,54.67-1.3.65-13.43,6.25-36.12,2.84-1.76-.27-13.36-5.74-20.91-11.43-41.61-31.32,4.23-84.25,34.57-90.6,28.67-6,54.8,19,58.15,44.52"/><path class="cls-25" d="M240.84,114.09c-.38,20.79-22.31,37.42-28.92,39.6-21.27,7.05-21.27,7.05-36.19,4.52-.13,0-19.21-9.42-23.8-14.68-20.58-23.6-5.84-44.26-5.69-44.46,14.48-18.92,14.48-18.92,31-27.07,5.41-2.67,16.68-8.24,32.9-4.49.14,0,17.09,7.84,22.15,15.51,8.88,13.46,8.74,20.85,8.56,31.07"/><path class="cls-26" d="M233.17,118.37,226.92,133c-3.46,5.16-9.44,11-13.87,15.38-1.14,1.12-18.73,8.29-18.85,8.31s-15.19,1-21.8-2.6c-18.71-10.14-22.44-13.45-26.63-23.63-9.71-23.59,16.28-45.48,16.55-45.68,5.68-4.25,26.27-17.23,52.37-5.82,6.86,3,22.92,19.66,18.48,39.43"/><path class="cls-27" d="M225.21,118.47c1.36,23.95-23.21,32.67-31.28,35.54L175,153.07A53.39,53.39,0,0,1,157,142.68c-3.42-3.12-7.7-8.15-8.88-12.64-3.26-12.38-2.17-15.31,0-21.15,2.56-6.91,4.11-11.08,15.05-20.74,1.37-1.21,4.13-1.12,5.8-1.85,3.37-1.49,7.39-4.7,11-5.52.1,0,14.31-1,21.07,1.15,5.88,1.82,12.72,6.85,17.45,10.79,3.27,2.72,5.39,8.52,6.47,12.64,1,3.8.1,9.18.32,13.11"/><path class="cls-28" d="M222.2,119.48c-.26,4.48-.83,11.11-3.82,14.45-5,5.57-11.21,12.5-24.74,17.4l-18.85-.06c-5.21-1.37-11.59-5.33-15.56-9l-8.84-12.66c-1.57-3.83-1.41-9.57-2-13.67,0-.18-.09-.64,5.12-14.35,1.61-4.25,6.22-8.93,10.1-11.29,4.68-2.85,12-4.89,17.42-5.49a55.69,55.69,0,0,1,18.75,1.64c4.1,1.12,9.13,4.17,12.39,6.91,7.67,6.46,10.34,20.4,10,26.08"/><path class="cls-29" d="M219.07,119.83c-.36,4.62-2,11.1-5,14.61-7.18,8.28-20.48,14.91-20.6,14.95-5.29,2-13.37,1.36-18.88.08-4.41-1-9.7-4.5-13-7.53-13.62-12.3-11-26.19-11-26.32,5.87-16,5.87-16,13.62-23.07,4.06-3.72,12-5.24,17.53-5.46.16,0,19.37,2.86,24.16,7,6.37,5.57,14.3,12.51,13.25,25.69"/><path class="cls-30" d="M210,134.42c-.65,1.52-16.62,13.12-16.75,13.17-5.32,2-13.28.62-18.93.07-9.53-.92-20.05-18.47-20.13-18.64-1.58-3.84-3-9.75-1.77-13.71.05-.15,5.47-15.48,12.25-20.52,4.44-3.31,12.1-5.44,17.63-5.43s12.85,2.94,17.83,5.49c1.58.8,12.57,11,12.79,11.82,1,4,3.47,9.38,3,13.52-.49,4.6-4.13,10-6,14.23"/><path class="cls-31" d="M209.21,129.09c-.77,1.88-1.18,4.8-2.59,6.26-3.59,3.69-9,8.21-13.63,10.42-5.14,2.45-13.28.12-19,.08-6.12,0-17.61-15.82-18.15-17.12-1.62-3.82-2.76-9.75-1.6-13.73,0-.12,6.56-14.33,10.87-18s12.18-5.1,17.73-5.39c3.9-.21,9,2,12.45,3.81,4.85,2.48,11.85,6.6,13.93,11.64,4.53,11,4.53,11,0,22"/><path class="cls-32" d="M208.37,123.75c-1.46,3.61-2.52,8.93-4.89,12s-6.68,7.84-10.71,8.21c-5.69.52-13.81,2.37-19,.07-9-3.94-16.14-15.47-16.18-15.58-1.65-3.81-2.53-9.76-1.42-13.76,0-.08,8.84-14.75,9.48-15.38,4-3.91,12.29-4.64,17.82-5.35,2.19-.29,5.07,1.15,7,2.14.11.05,14.58,10.66,15.09,11.44.05.09,5.54,9.46,2.8,16.21"/><path class="cls-33" d="M200.31,136.17c-1.83,2.3-4.91,5.32-7.78,6a52,52,0,0,1-19.07.07c-3.81-.74-14.15-13.91-14.2-14A24.09,24.09,0,0,1,158,114.38c1.13-4.45,5.1-9.5,8.05-13,.08-.1,16.55-6,19.54-4.61,5.66,2.56,15.31,5.27,17.48,11.09,1.46,3.92,4.19,9.26,3.78,13.43-.47,4.85-3.51,11.07-6.55,14.89"/><path class="cls-34" d="M197.13,136.6c-1.18,1.4-3,3.43-4.84,3.72-5.66.89-13.53,1.41-19.11.07C172.41,140.2,161,128,161,127.9c-5.07-11.24,2.63-20.88,5.52-24.51,3.51-4.39,12.48-5.74,18-5s14.4,4.38,16.17,9.76c1.32,4,4.61,9.21,4.08,13.38-.63,5-4.38,11.18-7.64,15.06"/><path class="cls-35" d="M193.92,137c-.47.53-1.17,1.41-1.89,1.45-5.75.28-14.54,3-19.21-.41-3.54-2.56-8.35-6.47-10.16-10.46-1.73-3.78-1.89-9.8-.9-13.84.71-2.86,2.59-6.89,5.15-8.35,4.88-2.81,12.51-5.76,18.09-5,4.62.63,10.32,4.44,13.29,8,2.69,3.24,4.84,9.15,4.38,13.34-.56,5.24-5.26,11.28-8.75,15.23"/><path class="cls-36" d="M191.74,136.41c-5.13,2.7-14.81,2.92-19.3-.74-2.7-2.2-6.8-5.08-8.09-8.32a25.64,25.64,0,0,1-.72-13.87c.52-2,1.8-5,3.69-6,5.05-2.54,12.56-5.78,18.15-5,3.62.5,8.18,3.4,10.41,6.29,2.58,3.35,5.16,9.1,4.68,13.3-.56,5-4.35,12-8.82,14.33"/><path class="cls-37" d="M191.36,133.9c-5.12,2.71-14.79,3-19.32-.65-2-1.61-5.19-3.71-6-6.17a28,28,0,0,1-.55-13.89c.32-1.24,1.06-3.14,2.24-3.64,5.21-2.21,12.59-5.79,18.19-5a12.64,12.64,0,0,1,7.52,4.56c2.44,3.47,5.43,9,5,13.25-.41,4-3.49,9.64-7.08,11.54"/><path class="cls-38" d="M191,131.37c-5.11,2.76-14.77,3-19.34-.55-1.32-1-3.51-2.37-3.9-4-1-4.07-1.44-9.88-.37-13.92.11-.43.35-1.13.78-1.27,5.39-1.78,12.62-5.8,18.24-5a7.33,7.33,0,0,1,4.62,2.81c2.25,3.63,5.7,9,5.31,13.2-.29,3.06-2.64,7.28-5.34,8.73"/><path class="cls-39" d="M190.57,128.85c-5.1,2.77-14.22,2.28-19.35-.45-2.93-1.57-3.35-7.89-1.95-10.91,2.48-5.34,11.73-9.59,17.56-8.77,3.4.49,7.36,14.08,7.35,14.21a8.49,8.49,0,0,1-3.61,5.92"/><path class="cls-40" d="M190.16,126.32c-4.47,2.44-11.89-.27-17-.35,4.4-3.71,9.05-13.69,14.66-12.38,3.07.72,4.41,6.49,4.2,9.64a4.39,4.39,0,0,1-1.87,3.09"/><path class="cls-41" d="M189.72,123.78c-.36.2-1,0-1.37,0,.35-.3.73-1.12,1.19-1,.25.06.35.54.34.8a.36.36,0,0,1-.16.25"/></g></g></g></g></g></g></svg>